<?xml version="1.0" encoding="UTF-8"?>
<!DOCTYPE svg PUBLIC "-//W3C//DTD SVG 1.1 Tiny//EN" "http://www.w3.org/Graphics/SVG/1.1/DTD/svg11-tiny.dtd">
<svg baseProfile="tiny" version="1.1" xmlns="http://www.w3.org/2000/svg" xmlns:xlink="http://www.w3.org/1999/xlink" x="0px" y="0px" width="320px" height="210px" viewBox="-9 14 320 210">
<path fill-opacity="0.4" stroke-opacity="0.4" d="M150.999,188.197c-38.155,0-69.195-31.039-69.195-69.195  c0-38.154,31.04-69.196,69.195-69.196c38.155,0,69.194,31.042,69.194,69.196C220.193,157.158,189.154,188.197,150.999,188.197  L150.999,188.197z"/>
<linearGradient id="SVGID_1_" gradientUnits="userSpaceOnUse" x1="336.9785" y1="-63.1782" x2="336.9785" y2="-201.4114" gradientTransform="matrix(1 0 0 -1 -185.98 -13.5195)">
<stop offset="0" style="stop-color:#DCDCDC"/>
<stop offset="0.6" style="stop-color:#C0C0C0"/>
<stop offset="1" style="stop-color:#A7A7A7"/>
</linearGradient>
<circle fill="url(#SVGID_1_)" cx="150.999" cy="119.002" r="68.555"/>
<path fill-opacity="0.4" stroke-opacity="0.4" fill="#FFFFFF" d="M150.999,50.447c-37.862,0-68.556,30.691-68.556,68.555  c0,37.861,30.693,68.555,68.556,68.555c37.862,0,68.556-30.693,68.556-68.555C219.555,81.139,188.861,50.447,150.999,50.447z   M150.999,186.916c-37.448,0-67.914-30.467-67.914-67.914c0-37.449,30.466-67.915,67.914-67.915  c37.446,0,67.914,30.466,67.914,67.915C218.913,156.449,188.445,186.916,150.999,186.916z"/>
<path fill="#E5E5E5" d="M150.999,181.791c-34.622,0-62.789-28.166-62.789-62.789s28.167-62.789,62.789-62.789  s62.788,28.166,62.788,62.789S185.621,181.791,150.999,181.791L150.999,181.791z"/>
<linearGradient id="SVGID_2_" gradientUnits="userSpaceOnUse" x1="336.9795" y1="-194.0273" x2="336.9795" y2="-71.0137" gradientTransform="matrix(1 0 0 -1 -185.98 -13.5195)">
<stop offset="0" style="stop-color:#FFFFFF"/>
<stop offset="0.4121" style="stop-color:#DCDCDC"/>
<stop offset="0.9455" style="stop-color:#CBCBCB"/>
<stop offset="1" style="stop-color:#CBCBCB"/>
</linearGradient>
<circle fill="url(#SVGID_2_)" cx="150.999" cy="119.001" r="61.507"/>
<path fill-opacity="0.5" stroke-opacity="0.5" d="M150.999,57.494c-33.971,0-61.508,27.538-61.508,61.508  c0,33.969,27.537,61.506,61.508,61.506c33.97,0,61.508-27.537,61.508-61.506C212.507,85.032,184.969,57.494,150.999,57.494z   M150.999,179.875c-33.565,0-60.874-27.307-60.874-60.873c0-33.565,27.309-60.873,60.874-60.873  c33.565,0,60.876,27.308,60.876,60.873C211.875,152.568,184.564,179.875,150.999,179.875z"/>
<linearGradient id="SVGID_3_" gradientUnits="userSpaceOnUse" x1="336.9795" y1="-186.9824" x2="336.9795" y2="-78.0605" gradientTransform="matrix(1 0 0 -1 -185.98 -13.5195)">
<stop offset="0" style="stop-color:#B4B4B4"/>
<stop offset="1" style="stop-color:#A0A0A0"/>
</linearGradient>
<circle fill="url(#SVGID_3_)" cx="150.999" cy="119.002" r="54.461"/>
<linearGradient id="SVGID_4_" gradientUnits="userSpaceOnUse" x1="336.9785" y1="-79.3413" x2="336.9785" y2="-185.6992" gradientTransform="matrix(1 0 0 -1 -185.98 -13.5195)">
<stop offset="0" style="stop-color:#FFFFFF"/>
<stop offset="0.9455" style="stop-color:#CBCBCB"/>
<stop offset="1" style="stop-color:#CBCBCB"/>
</linearGradient>
<path fill="url(#SVGID_4_)" d="M150.999,172.18c-29.323,0-53.179-23.854-53.179-53.178c0-29.323,23.855-53.18,53.179-53.18  c29.323,0,53.179,23.857,53.179,53.18C204.178,148.325,180.322,172.18,150.999,172.18L150.999,172.18z"/>
<circle fill="#C8C8C8" cx="150.999" cy="119.002" r="1.922"/>
<path fill="none" d="M150.999,172.18c-29.323,0-53.179-23.854-53.179-53.178c0-29.323,23.855-53.18,53.179-53.18  c29.323,0,53.179,23.857,53.179,53.18C204.178,148.325,180.322,172.18,150.999,172.18L150.999,172.18z"/>
<circle fill="#646464" cx="150.999" cy="69.026" r="1.923"/>
<path fill="#646464" d="M147.145,73.971h-0.028l-1.643,0.887l-0.248-0.975l2.065-1.104h1.09v9.45h-1.236V73.971z"/>
<path fill="#646464" d="M150.738,82.229v-0.786l1.002-0.975c2.412-2.295,3.52-3.517,3.52-4.942c0-0.96-0.451-1.847-1.861-1.847  c-0.856,0-1.57,0.438-2.005,0.801l-0.41-0.9c0.642-0.539,1.587-0.96,2.662-0.96c2.035,0,2.894,1.395,2.894,2.747  c0,1.744-1.265,3.155-3.256,5.074l-0.741,0.697v0.03h4.23v1.061H150.738z"/>
<circle fill="#646464" cx="175.986" cy="75.723" r="1.922"/>
<circle fill="#646464" cx="194.277" cy="94.014" r="1.921"/>
<circle fill="#646464" cx="200.975" cy="119.002" r="1.922"/>
<path fill="#646464" d="M191.912,122.219c0.357,0.215,1.171,0.572,2.061,0.572c1.6,0,2.113-1.016,2.102-1.803  c-0.014-1.301-1.188-1.859-2.402-1.859h-0.699v-0.943h0.699c0.915,0,2.074-0.473,2.074-1.573c0-0.743-0.473-1.401-1.633-1.401  c-0.743,0-1.459,0.329-1.858,0.613l-0.344-0.914c0.5-0.357,1.444-0.715,2.446-0.715c1.83,0,2.66,1.087,2.66,2.217  c0,0.971-0.588,1.788-1.717,2.202v0.028c1.145,0.215,2.061,1.072,2.072,2.375c0,1.486-1.172,2.789-3.391,2.789  c-1.043,0-1.957-0.33-2.416-0.629L191.912,122.219z"/>
<path fill="#646464" d="M194.277,142.066c1.063,0,1.924,0.861,1.924,1.924c0,1.059-0.861,1.922-1.924,1.922  c-1.062,0-1.922-0.863-1.922-1.922C192.355,142.928,193.217,142.066,194.277,142.066z"/>
<rect x="183.879" y="133.423" transform="matrix(0.5006 -0.8657 0.8657 0.5006 -27.6308 229.1995)" fill="#646464" width="1.923" height="10.251"/>
<path fill="#646464" d="M175.986,160.359c1.063,0,1.922,0.863,1.922,1.922c0,1.063-0.859,1.924-1.922,1.924  s-1.924-0.861-1.924-1.924C174.063,161.223,174.924,160.359,175.986,160.359z"/>
<rect x="169.591" y="147.724" transform="matrix(0.8657 -0.5006 0.5006 0.8657 -53.609 105.9139)" fill="#646464" width="1.923" height="10.254"/>
<circle fill="#646464" cx="150.998" cy="168.978" r="1.923"/>
<path fill="#646464" d="M153.275,156.805c-0.258-0.016-0.588,0.014-0.944,0.068c-1.992,0.316-3.023,1.75-3.237,3.295h0.027  c0.445-0.602,1.233-1.088,2.264-1.088c1.648,0,2.809,1.203,2.809,3.008c0,1.719-1.159,3.293-3.107,3.293  c-1.977,0-3.28-1.545-3.28-3.967c0-1.834,0.645-3.279,1.574-4.197c0.775-0.758,1.807-1.23,2.979-1.373  c0.373-0.061,0.688-0.07,0.918-0.07v1.031H153.275z M152.917,162.174c0-1.332-0.758-2.131-1.919-2.131  c-0.758,0-1.474,0.457-1.819,1.145c-0.07,0.144-0.128,0.314-0.128,0.543c0.014,1.533,0.73,2.679,2.063,2.679  C152.188,164.408,152.917,163.508,152.917,162.174z"/>
<circle fill="#646464" cx="126.012" cy="162.281" r="1.922"/>
<rect x="130.504" y="147.719" transform="matrix(0.8652 0.5015 -0.5015 0.8652 94.3752 -45.32)" fill="#646464" width="1.924" height="10.25"/>
<rect x="169.748" y="79.205" transform="matrix(0.8657 0.5006 -0.5006 0.8657 65.1487 -74.1317)" fill="#646464" width="1.923" height="10.25"/>
<path fill="#646464" d="M107.72,142.066c1.061,0,1.921,0.861,1.921,1.924c0,1.059-0.86,1.922-1.921,1.922  c-1.062,0-1.923-0.863-1.923-1.922C105.797,142.928,106.658,142.066,107.72,142.066z"/>
<rect x="116.19" y="133.411" transform="matrix(0.5003 0.8659 -0.8659 0.5003 178.5003 -32.2056)" fill="#646464" width="1.922" height="10.254"/>
<rect x="184.436" y="93.813" transform="matrix(0.5003 0.8658 -0.8658 0.5003 178.2984 -111.0867)" fill="#646464" width="1.923" height="10.252"/>
<circle fill="#646464" cx="101.023" cy="119.002" r="1.922"/>
<path fill="#646464" d="M106.139,122.797c0.273,0.027,0.591,0,1.023-0.044c0.735-0.101,1.428-0.39,1.96-0.907  c0.621-0.563,1.067-1.385,1.241-2.479h-0.044c-0.519,0.635-1.269,0.993-2.22,0.993c-1.673,0-2.754-1.268-2.754-2.868  c0-1.773,1.283-3.33,3.2-3.33s3.099,1.544,3.099,3.965c0,2.047-0.69,3.487-1.613,4.381c-0.721,0.709-1.715,1.142-2.725,1.255  c-0.462,0.072-0.866,0.088-1.168,0.072L106.139,122.797L106.139,122.797z M106.6,117.42c0,1.168,0.707,1.99,1.803,1.99  c0.85,0,1.514-0.42,1.846-0.98c0.071-0.131,0.115-0.261,0.115-0.477c0-1.6-0.592-2.825-1.933-2.825  C107.363,115.128,106.6,116.079,106.6,117.42z"/>
<circle fill="#646464" cx="107.72" cy="94.014" r="1.921"/>
<rect x="116.202" y="94.334" transform="matrix(-0.5006 0.8657 -0.8657 -0.5006 261.918 47.8307)" fill="#646464" width="1.922" height="10.251"/>
<circle fill="#646464" cx="126.012" cy="75.722" r="1.923"/>
<rect x="130.503" y="80.027" transform="matrix(-0.8659 0.5002 -0.5002 -0.8659 287.8932 93.1373)" fill="#646464" width="1.922" height="10.252"/>
<rect x="144.655" y="59.73" transform="matrix(-0.9946 0.1039 -0.1039 -0.9946 295.5698 107.9097)" fill="#646464" width="0.639" height="3.844"/>
<rect x="156.703" y="174.428" transform="matrix(-0.9943 0.1067 -0.1067 -0.9943 331.9748 334.9315)" fill="#646464" width="0.64" height="3.846"/>
<rect x="138.682" y="60.684" transform="matrix(-0.9782 0.2075 -0.2075 -0.9782 287.9719 94.9994)" fill="#646464" width="0.64" height="3.844"/>
<rect x="162.672" y="173.466" transform="matrix(-0.977 0.2131 -0.2131 -0.977 359.6113 312.0218)" fill="#646464" width="0.642" height="3.845"/>
<rect x="132.859" y="62.234" transform="matrix(-0.9512 0.3085 -0.3085 -0.9512 279.6555 84.1022)" fill="#646464" width="0.643" height="3.844"/>
<rect x="168.492" y="171.929" transform="matrix(-0.9505 0.3107 -0.3107 -0.9505 383.2836 286.6476)" fill="#646464" width="0.638" height="3.846"/>
<rect x="127.219" y="64.404" transform="matrix(-0.9141 0.4054 -0.4054 -0.9141 271.0186 75.246)" fill="#646464" width="0.643" height="3.843"/>
<rect x="174.138" y="169.753" transform="matrix(-0.9139 0.4059 -0.4059 -0.9139 403.5764 257.7682)" fill="#646464" width="0.64" height="3.841"/>
<rect x="116.787" y="70.428" transform="matrix(-0.8096 0.587 -0.587 -0.8096 254.3857 62.1845)" fill="#646464" width="0.641" height="3.845"/>
<rect x="184.572" y="163.727" transform="matrix(-0.8098 0.5867 -0.5867 -0.8098 431.8035 191.3113)" fill="#646464" width="0.639" height="3.844"/>
<rect x="112.089" y="74.227" transform="matrix(-0.7441 0.6681 -0.6681 -0.7441 246.9279 57.7112)" fill="#646464" width="0.642" height="3.844"/>
<rect x="189.259" y="159.939" transform="matrix(-0.7427 0.6696 -0.6696 -0.7427 438.7674 155.124)" fill="#646464" width="0.642" height="3.845"/>
<rect x="107.82" y="78.497" transform="matrix(-0.6691 0.7431 -0.7431 -0.6691 240.262 53.8664)" fill="#646464" width="0.64" height="3.843"/>
<rect x="193.507" y="155.676" transform="matrix(-0.6696 0.7427 -0.7427 -0.6696 440.6693 119.1786)" fill="#646464" width="0.642" height="3.846"/>
<rect x="104.032" y="83.187" transform="matrix(-0.5869 0.8097 -0.8097 -0.5869 234.5073 50.5697)" fill="#646464" width="0.642" height="3.843"/>
<rect x="197.331" y="150.964" transform="matrix(-0.587 0.8096 -0.8096 -0.587 437.4468 82.6123)" fill="#646464" width="0.641" height="3.845"/>
<rect x="98" y="93.625" transform="matrix(-0.4074 0.9132 -0.9132 -0.4074 225.6352 44.6846)" fill="#646464" width="0.64" height="3.844"/>
<rect x="203.359" y="140.543" transform="matrix(-0.4078 0.9131 -0.9131 -0.4078 416.8253 14.5954)" fill="#646464" width="0.642" height="3.844"/>
<rect x="95.833" y="99.264" transform="matrix(-0.3066 0.9518 -0.9518 -0.3066 221.9467 40.688)" fill="#646464" width="0.64" height="3.845"/>
<rect x="205.522" y="134.9" transform="matrix(-0.3116 0.9502 -0.9502 -0.3116 399.9991 -16.1291)" fill="#646464" width="0.639" height="3.844"/>
<rect x="94.271" y="105.085" transform="matrix(-0.2072 0.9783 -0.9783 -0.2072 218.8786 36.6457)" fill="#646464" width="0.641" height="3.845"/>
<rect x="207.09" y="129.056" transform="matrix(-0.2087 0.978 -0.978 -0.2087 378.7904 -44.5298)" fill="#646464" width="0.641" height="3.845"/>
<rect x="93.335" y="111.049" transform="matrix(-0.1022 0.9948 -0.9948 -0.1022 215.6073 31.3552)" fill="#646464" width="0.64" height="3.845"/>
<rect x="208.031" y="123.119" transform="matrix(-0.1098 0.994 -0.994 -0.1098 355.5052 -68.328)" fill="#646464" width="0.641" height="3.843"/>
<rect x="93.33" y="123.116" transform="matrix(0.1052 0.9944 -0.9944 0.1052 208.1383 18.7487)" fill="#646464" width="0.64" height="3.844"/>
<rect x="208.037" y="111.046" transform="matrix(0.1008 0.9949 -0.9949 0.1008 299.7495 -105.7131)" fill="#646464" width="0.639" height="3.844"/>
<rect x="94.28" y="129.078" transform="matrix(0.2049 0.9788 -0.9788 0.2049 203.4314 11.5621)" fill="#646464" width="0.639" height="3.842"/>
<rect x="207.083" y="105.067" transform="matrix(0.2079 0.9782 -0.9782 0.2079 268.9449 -118.1214)" fill="#646464" width="0.639" height="3.846"/>
<rect x="95.837" y="134.894" transform="matrix(0.3087 0.9512 -0.9512 0.3087 196.6118 3.123)" fill="#646464" width="0.641" height="3.845"/>
<rect x="205.527" y="99.265" transform="matrix(0.3066 0.9518 -0.9518 0.3066 239.0479 -125.7694)" fill="#646464" width="0.64" height="3.844"/>
<rect x="98.001" y="140.536" transform="matrix(0.4078 0.9131 -0.9131 0.4078 188.2951 -5.4151)" fill="#646464" width="0.642" height="3.844"/>
<rect x="203.38" y="93.62" transform="matrix(0.4061 0.9138 -0.9138 0.4061 208.2778 -129.4044)" fill="#646464" width="0.64" height="3.845"/>
<rect x="104.025" y="150.966" transform="matrix(0.5873 0.8094 -0.8094 0.5873 166.8141 -21.3547)" fill="#646464" width="0.642" height="3.845"/>
<rect x="197.325" y="83.182" transform="matrix(0.586 0.8103 -0.8103 0.586 150.7878 -124.9214)" fill="#646464" width="0.64" height="3.843"/>
<rect x="107.839" y="155.664" transform="matrix(0.6707 0.7417 -0.7417 0.6707 152.4944 -28.3337)" fill="#646464" width="0.64" height="3.843"/>
<rect x="193.534" y="78.483" transform="matrix(0.6704 0.742 -0.742 0.6704 123.557 -117.3383)" fill="#646464" width="0.641" height="3.846"/>
<rect x="112.101" y="159.932" transform="matrix(0.7439 0.6683 -0.6683 0.7439 136.9672 -33.6781)" fill="#646464" width="0.64" height="3.843"/>
<rect x="189.271" y="74.219" transform="matrix(0.7413 0.6712 -0.6712 0.7413 100.1464 -107.548)" fill="#646464" width="0.64" height="3.846"/>
<rect x="116.771" y="163.73" transform="matrix(0.8102 0.5862 -0.5862 0.8102 119.3294 -37.1933)" fill="#646464" width="0.643" height="3.846"/>
<rect x="184.58" y="70.434" transform="matrix(0.8087 0.5882 -0.5882 0.8087 77.9324 -94.9199)" fill="#646464" width="0.64" height="3.845"/>
<rect x="127.237" y="169.758" transform="matrix(0.9128 0.4084 -0.4084 0.9128 81.2365 -37.1244)" fill="#646464" width="0.641" height="3.843"/>
<rect x="174.128" y="64.385" transform="matrix(0.9128 0.4083 -0.4083 0.9128 42.2816 -65.4531)" fill="#646464" width="0.64" height="3.844"/>
<rect x="132.858" y="171.933" transform="matrix(0.9515 0.3078 -0.3078 0.9515 59.9693 -32.5487)" fill="#646464" width="0.641" height="3.843"/>
<rect x="168.491" y="62.239" transform="matrix(0.9508 0.3098 -0.3098 0.9508 28.1799 -49.1374)" fill="#646464" width="0.637" height="3.845"/>
<rect x="138.683" y="173.483" transform="matrix(0.979 0.204 -0.204 0.979 38.7088 -24.6697)" fill="#646464" width="0.641" height="3.844"/>
<rect x="162.676" y="60.67" transform="matrix(0.9778 0.2097 -0.2097 0.9778 16.7533 -32.7942)" fill="#646464" width="0.64" height="3.845"/>
<rect x="144.665" y="174.417" transform="matrix(0.9949 0.1009 -0.1009 0.9949 18.5261 -13.7246)" fill="#646464" width="0.639" height="3.848"/>
<rect x="156.703" y="59.731" transform="matrix(0.9943 0.1071 -0.1071 0.9943 7.504 -16.4585)" fill="#646464" width="0.638" height="3.844"/>
<path fill="#646464" d="M149.543,58.717c0.483,0,0.847,0.17,1.094,0.514c0.247,0.342,0.368,0.945,0.368,1.812  c0,0.948-0.124,1.593-0.374,1.931c-0.249,0.34-0.617,0.508-1.103,0.508c-0.426,0-0.747-0.111-0.964-0.338  c-0.217-0.223-0.357-0.508-0.424-0.852c-0.065-0.344-0.098-0.762-0.098-1.249c0-0.849,0.125-1.448,0.379-1.799  C148.674,58.893,149.048,58.717,149.543,58.717z M149.522,62.963c0.213,0,0.368-0.119,0.468-0.359  c0.099-0.238,0.148-0.76,0.148-1.562c0-0.772-0.051-1.267-0.152-1.482c-0.104-0.214-0.257-0.323-0.464-0.323  c-0.188,0-0.326,0.075-0.414,0.225c-0.089,0.15-0.146,0.348-0.167,0.588c-0.021,0.243-0.033,0.572-0.033,0.993  c0,0.825,0.049,1.353,0.147,1.581C149.153,62.848,149.31,62.963,149.522,62.963z"/>
<path fill="#646464" d="M152.801,58.717c0.48,0,0.846,0.17,1.092,0.514c0.246,0.342,0.369,0.945,0.369,1.812  c0,0.948-0.125,1.593-0.373,1.931c-0.25,0.34-0.617,0.508-1.104,0.508c-0.428,0-0.747-0.111-0.965-0.338  c-0.217-0.223-0.357-0.508-0.424-0.852c-0.065-0.344-0.098-0.762-0.098-1.249c0-0.849,0.126-1.448,0.379-1.799  S152.303,58.717,152.801,58.717z M152.777,62.963c0.213,0,0.369-0.119,0.468-0.359c0.099-0.238,0.146-0.76,0.146-1.562  c0-0.772-0.05-1.267-0.15-1.482c-0.102-0.214-0.258-0.323-0.465-0.323c-0.188,0-0.326,0.075-0.414,0.225s-0.145,0.348-0.164,0.588  c-0.022,0.243-0.034,0.572-0.034,0.993c0,0.825,0.05,1.353,0.147,1.581C152.409,62.848,152.564,62.963,152.777,62.963z"/>
<path fill="#646464" d="M98.354,90.792l1.006,0.579c0.024-0.05,0.072-0.139,0.147-0.266c0.23-0.402,0.517-0.65,0.854-0.742  c0.338-0.093,0.71-0.023,1.116,0.213c0.463,0.266,0.737,0.582,0.826,0.947c0.09,0.366-0.008,0.791-0.288,1.278  c-0.159,0.274-0.371,0.548-0.634,0.817l-0.478-0.276l0.004-0.005c0.281-0.283,0.474-0.515,0.578-0.695  c0.156-0.272,0.202-0.513,0.137-0.723c-0.065-0.209-0.25-0.4-0.554-0.576c-0.267-0.154-0.51-0.199-0.726-0.135  c-0.218,0.064-0.409,0.24-0.574,0.526c-0.113,0.196-0.219,0.399-0.314,0.607l-1.965-1.134l1.205-2.086l0.467,0.27L98.354,90.792z"/>
<path fill="#646464" d="M99.691,87.299c0.24-0.417,0.57-0.646,0.99-0.689c0.419-0.041,1.004,0.154,1.753,0.588  c0.823,0.474,1.317,0.902,1.487,1.289c0.168,0.387,0.132,0.787-0.111,1.209c-0.213,0.369-0.472,0.592-0.775,0.665  c-0.304,0.076-0.622,0.057-0.951-0.06c-0.332-0.115-0.707-0.295-1.131-0.539c-0.734-0.424-1.191-0.834-1.368-1.227  C99.408,88.141,99.443,87.729,99.691,87.299z M103.357,89.441c0.106-0.186,0.08-0.381-0.076-0.586  c-0.157-0.203-0.584-0.508-1.279-0.91c-0.668-0.385-1.121-0.588-1.359-0.607c-0.238-0.019-0.409,0.061-0.512,0.238  c-0.094,0.164-0.098,0.32-0.013,0.473c0.087,0.151,0.228,0.298,0.427,0.438c0.198,0.141,0.479,0.314,0.841,0.524  c0.716,0.414,1.196,0.633,1.443,0.663C103.074,89.702,103.25,89.625,103.357,89.441z"/>
<path fill="#646464" d="M93.864,118.926h0.538v0.48h1.027v0.844h-1.027v1.879h-0.514l-2.398-1.469l-0.751-0.458v-0.796h3.125  V118.926z M93.864,121.475v-1.225H91.81L93.864,121.475z"/>
<path fill="#646464" d="M91.303,117.632h1.161c-0.005-0.057-0.008-0.157-0.008-0.306c0-0.465,0.124-0.821,0.37-1.071  c0.245-0.249,0.604-0.374,1.072-0.374c0.535,0,0.932,0.137,1.191,0.41c0.259,0.272,0.389,0.688,0.389,1.248  c0,0.32-0.047,0.661-0.141,1.026h-0.55v-0.005c0.102-0.387,0.152-0.684,0.152-0.893c0-0.313-0.081-0.545-0.242-0.693  c-0.162-0.148-0.418-0.225-0.769-0.225c-0.308,0-0.54,0.083-0.695,0.248c-0.156,0.164-0.234,0.413-0.234,0.74  c0,0.229,0.012,0.457,0.032,0.686h-2.269v-2.408h0.539v1.617H91.303z"/>
<path fill="#646464" d="M101.485,147.51l0.466-0.27l0.241,0.418l0.889-0.516l0.422,0.731l-0.89,0.515l0.938,1.625l-0.442,0.256  l-2.813-0.068l-0.88-0.023l-0.397-0.688l2.707-1.566L101.485,147.51z M102.76,149.717l-0.611-1.059l-1.781,1.027L102.76,149.717z"/>
<path fill="#646464" d="M97.89,147.586c-0.241-0.418-0.274-0.82-0.102-1.205c0.174-0.385,0.635-0.791,1.385-1.225  c0.821-0.473,1.44-0.688,1.859-0.643c0.419,0.047,0.749,0.28,0.992,0.7c0.213,0.369,0.275,0.705,0.188,1.004  c-0.086,0.3-0.262,0.563-0.526,0.791c-0.267,0.229-0.609,0.47-1.032,0.712c-0.734,0.424-1.317,0.614-1.747,0.571  C98.477,148.25,98.139,148.012,97.89,147.586z M101.576,145.48c-0.105-0.185-0.287-0.26-0.543-0.226  c-0.256,0.031-0.732,0.25-1.428,0.651c-0.668,0.386-1.071,0.679-1.207,0.871c-0.136,0.197-0.151,0.388-0.048,0.563  c0.093,0.164,0.228,0.246,0.402,0.246c0.175,0.002,0.372-0.047,0.591-0.149c0.222-0.101,0.514-0.256,0.877-0.465  c0.715-0.412,1.146-0.72,1.294-0.918C101.664,145.855,101.684,145.666,101.576,145.48z"/>
<path fill="#646464" d="M124.009,170.736c-0.531-0.309-0.894-0.443-1.089-0.41c-0.194,0.029-0.356,0.16-0.485,0.383  c-0.113,0.195-0.147,0.373-0.099,0.533s0.178,0.303,0.388,0.422c0.185,0.109,0.47,0.213,0.857,0.313l0.005,0.004l-0.274,0.478  c-0.388-0.112-0.721-0.246-0.995-0.403c-0.414-0.238-0.677-0.502-0.787-0.789c-0.112-0.285-0.072-0.595,0.12-0.929  c0.132-0.229,0.308-0.392,0.528-0.481c0.22-0.097,0.467-0.105,0.738-0.041c-0.227-0.191-0.359-0.408-0.397-0.654  c-0.038-0.244,0.016-0.492,0.16-0.742c0.239-0.412,0.54-0.652,0.899-0.723c0.361-0.066,0.781,0.037,1.265,0.318  c0.289,0.163,0.561,0.379,0.813,0.637l-0.271,0.473l-0.005-0.004c-0.304-0.293-0.558-0.498-0.761-0.615  c-0.247-0.143-0.467-0.188-0.662-0.137c-0.195,0.055-0.362,0.205-0.508,0.451c-0.152,0.266-0.188,0.498-0.106,0.699  c0.082,0.2,0.391,0.457,0.926,0.766L124.009,170.736z"/>
<path fill="#646464" d="M119.964,170.016l0.581-1.006c-0.052-0.025-0.14-0.074-0.268-0.146c-0.402-0.231-0.649-0.518-0.742-0.854  c-0.094-0.338-0.021-0.711,0.212-1.119c0.269-0.459,0.584-0.736,0.95-0.826c0.364-0.09,0.791,0.011,1.276,0.289  c0.276,0.16,0.55,0.371,0.819,0.638l-0.277,0.475l-0.005-0.004c-0.283-0.28-0.516-0.474-0.695-0.578  c-0.271-0.155-0.513-0.198-0.722-0.135c-0.211,0.063-0.402,0.25-0.578,0.551c-0.154,0.269-0.199,0.511-0.134,0.726  c0.064,0.221,0.24,0.41,0.525,0.574c0.197,0.112,0.4,0.221,0.608,0.317l-1.134,1.963l-2.086-1.207l0.27-0.467L119.964,170.016z"/>
<path fill="#646464" d="M153.499,177.301c-0.614,0-0.996,0.061-1.149,0.186c-0.152,0.125-0.229,0.316-0.229,0.578  c0,0.226,0.063,0.396,0.184,0.513s0.305,0.174,0.547,0.174c0.213,0,0.512-0.056,0.896-0.162h0.008v0.552  c-0.393,0.1-0.748,0.146-1.064,0.146c-0.478,0-0.838-0.097-1.075-0.285c-0.24-0.194-0.36-0.481-0.36-0.864  c0-0.269,0.072-0.496,0.217-0.685c0.144-0.188,0.349-0.326,0.619-0.404c-0.292-0.051-0.516-0.176-0.672-0.366  c-0.155-0.193-0.233-0.437-0.233-0.728c0-0.478,0.14-0.834,0.418-1.074c0.276-0.237,0.695-0.358,1.252-0.358  c0.334,0,0.678,0.049,1.026,0.146v0.543h-0.006c-0.41-0.101-0.731-0.151-0.966-0.151c-0.284,0-0.497,0.071-0.643,0.217  c-0.144,0.145-0.213,0.356-0.213,0.643c0,0.305,0.084,0.525,0.254,0.658c0.174,0.135,0.568,0.201,1.188,0.201V177.301  L153.499,177.301z"/>
<path fill="#646464" d="M149.197,179.285c-0.482,0-0.845-0.17-1.092-0.514c-0.245-0.34-0.367-0.943-0.367-1.81  c0-0.948,0.122-1.594,0.373-1.933c0.249-0.34,0.616-0.51,1.103-0.51c0.426,0,0.747,0.111,0.964,0.338  c0.218,0.228,0.358,0.511,0.424,0.854c0.065,0.347,0.098,0.761,0.098,1.248c0,0.851-0.125,1.451-0.377,1.799  C150.068,179.111,149.694,179.285,149.197,179.285z M149.22,175.041c-0.213,0-0.369,0.121-0.468,0.359  c-0.098,0.236-0.147,0.76-0.147,1.563c0,0.771,0.05,1.266,0.153,1.482c0.102,0.217,0.256,0.322,0.463,0.322  c0.188,0,0.325-0.072,0.414-0.226c0.088-0.149,0.145-0.349,0.166-0.588c0.021-0.242,0.033-0.574,0.033-0.992  c0-0.828-0.051-1.353-0.147-1.582C149.587,175.154,149.433,175.041,149.22,175.041z"/>
<path fill="#646464" d="M179.164,167.535l-0.273-0.469l2.418-1.396l0.17,0.295c0.164,0.283,0.258,0.559,0.287,0.836  c0.027,0.275,0.014,0.531-0.039,0.766c-0.054,0.238-0.136,0.515-0.248,0.822c-0.135,0.369-0.201,0.639-0.199,0.799  c0.002,0.158,0.037,0.299,0.104,0.418c0.12,0.209,0.268,0.334,0.441,0.379c0.171,0.039,0.369-0.002,0.59-0.131  c0.234-0.137,0.484-0.358,0.75-0.676l0.005-0.002l0.278,0.482c-0.285,0.313-0.598,0.564-0.928,0.756  c-0.412,0.238-0.773,0.326-1.09,0.27c-0.316-0.055-0.576-0.26-0.781-0.608c-0.112-0.197-0.176-0.416-0.189-0.664  c-0.016-0.246,0.068-0.623,0.252-1.125c0.104-0.281,0.176-0.513,0.227-0.688c0.047-0.178,0.069-0.354,0.068-0.533  c-0.002-0.18-0.043-0.352-0.131-0.518L179.164,167.535z"/>
<path fill="#646464" d="M179.66,171.387l-0.58-1.006c-0.046,0.029-0.135,0.084-0.26,0.156c-0.402,0.232-0.773,0.307-1.112,0.215  c-0.338-0.088-0.626-0.334-0.86-0.74c-0.266-0.463-0.348-0.873-0.24-1.236c0.104-0.356,0.399-0.68,0.887-0.961  c0.277-0.16,0.599-0.291,0.96-0.389l0.274,0.475l-0.006,0.004c-0.386,0.104-0.666,0.207-0.849,0.314  c-0.271,0.155-0.431,0.342-0.479,0.555c-0.045,0.215,0.017,0.475,0.192,0.779c0.153,0.266,0.341,0.426,0.562,0.479  s0.474-0.004,0.761-0.17c0.196-0.111,0.389-0.236,0.577-0.369l1.135,1.965l-2.087,1.203l-0.269-0.465L179.66,171.387z"/>
<path fill="#646464" d="M199.659,146.943l-0.47-0.271l1.395-2.416l0.295,0.171c0.283,0.161,0.504,0.356,0.666,0.577  c0.162,0.226,0.281,0.453,0.352,0.685c0.072,0.231,0.139,0.512,0.196,0.836c0.067,0.389,0.146,0.652,0.228,0.791  s0.182,0.242,0.302,0.311c0.209,0.121,0.397,0.156,0.569,0.107c0.168-0.051,0.317-0.187,0.445-0.408  c0.135-0.236,0.239-0.557,0.311-0.961l0.004-0.006l0.482,0.279c-0.094,0.414-0.233,0.786-0.427,1.12  c-0.235,0.41-0.506,0.669-0.81,0.779c-0.303,0.108-0.629,0.062-0.979-0.142c-0.198-0.112-0.362-0.272-0.497-0.479  c-0.136-0.206-0.25-0.574-0.345-1.102c-0.052-0.297-0.103-0.531-0.147-0.707c-0.049-0.176-0.117-0.342-0.207-0.498  c-0.092-0.152-0.213-0.281-0.369-0.381L199.659,146.943z"/>
<path fill="#646464" d="M202.305,150.705c-0.24,0.414-0.57,0.645-0.99,0.688c-0.418,0.041-1.002-0.154-1.752-0.586  c-0.821-0.475-1.317-0.904-1.485-1.291c-0.17-0.385-0.132-0.787,0.11-1.209c0.213-0.369,0.471-0.59,0.774-0.664  c0.304-0.076,0.622-0.057,0.95,0.06c0.332,0.114,0.708,0.295,1.131,0.541c0.734,0.422,1.191,0.834,1.371,1.226  C202.59,149.861,202.555,150.273,202.305,150.705z M198.641,148.564c-0.107,0.182-0.082,0.375,0.075,0.582  c0.157,0.205,0.582,0.51,1.278,0.912c0.669,0.385,1.122,0.588,1.357,0.604c0.238,0.02,0.41-0.059,0.516-0.238  c0.094-0.162,0.096-0.318,0.012-0.471c-0.086-0.15-0.227-0.297-0.426-0.438c-0.199-0.142-0.48-0.314-0.844-0.521  c-0.715-0.414-1.195-0.637-1.44-0.664C198.922,148.301,198.746,148.377,198.641,148.564z"/>
<path fill="#646464" d="M119.518,68.245l0.58,1.005c0.047-0.032,0.134-0.084,0.26-0.156c0.404-0.232,0.773-0.307,1.113-0.217  c0.337,0.09,0.626,0.336,0.859,0.742c0.268,0.463,0.348,0.873,0.241,1.236c-0.105,0.359-0.401,0.682-0.888,0.963  c-0.276,0.156-0.596,0.289-0.959,0.389l-0.275-0.477l0.006-0.004c0.387-0.102,0.668-0.207,0.848-0.312  c0.272-0.155,0.431-0.341,0.479-0.558c0.049-0.214-0.015-0.472-0.19-0.775c-0.154-0.266-0.341-0.428-0.562-0.479  c-0.22-0.055-0.474,0.003-0.759,0.168c-0.197,0.113-0.39,0.237-0.578,0.371l-1.133-1.965l2.085-1.205l0.27,0.465L119.518,68.245z"/>
<path fill="#646464" d="M122.338,66.618l0.58,1.004c0.046-0.031,0.134-0.083,0.259-0.156c0.403-0.232,0.774-0.306,1.113-0.216  c0.339,0.088,0.626,0.336,0.86,0.742c0.267,0.463,0.348,0.873,0.24,1.234c-0.104,0.361-0.401,0.682-0.887,0.963  c-0.276,0.16-0.596,0.29-0.958,0.391l-0.276-0.475l0.006-0.006c0.385-0.104,0.668-0.207,0.849-0.312  c0.271-0.157,0.431-0.343,0.479-0.558c0.048-0.214-0.015-0.474-0.19-0.775c-0.155-0.269-0.342-0.429-0.562-0.479  c-0.221-0.055-0.473,0.002-0.76,0.166c-0.197,0.114-0.39,0.238-0.577,0.371l-1.135-1.965l2.087-1.203l0.269,0.464L122.338,66.618z"/>
<path fill="#646464" d="M207.07,118.969h-0.502v-2.763h0.502v0.982h3.49l-0.227-0.982h0.501l0.435,1.378v0.455h-4.201  L207.07,118.969L207.07,118.969z"/>
<path fill="#646464" d="M210.693,120.371h-1.16c0.005,0.057,0.008,0.158,0.008,0.304c0,0.466-0.123,0.821-0.369,1.073  c-0.246,0.248-0.604,0.373-1.074,0.373c-0.533,0-0.93-0.137-1.188-0.408c-0.262-0.271-0.391-0.689-0.391-1.251  c0-0.317,0.047-0.659,0.143-1.026h0.55v0.007c-0.104,0.386-0.153,0.684-0.153,0.894c0,0.312,0.082,0.543,0.242,0.692  c0.162,0.148,0.416,0.225,0.768,0.225c0.31,0,0.543-0.083,0.697-0.249c0.155-0.164,0.232-0.411,0.232-0.739  c0-0.228-0.012-0.457-0.031-0.685h2.268v2.407h-0.539v-1.617H210.693z"/>
<path fill="#646464" d="M180.623,67.174l-0.58,1.006c0.053,0.023,0.141,0.072,0.266,0.146c0.402,0.233,0.652,0.519,0.744,0.855  c0.094,0.339,0.021,0.712-0.213,1.117c-0.267,0.462-0.584,0.737-0.949,0.827c-0.365,0.087-0.791-0.008-1.275-0.289  c-0.276-0.158-0.549-0.371-0.816-0.634l0.275-0.478l0.007,0.004c0.28,0.28,0.515,0.474,0.694,0.578  c0.271,0.156,0.511,0.201,0.722,0.136c0.21-0.065,0.401-0.25,0.577-0.552c0.152-0.268,0.199-0.51,0.134-0.729  c-0.065-0.215-0.24-0.406-0.524-0.57c-0.197-0.114-0.399-0.22-0.609-0.315l1.135-1.965l2.086,1.203l-0.268,0.468L180.623,67.174z"/>
<path fill="#646464" d="M199.538,90.932l-0.433,0.25l-1.383-2.392l0.434-0.25l0.492,0.851l3.023-1.746l-0.688-0.738l0.437-0.25  l1.065,0.977l0.226,0.393l-3.639,2.101L199.538,90.932z"/>
<path fill="#646464" d="M204.107,90.42c0.242,0.418,0.274,0.816,0.102,1.202c-0.173,0.384-0.634,0.792-1.385,1.226  c-0.819,0.475-1.441,0.688-1.859,0.641c-0.416-0.047-0.748-0.28-0.99-0.701c-0.213-0.366-0.275-0.703-0.189-1.002  c0.088-0.3,0.264-0.566,0.527-0.795c0.267-0.228,0.609-0.465,1.031-0.709c0.734-0.425,1.318-0.615,1.748-0.572  S203.859,89.99,204.107,90.42z M200.42,92.523c0.105,0.185,0.288,0.26,0.545,0.225c0.256-0.031,0.732-0.25,1.428-0.652  c0.67-0.385,1.07-0.678,1.207-0.871c0.135-0.197,0.151-0.386,0.049-0.564c-0.094-0.162-0.229-0.245-0.402-0.246  c-0.174-0.002-0.372,0.049-0.592,0.15c-0.223,0.102-0.514,0.256-0.877,0.467c-0.715,0.412-1.146,0.719-1.295,0.917  C200.335,92.148,200.313,92.34,200.42,92.523z"/>
<circle fill="none" cx="150.999" cy="119.001" r="61.507"/>
<rect x="81.162" y="49.164" fill="none" width="139.674" height="139.676"/>
<rect x="81.165" y="49.164" transform="matrix(0.7071 -0.7071 0.7071 0.7071 -39.9185 141.6281)" fill="none" width="139.672" height="139.672"/>
<path fill-opacity="0.4" d="M166.857,135.764c-0.252,0.25-0.654,0.25-0.903,0.004l-50.748-50.75c-0.248-0.248-0.247-0.65,0.003-0.9  l0.906-0.906c0.25-0.25,0.654-0.252,0.901-0.006l50.751,50.75c0.246,0.248,0.246,0.651-0.006,0.899L166.857,135.764z"/>
<rect x="140.849" y="73.605" transform="matrix(0.7067 -0.7075 0.7075 0.7067 -35.968 132.2127)" fill="#FFFFFF" width="1.281" height="71.77"/>
<linearGradient id="SVGID_5_" gradientUnits="userSpaceOnUse" x1="354.7988" y1="-95.1782" x2="354.7988" y2="-130.7611" gradientTransform="matrix(1 0 0 -1 -185.98 -13.5195)">
<stop offset="0" style="stop-color:#FFFFFF"/>
<stop offset="0.9455" style="stop-color:#CBCBCB"/>
<stop offset="1" style="stop-color:#CBCBCB"/>
</linearGradient>
<path display="none" fill="url(#SVGID_5_)" d="M154.729,117.99c-3.874,0-6.007-2.244-6.007-6.319v-13.96  c0-4.23,3.511-5.73,6.517-5.73h0.287c0.248,0,0.271-0.002,0.472-0.01l0.164-0.006c1.626-0.056,3.36-1.23,3.358-4.359  c-0.002-2.646,0.717-4.59,2.139-5.769c1.215-1.011,2.662-1.222,3.664-1.222c0.71,0,1.21,0.107,1.229,0.112  c14.013,2.417,21.496,14.197,22.324,21.788c0.235,2.158-0.549,4.537-2.044,6.206c-1.003,1.117-2.794,2.45-5.637,2.45  c-4.256,0-5.939,1.467-6.84,2.57l-0.254,0.317c-1.168,1.472-3.125,3.933-7.32,3.933L154.729,117.99L154.729,117.99z"/>
<linearGradient id="SVGID_6_" gradientUnits="userSpaceOnUse" x1="354.7988" y1="-131.1069" x2="354.7988" y2="-94.4508" gradientTransform="matrix(1 0 0 -1 -185.98 -13.5195)">
<stop offset="0" style="stop-color:#B4B4B4"/>
<stop offset="1" style="stop-color:#A0A0A0"/>
</linearGradient>
<path display="none" fill="url(#SVGID_6_)" d="M188.876,102.516c-0.828-7.591-8.312-19.371-22.323-21.788  c-0.021-0.005-0.521-0.112-1.23-0.112c-1.002,0-2.449,0.211-3.664,1.222c-1.422,1.179-2.141,3.122-2.139,5.769  c0.002,3.129-1.732,4.304-3.358,4.359l-0.164,0.006c-0.2,0.008-0.224,0.01-0.472,0.01h-0.287c-3.006,0-6.517,1.5-6.517,5.73v13.96  c0,4.075,2.134,6.319,6.007,6.319h12.054c4.194,0,6.151-2.461,7.319-3.931l0.254-0.317c0.898-1.104,2.586-2.57,6.842-2.57  c2.842,0,4.632-1.333,5.636-2.45C188.326,107.053,189.111,104.674,188.876,102.516z M181.193,110.531  c-4.494,0-6.334,1.576-7.336,2.807c-1.164,1.436-2.895,4.014-7.076,4.014s-7.477,0-12.055,0c-4.579,0-5.365-3.25-5.365-5.681  c0-2.429,0-13.96,0-13.96c0-3.771,3.05-5.091,5.876-5.091c0.639,0,0.482,0.002,0.947-0.015c2.119-0.072,3.977-1.645,3.975-4.998  c-0.006-7.635,6.253-6.255,6.253-6.255c13.789,2.379,21.036,13.987,21.825,21.231C188.607,105.965,186.218,110.531,181.193,110.531z  "/>
<rect x="81.163" y="49.163" transform="matrix(-0.7071 -0.7071 0.7071 -0.7071 173.6274 309.9154)" fill="none" width="139.672" height="139.671"/>
<polygon fill-opacity="0.4" points="161.545,112.082 123.561,150.064 119.503,150.271 119.953,146.424 157.92,108.457 "/>
<polygon points="157.92,109.363 160.639,112.082 123.281,149.438 120.229,149.594 120.563,146.719 "/>
<rect x="81.162" y="49.164" transform="matrix(-0.7071 0.7071 -0.7071 -0.7071 341.915 96.3727)" fill="none" width="139.673" height="139.671"/>
<polygon fill-opacity="0.4" points="146.12,109.589 174.588,138.059 174.344,142.57 170.041,142.572 141.589,114.119 "/>
<polygon fill="#1A1A1A" points="142.495,114.119 146.12,110.495 173.962,138.336 173.665,141.844 170.337,141.963 "/>
<path fill-opacity="0.4" d="M146.924,114.924c2.247-2.25,5.905-2.248,8.154,0c2.248,2.248,2.248,5.905,0,8.152  c-2.249,2.249-5.906,2.251-8.154,0.002C144.675,120.829,144.675,117.17,146.924,114.924L146.924,114.924z"/>
<linearGradient id="SVGID_7_" gradientUnits="userSpaceOnUse" x1="-3819.5313" y1="-1695.1787" x2="-3819.5313" y2="-1684.7993" gradientTransform="matrix(-0.7071 0.7071 -0.7071 -0.7071 -3744.7813 1624.7996)">
<stop offset="0" style="stop-color:#999999"/>
<stop offset="0.31" style="stop-color:#4D4D4D"/>
<stop offset="1" style="stop-color:#000000"/>
</linearGradient>
<circle fill="url(#SVGID_7_)" cx="151" cy="119" r="5.19"/>
<path fill="#E6E6E6" d="M147.739,115.738c1.798-1.797,4.725-1.799,6.525,0c1.797,1.799,1.797,4.725-0.002,6.524  c-1.798,1.799-4.726,1.799-6.523,0C145.939,120.463,145.941,117.537,147.739,115.738L147.739,115.738z"/>
<rect fill="none" width="302" height="238"/>
</svg>
