<?xml version="1.0" encoding="UTF-8"?>
<!DOCTYPE svg PUBLIC "-//W3C//DTD SVG 1.1 Tiny//EN" "http://www.w3.org/Graphics/SVG/1.1/DTD/svg11-tiny.dtd">
<svg baseProfile="tiny" version="1.1" xmlns="http://www.w3.org/2000/svg" xmlns:xlink="http://www.w3.org/1999/xlink" x="0px" y="0px" width="224px" height="140px" viewBox="0 0 224 140">
<rect fill="#FFFFFF" width="224" height="140"/>
<rect x="57" y="14.619" fill="none" width="110" height="110"/>
<circle fill="none" stroke="#404040" stroke-width="3.5" stroke-opacity="0.4" cx="111.999" cy="69.618" r="54.053"/>
<circle fill="none" stroke="#404040" stroke-width="1.4883" stroke-opacity="0.4" cx="111.999" cy="69.617" r="54.069"/>
<linearGradient id="SVGID_1_" gradientUnits="userSpaceOnUse" x1="21.02" y1="206.9834" x2="21.02" y2="98.1177" gradientTransform="matrix(1 0 0 -1 90.98 221.9902)">
<stop offset="0" style="stop-color:#DBDBDB"/>
<stop offset="0" style="stop-color:#C1C1C1"/>
<stop offset="0.53" style="stop-color:#DBDBDB"/>
<stop offset="0.53" style="stop-color:#C1C1C1"/>
<stop offset="1" style="stop-color:#A8A8A8"/>
</linearGradient>
<circle fill="url(#SVGID_1_)" cx="111.999" cy="69.619" r="53.991"/>
<circle fill="none" stroke="#FFFFFF" stroke-width="1.1" stroke-opacity="0.4" cx="111.999" cy="69.619" r="53.728"/>
<circle fill="none" stroke="#E6E6E6" stroke-width="2.3" cx="111.999" cy="69.618" r="48.839"/>
<linearGradient id="SVGID_2_" gradientUnits="userSpaceOnUse" x1="21.02" y1="201.0898" x2="21.02" y2="104.9416" gradientTransform="matrix(1 0 0 -1 90.98 221.9902)">
<stop offset="0" style="stop-color:#FFFFFF"/>
<stop offset="0.56" style="stop-color:#CCCCCC"/>
<stop offset="1" style="stop-color:#E6E6E6"/>
</linearGradient>
<circle fill="url(#SVGID_2_)" cx="111.999" cy="69.618" r="48.44"/>
<circle fill="none" stroke="#000000" stroke-opacity="0.5" cx="111.999" cy="69.617" r="48.157"/>
<linearGradient id="SVGID_3_" gradientUnits="userSpaceOnUse" x1="40.4355" y1="184.1553" x2="40.4355" y2="156.1365" gradientTransform="matrix(1 0 0 -1 90.98 221.9902)">
<stop offset="0" style="stop-color:#FFFFFF"/>
<stop offset="1" style="stop-color:#B3B3B3"/>
</linearGradient>
<path fill="url(#SVGID_3_)" fill-opacity="0.5" d="M120.316,66.446c-3.05,0-4.729-1.768-4.729-4.977V50.475  c0-3.331,2.766-4.513,5.135-4.513h0.222c0.198,0,0.215-0.002,0.375-0.007l0.13-0.005c1.279-0.044,2.646-0.969,2.644-3.433  c-0.001-2.085,0.564-3.615,1.682-4.544c0.958-0.795,2.099-0.961,2.889-0.961c0.558,0,0.952,0.083,0.968,0.089  c11.037,1.901,16.931,11.18,17.581,17.158c0.188,1.701-0.431,3.575-1.609,4.889c-0.792,0.879-2.201,1.928-4.439,1.928  c-3.351,0-4.679,1.155-5.387,2.025l-0.2,0.249c-0.919,1.159-2.459,3.097-5.764,3.097H120.316z"/>
<path fill="#B3B3B3" fill-opacity="0.4" d="M147.211,54.258c-0.65-5.978-6.544-15.256-17.581-17.158  c-0.016-0.005-0.41-0.089-0.968-0.089c-0.789,0-1.931,0.166-2.889,0.961c-1.117,0.93-1.683,2.459-1.682,4.544  c0.002,2.463-1.364,3.389-2.644,3.433l-0.13,0.005c-0.16,0.005-0.179,0.007-0.375,0.007h-0.222c-2.369,0-5.135,1.182-5.135,4.513  v10.995c0,3.209,1.68,4.977,4.729,4.977h9.495c3.305,0,4.845-1.938,5.764-3.097l0.2-0.249c0.708-0.87,2.036-2.025,5.387-2.025  c2.238,0,3.647-1.049,4.439-1.928C146.78,57.833,147.398,55.959,147.211,54.258z M141.162,60.571c-3.538,0-4.989,1.242-5.777,2.211  c-0.919,1.13-2.279,3.16-5.572,3.16c-3.295,0-5.888,0-9.496,0c-3.604,0-4.224-2.559-4.224-4.473c0-1.914,0-10.995,0-10.995  c0-2.97,2.403-4.009,4.629-4.009c0.503,0,0.382,0.002,0.746-0.01c1.671-0.059,3.134-1.298,3.13-3.939  c-0.003-6.013,4.927-4.923,4.927-4.923c10.858,1.872,16.565,11.015,17.187,16.72C147,56.975,145.119,60.571,141.162,60.571z"/>
<ellipse fill="#FFFFFF" fill-opacity="0.25" cx="111.999" cy="44.893" rx="32.798" ry="22.203"/>
<path fill="#808080" d="M107.654,32.983h-0.033l-1.853,1.001l-0.28-1.1l2.329-1.246h1.229v10.659h-1.393V32.983z M111.702,42.298  v-0.885l1.133-1.099c2.722-2.591,3.969-3.968,3.969-5.575c0-1.084-0.51-2.084-2.101-2.084c-0.966,0-1.771,0.493-2.263,0.903  l-0.458-1.017c0.723-0.608,1.786-1.083,3.001-1.083c2.296,0,3.264,1.575,3.264,3.1c0,1.968-1.427,3.56-3.673,5.724l-0.835,0.787  v0.034h4.772v1.197L111.702,42.298L111.702,42.298z M75.029,73.937c0.311,0.034,0.673,0,1.164-0.048  c0.837-0.115,1.625-0.442,2.231-1.034c0.704-0.641,1.213-1.576,1.41-2.82h-0.049c-0.59,0.723-1.443,1.13-2.527,1.13  c-1.901,0-3.131-1.441-3.131-3.263c0-2.018,1.46-3.788,3.642-3.788c2.18,0,3.525,1.755,3.525,4.51c0,2.325-0.787,3.969-1.836,4.983  c-0.819,0.807-1.951,1.295-3.101,1.427c-0.523,0.081-0.983,0.098-1.327,0.081V73.937L75.029,73.937z M75.554,67.82  c0,1.33,0.803,2.261,2.051,2.261c0.967,0,1.722-0.474,2.099-1.112c0.082-0.147,0.13-0.297,0.13-0.542  c0-1.82-0.671-3.214-2.197-3.214C76.424,65.213,75.554,66.294,75.554,67.82z M133.846,30.986l-0.46,0.788  c0.039,0.02,0.109,0.059,0.209,0.116c0.316,0.186,0.512,0.41,0.581,0.676c0.073,0.266,0.017,0.559-0.17,0.878  c-0.212,0.362-0.462,0.578-0.75,0.648c-0.289,0.068-0.624-0.009-1.003-0.231c-0.221-0.126-0.431-0.294-0.644-0.503l0.22-0.375  l0.005,0.002c0.221,0.223,0.401,0.376,0.545,0.459c0.213,0.125,0.4,0.161,0.568,0.11c0.165-0.051,0.317-0.196,0.454-0.435  c0.122-0.208,0.158-0.399,0.108-0.57c-0.049-0.171-0.188-0.322-0.411-0.453c-0.154-0.09-0.315-0.173-0.477-0.25l0.898-1.544  l1.641,0.957l-0.214,0.367L133.846,30.986z M148.161,48.604l-0.345,0.194l-1.077-1.89l0.345-0.194l0.382,0.672l2.389-1.36  l-0.537-0.585l0.345-0.195l0.834,0.775l0.178,0.31l-2.877,1.638L148.161,48.604z M151.886,48.442  c0.187,0.329,0.212,0.645,0.073,0.946c-0.137,0.302-0.503,0.622-1.096,0.958c-0.648,0.37-1.139,0.536-1.469,0.496  c-0.327-0.037-0.586-0.223-0.775-0.555c-0.167-0.291-0.214-0.556-0.144-0.792c0.067-0.236,0.206-0.444,0.416-0.622  c0.212-0.179,0.483-0.364,0.817-0.554c0.579-0.331,1.042-0.478,1.378-0.443C151.427,47.914,151.694,48.101,151.886,48.442z   M148.971,50.08c0.084,0.146,0.225,0.206,0.427,0.182c0.203-0.026,0.58-0.195,1.13-0.508c0.528-0.299,0.847-0.527,0.954-0.681  c0.107-0.154,0.121-0.302,0.041-0.444c-0.075-0.128-0.179-0.193-0.316-0.195c-0.137-0.002-0.293,0.036-0.466,0.115  c-0.176,0.08-0.405,0.2-0.692,0.363c-0.566,0.322-0.907,0.562-1.024,0.717C148.907,49.784,148.888,49.935,148.971,50.08z   M148.192,90.153l-0.374-0.211l1.084-1.914l0.234,0.136c0.222,0.125,0.398,0.274,0.529,0.451c0.127,0.175,0.222,0.353,0.279,0.535  c0.06,0.183,0.112,0.402,0.161,0.655c0.056,0.308,0.117,0.515,0.18,0.625c0.066,0.108,0.148,0.187,0.243,0.239  c0.163,0.096,0.314,0.121,0.447,0.081c0.134-0.042,0.249-0.15,0.349-0.326c0.106-0.185,0.187-0.436,0.238-0.756l0.002-0.005  l0.384,0.218c-0.07,0.326-0.18,0.619-0.328,0.884c-0.184,0.325-0.396,0.531-0.632,0.62c-0.238,0.086-0.496,0.053-0.772-0.103  c-0.156-0.089-0.288-0.214-0.396-0.377c-0.108-0.157-0.201-0.447-0.274-0.864c-0.046-0.232-0.087-0.419-0.126-0.556  c-0.038-0.14-0.095-0.271-0.165-0.389c-0.073-0.122-0.171-0.223-0.294-0.298L148.192,90.153z M150.175,93.316  c-0.186,0.329-0.445,0.511-0.775,0.549c-0.328,0.035-0.789-0.115-1.384-0.45c-0.65-0.368-1.042-0.705-1.179-1.006  c-0.136-0.306-0.11-0.62,0.079-0.954c0.166-0.29,0.366-0.468,0.606-0.53c0.239-0.059,0.487-0.047,0.75,0.043  c0.26,0.09,0.559,0.227,0.893,0.417c0.581,0.329,0.944,0.648,1.086,0.959C150.393,92.65,150.368,92.974,150.175,93.316z   M147.274,91.653c-0.081,0.145-0.061,0.299,0.064,0.459s0.463,0.396,1.012,0.709c0.53,0.301,0.889,0.454,1.075,0.469  c0.188,0.012,0.322-0.05,0.402-0.19c0.072-0.132,0.075-0.255,0.005-0.371c-0.065-0.119-0.179-0.234-0.337-0.343  c-0.157-0.108-0.378-0.243-0.666-0.408c-0.565-0.32-0.948-0.49-1.141-0.513C147.495,91.445,147.356,91.508,147.274,91.653z   M133.36,105.639l-0.236-0.355l1.831-1.213l0.149,0.224c0.138,0.214,0.227,0.427,0.266,0.643c0.034,0.213,0.038,0.415,0.008,0.603  c-0.034,0.189-0.082,0.407-0.157,0.658c-0.089,0.298-0.127,0.51-0.118,0.637c0.009,0.128,0.043,0.237,0.103,0.326  c0.105,0.159,0.227,0.25,0.363,0.273c0.139,0.024,0.291-0.018,0.461-0.13c0.177-0.116,0.362-0.307,0.555-0.565l0.004-0.003  l0.241,0.364c-0.209,0.26-0.44,0.473-0.691,0.642c-0.311,0.205-0.593,0.294-0.845,0.262c-0.253-0.026-0.468-0.174-0.641-0.44  c-0.1-0.148-0.162-0.319-0.185-0.514c-0.022-0.19,0.025-0.489,0.147-0.895c0.064-0.227,0.114-0.412,0.141-0.553  c0.028-0.14,0.037-0.282,0.029-0.422c-0.01-0.14-0.051-0.271-0.128-0.4L133.36,105.639z M133.727,108.782l-0.503-0.763  c-0.036,0.027-0.102,0.072-0.198,0.136c-0.305,0.203-0.595,0.275-0.863,0.225c-0.271-0.055-0.509-0.235-0.713-0.542  c-0.23-0.352-0.315-0.669-0.248-0.961c0.064-0.289,0.28-0.554,0.651-0.799c0.208-0.139,0.453-0.256,0.733-0.354l0.241,0.362h-0.003  c-0.301,0.104-0.518,0.199-0.654,0.289c-0.205,0.137-0.322,0.289-0.348,0.459c-0.029,0.173,0.033,0.373,0.184,0.604  c0.133,0.202,0.291,0.318,0.467,0.348c0.175,0.034,0.371-0.023,0.589-0.167c0.147-0.101,0.295-0.206,0.435-0.319l0.986,1.489  l-1.581,1.045l-0.234-0.352L133.727,108.782z M92.177,108.299c-0.42-0.237-0.706-0.345-0.858-0.319  c-0.154,0.027-0.28,0.129-0.38,0.308c-0.089,0.153-0.113,0.297-0.076,0.422c0.039,0.125,0.142,0.235,0.309,0.33  c0.146,0.084,0.37,0.161,0.676,0.24l0.004,0.002l-0.215,0.379c-0.307-0.085-0.568-0.191-0.785-0.314  c-0.327-0.188-0.536-0.391-0.624-0.616c-0.09-0.224-0.059-0.468,0.089-0.731c0.103-0.179,0.241-0.31,0.414-0.382  c0.171-0.077,0.366-0.089,0.582-0.04c-0.18-0.148-0.284-0.318-0.316-0.51c-0.033-0.193,0.009-0.39,0.123-0.588  c0.186-0.327,0.42-0.518,0.704-0.572c0.284-0.057,0.617,0.024,0.997,0.239c0.229,0.133,0.445,0.299,0.646,0.502l-0.211,0.373  l-0.003-0.004c-0.241-0.228-0.441-0.39-0.603-0.48c-0.196-0.11-0.368-0.145-0.521-0.102c-0.154,0.042-0.287,0.158-0.396,0.357  c-0.12,0.208-0.146,0.394-0.083,0.551c0.065,0.159,0.312,0.358,0.735,0.599L92.177,108.299z M88.768,107.63l0.454-0.796  c-0.041-0.019-0.111-0.056-0.211-0.113c-0.319-0.18-0.516-0.403-0.59-0.67c-0.075-0.264-0.02-0.557,0.162-0.879  c0.208-0.366,0.455-0.585,0.743-0.656c0.287-0.072,0.622,0,1.008,0.219c0.218,0.126,0.434,0.292,0.647,0.496l-0.214,0.377  l-0.004-0.002c-0.226-0.22-0.408-0.371-0.552-0.452c-0.213-0.122-0.402-0.158-0.567-0.104c-0.166,0.052-0.315,0.199-0.453,0.438  c-0.12,0.211-0.154,0.403-0.103,0.574c0.052,0.17,0.192,0.318,0.417,0.445c0.156,0.09,0.316,0.174,0.481,0.246l-0.882,1.554  l-1.648-0.938L87.664,107L88.768,107.63z M75.081,91.36l0.363-0.218l0.195,0.326l0.694-0.411l0.34,0.572l-0.696,0.413l0.756,1.271  l-0.347,0.207l-2.214-0.028l-0.694-0.009l-0.319-0.54l2.114-1.257L75.081,91.36z M76.107,93.087l-0.492-0.828l-1.392,0.828H76.107z   M72.124,91.238c-0.196-0.323-0.227-0.641-0.094-0.944c0.133-0.303,0.492-0.63,1.078-0.979c0.642-0.381,1.128-0.556,1.458-0.524  c0.329,0.035,0.592,0.213,0.789,0.543c0.171,0.287,0.225,0.554,0.159,0.788c-0.064,0.238-0.201,0.449-0.407,0.632  c-0.207,0.182-0.475,0.371-0.806,0.568c-0.575,0.341-1.031,0.499-1.369,0.468C72.591,91.759,72.321,91.575,72.124,91.238z   M75.004,89.547c-0.085-0.146-0.229-0.2-0.431-0.175c-0.202,0.031-0.574,0.207-1.117,0.531c-0.521,0.31-0.835,0.542-0.941,0.699  c-0.104,0.157-0.116,0.304-0.033,0.443c0.076,0.128,0.183,0.191,0.319,0.191c0.137,0,0.293-0.043,0.466-0.126  c0.172-0.083,0.399-0.208,0.685-0.376c0.558-0.333,0.896-0.58,1.009-0.735C75.075,89.841,75.09,89.689,75.004,89.547z   M69.072,69.765l0.425-0.007l0.007,0.378l0.809-0.014l0.012,0.665l-0.809,0.016l0.029,1.478l-0.405,0.009l-1.911-1.122l-0.599-0.35  l-0.011-0.624l2.461-0.047L69.072,69.765z M69.112,71.773l-0.02-0.964l-1.618,0.031L69.112,71.773z M67.031,68.535l0.915-0.018  c-0.004-0.048-0.007-0.126-0.009-0.24c-0.009-0.367,0.083-0.65,0.273-0.85c0.19-0.198,0.468-0.302,0.839-0.311  c0.42-0.008,0.735,0.094,0.944,0.305c0.208,0.209,0.317,0.537,0.326,0.977c0.004,0.253-0.028,0.521-0.096,0.812l-0.433,0.007V69.21  c0.075-0.304,0.11-0.538,0.106-0.7c-0.004-0.247-0.072-0.429-0.201-0.544c-0.128-0.115-0.333-0.169-0.608-0.164  c-0.242,0.005-0.425,0.073-0.544,0.205c-0.119,0.133-0.178,0.328-0.171,0.587c0.002,0.179,0.014,0.359,0.034,0.538l-1.786,0.037  l-0.037-1.898l0.425-0.008L67.031,68.535z M154.084,69.496h-0.396l0.006-2.177l0.395,0.001l-0.001,0.774l2.747,0.006l-0.175-0.774  l0.394,0.001l0.341,1.087v0.356l-3.31-0.008L154.084,69.496z M156.935,70.862l-0.912-0.002c0.003,0.042,0.004,0.121,0.004,0.236  c0,0.368-0.1,0.649-0.294,0.845c-0.193,0.196-0.475,0.291-0.846,0.291c-0.421,0-0.732-0.108-0.936-0.324  c-0.203-0.213-0.305-0.544-0.305-0.984c0.001-0.251,0.037-0.521,0.113-0.807h0.434v0.005c-0.081,0.305-0.122,0.537-0.122,0.702  c-0.001,0.247,0.062,0.429,0.188,0.546c0.128,0.116,0.328,0.178,0.605,0.178c0.242,0.001,0.426-0.063,0.549-0.193  c0.123-0.128,0.185-0.324,0.186-0.581c0-0.18-0.008-0.359-0.023-0.539l1.785,0.003l-0.005,1.896l-0.425-0.001L156.935,70.862z   M72.231,48.142l0.789,0.462c0.02-0.041,0.058-0.11,0.116-0.209c0.185-0.316,0.411-0.511,0.677-0.582  c0.266-0.073,0.558-0.015,0.877,0.171c0.363,0.212,0.579,0.462,0.647,0.75c0.07,0.289-0.008,0.624-0.23,1.005  c-0.126,0.217-0.294,0.431-0.503,0.643l-0.375-0.219l0.003-0.003c0.221-0.222,0.375-0.404,0.458-0.546  c0.125-0.212,0.161-0.402,0.109-0.567c-0.05-0.167-0.195-0.318-0.434-0.458c-0.209-0.122-0.399-0.158-0.57-0.108  c-0.17,0.05-0.322,0.189-0.452,0.412c-0.091,0.155-0.174,0.314-0.251,0.479l-1.542-0.9l0.957-1.639l0.366,0.213L72.231,48.142z   M73.423,45.179c0.191-0.329,0.452-0.508,0.783-0.54c0.33-0.032,0.789,0.124,1.377,0.467c0.646,0.377,1.034,0.717,1.168,1.022  c0.129,0.303,0.1,0.62-0.094,0.951c-0.168,0.29-0.373,0.463-0.612,0.522c-0.239,0.057-0.488,0.041-0.748-0.051  c-0.261-0.093-0.558-0.235-0.889-0.429c-0.579-0.337-0.936-0.66-1.073-0.972C73.198,45.839,73.226,45.515,73.423,45.179z   M76.302,46.879c0.085-0.146,0.065-0.299-0.058-0.461c-0.122-0.162-0.457-0.402-1.004-0.721c-0.524-0.307-0.88-0.468-1.067-0.484  c-0.188-0.017-0.321,0.045-0.405,0.186c-0.074,0.128-0.078,0.253-0.011,0.372c0.067,0.121,0.178,0.235,0.334,0.347  c0.156,0.111,0.376,0.25,0.663,0.416c0.561,0.328,0.939,0.505,1.132,0.527C76.078,47.083,76.218,47.022,76.302,46.879z   M88.294,31.414l0.452,0.793c0.038-0.025,0.105-0.065,0.206-0.122c0.318-0.181,0.611-0.236,0.877-0.165  c0.266,0.071,0.491,0.267,0.674,0.589c0.208,0.365,0.27,0.69,0.184,0.974c-0.085,0.285-0.32,0.534-0.705,0.753  c-0.219,0.126-0.471,0.227-0.756,0.304l-0.215-0.376l0.004-0.002c0.304-0.081,0.528-0.161,0.671-0.244  c0.214-0.121,0.34-0.267,0.379-0.436s-0.01-0.373-0.146-0.612c-0.12-0.211-0.266-0.337-0.439-0.379  c-0.175-0.043-0.373,0.001-0.599,0.128c-0.156,0.089-0.308,0.186-0.458,0.288l-0.883-1.551l1.648-0.938l0.21,0.368L88.294,31.414z   M90.74,30.021l0.454,0.795c0.035-0.026,0.105-0.067,0.204-0.124c0.319-0.181,0.612-0.235,0.878-0.165  c0.268,0.071,0.492,0.267,0.673,0.589c0.208,0.365,0.269,0.69,0.185,0.974c-0.086,0.284-0.32,0.535-0.704,0.753  c-0.22,0.125-0.472,0.227-0.757,0.305l-0.215-0.377l0.004-0.002c0.303-0.081,0.526-0.161,0.669-0.242  c0.214-0.122,0.34-0.268,0.379-0.436c0.039-0.169-0.01-0.373-0.146-0.612c-0.12-0.211-0.268-0.337-0.441-0.38  c-0.172-0.042-0.373,0.001-0.598,0.129c-0.155,0.088-0.308,0.185-0.457,0.288l-0.883-1.552l1.65-0.939l0.209,0.37L90.74,30.021z   M114.219,113.636c-0.485,0.002-0.787,0.053-0.905,0.15c-0.119,0.099-0.179,0.249-0.178,0.452c0,0.181,0.049,0.314,0.146,0.405  c0.095,0.09,0.237,0.134,0.428,0.134c0.167,0,0.405-0.04,0.71-0.127l0.004,0.002l0.002,0.433c-0.309,0.077-0.591,0.116-0.84,0.116  c-0.376,0.002-0.659-0.07-0.848-0.224c-0.19-0.15-0.285-0.376-0.286-0.68c0-0.206,0.055-0.389,0.17-0.538  c0.113-0.149,0.275-0.258,0.487-0.319c-0.23-0.039-0.407-0.137-0.529-0.288c-0.122-0.152-0.185-0.344-0.186-0.57  c0-0.377,0.108-0.66,0.326-0.848c0.221-0.188,0.549-0.285,0.989-0.287c0.26,0,0.532,0.041,0.807,0.116l0.001,0.43h-0.005  c-0.324-0.079-0.576-0.12-0.761-0.119c-0.225,0-0.39,0.057-0.502,0.17c-0.116,0.114-0.17,0.283-0.17,0.507  c0.003,0.242,0.069,0.415,0.204,0.521c0.135,0.104,0.447,0.155,0.935,0.153L114.219,113.636z M110.583,115.208  c-0.381,0.002-0.667-0.134-0.861-0.399c-0.195-0.27-0.292-0.745-0.295-1.428c-0.001-0.747,0.097-1.251,0.292-1.521  c0.195-0.268,0.485-0.402,0.867-0.402c0.334-0.003,0.588,0.087,0.759,0.264c0.171,0.178,0.283,0.403,0.336,0.671  c0.051,0.273,0.08,0.6,0.08,0.982c0.001,0.671-0.097,1.144-0.296,1.417C111.268,115.069,110.974,115.208,110.583,115.208z   M110.593,111.864c-0.167,0-0.292,0.097-0.369,0.285c-0.077,0.188-0.115,0.601-0.115,1.229c0.003,0.609,0.043,0.999,0.125,1.169  c0.081,0.169,0.202,0.256,0.364,0.256c0.148-0.002,0.256-0.062,0.326-0.18c0.069-0.118,0.112-0.275,0.129-0.463  c0.017-0.192,0.025-0.453,0.025-0.783c-0.002-0.65-0.042-1.066-0.119-1.243C110.882,111.956,110.76,111.864,110.593,111.864z   M110.625,24.026c0.381,0.001,0.667,0.138,0.859,0.408c0.193,0.27,0.29,0.746,0.287,1.425c0,0.749-0.101,1.256-0.299,1.523  c-0.196,0.266-0.486,0.398-0.869,0.397c-0.335,0-0.587-0.09-0.758-0.268c-0.17-0.178-0.281-0.402-0.331-0.673  c-0.053-0.272-0.078-0.6-0.077-0.984c0.001-0.668,0.102-1.141,0.302-1.416C109.94,24.163,110.235,24.025,110.625,24.026z   M110.602,27.37c0.167,0,0.29-0.092,0.368-0.281c0.078-0.188,0.119-0.598,0.12-1.231c0.002-0.606-0.037-0.995-0.118-1.166  c-0.081-0.17-0.202-0.255-0.364-0.255c-0.148,0-0.257,0.058-0.327,0.177c-0.069,0.117-0.113,0.272-0.13,0.463  c-0.02,0.19-0.028,0.451-0.029,0.78c0,0.65,0.036,1.065,0.113,1.245C110.312,27.28,110.434,27.37,110.602,27.37z M113.441,24.033  c0.381,0.001,0.668,0.136,0.859,0.406c0.193,0.27,0.289,0.747,0.287,1.427c-0.001,0.748-0.103,1.254-0.299,1.522  c-0.197,0.266-0.484,0.398-0.869,0.397c-0.335,0-0.586-0.09-0.759-0.268c-0.17-0.177-0.281-0.402-0.332-0.673  s-0.075-0.601-0.075-0.984c0.002-0.668,0.102-1.14,0.302-1.415C112.756,24.17,113.052,24.031,113.441,24.033z M113.417,27.376  c0.168,0.001,0.292-0.092,0.37-0.281c0.075-0.188,0.117-0.599,0.119-1.23c0-0.607-0.039-0.996-0.117-1.167  c-0.08-0.168-0.2-0.254-0.365-0.256c-0.147,0-0.257,0.059-0.327,0.178c-0.069,0.117-0.116,0.271-0.131,0.462  c-0.019,0.19-0.028,0.451-0.03,0.781c-0.001,0.65,0.038,1.064,0.116,1.244C113.127,27.287,113.251,27.376,113.417,27.376z   M141.838,73.309c0.41,0.246,1.343,0.654,2.361,0.654c1.839,0,2.427-1.162,2.41-2.066c-0.017-1.493-1.359-2.132-2.755-2.132h-0.805  v-1.083h0.805c1.048,0,2.378-0.54,2.378-1.803c0-0.853-0.541-1.606-1.871-1.606c-0.852,0-1.67,0.377-2.131,0.705l-0.393-1.049  c0.572-0.41,1.654-0.821,2.804-0.821c2.098,0,3.05,1.248,3.05,2.543c0,1.114-0.672,2.049-1.967,2.525v0.032  c1.314,0.246,2.363,1.232,2.378,2.724c0,1.705-1.343,3.198-3.886,3.198c-1.195,0-2.245-0.376-2.771-0.722L141.838,73.309z   M114.606,97.213c-0.293-0.015-0.672,0.016-1.083,0.083c-2.279,0.359-3.458,1.998-3.706,3.772h0.033  c0.508-0.691,1.411-1.248,2.591-1.248c1.887,0,3.214,1.377,3.214,3.442c0,1.969-1.327,3.772-3.558,3.772  c-2.263,0-3.754-1.771-3.754-4.542c0-2.097,0.737-3.755,1.804-4.805c0.885-0.869,2.066-1.409,3.409-1.572  c0.427-0.068,0.79-0.081,1.05-0.081L114.606,97.213L114.606,97.213z M114.195,103.363c0-1.525-0.869-2.446-2.196-2.446  c-0.869,0-1.689,0.525-2.083,1.314c-0.082,0.162-0.147,0.361-0.147,0.621c0.017,1.757,0.836,3.068,2.362,3.068  C113.361,105.921,114.195,104.887,114.195,103.363z"/>
<path fill="#666666" d="M112.504,30.561h-1.008v-1.201h1.008V30.561z M111.494,109.877h1.01v-1.2h-1.01V109.877z M152.258,70.124  v-1.012h-1.2v1.012H152.258z M71.742,69.112v1.01h1.201v-1.01H71.742z M92.309,34.5l-0.875,0.506l0.6,1.04l0.876-0.505L92.309,34.5z   M131.689,104.736l0.874-0.507l-0.598-1.04l-0.874,0.506L131.689,104.736z M147.118,49.926l-0.507-0.874l-1.038,0.6l0.504,0.875  L147.118,49.926z M76.882,89.308l0.505,0.874l1.04-0.598l-0.505-0.874L76.882,89.308z M77.389,49.051l-0.505,0.875l1.039,0.6  l0.505-0.874L77.389,49.051z M146.611,90.184l0.506-0.873l-1.041-0.601l-0.504,0.874L146.611,90.184z M132.566,35.007l-0.875-0.505  l-0.599,1.041l0.874,0.504L132.566,35.007z M91.433,104.229l0.873,0.505l0.602-1.039l-0.875-0.506L91.433,104.229z"/>
<path fill="#808080" d="M107.395,26.71l-0.172,0.018l-0.177-1.677l0.173-0.018L107.395,26.71z M116.783,114.203l0.17-0.017  l-0.177-1.68l-0.172,0.018L116.783,114.203z M156.584,64.837l-0.017-0.172l-1.679,0.177l0.018,0.172L156.584,64.837z M67.416,74.4  l0.017,0.173l1.677-0.178l-0.017-0.173L67.416,74.4z M102.585,25.777l-0.17,0.035l0.35,1.65l0.17-0.037L102.585,25.777z   M121.415,113.459l0.169-0.035l-0.351-1.651l-0.171,0.038L121.415,113.459z M155.841,60.204l-0.036-0.17l-1.65,0.351l0.037,0.17  L155.841,60.204z M68.159,79.034l0.036,0.169l1.65-0.351l-0.037-0.172L68.159,79.034z M98.054,27.002l-0.166,0.054l0.521,1.604  l0.166-0.053L98.054,27.002z M125.946,112.236l0.164-0.055l-0.519-1.605l-0.167,0.055L125.946,112.236z M154.618,55.671  l-0.056-0.165l-1.604,0.522l0.055,0.165L154.618,55.671z M69.383,83.564l0.054,0.165l1.604-0.521l-0.054-0.166L69.383,83.564z   M93.676,28.693l-0.158,0.071l0.686,1.541l0.159-0.07L93.676,28.693z M130.324,110.544l0.159-0.072l-0.687-1.54l-0.159,0.072  L130.324,110.544z M152.925,51.294l-0.071-0.159l-1.541,0.686l0.072,0.159L152.925,51.294z M71.074,87.942l0.07,0.159l1.542-0.685  l-0.071-0.161L71.074,87.942z M86.558,34.762l-0.139,0.102l-0.993-1.365l0.141-0.102L86.558,34.762z M138.434,105.84l0.139-0.103  l-0.991-1.365l-0.14,0.103L138.434,105.84z M148.222,43.185l-0.103-0.14l-1.364,0.992l0.101,0.14L148.222,43.185z M75.779,96.052  l0.102,0.139l1.364-0.991l-0.102-0.139L75.779,96.052z M81.925,36.358l-0.128,0.116l1.129,1.253l0.128-0.116L81.925,36.358z   M142.075,102.879l0.128-0.115l-1.127-1.255l-0.131,0.115L142.075,102.879z M145.262,39.544l-0.116-0.129l-1.255,1.128l0.115,0.129  L145.262,39.544z M78.74,99.692l0.116,0.128l1.253-1.126l-0.117-0.131L78.74,99.692z M78.613,39.685l-0.117,0.128l1.255,1.128  l0.116-0.128L78.613,39.685z M145.386,99.554l0.117-0.131l-1.255-1.127l-0.115,0.128L145.386,99.554z M141.935,36.232l-0.131-0.116  l-1.127,1.254l0.128,0.116L141.935,36.232z M82.065,103.006l0.129,0.115l1.128-1.255l-0.128-0.114L82.065,103.006z M75.668,43.338  l-0.103,0.14l1.364,0.993l0.103-0.141L75.668,43.338z M148.331,95.899l0.103-0.144l-1.365-0.989l-0.1,0.14L148.331,95.899z   M138.281,33.286l-0.142-0.102l-0.992,1.365l0.141,0.102L138.281,33.286z M85.72,105.949l0.14,0.102l0.992-1.364l-0.141-0.1  L85.72,105.949z M72.538,52.152l-0.071,0.159l-1.541-0.687l0.072-0.158L72.538,52.152z M153.003,87.771l0.069-0.157l-1.541-0.687  l-0.071,0.159L153.003,87.771z M130.152,28.617l-0.156-0.072l-0.688,1.542l0.16,0.07L130.152,28.617z M93.847,110.62l0.158,0.071  l0.686-1.54l-0.159-0.073L93.847,110.62z M69.324,55.851l-0.054,0.166l1.604,0.52l0.054-0.165L69.324,55.851z M154.674,83.384  l0.056-0.163l-1.605-0.522l-0.056,0.164L154.674,83.384z M125.767,26.943l-0.165-0.055l-0.521,1.605l0.164,0.054L125.767,26.943z   M98.233,112.292l0.165,0.056l0.52-1.605l-0.165-0.055L98.233,112.292z M68.12,60.388l-0.037,0.169l1.651,0.352l0.036-0.17  L68.12,60.388z M155.879,78.849l0.038-0.171l-1.651-0.349l-0.036,0.172L155.879,78.849z M121.229,25.738l-0.17-0.036l-0.35,1.65  l0.172,0.036L121.229,25.738z M102.769,113.498l0.17,0.038l0.351-1.653l-0.17-0.035L102.769,113.498z M67.396,65.023l-0.02,0.174  l1.678,0.176l0.019-0.173L67.396,65.023z M156.604,74.212l0.018-0.174l-1.676-0.175l-0.02,0.171L156.604,74.212z M116.593,25.014  l-0.173-0.019l-0.174,1.678l0.171,0.02L116.593,25.014z M107.405,114.222l0.175,0.019l0.175-1.675l-0.173-0.02L107.405,114.222z"/>
<polygon fill-opacity="0.4" points="120.303,64.168 90.39,94.083 87.194,94.245 87.549,91.215 117.451,61.313 "/>
<polygon points="117.451,62.029 119.592,64.17 90.17,93.589 87.766,93.711 88.029,91.446 "/>
<polygon fill-opacity="0.4" points="108.156,62.206 130.577,84.627 130.383,88.182 126.997,88.183 104.588,65.773 "/>
<polygon fill="#1A1A1A" points="105.301,65.773 108.156,62.919 130.082,84.847 129.849,87.609 127.229,87.701 "/>
<path fill-opacity="0.4" d="M108.789,66.406c1.771-1.771,4.65-1.77,6.423,0.001c1.769,1.771,1.769,4.65,0,6.422  c-1.772,1.77-4.651,1.771-6.423,0C107.018,71.058,107.018,68.178,108.789,66.406L108.789,66.406z"/>
<linearGradient id="SVGID_4_" gradientUnits="userSpaceOnUse" x1="-297.3677" y1="401.4014" x2="-297.3677" y2="393.2246" gradientTransform="matrix(-0.7071 0.7071 0.7071 0.7071 -379.2077 -1.0529)">
<stop offset="0" style="stop-color:#999999"/>
<stop offset="0.31" style="stop-color:#4D4D4D"/>
<stop offset="1" style="stop-color:#000000"/>
</linearGradient>
<circle fill="url(#SVGID_4_)" cx="112" cy="69.618" r="4.088"/>
<path fill="#E6E6E6" d="M109.432,67.049c1.417-1.416,3.72-1.417,5.138,0c1.417,1.416,1.416,3.721,0,5.138  c-1.417,1.415-3.722,1.416-5.138,0.001C108.015,70.772,108.015,68.464,109.432,67.049L109.432,67.049z"/>
<path fill="#595959" d="M126.015,58.987l-0.303-1.292h-1.688l-0.315,1.292h-1.268l1.737-6.196h1.705l1.623,6.196H126.015z   M125.541,56.892l-0.665-2.917l-0.681,2.917H125.541z"/>
<path fill="#595959" d="M133.559,52.791v6.196h-1.389v-4.111l-1.071,2.095h-0.512l-1.072-2.095v4.111h-1.397v-6.196h1.226l1.5,2.93  l1.497-2.93H133.559z"/>
</svg>
