<?xml version="1.0" encoding="UTF-8" standalone="no"?>
<!-- Created with Inkscape (http://www.inkscape.org/) -->
<svg
   xmlns:dc="http://purl.org/dc/elements/1.1/"
   xmlns:cc="http://creativecommons.org/ns#"
   xmlns:rdf="http://www.w3.org/1999/02/22-rdf-syntax-ns#"
   xmlns:svg="http://www.w3.org/2000/svg"
   xmlns="http://www.w3.org/2000/svg"
   xmlns:sodipodi="http://sodipodi.sourceforge.net/DTD/sodipodi-0.dtd"
   xmlns:inkscape="http://www.inkscape.org/namespaces/inkscape"
   width="354.33069"
   height="354.33069"
   id="svg2493"
   sodipodi:version="0.32"
   inkscape:version="0.46"
   version="1.0"
   sodipodi:docname="mouse-clock-minute-hand.svg"
   inkscape:output_extension="org.inkscape.output.svg.inkscape">
  <defs
     id="defs2495">
    <inkscape:perspective
       sodipodi:type="inkscape:persp3d"
       inkscape:vp_x="0 : 526.18109 : 1"
       inkscape:vp_y="0 : 1000 : 0"
       inkscape:vp_z="744.09448 : 526.18109 : 1"
       inkscape:persp3d-origin="372.04724 : 350.78739 : 1"
       id="perspective2501" />
    <inkscape:perspective
       id="perspective2510"
       inkscape:persp3d-origin="372.04724 : 350.78739 : 1"
       inkscape:vp_z="744.09448 : 526.18109 : 1"
       inkscape:vp_y="0 : 1000 : 0"
       inkscape:vp_x="0 : 526.18109 : 1"
       sodipodi:type="inkscape:persp3d" />
    <inkscape:perspective
       id="perspective4078"
       inkscape:persp3d-origin="372.04724 : 350.78739 : 1"
       inkscape:vp_z="744.09448 : 526.18109 : 1"
       inkscape:vp_y="0 : 1000 : 0"
       inkscape:vp_x="0 : 526.18109 : 1"
       sodipodi:type="inkscape:persp3d" />
  </defs>
  <sodipodi:namedview
     id="base"
     pagecolor="#ffffff"
     bordercolor="#666666"
     borderopacity="1.0"
     gridtolerance="10000"
     guidetolerance="10"
     objecttolerance="10"
     inkscape:pageopacity="0.0"
     inkscape:pageshadow="2"
     inkscape:zoom="1.4"
     inkscape:cx="103.27881"
     inkscape:cy="122.61408"
     inkscape:document-units="px"
     inkscape:current-layer="g4084"
     showgrid="false"
     units="cm"
     inkscape:window-width="1680"
     inkscape:window-height="990"
     inkscape:window-x="-4"
     inkscape:window-y="-4" />
  <metadata
     id="metadata2498">
    <rdf:RDF>
      <cc:Work
         rdf:about="">
        <dc:format>image/svg+xml</dc:format>
        <dc:type
           rdf:resource="http://purl.org/dc/dcmitype/StillImage" />
      </cc:Work>
    </rdf:RDF>
  </metadata>
  <g
     inkscape:label="Layer 1"
     inkscape:groupmode="layer"
     id="layer1">
    <g
       id="g4084"
       transform="matrix(-0.1729112,0.6174197,-0.6174197,-0.1729112,161.54732,181.34073)"
       style="fill:#000000">
      <path
         style="fill:#000000;fill-opacity:1"
         d="M -196.95918,66.959164 C -198.87867,65.166084 -200.37463,62.565154 -200.80456,60.273434 C -201.19158,58.210414 -202.01392,56.371004 -202.63197,56.185844 C -203.25002,56.000694 -204.98502,55.580104 -206.48751,55.251204 C -209.40492,54.612564 -212.2557,50.348494 -212.2557,46.623414 C -212.2557,44.885984 -212.69426,44.574614 -214.5057,45.025944 C -224.68087,47.561104 -229.84567,46.309544 -232.8022,40.592244 C -235.73932,34.912474 -233.05785,30.028404 -224.7557,25.936254 C -217.63336,22.425643 -202.06331,17.516513 -196.33625,16.975803 C -192.88936,16.650373 -188.12355,15.155333 -183.87134,13.065543 C -175.98834,9.1913634 -171.20781,8.7933334 -163.92271,11.404603 C -159.31048,13.057813 -159.04414,13.055503 -158.09199,11.354113 C -156.41095,8.3502634 -152.67617,7.5301234 -148.42473,9.2312034 C -144.78892,10.685973 -143.87412,10.563273 -125.69607,6.1827234 C -115.27887,3.6723734 -96.4057,-1.9143566 -83.7557,-6.2322366 C -71.1057,-10.550117 -58.353404,-14.832947 -55.417254,-15.749627 C -48.321686,-17.964904 -34.019356,-24.619304 -27.863656,-28.569414 C -23.852886,-31.143124 -21.879256,-31.746404 -17.470286,-31.746404 C -12.607526,-31.746404 -11.722656,-31.404854 -9.1627563,-28.539834 C -3.8512663,-22.595244 -4.0731363,-16.873034 -9.7650763,-13.005257 C -11.681966,-11.702697 -18.539036,-8.9313066 -25.003016,-6.8466166 C -31.466996,-4.7619166 -39.230706,-2.0289766 -42.255706,-0.77340661 C -45.280706,0.48215339 -52.930704,3.1822534 -59.255704,5.2268034 C -65.5807,7.2713534 -73.0057,9.9422434 -75.7557,11.162103 C -84.05703,14.844443 -97.74724,19.300213 -117.4094,24.719183 L -136.0631,29.860214 L -137.17865,34.290434 C -138.77693,40.637784 -141.50508,43.046184 -146.35933,42.395094 C -150.12174,41.890444 -150.25882,41.980034 -151.22728,45.576624 C -152.77786,51.335044 -159.51272,56.682164 -165.21504,56.682164 C -166.22107,56.682164 -168.36904,57.919664 -169.9883,59.432164 C -174.06489,63.239984 -184.91912,68.674294 -189.77841,69.340334 C -193.26967,69.818864 -194.24358,69.495904 -196.95918,66.959164 z M -182.46625,63.558094 C -176.22609,60.883244 -171.6081,57.264314 -169.68195,53.539544 C -168.22491,50.721934 -168.24321,50.352884 -169.933,48.478524 C -171.48676,46.755054 -172.60634,46.533354 -177.52086,46.975994 C -182.69785,47.442284 -192.80071,51.565144 -197.0057,54.927534 C -198.93606,56.471084 -198.48696,61.118454 -196.11617,64.132424 C -194.28763,66.457034 -193.48228,66.759654 -190.57561,66.214354 C -188.70505,65.863434 -185.05584,64.668114 -182.46625,63.558094 z M -156.2851,50.166104 C -154.24031,48.121314 -153.71656,46.540414 -153.54972,41.909624 C -153.43623,38.759524 -153.32365,35.991224 -153.29954,35.757854 C -153.27543,35.524474 -152.2432,36.260254 -151.0057,37.392914 C -147.20547,40.871184 -144.60627,41.123634 -141.77235,38.289724 C -139.10495,35.622324 -138.33157,30.682164 -140.58139,30.682164 C -144.04591,30.682164 -148.23492,22.786433 -148.5926,15.582073 C -148.77814,11.844973 -149.15412,11.132943 -151.08842,10.855403 C -153.76032,10.472023 -156.11492,12.181673 -157.33512,15.391063 C -158.31214,17.960813 -160.2557,18.487263 -160.2557,16.182163 C -160.2557,15.357163 -160.86156,14.682163 -161.60206,14.682163 C -162.34256,14.682163 -164.41192,13.952073 -166.20063,13.059753 C -172.33978,9.9971334 -184.81909,13.864463 -188.19088,19.874503 C -189.47092,22.156113 -189.50989,23.300283 -188.4463,27.374504 C -186.58207,34.515704 -182.03657,43.130174 -179.92661,43.520724 C -173.7377,44.666254 -170.66888,40.113314 -172.7896,32.932164 C -173.81781,29.450444 -173.80698,28.682164 -172.72965,28.682164 C -172.00638,28.682164 -171.13471,29.956534 -170.79261,31.514104 C -170.19254,34.246224 -169.95184,34.347544 -163.96316,34.388844 C -160.54906,34.412394 -157.78121,34.825524 -157.8124,35.306914 C -157.89709,36.614324 -163.36614,37.402604 -166.5057,36.559904 C -168.83371,35.935044 -169.2557,36.128054 -169.2557,37.817714 C -169.2557,38.915474 -169.70888,40.660424 -170.26277,41.695374 C -171.05964,43.184334 -170.74654,44.100414 -168.76277,46.084184 C -167.38388,47.463074 -166.2557,49.661714 -166.2557,50.970044 C -166.2557,52.278374 -165.99683,53.607704 -165.68043,53.924104 C -164.59625,55.008274 -158.81475,52.695764 -156.2851,50.166104 z M -197.20352,50.801704 C -195.78765,49.754914 -192.32228,47.906024 -189.5027,46.693074 L -184.37617,44.487704 L -186.5152,40.084934 C -187.69167,37.663414 -189.35206,35.679994 -190.20497,35.677344 C -193.48712,35.667154 -206.21639,41.011414 -208.3699,43.303724 C -210.23654,45.290674 -210.46485,46.185264 -209.67703,48.425414 C -207.88326,53.525994 -202.32145,54.585554 -197.20352,50.801704 z M -212.7557,41.622174 C -210.5557,40.513334 -207.1807,38.753744 -205.2557,37.711974 C -203.3307,36.670194 -199.13398,35.016894 -195.92966,34.037974 C -190.49588,32.377944 -190.14451,32.087224 -190.71113,29.720134 C -191.04526,28.324254 -191.59129,25.240554 -191.92452,22.867473 L -192.53039,18.552773 L -196.42877,19.211403 C -201.38544,20.048823 -220.42859,26.203084 -224.37013,28.241344 C -231.29032,31.819904 -233.24634,37.168334 -229.21674,41.493604 C -226.50108,44.408524 -218.40938,44.471724 -212.7557,41.622174 z"
         id="path4092" />
      <path
         style="opacity:1;fill:#ffffff;fill-opacity:1;stroke:none;stroke-width:3;stroke-linecap:round;stroke-linejoin:round;stroke-miterlimit:4;stroke-dasharray:none;stroke-opacity:1"
         d="M -169.33731,52.439968 C -171.47692,57.558485 -177.49205,61.881741 -186.48856,64.767085 C -191.50271,66.375215 -192.55546,66.536908 -193.93393,65.910631 C -196.20822,64.877362 -198.50092,59.957182 -197.96706,57.255484 C -197.63744,55.58739 -197.01337,54.916909 -194.30352,53.319431 C -188.39419,49.835855 -179.97003,47.001345 -175.42987,46.96896 C -174.17478,46.960022 -172.71377,47.064838 -172.18319,47.201901 C -171.14358,47.47047 -169.11777,49.335565 -168.84311,50.27701 C -168.75042,50.594677 -168.97281,51.568009 -169.3373,52.439966 L -169.33731,52.439968 z"
         id="path4659" />
      <path
         style="opacity:1;fill:#ffffff;fill-opacity:1;stroke:none;stroke-width:3;stroke-linecap:round;stroke-linejoin:round;stroke-miterlimit:4;stroke-dasharray:none;stroke-opacity:1"
         d="M -185.09866,44.619931 C -185.33634,44.765242 -186.17315,45.146542 -186.95822,45.467262 C -189.97286,46.698782 -194.36125,48.905371 -196.83409,50.433088 C -201.78861,53.493973 -205.47725,53.650361 -208.00664,50.906798 C -209.01093,49.817465 -210.03738,47.304432 -209.92877,46.200872 C -209.82415,45.137818 -208.36317,43.327883 -206.80542,42.331524 C -203.38037,40.140794 -193.19101,36.017237 -190.93643,35.909462 C -189.92482,35.861103 -189.66584,35.999792 -188.66215,37.127339 C -188.03764,37.828896 -186.90915,39.653379 -186.1468,41.193988 C -184.49086,44.540477 -184.56615,44.29437 -185.09866,44.619931 L -185.09866,44.619931 z"
         id="path4661" />
      <path
         style="opacity:1;fill:#ffffff;fill-opacity:1;stroke:none;stroke-width:3;stroke-linecap:round;stroke-linejoin:round;stroke-miterlimit:4;stroke-dasharray:none;stroke-opacity:1"
         d="M -191.63897,24.800321 C -190.59264,31.175979 -190.58758,31.247528 -191.13877,31.878813 C -191.47056,32.258829 -193.06226,32.930613 -196.23503,34.029715 C -201.97993,36.019848 -203.63462,36.738103 -208.99977,39.570593 C -212.55467,41.44736 -213.80807,41.97795 -216.36897,42.690103 C -223.41798,44.650346 -228.9118,43.221306 -230.63194,38.980028 C -231.288,37.36241 -231.20724,35.707581 -230.38933,34.008856 C -229.1321,31.397715 -226.32763,29.173939 -222.08943,27.427538 C -216.2084,25.004152 -200.37745,20.097799 -195.41052,19.159138 C -192.73881,18.654233 -192.73196,18.65476 -192.57139,19.376304 C -192.48286,19.774124 -192.06327,22.214926 -191.63897,24.800321 z"
         id="path4663" />
      <path
         style="opacity:1;fill:#ffffff;fill-opacity:1;stroke:none;stroke-width:3;stroke-linecap:round;stroke-linejoin:round;stroke-miterlimit:4;stroke-dasharray:none;stroke-opacity:1"
         d="M -139.53143,33.683974 C -140.04966,36.451422 -142.26372,39.171723 -144.50992,39.800782 C -146.49732,40.357362 -147.86684,39.790155 -151.27999,36.996903 C -152.25751,36.196935 -153.14033,35.565661 -153.24181,35.594083 C -153.3433,35.622504 -153.51399,37.590007 -153.62113,39.966324 C -153.84366,44.902267 -154.12085,46.608853 -154.94005,48.08637 C -156.24646,50.442699 -159.50565,52.677063 -163.10777,53.685853 C -165.24897,54.285505 -165.88121,54.026219 -165.9776,52.508884 C -166.1294,50.119371 -166.97091,48.091539 -168.67411,46.011011 C -169.56672,44.920638 -170.36262,43.794386 -170.44275,43.508238 C -170.52289,43.22209 -170.32651,42.292405 -170.00635,41.442272 C -169.68619,40.592138 -169.31457,39.136585 -169.18052,38.207705 C -169.04648,37.278843 -168.82813,36.488433 -168.69533,36.45124 C -168.56253,36.414049 -167.55364,36.533177 -166.45336,36.715969 C -162.18899,37.424405 -157.36567,36.500794 -157.77102,35.053413 C -157.87168,34.693975 -160.65641,34.377337 -164.88843,34.24411 C -167.02296,34.176918 -169.06866,33.953592 -169.43444,33.747877 C -169.93205,33.467992 -170.21205,32.986594 -170.5465,31.835982 C -171.19593,29.601721 -171.97803,28.571147 -172.91113,28.72008 C -173.82084,28.865264 -173.82137,29.012783 -172.92637,33.053104 C -171.89932,37.689468 -172.22376,40.103191 -174.13356,42.0343 C -174.83515,42.743726 -175.31459,42.974396 -176.68235,43.260588 C -179.75562,43.903656 -181.01498,43.239889 -182.96594,39.94873 C -185.31185,35.991329 -186.41263,33.36893 -187.83,28.361167 C -189.08913,23.912486 -189.17372,23.440533 -188.91824,22.290043 C -188.02892,18.28516 -183.91322,14.931313 -177.77189,13.20692 C -172.58939,11.751763 -169.51788,11.825557 -165.42498,13.503577 C -164.32927,13.952801 -162.83573,14.503075 -162.10599,14.726423 C -160.88809,15.09917 -160.74303,15.235686 -160.33873,16.389524 C -159.93325,17.546738 -159.8369,17.636709 -159.12515,17.522737 C -158.48643,17.420453 -158.1269,16.998688 -157.05701,15.09652 C -156.34477,13.830178 -155.3985,12.503947 -154.95421,12.149322 C -153.27125,10.806001 -150.48479,10.631564 -149.49316,11.807469 C -149.15802,12.204881 -148.94748,13.235047 -148.67812,15.795261 C -148.24561,19.906278 -147.73909,21.838444 -146.30947,24.830692 C -144.57693,28.456985 -142.782,30.3575 -140.66768,30.804378 C -139.67215,31.014789 -139.23775,32.115689 -139.53142,33.683972 L -139.53143,33.683974 z"
         id="path4665" />
    </g>
  </g>
</svg>
