<?xml version="1.0" encoding="UTF-8" standalone="no"?>
<!-- Created with Inkscape (http://www.inkscape.org/) -->
<svg
   xmlns:dc="http://purl.org/dc/elements/1.1/"
   xmlns:cc="http://creativecommons.org/ns#"
   xmlns:rdf="http://www.w3.org/1999/02/22-rdf-syntax-ns#"
   xmlns:svg="http://www.w3.org/2000/svg"
   xmlns="http://www.w3.org/2000/svg"
   xmlns:sodipodi="http://sodipodi.sourceforge.net/DTD/sodipodi-0.dtd"
   xmlns:inkscape="http://www.inkscape.org/namespaces/inkscape"
   width="354.33069"
   height="354.33069"
   id="svg2493"
   sodipodi:version="0.32"
   inkscape:version="0.46"
   version="1.0"
   sodipodi:docname="mouse-clock-hour-hand.svg"
   inkscape:output_extension="org.inkscape.output.svg.inkscape">
  <defs
     id="defs2495">
    <inkscape:perspective
       sodipodi:type="inkscape:persp3d"
       inkscape:vp_x="0 : 526.18109 : 1"
       inkscape:vp_y="0 : 1000 : 0"
       inkscape:vp_z="744.09448 : 526.18109 : 1"
       inkscape:persp3d-origin="372.04724 : 350.78739 : 1"
       id="perspective2501" />
    <inkscape:perspective
       id="perspective2510"
       inkscape:persp3d-origin="372.04724 : 350.78739 : 1"
       inkscape:vp_z="744.09448 : 526.18109 : 1"
       inkscape:vp_y="0 : 1000 : 0"
       inkscape:vp_x="0 : 526.18109 : 1"
       sodipodi:type="inkscape:persp3d" />
    <inkscape:perspective
       id="perspective4078"
       inkscape:persp3d-origin="372.04724 : 350.78739 : 1"
       inkscape:vp_z="744.09448 : 526.18109 : 1"
       inkscape:vp_y="0 : 1000 : 0"
       inkscape:vp_x="0 : 526.18109 : 1"
       sodipodi:type="inkscape:persp3d" />
  </defs>
  <sodipodi:namedview
     id="base"
     pagecolor="#ffffff"
     bordercolor="#666666"
     borderopacity="1.0"
     gridtolerance="10000"
     guidetolerance="10"
     objecttolerance="10"
     inkscape:pageopacity="0.0"
     inkscape:pageshadow="2"
     inkscape:zoom="1.4"
     inkscape:cx="103.27881"
     inkscape:cy="122.61408"
     inkscape:document-units="px"
     inkscape:current-layer="g4084"
     showgrid="false"
     units="cm"
     inkscape:window-width="1680"
     inkscape:window-height="990"
     inkscape:window-x="-4"
     inkscape:window-y="-4" />
  <metadata
     id="metadata2498">
    <rdf:RDF>
      <cc:Work
         rdf:about="">
        <dc:format>image/svg+xml</dc:format>
        <dc:type
           rdf:resource="http://purl.org/dc/dcmitype/StillImage" />
      </cc:Work>
    </rdf:RDF>
  </metadata>
  <g
     inkscape:label="Layer 1"
     inkscape:groupmode="layer"
     id="layer1">
    <g
       id="g4084"
       transform="matrix(-0.1729112,0.6174197,-0.6174197,-0.1729112,161.54732,181.34073)"
       style="fill:#000000">
      <path
         style="fill:#000000;fill-opacity:1"
         d="M -184.9402,-14.123469 C -185.4383,-11.653333 -185.25159,-8.6857426 -184.46026,-6.4952357 C -183.74788,-4.5233312 -183.44956,-2.5371694 -183.79728,-2.081539 C -184.14501,-1.6259169 -185.16855,-0.43278806 -186.07179,0.5698477 C -187.82563,2.516692 -187.80057,7.5721204 -186.02111,10.798854 C -185.19115,12.303847 -185.35191,12.783061 -186.8459,13.257433 C -195.23789,15.922091 -198.28499,19.473431 -197.64037,25.838191 C -196.99997,32.161169 -192.77446,35.110907 -184.96055,34.689681 C -178.25706,34.328307 -164.92369,31.142901 -160.62362,28.875467 C -158.03558,27.510787 -153.95802,26.529199 -149.9588,26.308141 C -142.54482,25.898331 -138.98091,23.959461 -135.08697,18.217452 C -132.6217,14.582157 -132.43263,14.456928 -130.94792,15.475862 C -128.32662,17.274822 -125.29908,16.201145 -123.1113,12.696734 C -121.24033,9.6997643 -120.53612,9.3690514 -105.61469,4.4799411 C -97.063742,1.6781737 -81.07556,-2.4981774 -70.085396,-4.8008329 C -59.095232,-7.1034884 -48.049618,-9.4853717 -45.539584,-10.09392 C -39.473775,-11.564546 -26.201356,-12.63258 -19.970115,-12.15149 C -15.910127,-11.838032 -14.229086,-12.258259 -11.11753,-14.364417 C -7.6857213,-16.687349 -7.2243973,-17.405907 -6.7864072,-21.110499 C -5.8776346,-28.797102 -8.7677052,-33.647799 -14.632325,-34.27911 C -16.607367,-34.491716 -22.770515,-33.616735 -28.32821,-32.3347 C -33.885911,-31.052674 -40.670536,-29.711286 -43.405161,-29.353847 C -46.139782,-28.996399 -52.82847,-27.680884 -58.268908,-26.43047 C -63.709343,-25.180057 -70.225288,-23.946722 -72.748779,-23.689717 C -80.366347,-22.913897 -92.156488,-20.233777 -108.62135,-15.535209 L -124.24174,-11.077626 L -127.14533,-14.382267 C -131.30541,-19.116964 -134.38124,-19.899931 -137.49602,-17.017079 C -139.91021,-14.782645 -140.04974,-14.794767 -142.4513,-17.447567 C -146.29638,-21.694907 -153.6037,-23.10945 -157.62802,-20.385462 C -158.33801,-19.904883 -160.44506,-19.950748 -162.31033,-20.487385 C -167.0063,-21.838408 -177.26245,-21.360662 -181.00998,-19.616324 C -183.70247,-18.363066 -184.23551,-17.618077 -184.9402,-14.123469 z M -173.08739,-18.100647 C -167.40573,-18.764556 -162.4179,-17.835778 -159.27924,-15.529432 C -156.90499,-13.784792 -156.74161,-13.456372 -157.03878,-11.025557 C -157.31201,-8.7904275 -157.99623,-8.0635647 -161.67602,-6.0993306 C -165.55233,-4.0302005 -174.65174,-2.7753793 -179.22555,-3.679227 C -181.32522,-4.0941493 -183.22831,-8.3343208 -182.99494,-12.0776 C -182.81494,-14.96471 -182.39114,-15.611559 -180.07932,-16.527721 C -178.59157,-17.117311 -175.4452,-17.825124 -173.08739,-18.100647 z M -148.21315,-19.006947 C -145.79329,-18.212505 -144.66847,-17.093295 -142.3386,-13.161719 C -140.75372,-10.487259 -139.35185,-8.1430853 -139.22336,-7.9524526 C -139.09485,-7.7618117 -138.71786,-8.8922533 -138.38558,-10.464535 C -137.3652,-15.29284 -135.65145,-16.75315 -132.29771,-15.652124 C -129.14102,-14.615785 -126.23532,-10.705969 -127.82309,-9.631235 C -130.26811,-7.9762393 -129.45266,0.86427064 -126.26358,7.2756834 C -124.60931,10.601461 -124.53452,11.397839 -125.76704,12.562261 C -127.46955,14.170714 -129.94796,13.814572 -132.34221,11.617426 C -134.25929,9.8581831 -135.88241,10.330598 -134.78127,12.327318 C -134.38717,13.041948 -134.4923,13.916063 -135.0149,14.269799 C -135.53749,14.623534 -136.64915,16.244481 -137.48523,17.871889 C -140.35483,23.457448 -151.0093,26.06884 -156.25987,22.47353 C -158.25315,21.108631 -158.82723,20.136146 -160.02286,16.098906 C -162.11856,9.0225273 -163.02576,-0.61086403 -161.72326,-1.9570895 C -157.90276,-5.9058005 -153.56207,-3.4279293 -151.6283,3.8055793 C -150.69073,7.312684 -150.31609,7.973008 -149.55578,7.4583699 C -149.04534,7.112865 -149.03894,5.592587 -149.54155,4.0799711 C -150.4232,1.4267048 -150.30173,1.2239578 -146.09504,-1.6725985 C -143.69686,-3.3239075 -141.94085,-5.0039662 -142.19281,-5.4060555 C -142.87713,-6.4981017 -147.11338,-4.5683685 -148.92651,-2.3386442 C -150.27097,-0.68529243 -150.66099,-0.65089726 -151.46813,-2.114512 C -151.99253,-3.0654116 -153.14592,-4.3604369 -154.03121,-4.9923373 C -155.30486,-5.9014381 -155.5215,-6.8445315 -155.06913,-9.5105523 C -154.7547,-11.363666 -155.00879,-13.807098 -155.63377,-14.940397 C -156.25877,-16.073697 -156.71109,-17.348849 -156.63894,-17.774063 C -156.39171,-19.231103 -151.20683,-19.989776 -148.21315,-19.006947 z M -177.39426,-0.01085863 C -175.89498,0.21953122 -172.56615,0.16567231 -169.99685,-0.13055662 L -165.32538,-0.66915866 L -164.73177,4.1664136 C -164.40529,6.825977 -164.62961,9.3372169 -165.23027,9.7469461 C -167.54172,11.32365 -179.07813,12.775103 -181.69296,11.818191 C -183.95947,10.988749 -184.54794,10.322901 -185.06207,8.0061015 C -186.23269,2.7310049 -182.81368,-0.84367298 -177.39426,-0.01085863 z M -183.98489,15.369869 C -181.90259,15.27943 -178.68019,15.191388 -176.824,15.17422 C -174.9678,15.157059 -171.21627,14.584413 -168.48724,13.901673 C -163.85946,12.743914 -163.4726,12.827892 -162.74173,15.148982 C -162.31073,16.517733 -161.223,19.449728 -160.32456,21.664518 L -158.69101,25.691414 L -161.75685,26.983146 C -165.65498,28.625549 -182.03423,32.391494 -185.78958,32.508783 C -192.38285,32.714731 -196.31822,29.01621 -195.54057,23.344649 C -195.01649,19.522425 -189.33611,15.602289 -183.98489,15.369869 z"
         id="path4092" />
      <path
         style="opacity:1;fill:#ffffff;fill-opacity:1;stroke:none;stroke-width:3;stroke-linecap:round;stroke-linejoin:round;stroke-miterlimit:4;stroke-dasharray:none;stroke-opacity:1"
         d="M -158.51076,-14.741593 C -162.46585,-18.153258 -168.77614,-19.024725 -176.50359,-17.226447 C -180.81045,-16.224189 -181.63064,-15.861353 -182.30431,-14.660368 C -183.41576,-12.678906 -182.68342,-7.3217365 -181.01607,-5.2365003 C -179.9866,-3.9490258 -179.22589,-3.6663598 -176.55034,-3.5770856 C -170.71583,-3.3824242 -163.41659,-4.9513254 -160.19698,-7.0920994 C -159.30695,-7.6839121 -158.32594,-8.4726271 -158.01697,-8.8448107 C -157.41158,-9.5740704 -156.87285,-12.157376 -157.12873,-13.104077 C -157.21507,-13.423524 -157.83698,-14.160407 -158.51075,-14.741597 L -158.51076,-14.741593 z"
         id="path4659" />
      <path
         style="opacity:1;fill:#ffffff;fill-opacity:1;stroke:none;stroke-width:3;stroke-linecap:round;stroke-linejoin:round;stroke-miterlimit:4;stroke-dasharray:none;stroke-opacity:1"
         d="M -165.89843,-0.43856362 C -166.13559,-0.45089521 -166.9083,-0.38144149 -167.61555,-0.2842283 C -170.33139,0.089094265 -174.4825,0.27403217 -176.95745,0.13196729 C -181.91619,-0.15266267 -184.59409,1.4739286 -185.06857,5.0587391 C -185.25696,6.4820865 -184.78089,9.149255 -184.17707,10.053297 C -183.59542,10.924156 -181.69976,11.794048 -180.12444,11.912978 C -176.66076,12.174489 -167.49998,10.87895 -165.85737,9.8952983 C -165.12034,9.4539438 -165.00382,9.2100944 -164.83411,7.753931 C -164.72851,6.8479017 -164.80364,4.7284232 -165.00158,3.0297466 C -165.43153,-0.66008357 -165.36711,-0.41093601 -165.89843,-0.43856362 L -165.89843,-0.43856362 z"
         id="path4661" />
      <path
         style="opacity:1;fill:#ffffff;fill-opacity:1;stroke:none;stroke-width:3;stroke-linecap:round;stroke-linejoin:round;stroke-miterlimit:4;stroke-dasharray:none;stroke-opacity:1"
         d="M -161.04636,19.853843 C -163.35356,13.8313 -163.38417,13.766906 -164.07473,13.483378 C -164.49042,13.312697 -165.93464,13.491137 -168.69881,14.054701 C -173.70386,15.07514 -175.21474,15.243417 -180.35417,15.352785 C -183.75951,15.425264 -184.89754,15.564404 -187.04504,16.170862 C -192.95616,17.840163 -196.15068,21.702411 -195.33859,26.197993 C -195.02887,27.912602 -194.18136,29.307466 -192.79265,30.388219 C -190.65805,32.049461 -187.61655,32.636046 -183.79126,32.124231 C -178.48318,31.414055 -164.967,28.101611 -161.01328,26.542002 C -158.88657,25.703089 -158.88199,25.69936 -159.11335,24.997642 C -159.24091,24.610752 -160.11075,22.296047 -161.04636,19.853843 z"
         id="path4663" />
      <path
         style="opacity:1;fill:#ffffff;fill-opacity:1;stroke:none;stroke-width:3;stroke-linecap:round;stroke-linejoin:round;stroke-miterlimit:4;stroke-dasharray:none;stroke-opacity:1"
         d="M -128.51606,-12.733022 C -130.2038,-14.882679 -133.06581,-16.181401 -134.95153,-15.653298 C -136.61998,-15.18604 -137.31554,-14.040497 -138.38998,-9.9904754 C -138.69771,-8.8305686 -139.01919,-7.8620263 -139.10438,-7.8381693 C -139.18958,-7.8143067 -140.24992,-9.4370551 -141.46069,-11.444284 C -143.97563,-15.613587 -144.98649,-16.95945 -146.27043,-17.847971 C -148.31802,-19.264997 -151.68548,-19.643535 -154.70952,-18.796641 C -156.50708,-18.293224 -156.82941,-17.766605 -156.17262,-16.406217 C -155.13828,-14.263862 -154.76347,-12.105329 -154.9716,-9.4895212 C -155.08068,-8.1186224 -155.10437,-6.7628414 -155.02422,-6.4766968 C -154.94409,-6.1905481 -154.36139,-5.4790479 -153.72933,-4.8955865 C -153.09728,-4.3121251 -152.1397,-3.22882 -151.60137,-2.4882427 C -151.06306,-1.7476762 -150.53139,-1.1673139 -150.4199,-1.1985352 C -150.30841,-1.2297576 -149.65331,-1.8148935 -148.96412,-2.4988334 C -146.29304,-5.1495759 -142.44786,-6.6536181 -142.04252,-5.2062353 C -141.94185,-4.846798 -143.75587,-3.2422599 -146.6789,-1.1052281 C -148.15321,-0.02736369 -149.49024,1.1433135 -149.65012,1.4962389 C -149.8676,1.9763884 -149.83524,2.5271402 -149.52162,3.6835883 C -148.91265,5.929178 -148.9723,7.1954874 -149.70196,7.5122192 C -150.41333,7.8210244 -150.48418,7.6934945 -151.7826,3.7661537 C -153.27256,-0.74056983 -154.65456,-2.6763974 -156.92485,-3.4368513 C -157.75888,-3.7162209 -158.20743,-3.6870044 -159.30941,-3.2815323 C -161.78551,-2.3704739 -162.35721,-1.1939129 -162.16188,2.5889204 C -161.92702,7.1375311 -161.45116,9.9349425 -160.05925,14.949834 C -158.82273,19.404848 -158.65698,19.854071 -157.92709,20.728604 C -155.38634,23.772881 -150.87963,24.711982 -145.72175,23.271981 C -141.36916,22.056794 -139.23675,20.525617 -137.14985,17.116914 C -136.59117,16.204368 -135.79998,15.01425 -135.39168,14.472187 C -134.71023,13.567517 -134.67306,13.37997 -134.93892,12.187361 C -135.20556,10.991263 -135.18054,10.867303 -134.62379,10.626026 C -134.12417,10.40951 -133.66896,10.603105 -132.00524,11.739712 C -130.89766,12.496405 -129.59631,13.19318 -129.11336,13.288126 C -127.28393,13.647788 -125.23411,12.467802 -125.09601,10.975512 C -125.04934,10.47117 -125.39286,9.4782462 -126.42577,7.1318693 C -128.08436,3.3642209 -128.64989,1.4485793 -129.07035,-1.826288 C -129.57991,-5.7950812 -129.22104,-8.2987773 -127.94237,-9.6958785 C -127.34031,-10.353703 -127.55963,-11.514835 -128.51605,-12.733025 L -128.51606,-12.733022 z"
         id="path4665" />
    </g>
  </g>
</svg>
