<?xml version="1.0" encoding="utf-8"?>
<!-- Generator: Adobe Illustrator 13.0.0, SVG Export Plug-In . SVG Version: 6.00 Build 14948)  -->
<!DOCTYPE svg PUBLIC "-//W3C//DTD SVG 1.1//EN" "http://www.w3.org/Graphics/SVG/1.1/DTD/svg11.dtd">
<svg version="1.1" xmlns="http://www.w3.org/2000/svg" xmlns:xlink="http://www.w3.org/1999/xlink" x="0px" y="0px" width="50px"
	 height="36px" viewBox="0 0 50 36" enable-background="new 0 0 50 36" xml:space="preserve">
<g id="Layer_2">
</g>
<g id="Layer_1">
	<linearGradient id="SVGID_1_" gradientUnits="userSpaceOnUse" x1="24.9995" y1="0" x2="24.9995" y2="36.0005">
		<stop  offset="0" style="stop-color:#79CD19"/>
		<stop  offset="1" style="stop-color:#4A9826"/>
	</linearGradient>
	<path fill="url(#SVGID_1_)" d="M50,31c0,2.762-2.239,5-5,5H5c-2.762,0-5-2.238-5-5V5c0-2.761,2.238-5,5-5h40c2.761,0,5,2.239,5,5
		V31z"/>
	<polygon fill="#E6E6E6" points="16.515,21.084 22.015,21.084 22.015,26.585 22.015,27.586 23.015,27.586 27.015,27.586 
		28.016,27.586 28.016,26.585 28.016,21.084 33.515,21.084 34.516,21.084 34.516,20.083 34.516,16.083 34.516,15.082 33.515,15.082 
		28.016,15.082 28.016,9.583 28.016,8.582 27.015,8.582 23.015,8.582 22.015,8.582 22.015,9.583 22.015,15.082 16.515,15.082 
		15.515,15.082 15.515,16.083 15.515,20.082 15.515,21.084 	"/>
	<path opacity="0.5" fill="#FFFFFF" d="M2.033,33.656C1.398,32.947,1.001,32.023,1.001,31V5c0-2.205,1.795-4,4-4h40
		c1.15,0,2.182,0.496,2.912,1.276l0.708-0.708C47.711,0.606,46.43,0,45.001,0h-40c-2.762,0-5,2.238-5,5v26
		c0,1.301,0.509,2.475,1.323,3.365L2.033,33.656z"/>
	<path opacity="0.2" d="M50.001,31V5c0-1.333-0.529-2.536-1.379-3.433l-0.709,0.708c0.67,0.716,1.088,1.669,1.088,2.724v26
		c0,2.205-1.795,4-4,4h-40c-1.182,0-2.235-0.525-2.968-1.344l-0.709,0.709C2.238,35.363,3.541,36,5.001,36h40
		C47.763,36,50.001,33.762,50.001,31z"/>
	<polygon opacity="0.3" points="22.034,27.578 22.056,27.578 23.058,26.576 23.034,26.576 23.034,20.093 22.034,21.094 
		22.034,26.577 	"/>
	<polygon fill="#FFFFFF" points="15.507,21.08 15.507,21.084 16.507,21.084 22.005,21.085 22.005,21.103 23.007,20.102 
		23.007,20.085 16.507,20.084 16.507,20.08 	"/>
	<polygon opacity="0.3" points="16.495,20.08 16.495,16.086 22.995,16.086 22.995,9.586 26.994,9.586 26.994,9.613 27.995,8.612 
		27.995,8.584 26.993,8.584 22.995,8.584 21.993,8.584 21.993,9.585 21.993,15.084 16.495,15.084 15.495,15.084 15.495,16.085 
		15.495,20.084 15.495,21.08 	"/>
	<polygon fill="#FFFFFF" points="28.016,8.596 27.015,9.597 27.015,16.069 27.028,16.069 28.029,15.068 28.016,15.068 28.016,9.568 
			"/>
	<polygon fill="#FFFFFF" points="23.034,27.584 27.033,27.584 28.035,27.584 28.035,26.583 28.035,21.082 33.533,21.082 
		34.535,21.082 34.535,20.081 34.535,16.082 34.535,15.088 33.534,16.088 33.534,20.082 27.034,20.082 27.034,26.582 23.058,26.582 
		22.056,27.584 	"/>
	<polygon opacity="0.3" points="33.524,16.091 34.525,15.09 34.525,15.084 33.523,15.084 28.039,15.084 27.038,16.085 
		33.524,16.085 	"/>
</g>
</svg>
