<?xml version="1.0" encoding="UTF-8" standalone="no"?>
<!DOCTYPE svg PUBLIC "-//W3C//DTD SVG 1.1 Tiny//EN" "http://www.w3.org/Graphics/SVG/1.1/DTD/svg11-tiny.dtd">
<svg xmlns="http://www.w3.org/2000/svg" xmlns:xlink="http://www.w3.org/1999/xlink" width="88" height="88" viewBox="0 0 88 88">
<rect fill="none" height="88" width="88"/>
<linearGradient id="SVGID_1" gradientUnits="userSpaceOnUse" x1="22.43" y1="2.92" x2="66.99" y2="90.66">
<stop stop-color="#A2C2DD" offset="0.1"/>
<stop stop-color="#6C83BB" offset="0.71"/>
<stop stop-color="#003D6D" offset="0.99"/>
</linearGradient>
<path d="M63.987,81.355c-0.18,0-0.364-0.024-0.543-0.076l-19.092-5.262c-1.259-0.341-2.284-1.793-2.328-3.306 l-0.002-0.068l-3.806,1.339c-0.217,0.066-0.435,0.104-0.656,0.104c-0.18,0-0.362-0.024-0.541-0.072l-19.458-5.141 c-1.282-0.332-2.325-1.772-2.374-3.276L14.623,47.38c-0.034-1.117,0.516-2.05,1.403-2.376L24.09,42l0.016-0.006l0.078-0.027 c0.071-0.023,0.145-0.042,0.221-0.056l0.186-0.027l0.186-0.008c0.056,0,0.11,0.002,0.167,0.008l0.083,0.006l0.023,0.002l0.075,0.012 l0.026,0.004l0.133,0.026l18.117,4.305l7.348-2.809l0.018-0.01l0.08-0.027c0.071-0.021,0.144-0.041,0.22-0.058l0.178-0.027 l0.021-0.002l0.054-0.002l0.114-0.004c0.053,0,0.107,0.002,0.163,0.006l0.095,0.01l0.132,0.019l0.025,0.006l0.088,0.019 l19.093,4.656l0.174,0.049c0.016,0.002,0.064,0.021,0.114,0.041c0.007,0.003,0.051,0.019,0.091,0.037l0.012,0.007l0.069,0.031 l0.01,0.004l0.066,0.033l0.011,0.008l0.109,0.06l0.013,0.009l0.105,0.065l0.143,0.102c0.029,0.021,0.077,0.06,0.121,0.097 c0.016,0.011,0.059,0.05,0.103,0.089l0.067,0.064l0.008,0.008l0.063,0.064c0.035,0.032,0.069,0.069,0.102,0.106 c0.043,0.048,0.087,0.102,0.134,0.157c0.067,0.087,0.128,0.174,0.188,0.264c0.149,0.228,0.276,0.473,0.378,0.733 c0.036,0.093,0.068,0.186,0.098,0.28c0.022,0.064,0.043,0.141,0.062,0.223l0.037,0.157l0.028,0.161l0.023,0.165l0.001,0.019 l0.018,0.188v0.004l0.004,0.109l0.721,24.573v0.01v0.081v0.104l-0.009,0.167l-0.008,0.097l-0.003,0.026l-0.023,0.17l-0.001,0.01 l-0.015,0.072l-0.023,0.104c-0.002,0.021-0.016,0.074-0.032,0.128c-0.003,0.019-0.019,0.068-0.037,0.122l-0.041,0.113l-0.052,0.126 l-0.075,0.15c-0.038,0.072-0.069,0.124-0.101,0.173c-0.049,0.072-0.096,0.135-0.144,0.194c-0.229,0.274-0.504,0.471-0.82,0.586 l-8.078,2.896C64.424,81.318,64.207,81.355,63.987,81.355L63.987,81.355z M58.611,43.634c-0.601,0-1.218-0.075-1.832-0.217 c-5.321-1.234-9.814-7.423-10.013-13.797c-0.141-4.509,1.896-8.199,5.223-9.546l-0.002-0.002l2.504-1.065l3.104-1.345l0.01,0.022 l2.047-0.873c0.127-0.054,0.246-0.097,0.369-0.141c0.265-0.095,0.553-0.175,0.854-0.241c0.219-0.047,0.438-0.083,0.665-0.114 c0.206-0.022,0.403-0.039,0.604-0.047c0.098-0.004,0.201-0.006,0.308-0.006l0.239,0.004c0.174,0.002,0.352,0.012,0.53,0.033 c0.157,0.014,0.32,0.035,0.485,0.064l0.334,0.054l0.012,0.004l0.07,0.017l0.102,0.022c0.118,0.025,0.264,0.06,0.414,0.097 c0.188,0.056,0.323,0.097,0.461,0.14c0.15,0.048,0.3,0.104,0.454,0.163c0.139,0.054,0.286,0.114,0.434,0.18 c0.141,0.062,0.288,0.128,0.435,0.204c0.136,0.066,0.283,0.145,0.431,0.229c0.137,0.075,0.282,0.161,0.424,0.248 c0.156,0.097,0.306,0.194,0.452,0.297c0.155,0.107,0.314,0.219,0.466,0.338c0.149,0.111,0.311,0.242,0.467,0.372 c0.171,0.145,0.339,0.295,0.504,0.45c0.189,0.173,0.369,0.357,0.551,0.545c0.219,0.227,0.429,0.462,0.634,0.706 c0.295,0.357,0.571,0.72,0.822,1.083c0.672,0.966,1.243,2.026,1.701,3.151c0.167,0.409,0.317,0.821,0.446,1.228 c0.097,0.301,0.186,0.606,0.264,0.918c0.068,0.258,0.13,0.52,0.184,0.784c0.05,0.239,0.093,0.47,0.13,0.708 c0.034,0.212,0.065,0.429,0.089,0.642c0.026,0.198,0.048,0.407,0.064,0.617c0.015,0.196,0.026,0.392,0.036,0.588l0.003,0.093 l0.004,0.099c0.004,0.122,0.005,0.25,0.005,0.377c0.003,0.182-0.001,0.363-0.005,0.542c-0.008,0.188-0.017,0.365-0.028,0.539 c-0.013,0.171-0.027,0.349-0.047,0.52c-0.018,0.167-0.039,0.339-0.063,0.506c-0.026,0.173-0.055,0.34-0.086,0.505 c-0.031,0.167-0.066,0.336-0.105,0.503c-0.041,0.18-0.085,0.349-0.134,0.516c-0.047,0.169-0.098,0.336-0.153,0.501 c-0.063,0.186-0.127,0.365-0.195,0.539c-0.074,0.188-0.151,0.372-0.233,0.549c-0.094,0.202-0.19,0.394-0.293,0.58 c-0.12,0.221-0.246,0.429-0.382,0.633c-0.169,0.262-0.359,0.52-0.56,0.757c-0.825,0.995-1.824,1.725-2.967,2.169l-7.654,3.1 C60.378,43.473,59.507,43.634,58.611,43.634L58.611,43.634z M34.343,41.839l-0.335-0.295l-6.913-6.135l-6.556,2.821l-1.133,0.487 l0.135-1.226l1.031-9.319l-5.811-8.063l-0.534-0.743l0.843-0.343l8.076-3.258l0.141-0.06l0.153,0.006l0.738,0.025l1.7-4.282 l0.11-0.281l0.276-0.122l8.075-3.37l0.681-0.285l0.265,0.689l3.722,9.641l7.714,3.151l0.97,0.396l-0.719,0.762l-5.304,5.608 l1.602,10.104l0.091,0.569l-0.539,0.21l-8.031,3.135c-0.025,0.01-0.052,0.022-0.08,0.031L34.343,41.839L34.343,41.839z" fill="url(#SVGID_1)"/>
<linearGradient id="SVGID_2" gradientUnits="userSpaceOnUse" x1="30.21" y1="45.14" x2="40.63" y2="66.61">
<stop stop-color="#43910A" offset="0"/>
<stop stop-color="#17594C" offset="1"/>
</linearGradient>
<path d="M46.985,68.733l-0.567-18.834c-0.001-0.011-0.001-0.023-0.001-0.035 c-0.002-0.037-0.005-0.072-0.008-0.109c-0.002-0.037-0.007-0.076-0.011-0.114c-0.005-0.039-0.011-0.08-0.017-0.119 c-0.008-0.043-0.016-0.087-0.024-0.132c-0.01-0.048-0.022-0.098-0.035-0.145c-0.013-0.06-0.03-0.116-0.048-0.174 c-0.025-0.078-0.053-0.154-0.083-0.229c-0.086-0.213-0.191-0.415-0.315-0.599c-0.049-0.072-0.1-0.141-0.151-0.204 c-0.039-0.048-0.077-0.093-0.117-0.137c-0.033-0.035-0.066-0.07-0.102-0.104c-0.031-0.029-0.063-0.059-0.093-0.085 c-0.029-0.024-0.059-0.052-0.087-0.074c-0.027-0.022-0.056-0.044-0.085-0.064c-0.025-0.021-0.054-0.039-0.08-0.058 c-0.026-0.017-0.052-0.033-0.08-0.05c-0.025-0.017-0.053-0.03-0.078-0.043c-0.026-0.017-0.053-0.029-0.078-0.041 c-0.026-0.013-0.052-0.025-0.08-0.037c-0.026-0.011-0.052-0.021-0.079-0.031c-0.026-0.011-0.054-0.019-0.081-0.026 c-0.028-0.009-0.055-0.017-0.083-0.025c-0.008-0.002-0.016-0.004-0.024-0.006l-19.464-4.625c-0.021-0.004-0.042-0.008-0.063-0.012 c-0.029-0.006-0.059-0.011-0.087-0.015c-0.031-0.004-0.063-0.006-0.093-0.01c-0.033,0-0.065-0.002-0.098-0.002 c-0.035,0-0.07,0.002-0.103,0.004c-0.041,0.004-0.08,0.008-0.119,0.017c-0.051,0.008-0.101,0.021-0.15,0.037 c-0.021,0.006-0.042,0.012-0.063,0.021l-8.076,2.997c0.021-0.007,21.914,27.567,21.714,27.637l8.076-2.843 c0.2-0.072,0.375-0.196,0.52-0.365c0.035-0.042,0.068-0.085,0.1-0.133c0.024-0.035,0.047-0.072,0.067-0.109 c0.019-0.035,0.036-0.065,0.053-0.103c0.016-0.031,0.029-0.064,0.043-0.098c0.012-0.03,0.024-0.063,0.034-0.097 c0.011-0.031,0.021-0.06,0.029-0.091c0.008-0.029,0.017-0.062,0.023-0.093c0.008-0.029,0.014-0.06,0.02-0.091 c0.007-0.031,0.011-0.062,0.016-0.093c0.006-0.031,0.009-0.063,0.012-0.093c0.004-0.031,0.007-0.064,0.009-0.098 c0.001-0.03,0.004-0.062,0.006-0.097c0-0.033,0.001-0.065,0.001-0.101C46.986,68.78,46.985,68.758,46.985,68.733z" fill="url(#SVGID_2)"/>
<linearGradient id="SVGID_3" gradientUnits="userSpaceOnUse" x1="12.64" y1="42.63" x2="43.4" y2="77.87">
<stop stop-color="#DCE8E4" offset="0"/>
<stop stop-color="#43910A" offset="1"/>
</linearGradient>
<path d="M36.509,50.295c0.978,0.239,1.801,1.416,1.838,2.625l0.566,18.676 c0.037,1.215-0.726,1.989-1.704,1.725L17.746,68.18c-0.979-0.253-1.801-1.421-1.839-2.605L15.34,47.356 c-0.037-1.18,0.725-1.952,1.704-1.723L36.509,50.295z" fill="url(#SVGID_3)"/>
<linearGradient id="SVGID_4" gradientUnits="userSpaceOnUse" x1="56.73" y1="46.62" x2="69.4" y2="74.83">
<stop stop-color="#BBE0FF" offset="0"/>
<stop stop-color="#A2C2DD" offset="0.35"/>
<stop stop-color="#6C83BB" offset="0.7"/>
<stop stop-color="#003D6D" offset="1"/>
</linearGradient>
<path d="M73.378,75.945L72.66,51.374c-0.001-0.012-0.002-0.024-0.002-0.034 c-0.003-0.037-0.005-0.075-0.007-0.112c-0.004-0.037-0.006-0.076-0.012-0.115c-0.005-0.039-0.01-0.08-0.016-0.119 c-0.008-0.044-0.016-0.089-0.024-0.133c-0.01-0.049-0.021-0.099-0.032-0.146c-0.015-0.06-0.031-0.117-0.049-0.175 c-0.023-0.076-0.052-0.155-0.081-0.231c-0.083-0.215-0.188-0.415-0.31-0.601c-0.048-0.072-0.098-0.143-0.149-0.208 c-0.037-0.048-0.074-0.091-0.113-0.135c-0.033-0.037-0.065-0.072-0.101-0.107c-0.029-0.028-0.061-0.058-0.09-0.086 c-0.028-0.025-0.057-0.05-0.086-0.072c-0.026-0.022-0.054-0.046-0.081-0.064c-0.027-0.021-0.053-0.041-0.081-0.06 c-0.025-0.017-0.052-0.033-0.077-0.05c-0.026-0.015-0.052-0.03-0.077-0.045c-0.026-0.015-0.051-0.027-0.078-0.042 c-0.024-0.01-0.05-0.024-0.076-0.034c-0.025-0.013-0.052-0.023-0.078-0.033c-0.025-0.011-0.052-0.019-0.078-0.027 c-0.027-0.008-0.055-0.017-0.082-0.024c-0.007,0-0.016-0.004-0.023-0.004l-19.092-4.654c-0.021-0.006-0.042-0.01-0.063-0.014 c-0.028-0.006-0.058-0.01-0.085-0.015c-0.03-0.004-0.062-0.006-0.091-0.008c-0.032-0.002-0.064-0.004-0.097-0.004 c-0.033,0-0.067,0.002-0.102,0.004c-0.038,0.004-0.078,0.01-0.115,0.017c-0.05,0.01-0.099,0.023-0.146,0.037 c-0.022,0.006-0.042,0.015-0.062,0.023l-8.076,3.089c0.02-0.01,21.658,33.316,21.463,33.387l8.075-2.894 c0.196-0.072,0.368-0.196,0.51-0.365c0.034-0.041,0.067-0.087,0.098-0.132c0.023-0.037,0.046-0.074,0.066-0.111 c0.019-0.035,0.035-0.068,0.052-0.104c0.015-0.033,0.027-0.063,0.041-0.099c0.013-0.031,0.023-0.063,0.035-0.095 c0.01-0.031,0.019-0.063,0.027-0.094c0.008-0.03,0.016-0.062,0.024-0.093c0.006-0.03,0.013-0.062,0.019-0.093 c0.005-0.028,0.01-0.06,0.015-0.093c0.005-0.03,0.008-0.062,0.012-0.095c0.005-0.031,0.007-0.062,0.009-0.095 s0.004-0.064,0.004-0.097c0.002-0.035,0.002-0.068,0.002-0.104C73.38,75.99,73.38,75.968,73.378,75.945z" fill="url(#SVGID_4)"/>
<linearGradient id="SVGID_5" gradientUnits="userSpaceOnUse" x1="40.88" y1="44.88" x2="68.29" y2="84.97">
<stop stop-color="#FFFFFF" offset="0.15"/>
<stop stop-color="#A2C2DD" offset="1"/>
</linearGradient>
<path d="M62.786,51.841c0.959,0.241,1.766,1.426,1.802,2.646l0.721,24.368 c0.036,1.227-0.712,2.002-1.672,1.733l-19.093-5.26c-0.959-0.262-1.766-1.442-1.802-2.639l-0.72-23.798 c-0.036-1.19,0.711-1.973,1.671-1.739L62.786,51.841z" fill="url(#SVGID_5)"/>
<linearGradient id="SVGID_6" gradientUnits="userSpaceOnUse" x1="15.34" y1="18.21" x2="25.43" y2="18.21">
<stop stop-color="#E6EEF4" offset="0"/>
<stop stop-color="#2F8E9A" offset="0.44"/>
<stop stop-color="#003D6D" offset="0.94"/>
</linearGradient>
<polygon fill="url(#SVGID_6)" points="25.43,16.5 23.414,16.43 15.339,19.69 23.255,19.994 24.069,19.664 "/>
<linearGradient id="SVGID_7" gradientUnits="userSpaceOnUse" x1="29.92" y1="9.81" x2="35.32" y2="20.62">
<stop stop-color="#E6EEF4" offset="0"/>
<stop stop-color="#2F8E9A" offset="0.44"/>
<stop stop-color="#003D6D" offset="0.94"/>
</linearGradient>
<path d="M38.449,18.279l-3.833-9.932l-8.075,3.368l3.833,9.862C33.074,20.479,35.749,19.387,38.449,18.279z" fill="url(#SVGID_7)"/>
<linearGradient id="SVGID_8" gradientUnits="userSpaceOnUse" x1="42.72" y1="24.82" x2="34.38" y2="18.51">
<stop stop-color="#E6EEF4" offset="0"/>
<stop stop-color="#2F8E9A" offset="0.44"/>
<stop stop-color="#003D6D" offset="0.94"/>
</linearGradient>
<path d="M46.449,21.543l-8-3.264l-8.075,3.297l8,3.269C38.396,24.823,44.091,22.563,46.449,21.543z" fill="url(#SVGID_8)"/>
<linearGradient id="SVGID_9" gradientUnits="userSpaceOnUse" x1="42.18" y1="23.58" x2="28.57" y2="37.19">
<stop stop-color="#E6EEF4" offset="0"/>
<stop stop-color="#2F8E9A" offset="0.44"/>
<stop stop-color="#003D6D" offset="0.94"/>
</linearGradient>
<polygon fill="url(#SVGID_9)" points="40.904,27.41 46.449,21.543 38.375,24.845 32.829,30.642 "/>
<linearGradient id="SVGID_10" gradientUnits="userSpaceOnUse" x1="39.13" y1="39.57" x2="35.59" y2="26.33">
<stop stop-color="#E6EEF4" offset="0"/>
<stop stop-color="#2F8E9A" offset="0.44"/>
<stop stop-color="#003D6D" offset="0.94"/>
</linearGradient>
<path d="M32.829,30.642l1.658,10.369l8.075-3.149L40.904,27.41C40.904,27.41,32.862,30.627,32.829,30.642z" fill="url(#SVGID_10)"/>
<linearGradient id="SVGID_11" gradientUnits="userSpaceOnUse" x1="18.97" y1="15.63" x2="37.23" y2="43.12">
<stop stop-color="#D6E6EC" offset="0"/>
<stop stop-color="#298595" offset="1"/>
</linearGradient>
<polygon fill="url(#SVGID_11)" points="26.546,11.715 30.379,21.577 38.379,24.845 32.833,30.642 34.491,41.011 27.23,34.569 20.255,37.571 21.316,27.978 15.343,19.69 23.259,19.994 "/>
<linearGradient id="SVGID_12" gradientUnits="userSpaceOnUse" x1="52.27" y1="29.75" x2="73.38" y2="29.75">
<stop stop-color="#E6EEF4" offset="0"/>
<stop stop-color="#9646AC" offset="0.44"/>
<stop stop-color="#3D013F" offset="0.94"/>
</linearGradient>
<path d="M73.374,30.359c-0.002-0.06-0.004-0.122-0.007-0.182c-0.008-0.188-0.021-0.375-0.034-0.562 c-0.017-0.198-0.036-0.394-0.061-0.59c-0.024-0.205-0.054-0.409-0.085-0.613c-0.036-0.225-0.079-0.45-0.124-0.672 c-0.053-0.254-0.11-0.504-0.176-0.751c-0.075-0.297-0.16-0.592-0.254-0.883c-0.127-0.396-0.269-0.789-0.426-1.172l0,0 c-0.438-1.077-0.986-2.092-1.627-3.015c-0.249-0.357-0.511-0.702-0.783-1.028c-0.194-0.231-0.395-0.456-0.6-0.671 c-0.17-0.177-0.344-0.351-0.523-0.518c-0.156-0.145-0.317-0.289-0.478-0.425c-0.146-0.122-0.296-0.241-0.444-0.353 c-0.141-0.109-0.287-0.214-0.433-0.313c-0.137-0.095-0.275-0.188-0.42-0.274c-0.132-0.083-0.269-0.165-0.404-0.239 c-0.133-0.077-0.269-0.146-0.404-0.215c-0.134-0.068-0.267-0.13-0.402-0.188c-0.134-0.06-0.269-0.116-0.402-0.167 c-0.137-0.054-0.272-0.101-0.408-0.146c-0.139-0.043-0.275-0.084-0.415-0.126c-0.143-0.037-0.283-0.07-0.426-0.101 c-0.04-0.01-0.081-0.016-0.122-0.029c-0.105-0.019-0.215-0.035-0.32-0.054c-0.149-0.022-0.299-0.043-0.449-0.058 c-0.16-0.017-0.317-0.027-0.477-0.029c-0.167-0.006-0.334-0.006-0.501,0.002c-0.18,0.006-0.361,0.021-0.534,0.042 c-0.208,0.027-0.409,0.062-0.606,0.101c-0.261,0.058-0.521,0.13-0.769,0.219l-0.006,0.002c-0.108,0.037-0.216,0.078-0.322,0.122 l-7.664,3.263c0.107-0.045,0.217-0.087,0.326-0.122l5.287-2.292l-5.287,2.292c0.253-0.084,0.508-0.157,0.77-0.214 c0.201-0.042,0.401-0.074,0.605-0.099c0.178-0.019,7.981,21.822,6.952,22.212l7.663-3.104c1.03-0.398,1.936-1.067,2.678-1.958 c0.181-0.217,0.352-0.45,0.513-0.696c0.123-0.186,0.239-0.379,0.349-0.582c0.096-0.171,0.185-0.351,0.271-0.533 c0.076-0.167,0.149-0.338,0.218-0.512c0.065-0.163,0.125-0.33,0.183-0.501c0.052-0.155,0.099-0.312,0.145-0.472 c0.044-0.159,0.086-0.32,0.124-0.481c0.036-0.155,0.069-0.314,0.1-0.475c0.03-0.157,0.056-0.316,0.08-0.479 c0.024-0.157,0.044-0.32,0.062-0.48c0.018-0.163,0.032-0.326,0.043-0.493c0.013-0.165,0.021-0.334,0.025-0.501 c0.006-0.173,0.008-0.349,0.008-0.526C73.379,30.601,73.378,30.481,73.374,30.359z" fill="url(#SVGID_12)"/>
<linearGradient id="SVGID_13" gradientUnits="userSpaceOnUse" x1="47.62" y1="18.01" x2="65.31" y2="44.62">
<stop stop-color="#DEDEED" offset="0"/>
<stop stop-color="#9646AC" offset="1"/>
</linearGradient>
<path d="M56.257,20.407c5.032,1.021,9.268,6.917,9.457,13.153c0.188,6.243-3.738,10.339-8.771,9.16 c-5.035-1.168-9.27-7.037-9.46-13.122C47.294,23.521,51.222,19.399,56.257,20.407z" fill="url(#SVGID_13)"/>
</svg>