<?xml version="1.0" encoding="UTF-8"?>
<!DOCTYPE svg PUBLIC "-//W3C//DTD SVG 1.1 Tiny//EN" "http://www.w3.org/Graphics/SVG/1.1/DTD/svg11-tiny.dtd">
<svg baseProfile="tiny" height="27px" version="1.1" viewBox="-0.004 -0.003 27 27" width="27px" x="0px" xmlns="http://www.w3.org/2000/svg" xmlns:xlink="http://www.w3.org/1999/xlink" y="0px">
<path d="M26.492,1.494c0-0.552-0.448-1-1-1h-4c-1.154,0-1.08,1.55-1.273,2H3.992c-0.413,0-0.79,0.172-1.036,0.472  c-0.245,0.3-0.339,0.703-0.258,1.106c0,0-0.051,0.748,0,1l1.607,8.04c0.156,0.774,0.896,1.382,1.687,1.382h12.423l1.058,5H5.492  c-0.552,0-1,0.448-1,1c0,0.187,0,0.813,0,1c0,0.33,0.171,0.608,0.418,0.791c-0.259,0.337-0.418,0.753-0.418,1.209  c0,0.174,0,0.826,0,1c0,1.103,0.897,2,2,2s2-0.897,2-2c0-0.174,0-0.826,0-1c0-0.366-0.105-0.705-0.278-1h9.537  c-0.173,0.295-0.278,0.634-0.278,1c0,0.174,0,0.826,0,1c0,1.103,0.897,2,2,2s2-0.897,2-2c0-0.174,0-0.826,0-1  c0-0.386-0.115-0.743-0.306-1.05c0.891-0.042,0.86-1.306,0.697-2.284l-1.479-7.365l1.875-9.301h3.232c0.552,0,1-0.448,1-1  C26.492,2.308,26.492,1.681,26.492,1.494z" fill-opacity="0.25" stroke-opacity="0.25"/>
<path d="M6.492,22.994c-0.828,0-1.5,0.672-1.5,1.5s0.672,1.5,1.5,1.5s1.5-0.672,1.5-1.5S7.32,22.994,6.492,22.994z   M19.473,22.994c-0.828,0-1.5,0.672-1.5,1.5s0.672,1.5,1.5,1.5s1.5-0.672,1.5-1.5S20.301,22.994,19.473,22.994z M25.492,1.994h-4  c-0.232,0-0.864,2-0.864,2H3.992c-0.55,0-0.912,0.441-0.804,0.98l1.607,8.039c0.108,0.539,0.646,0.98,1.196,0.98H18.82l1.48,7H5.492  c-0.275,0-0.5,0.225-0.5,0.5s0.225,0.5,0.5,0.5h15.43c0.275,0,0.5-0.225,0.5-0.5c0-0.069-1.647-8.2-1.647-8.2l2.076-10.3h3.642  c0.275,0,0.5-0.225,0.5-0.5S25.768,1.994,25.492,1.994z M12.992,4.994h3.798l-0.404,2h-3.394V4.994z M4.612,6.994l-0.4-2h2.876  l0.293,2H4.612z M5.212,9.994l-0.4-2h2.716l0.293,2H5.212z M5.776,12.816l-0.364-1.822h2.555l0.294,2  C8.261,12.994,5.791,12.89,5.776,12.816z M11.992,12.994H9.27l-0.293-2h3.016V12.994z M11.992,9.994H8.83l-0.293-2h3.455V9.994z   M11.992,6.994H8.391l-0.294-2h3.896V6.994z M15.174,12.994h-2.182v-2h2.586L15.174,12.994z M15.78,9.994h-2.788v-2h3.191  L15.78,9.994z M18.814,12.994h-2.62l0.404-2h2.619L18.814,12.994z M19.496,9.61l-0.077,0.384h-2.618l0.403-2h2.618L19.496,9.61z   M20.023,6.994h-2.617l0.404-2h2.616L20.023,6.994z" fill-opacity="0.5" stroke-opacity="0.5"/>
<path d="M6.492,21.994c-0.828,0-1.5,0.672-1.5,1.5s0.672,1.5,1.5,1.5s1.5-0.672,1.5-1.5S7.32,21.994,6.492,21.994z   M19.473,21.994c-0.828,0-1.5,0.672-1.5,1.5s0.672,1.5,1.5,1.5s1.5-0.672,1.5-1.5S20.301,21.994,19.473,21.994z" fill="#E6E6E6"/>
<rect fill="none" height="26.994" width="26.992"/>
<linearGradient gradientUnits="userSpaceOnUse" id="SVGID_1_" x1="6.4351" x2="6.4351" y1="24.3105" y2="21.9602">
<stop offset="0" style="stop-color:#FFFFFF;stop-opacity:0"/>
<stop offset="1" style="stop-color:#FFFFFF"/>
</linearGradient>
<path d="M7.419,22.885c0.157,0,0.311,0.013,0.459,0.036c-0.226-0.544-0.761-0.927-1.386-0.927  c-0.828,0-1.5,0.672-1.5,1.5c0,0.27,0.077,0.519,0.201,0.736C5.454,23.458,6.348,22.885,7.419,22.885z" fill="url(#SVGID_1_)"/>
<linearGradient gradientUnits="userSpaceOnUse" id="SVGID_2_" x1="19.416" x2="19.416" y1="24.3105" y2="21.9602">
<stop offset="0" style="stop-color:#FFFFFF;stop-opacity:0"/>
<stop offset="1" style="stop-color:#FFFFFF"/>
</linearGradient>
<path d="M20.399,22.885c0.157,0,0.311,0.013,0.459,0.036c-0.226-0.544-0.761-0.927-1.386-0.927  c-0.828,0-1.5,0.672-1.5,1.5c0,0.27,0.077,0.519,0.201,0.736C18.435,23.458,19.328,22.885,20.399,22.885z" fill="url(#SVGID_2_)"/>
<path d="M6.492,22.994c-0.276,0-0.5,0.224-0.5,0.5s0.224,0.5,0.5,0.5s0.5-0.224,0.5-0.5S6.769,22.994,6.492,22.994z   M19.473,22.994c-0.276,0-0.5,0.224-0.5,0.5s0.224,0.5,0.5,0.5s0.5-0.224,0.5-0.5S19.749,22.994,19.473,22.994z" fill-opacity="0.5" stroke-opacity="0.5"/>
<linearGradient gradientUnits="userSpaceOnUse" id="SVGID_3_" x1="14.5811" x2="14.5811" y1="4.3652" y2="36.1848">
<stop offset="0" style="stop-color:#E6E6E6"/>
<stop offset="1" style="stop-color:#B2B2B2"/>
</linearGradient>
<path d="M25.492,0.994h-4c-0.292,0-0.52,0.285-0.579,0.589l-0.285,1.411H3.992  c-0.55,0-0.912,0.441-0.804,0.98l1.607,8.039c0.108,0.539,0.646,0.98,1.196,0.98H18.82l1.48,7H5.492c-0.275,0-0.5,0.225-0.5,0.5  s0.225,0.5,0.5,0.5h15.43c0.506,0,0.55-0.486,0.461-0.694l-1.608-8.006l2.076-10.3h3.642c0.275,0,0.5-0.225,0.5-0.5  S25.768,0.994,25.492,0.994z M17.811,3.994h2.616l-0.403,2h-2.617L17.811,3.994z M17.204,6.994h2.618l-0.403,2h-2.618L17.204,6.994z   M12.992,3.994h3.798l-0.404,2h-3.394V3.994z M4.612,5.994l-0.4-2h2.876l0.293,2H4.612z M5.212,8.994l-0.4-2h2.716l0.293,2H5.212z   M5.992,11.994c-0.074,0-0.201-0.104-0.216-0.178L5.412,9.994h2.555l0.294,2H5.992z M11.992,11.994H9.27l-0.293-2h3.016V11.994z   M11.992,8.994H8.83l-0.293-2h3.455V8.994z M11.992,5.994H8.391l-0.294-2h3.896V5.994z M15.174,11.994h-2.182v-2h2.586  L15.174,11.994z M15.78,8.994h-2.788v-2h3.191L15.78,8.994z M16.194,11.994l0.404-2h2.619l-0.403,2H16.194z" fill="url(#SVGID_3_)"/>
<linearGradient gradientUnits="userSpaceOnUse" id="SVGID_4_" x1="14.918" x2="14.5508" y1="9.8672" y2="2.0019">
<stop offset="0" style="stop-color:#FFFFFF;stop-opacity:0"/>
<stop offset="1" style="stop-color:#FFFFFF"/>
</linearGradient>
<path d="M5.941,8.994H5.212l-0.4-2h2.716l0.139,0.947c0.308-0.169,0.615-0.338,0.938-0.494L8.537,6.994h1.089  c1.063-0.452,2.188-0.836,3.366-1.145V3.994h3.798l-0.238,1.179c0.346-0.042,0.691-0.083,1.043-0.112l0.216-1.066h2.616  l-0.195,0.967c0.341,0.004,0.677,0.021,1.014,0.036l0.605-3.003h3.642c0.275,0,0.5-0.225,0.5-0.5s-0.225-0.5-0.5-0.5h-4  c-0.235,0-0.506,0.216-0.579,0.589l-0.285,1.411H3.992c-0.55,0-0.912,0.441-0.804,0.98l1.236,6.184  C4.898,9.75,5.406,9.363,5.941,8.994z M11.992,3.994v2H8.391l-0.294-2H11.992z M7.088,3.994l0.293,2H4.612l-0.4-2H7.088z" fill="url(#SVGID_4_)"/>
</svg>
