<?xml version="1.0" encoding="UTF-8" standalone="no"?>
<!DOCTYPE svg PUBLIC "-//W3C//DTD SVG 1.1 Tiny//EN" "http://www.w3.org/Graphics/SVG/1.1/DTD/svg11-tiny.dtd">
<svg xmlns="http://www.w3.org/2000/svg" xmlns:xlink="http://www.w3.org/1999/xlink" width="88" height="88" viewBox="0 0 88 88">
<rect fill="none" height="88" width="88"/>
<path d="M72.788,26.819c-0.062-0.962-0.861-1.714-1.828-1.714h-9.374l-3.919-7.69 c-0.059-0.172-0.094-0.207-0.19-0.452c-0.791-1.796-4.45-7.967-13.053-8.264c-0.083-0.013-0.182-0.022-0.299-0.024 c-0.05,0-0.091,0.001-0.125,0.005c-0.034-0.003-0.075-0.005-0.123-0.005c-0.124,0.001-0.227,0.013-0.313,0.026 c-4.807,0.133-8.208,2.236-10.261,4.326c-1.041,1.052-1.768,2.094-2.241,2.909c-0.238,0.407-0.417,0.755-0.536,1.027 c-0.099,0.24-0.134,0.28-0.191,0.448l-3.925,7.694h-9.372c-0.965,0-1.76,0.748-1.825,1.714l-3.253,50.56 c-0.034,0.496,0.147,1.002,0.49,1.369c0.344,0.366,0.834,0.577,1.336,0.577h60.432c0.507,0,0.984-0.209,1.332-0.577 c0.351-0.371,0.525-0.864,0.493-1.369L72.788,26.819z M34.615,25.105l2.443-4.796l0.067-0.155c0.042-0.09-0.003,0.007,0.061-0.129 c0.463-0.789,1.906-3.92,6.833-4.011c4.887,0.09,6.328,3.222,6.819,4.065c0.016,0.037,0.016,0.033,0.016,0.033 c0-0.004,0-0.008,0.02,0.041l0.068,0.155l2.439,4.796H34.615z" fill-opacity="0.2" />
<path d="M70.959,26.939H60.468l-4.505-8.836c-0.036-0.209-2.893-7.362-11.749-7.577 c-0.031-0.001-0.058-0.018-0.09-0.018c-0.043,0-0.082,0.007-0.125,0.007c-0.042,0-0.082-0.007-0.125-0.007 c-0.032,0-0.057,0.016-0.089,0.018c-8.856,0.214-11.71,7.367-11.75,7.577l-4.503,8.836H17.04l-3.254,50.558h60.429L70.959,26.939z M35.426,19.479c0.036-0.087,0.043-0.105,0.104-0.236c0.49-0.956,2.593-4.998,8.469-5.059c5.878,0.062,7.979,4.103,8.469,5.059 c0.063,0.131,0.071,0.149,0.104,0.236l3.799,7.459H31.63L35.426,19.479z" fill-opacity="0.5" />
<linearGradient id="SVGID_1" gradientUnits="userSpaceOnUse" x1="44" y1="22.03" x2="44" y2="75.13">
<stop stop-color="#36A1DB" offset="0"/>
<stop stop-color="#329CD8" offset="0.25"/>
<stop stop-color="#258FCE" offset="0.53"/>
<stop stop-color="#1179BE" offset="0.81"/>
<stop stop-color="#0067B0" offset="1"/>
</linearGradient>
<polygon fill="url(#SVGID_1)" points="17.04,25.108 13.786,75.665 74.214,75.665 70.959,25.108 "/>
<polygon fill="#FFFFFF" fill-opacity="0.15" points="71.803,34.501 71.2,25.108 17.278,25.108 14.987,60.72 " />
<polygon fill="#FFFFFF" fill-opacity="0.3" points="15.745,73.831 18.763,26.937 69.246,26.937 69.25,26.953 70.881,25.108 17.046,25.108 13.792,75.665 13.825,75.665 " />
<circle cx="25.24" cy="33.628" fill="#333333" r="2.67"/>
<path d="M65.45,33.628c0,1.476-1.194,2.67-2.668,2.67c-1.478,0-2.672-1.194-2.672-2.67 c0-1.475,1.194-2.669,2.672-2.669C64.255,30.959,65.45,32.154,65.45,33.628z" fill="#333333"/>
<path d="M32.783,63.008c-5.651,0-7.593-3.881-7.593-8.81c0-4.871,2.636-8.291,7.65-8.291 c5.19,0,7.565,3.449,7.565,8.406C40.405,59.503,37.998,63.008,32.783,63.008z M32.783,48.577c-2.579,0-2.782,3.128-2.782,5.537 c0,2.46,0.118,6.229,2.782,6.229s2.812-3.363,2.812-6.229C35.595,51.877,35.248,48.577,32.783,48.577z M39.396,46.139h4.843 l2.958,12.441l3.129-12.441h4.089l-4.374,14.377c-0.486,1.48-1.206,2.492-3.24,2.492c-2.035,0-2.79-1.012-3.24-2.492L39.396,46.139z M58.641,44.398c-1.479,0-2.55-0.754-2.55-2.146c0-1.392,1.041-2.146,2.55-2.146c1.421,0,2.547,0.783,2.547,2.146 C61.188,43.644,60.119,44.398,58.641,44.398z M56.295,60.883c0,0.419,0,1.198,0.654,1.663c0.343,0.24,0.884,0.462,1.648,0.462 c0.795,0,1.313-0.218,1.66-0.462c0.654-0.465,0.654-1.244,0.654-1.663V46.139h-4.57c0,0-0.161,0.006-0.312,0.006 c-0.446,0-0.813,0.01-1.069,0.357c-0.121,0.162-0.286,0.455-0.286,0.974c0,0.547,0.165,0.814,0.286,0.977 c0.257,0.347,0.623,0.35,1.069,0.35c0.15,0,0.265,0,0.265,0V60.883z" fill="#FFFFFF"/>
<linearGradient id="SVGID_2" gradientUnits="userSpaceOnUse" x1="44" y1="14.09" x2="44" y2="62.39">
<stop stop-color="#FFFFFF" offset="0"/>
<stop stop-color="#B2B2C9" offset="1"/>
</linearGradient>
<path d="M64.475,32.969l-8.512-16.698c-0.036-0.209-2.893-7.362-11.749-7.577 c-0.031-0.001-0.058-0.018-0.09-0.018c-0.043,0-0.082,0.008-0.125,0.008c-0.042,0-0.082-0.008-0.125-0.008 c-0.032,0-0.057,0.017-0.089,0.018c-8.856,0.215-11.71,7.368-11.75,7.577l-8.51,16.698c-0.406,0.924,0.016,2.004,0.946,2.411 c0.239,0.104,0.488,0.153,0.733,0.153c0.705,0,1.377-0.409,1.677-1.096l8.544-16.788c0.036-0.088,0.043-0.106,0.104-0.236 c0.49-0.957,2.593-4.999,8.469-5.059c5.878,0.061,7.979,4.103,8.469,5.059c0.063,0.13,0.071,0.148,0.104,0.236l8.545,16.788 c0.302,0.688,0.973,1.096,1.676,1.096c0.247,0,0.496-0.05,0.735-0.153C64.459,34.974,64.878,33.894,64.475,32.969z" fill="url(#SVGID_2)"/>
</svg>