<?xml version="1.0" encoding="UTF-8"?>
<!DOCTYPE svg PUBLIC "-//W3C//DTD SVG 1.1 Tiny//EN" "http://www.w3.org/Graphics/SVG/1.1/DTD/svg11-tiny.dtd">
<svg baseProfile="tiny" version="1.1" xmlns="http://www.w3.org/2000/svg" xmlns:xlink="http://www.w3.org/1999/xlink" x="0px" y="0px" width="30px" height="30px" viewBox="0 0 30 30">
<rect fill="none" width="30" height="30"/>
<path d="M7.144,18.48c-4.202,0-5.644-2.886-5.644-6.549c0-3.618,1.96-6.159,5.687-6.159c3.857,0,5.623,2.563,5.623,6.247  C12.809,15.875,11.021,18.48,7.144,18.48z M7.144,7.753c-1.917,0-2.068,2.327-2.068,4.114c0,1.831,0.086,4.632,2.068,4.632  c1.981,0,2.09-2.5,2.09-4.632C9.234,10.209,8.975,7.753,7.144,7.753z M12.06,5.944h3.599l2.199,9.246l2.327-9.246h3.04  l-3.254,10.684c-0.36,1.1-0.896,1.853-2.409,1.853c-1.512,0-2.071-0.753-2.407-1.853L12.06,5.944z M26.363,4.648  c-1.099,0-1.896-0.56-1.896-1.595c0-1.035,0.775-1.595,1.896-1.595c1.056,0,1.896,0.582,1.896,1.595  C28.259,4.088,27.462,4.648,26.363,4.648z M24.622,16.899c0,0.313,0,0.894,0.486,1.236c0.253,0.179,0.655,0.345,1.224,0.345  c0.59,0,0.978-0.164,1.232-0.345c0.488-0.343,0.488-0.923,0.488-1.236V5.944h-3.396c0,0-0.121,0-0.231,0  c-0.332,0-0.604,0.008-0.795,0.267c-0.089,0.12-0.213,0.338-0.213,0.725c0,0.405,0.124,0.606,0.213,0.726  c0.191,0.259,0.463,0.261,0.795,0.261c0.11,0,0.197,0,0.197,0V16.899z"/>
<path d="M3.578,28.539c-0.491,0-0.895-0.032-1.209-0.097c-0.313-0.065-0.571-0.145-0.774-0.234v-1.139  c0.219,0.123,0.491,0.231,0.82,0.323c0.327,0.093,0.679,0.139,1.055,0.139c0.336,0,0.592-0.075,0.767-0.229  c0.173-0.151,0.26-0.379,0.26-0.686c0-0.141-0.026-0.272-0.079-0.395c-0.054-0.12-0.145-0.234-0.27-0.344  c-0.127-0.107-0.378-0.257-0.754-0.447c-0.553-0.272-0.931-0.507-1.133-0.704c-0.202-0.195-0.34-0.402-0.413-0.618  c-0.073-0.218-0.11-0.477-0.11-0.777c0-0.606,0.213-1.077,0.639-1.414c0.425-0.34,0.974-0.509,1.646-0.509  c0.423,0,0.785,0.034,1.085,0.098c0.301,0.066,0.558,0.147,0.772,0.241v1.134c-0.226-0.124-0.497-0.233-0.814-0.327  c-0.316-0.096-0.602-0.143-0.86-0.143c-0.289,0-0.513,0.075-0.673,0.225c-0.16,0.151-0.241,0.349-0.241,0.594  c0,0.146,0.032,0.27,0.096,0.365s0.145,0.185,0.243,0.264c0.1,0.079,0.328,0.209,0.688,0.392c0.51,0.255,0.882,0.472,1.113,0.655  c0.231,0.185,0.399,0.399,0.507,0.644c0.108,0.246,0.16,0.561,0.16,0.944c0,0.691-0.206,1.206-0.62,1.542  C5.065,28.372,4.431,28.539,3.578,28.539z"/>
<path d="M10.826,28.32c-0.134,0.052-0.307,0.102-0.519,0.148c-0.212,0.049-0.483,0.07-0.81,0.07c-0.662,0-1.15-0.189-1.469-0.571  s-0.478-0.931-0.478-1.652v-3.713H6.626v-1.092h0.925v-0.925l1.607-0.838v1.763h1.566v1.092H9.159v3.564  c0,0.479,0.056,0.815,0.167,1.009c0.111,0.194,0.312,0.291,0.604,0.291c0.163,0,0.324-0.023,0.483-0.069  c0.16-0.044,0.298-0.097,0.413-0.155V28.32z"/>
<path d="M14.44,21.409c0.929,0,1.657,0.31,2.185,0.926c0.529,0.616,0.793,1.498,0.793,2.641c0,1.174-0.269,2.062-0.804,2.663  c-0.536,0.601-1.261,0.9-2.174,0.9c-0.914,0-1.641-0.3-2.181-0.9c-0.539-0.602-0.809-1.489-0.809-2.663  c0-1.163,0.263-2.049,0.792-2.655C12.771,21.712,13.503,21.409,14.44,21.409z M14.44,27.473c0.43,0,0.762-0.215,0.994-0.645  c0.231-0.428,0.346-1.046,0.346-1.853c0-0.809-0.115-1.424-0.346-1.852c-0.232-0.427-0.563-0.641-0.994-0.641  c-0.427,0-0.76,0.214-0.998,0.641c-0.237,0.428-0.355,1.043-0.355,1.852C13.087,26.641,13.538,27.473,14.44,27.473z"/>
<path d="M22.324,22.643c-0.169-0.043-0.336-0.063-0.499-0.063c-0.556,0-0.934,0.158-1.132,0.476  c-0.197,0.318-0.298,0.844-0.298,1.577v3.813h-1.607V22.82c0-0.312-0.012-0.749-0.034-1.31h1.542c0.055,0.396,0.088,0.712,0.1,0.948  c0.107-0.33,0.279-0.59,0.517-0.773c0.237-0.185,0.508-0.276,0.813-0.276c0.206,0,0.406,0.027,0.6,0.083V22.643z"/>
<path d="M25.926,28.541c-0.949,0-1.667-0.298-2.155-0.894c-0.485-0.596-0.729-1.47-0.729-2.625c0-1.143,0.235-2.031,0.708-2.664  s1.164-0.949,2.074-0.949c0.93,0,1.607,0.294,2.034,0.882c0.429,0.586,0.642,1.473,0.642,2.654v0.492h-3.813  c0,0.646,0.132,1.142,0.397,1.489s0.647,0.521,1.15,0.521c0.441,0,0.823-0.031,1.142-0.094c0.318-0.064,0.6-0.151,0.846-0.263v1.116  c-0.241,0.111-0.528,0.194-0.865,0.249C27.023,28.512,26.546,28.541,25.926,28.541z M26.88,24.351c0-0.535-0.1-0.982-0.302-1.337  c-0.201-0.354-0.453-0.53-0.754-0.53c-0.313,0-0.577,0.177-0.795,0.53c-0.217,0.354-0.326,0.802-0.326,1.337H26.88z"/>
</svg>
