<?xml version="1.0" encoding="UTF-8"?>
<!DOCTYPE svg PUBLIC "-//W3C//DTD SVG 1.1 Tiny//EN" "http://www.w3.org/Graphics/SVG/1.1/DTD/svg11-tiny.dtd">
<svg baseProfile="tiny" height="218px" version="1.1" viewBox="0 0 218 218" width="218px" x="0px" xmlns="http://www.w3.org/2000/svg" xmlns:xlink="http://www.w3.org/1999/xlink" y="0px">
<rect fill="none" height="218" width="218"/>
<polygon fill-opacity="0.4" points="104,124 104,61.5 109,57.75 114,61.5 114,124 "/>
<polygon fill="#F2F2F2" points="113,123 105,123 105,62 109,59 113,62 "/>
<linearGradient gradientUnits="userSpaceOnUse" id="SVGID_1_" x1="105" x2="113" y1="104.5" y2="104.5">
<stop offset="0" style="stop-color:#4D4D4D"/>
<stop offset="0.5212" style="stop-color:#333333"/>
<stop offset="1" style="stop-color:#4D4D4D"/>
</linearGradient>
<rect fill="url(#SVGID_1_)" height="37" width="8" x="105" y="86"/>
<path d="M109,118c-4.963,0-9-4.037-9-9.003c0-4.96,4.037-8.997,9-8.997c4.965,0,9,4.037,9,8.997  C118,113.963,113.965,118,109,118L109,118z" fill-opacity="0.4" stroke-opacity="0.4"/>
<linearGradient gradientUnits="userSpaceOnUse" id="SVGID_2_" x1="108.9985" x2="108.9985" y1="100.9004" y2="117.1001">
<stop offset="0" style="stop-color:#999999"/>
<stop offset="0.3091" style="stop-color:#4D4D4D"/>
<stop offset="1" style="stop-color:#000000"/>
</linearGradient>
<path d="M117.1,108.997c0,4.474-3.627,8.103-8.1,8.103c-4.476,0-8.102-3.629-8.102-8.103  c0-4.472,3.626-8.097,8.102-8.097C113.473,100.9,117.1,104.525,117.1,108.997z" fill="url(#SVGID_2_)"/>
<linearGradient gradientUnits="userSpaceOnUse" id="SVGID_3_" x1="109" x2="109" y1="101.8027" y2="116.1997">
<stop offset="0" style="stop-color:#666666"/>
<stop offset="1" style="stop-color:#000000"/>
</linearGradient>
<path d="M109,116.199c-3.969,0-7.203-3.228-7.203-7.202c0-3.97,3.233-7.194,7.203-7.194  c3.969,0,7.203,3.225,7.203,7.194C116.203,112.972,112.969,116.199,109,116.199L109,116.199z" fill="url(#SVGID_3_)"/>
</svg>
