<?xml version="1.0" encoding="utf-8"?>
<!-- Generator: Adobe Illustrator 14.0.0, SVG Export Plug-In  -->
<!DOCTYPE svg PUBLIC "-//W3C//DTD SVG 1.1//EN" "http://www.w3.org/Graphics/SVG/1.1/DTD/svg11.dtd" [
	<!ENTITY ns_flows "http://ns.adobe.com/Flows/1.0/">
]>
<svg version="1.1"
	 xmlns="http://www.w3.org/2000/svg" xmlns:xlink="http://www.w3.org/1999/xlink" xmlns:a="http://ns.adobe.com/AdobeSVGViewerExtensions/3.0/"
	 x="0px" y="0px" width="10px" height="10px" viewBox="0 0 10 10" enable-background="new 0 0 10 10" xml:space="preserve">
<defs>
</defs>
<rect fill="none" width="10" height="10"/>
<path opacity="0.1" fill="#14141E" d="M10,0H7C3.14,0,0,3.14,0,7v3h10V0z"/>
<path opacity="0.2" fill="#14141E" d="M10,2H7C3.7,2,1,4.7,1,8v2h9V2z"/>
<linearGradient id="SVGID_1_" gradientUnits="userSpaceOnUse" x1="5.5" y1="1.125" x2="5.5" y2="79.951">
	<stop  offset="0" style="stop-color:#FFFFFF"/>
	<stop  offset="0" style="stop-color:#FDFDFE"/>
	<stop  offset="0.9" style="stop-color:#E6E6F0"/>
	<stop  offset="1" style="stop-color:#DCDCE6"/>
</linearGradient>
<path opacity="0.9" fill="url(#SVGID_1_)" d="M10,1H7C3.7,1,1,3.7,1,7v3h9V1z"/>
<path opacity="0.4" fill="#FFFFFF" d="M2,7c0-2.757,2.243-5,5-5h3V1H7C3.7,1,1,3.7,1,7v3h1V7z"/>
</svg>
