<?xml version="1.0" encoding="UTF-8"?>
<!DOCTYPE svg PUBLIC "-//W3C//DTD SVG 1.1 Tiny//EN" "http://www.w3.org/Graphics/SVG/1.1/DTD/svg11-tiny.dtd">
<svg baseProfile="tiny" version="1.1" xmlns="http://www.w3.org/2000/svg" xmlns:xlink="http://www.w3.org/1999/xlink" x="0px" y="0px" width="60px" height="60px" viewBox="0 0 60 60">
<linearGradient id="SVGID_1_" gradientUnits="userSpaceOnUse" x1="21.0146" y1="7.1299" x2="21.0146" y2="39.4316" gradientTransform="matrix(0.9948 0.1014 -0.1014 0.9948 3.0857 -3.0766)">
<stop offset="0" style="stop-color:#FFA300"/>
<stop offset="0.0051" style="stop-color:#FFA300"/>
<stop offset="1" style="stop-color:#F41C00"/>
</linearGradient>
<polygon fill="url(#SVGID_1_)" points="26.187,38.914 24.965,38.619 11.196,35.301 9.975,35.006 10.27,33.785 16.785,6.739   17.079,5.517 18.302,5.812 32.069,9.125 33.291,9.419 32.997,10.642 26.482,37.69 26.187,38.914 "/>
<path fill="#292929" d="M18.007,7.033l13.767,3.315l-6.516,27.046l-13.767-3.317L18.007,7.033 M16.154,4.002l-7.693,31.93  l18.652,4.494l7.69-31.933L16.154,4.002L16.154,4.002z"/>
<linearGradient id="SVGID_2_" gradientUnits="userSpaceOnUse" x1="39.3506" y1="15.6035" x2="39.3506" y2="49.9902" gradientTransform="matrix(0.9948 0.1014 -0.1014 0.9948 3.0857 -3.0766)">
<stop offset="0" style="stop-color:#FFA300"/>
<stop offset="0.0051" style="stop-color:#FFA300"/>
<stop offset="1" style="stop-color:#F41C00"/>
</linearGradient>
<polygon fill="url(#SVGID_2_)" points="35.683,50.495 34.709,49.698 23.911,40.865 22.935,40.07 23.733,39.097 41.346,17.563   42.139,16.587 43.111,17.385 53.909,26.216 54.884,27.009 54.086,27.982 36.477,49.52 35.683,50.495 "/>
<path fill="#292929" d="M42.315,18.357l10.8,8.831l-17.61,21.536l-10.799-8.831L42.315,18.357 M41.962,14.822L21.171,40.248  L35.859,52.26l20.789-25.426L41.962,14.822L41.962,14.822z"/>
<rect fill="none" width="60" height="60"/>
</svg>
