<?xml version="1.0" encoding="UTF-8"?>
<!DOCTYPE svg PUBLIC "-//W3C//DTD SVG 1.1 Tiny//EN" "http://www.w3.org/Graphics/SVG/1.1/DTD/svg11-tiny.dtd">
<svg baseProfile="tiny" version="1.1" xmlns="http://www.w3.org/2000/svg" xmlns:xlink="http://www.w3.org/1999/xlink" x="0px" y="0px" width="30px" height="30px" viewBox="0 0 30 30">
<rect fill="none" width="30" height="30"/>
<path d="M24.899,2.301H9.288c-1.438,0-2.603,1.164-2.603,2.602v2.709l1.3,0.077V4.903c0.001-0.719,0.582-1.298,1.302-1.299h15.611  c0.718,0.001,1.3,0.58,1.3,1.299v15.611c0,0.719-0.582,1.302-1.3,1.304h-2.643v1.298h2.643c1.436,0,2.601-1.163,2.601-2.602V4.903  C27.5,3.465,26.335,2.301,24.899,2.301z"/>
<path d="M2.5,25.096V9.486c0-1.438,1.164-2.602,2.6-2.602l0,0h15.614c1.436,0,2.601,1.164,2.601,2.602l0,0v15.61  c0,1.439-1.165,2.603-2.601,2.603l0,0L5.1,27.699C3.664,27.698,2.5,26.535,2.5,25.096L2.5,25.096z M3.8,9.486v15.61  c0.002,0.722,0.583,1.3,1.3,1.302l0,0l15.614-0.002c0.719,0,1.299-0.578,1.299-1.3l0,0V9.486c0-0.718-0.583-1.301-1.299-1.303l0,0  H5.1C4.383,8.185,3.802,8.768,3.8,9.486L3.8,9.486z"/>
<path d="M18.874,11.491c0.428,0,0.775,0.345,0.775,0.771v4.487c0,0.427-0.348,0.772-0.775,0.772h-4.488  c-0.425,0-0.771-0.346-0.771-0.772v-4.487c0-0.426,0.347-0.771,0.771-0.771H18.874 M18.732,12.408h-4.202v4.198h4.202V12.408  L18.732,12.408z"/>
<path d="M18.874,18.814c0.428,0,0.775,0.344,0.775,0.77v4.49c0,0.427-0.348,0.771-0.775,0.771h-4.488  c-0.425,0-0.771-0.344-0.771-0.771v-4.49c0-0.426,0.347-0.77,0.771-0.77H18.874 M18.732,19.73h-4.202v4.197h4.202V19.73  L18.732,19.73z"/>
<path d="M11.447,18.814c0.426,0,0.772,0.344,0.772,0.77v4.49c0,0.427-0.346,0.771-0.772,0.771H6.958  c-0.427,0-0.771-0.344-0.771-0.771v-4.49c0-0.426,0.344-0.77,0.771-0.77H11.447 M11.302,19.73H7.104v4.197h4.198V19.73L11.302,19.73  z"/>
<path d="M12.219,14.799c0,0.426-0.346,0.771-0.772,0.771H6.958c-0.427,0-0.771-0.345-0.771-0.771v-4.488  c0-0.429,0.344-0.771,0.771-0.771h4.488c0.426,0,0.772,0.343,0.772,0.771V14.799z"/>
</svg>
