<?xml version="1.0" encoding="UTF-8"?>
<!DOCTYPE svg PUBLIC "-//W3C//DTD SVG 1.1 Tiny//EN" "http://www.w3.org/Graphics/SVG/1.1/DTD/svg11-tiny.dtd">
<svg baseProfile="tiny" height="218px" version="1.1" viewBox="0 0 218 218" width="218px" x="0px" xmlns="http://www.w3.org/2000/svg" xmlns:xlink="http://www.w3.org/1999/xlink" y="0px">
<rect fill="none" height="218" width="218"/>
<path d="M109,218C48.897,218,0,169.104,0,109C0,48.897,48.897,0,109,0  c60.104,0,109,48.897,109,109C218,169.104,169.104,218,109,218L109,218z" fill-opacity="0.3" stroke-opacity="0.3"/>
<path d="M109,217C49.448,217,1,168.553,1,109C1,49.45,49.448,1,109,1  c59.553,0,108,48.45,108,108C217,168.553,168.553,217,109,217L109,217z" fill-opacity="0.4" stroke-opacity="0.4"/>
<linearGradient gradientTransform="matrix(1 0 0 -1 -575.5 -274.5)" gradientUnits="userSpaceOnUse" id="SVGID_1_" x1="684.499" x2="684.499" y1="-275.2681" y2="-491.0229">
<stop offset="0" style="stop-color:#666666"/>
<stop offset="0.53" style="stop-color:#262626"/>
<stop offset="0.53" style="stop-color:#000000"/>
<stop offset="1" style="stop-color:#1A1A1A"/>
</linearGradient>
<circle cx="109" cy="109" fill="url(#SVGID_1_)" r="107"/>
<linearGradient gradientTransform="matrix(1 0 0 -1 -575.5 -274.5)" gradientUnits="userSpaceOnUse" id="SVGID_2_" x1="684.499" x2="684.499" y1="-276.5" y2="-490.5">
<stop offset="0" style="stop-color:#CBCBCB"/>
<stop offset="1" style="stop-color:#333333"/>
</linearGradient>
<path d="M109,2C49.905,2,2,49.905,2,109  c0,59.098,47.905,107,107,107c59.096,0,107-47.902,107-107C216,49.905,168.096,2,109,2z M109,215C50.552,215,3,167.45,3,109  C3,50.552,50.552,3,109,3c58.447,0,106,47.552,106,106C215,167.45,167.447,215,109,215z" fill="url(#SVGID_2_)" fill-opacity="0.5" stroke-opacity="0.5"/>
<linearGradient gradientTransform="matrix(1 0 0 -1 -575.5 -274.5)" gradientUnits="userSpaceOnUse" id="SVGID_3_" x1="684.5" x2="684.5" y1="-481.5" y2="-285.5">
<stop offset="0" style="stop-color:#333333"/>
<stop offset="0.503" style="stop-color:#1A1A1A"/>
<stop offset="1" style="stop-color:#808080"/>
</linearGradient>
<path d="M109,207c-54.037,0-98-43.962-98-98c0-54.037,43.963-98,98-98s98,43.963,98,98  C207,163.038,163.037,207,109,207L109,207z" fill="url(#SVGID_3_)"/>
<linearGradient gradientTransform="matrix(1 0 0 -1 -575.5 -274.5)" gradientUnits="userSpaceOnUse" id="SVGID_4_" x1="684.5" x2="684.5" y1="-479.5" y2="-287.5">
<stop offset="0" style="stop-color:#333333"/>
<stop offset="0.3091" style="stop-color:#000000"/>
<stop offset="1" style="stop-color:#4D4D4D"/>
</linearGradient>
<circle cx="109" cy="109" fill="url(#SVGID_4_)" r="96"/>
<linearGradient gradientTransform="matrix(1 0 0 -1 -575.5 -274.5)" gradientUnits="userSpaceOnUse" id="SVGID_5_" x1="684.499" x2="684.499" y1="-289.9487" y2="-379.0007">
<stop offset="0" style="stop-color:#FFFFFF"/>
<stop offset="1" style="stop-color:#333333"/>
</linearGradient>
<ellipse cx="109" cy="59.999" fill="url(#SVGID_5_)" fill-opacity="0.15" rx="65" ry="44.001" stroke-opacity="0.15"/>
<path d="M109,13c-53.02,0-96,42.98-96,96c0,53.021,42.98,96,96,96  c53.02,0,96-42.979,96-96C205,55.98,162.02,13,109,13z M109,204.012c-52.389,0-95.011-42.621-95.011-95.012  c0-52.389,42.622-95.01,95.011-95.01c52.389,0,95.012,42.622,95.012,95.01C204.012,161.391,161.389,204.012,109,204.012z" fill-opacity="0.5" stroke-opacity="0.5"/>
<path d="M99.961,36.396h-0.064l-3.673,1.983l-0.553-2.178l4.615-2.471h2.438v21.126h-2.763V36.396z" fill="#E5E5E5"/>
<path d="M107.987,54.857v-1.755l2.242-2.178c5.396-5.135,7.865-7.865,7.865-11.053c0-2.143-1.008-4.125-4.16-4.125  c-1.916,0-3.51,0.975-4.482,1.788l-0.91-2.016c1.434-1.203,3.543-2.147,5.945-2.147c4.554,0,6.472,3.123,6.472,6.146  c0,3.897-2.828,7.053-7.281,11.343l-1.653,1.561v0.064h9.457v2.373L107.987,54.857L107.987,54.857z" fill="#E5E5E5"/>
<path d="M112.551,163.688c-0.584-0.033-1.332,0.031-2.145,0.162c-4.518,0.715-6.858,3.965-7.345,7.478h0.064  c1.008-1.365,2.796-2.472,5.136-2.472c3.737,0,6.37,2.729,6.37,6.824c0,3.9-2.633,7.475-7.052,7.475  c-4.485,0-7.442-3.51-7.442-9.002c0-4.157,1.462-7.44,3.574-9.521c1.756-1.723,4.096-2.795,6.76-3.118  c0.846-0.132,1.563-0.162,2.08-0.162V163.688L112.551,163.688z M111.738,175.872c0-3.021-1.723-4.841-4.355-4.841  c-1.723,0-3.348,1.041-4.127,2.602c-0.163,0.323-0.293,0.717-0.293,1.235c0.032,3.479,1.657,6.077,4.681,6.077  C110.082,180.945,111.738,178.896,111.738,175.872z" fill="#E5E5E5"/>
<path d="M35.731,116.214c0.617,0.063,1.333,0,2.308-0.099c1.657-0.227,3.218-0.877,4.42-2.047  c1.397-1.27,2.405-3.121,2.795-5.59h-0.097c-1.171,1.431-2.86,2.243-5.006,2.243c-3.77,0-6.207-2.86-6.207-6.468  c0-3.998,2.893-7.508,7.215-7.508c4.322,0,6.987,3.478,6.987,8.938c0,4.616-1.56,7.866-3.64,9.879  c-1.625,1.594-3.868,2.566-6.143,2.828c-1.04,0.162-1.95,0.189-2.633,0.162L35.731,116.214L35.731,116.214z M36.771,104.091  c0,2.633,1.593,4.485,4.063,4.485c1.918,0,3.413-0.942,4.16-2.211c0.163-0.292,0.26-0.585,0.26-1.075  c0-3.604-1.332-6.367-4.354-6.367C38.494,98.924,36.771,101.068,36.771,104.091z" fill="#E5E5E5"/>
<line fill="none" x1="117.941" x2="117.631" y1="20.828" y2="23.813"/>
<line fill="none" x1="117.941" x2="117.631" y1="20.828" y2="23.813"/>
<path d="M117.631,23.983c-0.008,0-0.012,0-0.02-0.002c-0.094-0.009-0.16-0.093-0.152-0.188l0.313-2.985  c0.013-0.095,0.103-0.157,0.191-0.152c0.09,0.008,0.16,0.094,0.15,0.188L117.8,23.83C117.791,23.915,117.717,23.983,117.631,23.983  L117.631,23.983z" fill="#989898"/>
<line fill="none" x1="127.129" x2="126.506" y1="22.281" y2="25.22"/>
<line fill="none" x1="127.129" x2="126.506" y1="22.281" y2="25.22"/>
<path d="M126.506,25.391c-0.012,0-0.025-0.001-0.037-0.005c-0.092-0.021-0.15-0.111-0.131-0.203l0.623-2.937  c0.018-0.095,0.104-0.151,0.201-0.134c0.094,0.021,0.154,0.112,0.133,0.204l-0.621,2.938  C126.656,25.331,126.584,25.391,126.506,25.391L126.506,25.391z" fill="#989898"/>
<line fill="none" x1="136.109" x2="135.182" y1="24.688" y2="27.54"/>
<line fill="none" x1="136.109" x2="135.182" y1="24.688" y2="27.54"/>
<path d="M135.182,27.716c-0.016,0-0.033-0.003-0.053-0.01c-0.088-0.028-0.137-0.125-0.107-0.214l0.929-2.856  c0.028-0.091,0.125-0.14,0.217-0.11c0.09,0.029,0.142,0.126,0.106,0.218l-0.928,2.854C135.322,27.67,135.256,27.716,135.182,27.716  L135.182,27.716z" fill="#989898"/>
<line fill="none" x1="144.793" x2="143.572" y1="28.021" y2="30.764"/>
<line fill="none" x1="144.793" x2="143.572" y1="28.021" y2="30.764"/>
<path d="M143.572,30.936c-0.023,0-0.047-0.004-0.068-0.015c-0.088-0.039-0.127-0.141-0.088-0.228l1.221-2.743  c0.039-0.087,0.139-0.125,0.225-0.087c0.091,0.038,0.125,0.141,0.093,0.227l-1.226,2.741  C143.699,30.896,143.639,30.936,143.572,30.936L143.572,30.936z" fill="#989898"/>
<line fill="none" x1="160.879" x2="159.113" y1="37.308" y2="39.735"/>
<line fill="none" x1="160.879" x2="159.113" y1="37.308" y2="39.735"/>
<path d="M159.113,39.908c-0.033,0-0.07-0.012-0.1-0.036c-0.078-0.054-0.097-0.161-0.037-0.236l1.764-2.43  c0.055-0.077,0.164-0.095,0.24-0.041c0.076,0.06,0.092,0.165,0.035,0.244l-1.765,2.428  C159.219,39.884,159.166,39.908,159.113,39.908L159.113,39.908z" fill="#989898"/>
<line fill="none" x1="168.104" x2="166.096" y1="43.158" y2="45.391"/>
<line fill="none" x1="168.104" x2="166.096" y1="43.158" y2="45.391"/>
<path d="M166.096,45.563c-0.041,0-0.08-0.016-0.113-0.046c-0.067-0.063-0.073-0.17-0.014-0.24l2.01-2.231  c0.063-0.073,0.17-0.077,0.242-0.015c0.066,0.063,0.074,0.174,0.012,0.243l-2.008,2.231  C166.191,45.544,166.143,45.563,166.096,45.563L166.096,45.563z" fill="#989898"/>
<line fill="none" x1="51.221" x2="49.213" y1="172.979" y2="175.206"/>
<line fill="none" x1="51.221" x2="49.213" y1="172.979" y2="175.206"/>
<path d="M49.213,175.378c-0.043,0-0.084-0.017-0.117-0.047c-0.07-0.062-0.076-0.168-0.012-0.24l2.01-2.228  c0.064-0.073,0.174-0.076,0.24-0.012c0.072,0.063,0.078,0.168,0.016,0.239l-2.01,2.229  C49.305,175.357,49.258,175.378,49.213,175.378L49.213,175.378z" fill="#989898"/>
<line fill="none" x1="174.68" x2="172.451" y1="49.734" y2="51.744"/>
<line fill="none" x1="174.68" x2="172.451" y1="49.734" y2="51.744"/>
<path d="M172.451,51.914c-0.047,0-0.094-0.019-0.129-0.057c-0.064-0.068-0.057-0.178,0.012-0.242l2.232-2.01  c0.07-0.065,0.178-0.058,0.242,0.014c0.063,0.07,0.059,0.18-0.019,0.242l-2.229,2.01C172.531,51.9,172.49,51.914,172.451,51.914  L172.451,51.914z" fill="#989898"/>
<line fill="none" x1="44.867" x2="42.637" y1="166.622" y2="168.63"/>
<line fill="none" x1="44.867" x2="42.637" y1="166.622" y2="168.63"/>
<path d="M42.637,168.803c-0.047,0-0.096-0.02-0.127-0.059c-0.066-0.068-0.059-0.178,0.012-0.24l2.23-2.007  c0.072-0.063,0.18-0.058,0.244,0.015c0.063,0.069,0.055,0.18-0.014,0.241l-2.234,2.007  C42.719,168.788,42.676,168.803,42.637,168.803L42.637,168.803z" fill="#989898"/>
<line fill="none" x1="180.533" x2="178.104" y1="56.962" y2="58.728"/>
<line fill="none" x1="180.533" x2="178.104" y1="56.962" y2="58.728"/>
<path d="M178.104,58.899c-0.053,0-0.104-0.027-0.139-0.072c-0.055-0.077-0.039-0.184,0.039-0.24l2.428-1.765  c0.078-0.056,0.188-0.036,0.24,0.038c0.055,0.076,0.039,0.186-0.037,0.238l-2.43,1.767  C178.176,58.889,178.139,58.899,178.104,58.899L178.104,58.899z" fill="#989898"/>
<line fill="none" x1="39.213" x2="36.783" y1="159.645" y2="161.402"/>
<line fill="none" x1="39.213" x2="36.783" y1="159.645" y2="161.402"/>
<path d="M36.783,161.575c-0.053,0-0.105-0.022-0.139-0.07c-0.055-0.077-0.035-0.187,0.039-0.237l2.43-1.764  c0.076-0.057,0.184-0.038,0.236,0.036c0.059,0.077,0.041,0.187-0.037,0.241l-2.428,1.759  C36.854,161.563,36.818,161.575,36.783,161.575L36.783,161.575z" fill="#989898"/>
<line fill="none" x1="30.24" x2="27.496" y1="144.104" y2="145.318"/>
<line fill="none" x1="30.24" x2="27.496" y1="144.104" y2="145.318"/>
<path d="M27.496,145.49c-0.066,0-0.127-0.037-0.156-0.104c-0.039-0.087,0-0.189,0.086-0.228l2.744-1.218  c0.088-0.039,0.188,0,0.225,0.088c0.039,0.086,0,0.188-0.086,0.226l-2.74,1.22C27.545,145.484,27.52,145.49,27.496,145.49  L27.496,145.49z" fill="#989898"/>
<line fill="none" x1="27.02" x2="24.164" y1="135.714" y2="136.639"/>
<line fill="none" x1="27.02" x2="24.164" y1="135.714" y2="136.639"/>
<path d="M24.164,136.811c-0.072,0-0.139-0.045-0.164-0.119c-0.027-0.09,0.023-0.188,0.111-0.217l2.855-0.925  c0.088-0.026,0.188,0.021,0.215,0.111c0.029,0.089-0.02,0.187-0.109,0.211l-2.854,0.928  C24.199,136.809,24.182,136.811,24.164,136.811L24.164,136.811z" fill="#989898"/>
<line fill="none" x1="24.691" x2="21.76" y1="127.033" y2="127.652"/>
<line fill="none" x1="24.691" x2="21.76" y1="127.033" y2="127.652"/>
<path d="M21.76,127.826c-0.082,0-0.15-0.057-0.168-0.137c-0.02-0.094,0.039-0.186,0.131-0.203l2.934-0.621  c0.098-0.018,0.186,0.039,0.203,0.135c0.021,0.091-0.037,0.184-0.129,0.201l-2.938,0.621  C21.781,127.825,21.77,127.826,21.76,127.826L21.76,127.826z" fill="#989898"/>
<line fill="none" x1="23.287" x2="20.305" y1="118.16" y2="118.471"/>
<line fill="none" x1="23.287" x2="20.305" y1="118.16" y2="118.471"/>
<path d="M20.305,118.645c-0.086,0-0.164-0.065-0.172-0.154c-0.008-0.094,0.059-0.178,0.154-0.188l2.982-0.313  c0.1-0.01,0.182,0.06,0.189,0.152c0.008,0.094-0.061,0.18-0.154,0.188l-2.984,0.313C20.316,118.643,20.311,118.645,20.305,118.645  L20.305,118.645z" fill="#989898"/>
<line fill="none" x1="23.285" x2="20.305" y1="100.215" y2="99.897"/>
<line fill="none" x1="23.285" x2="20.305" y1="100.215" y2="99.897"/>
<path d="M23.285,100.386c-0.006,0-0.012-0.001-0.016-0.001l-2.984-0.315c-0.094-0.011-0.16-0.097-0.152-0.188  c0.008-0.094,0.098-0.163,0.189-0.153l2.982,0.317c0.094,0.011,0.162,0.095,0.154,0.188  C23.451,100.319,23.373,100.386,23.285,100.386L23.285,100.386z" fill="#989898"/>
<line fill="none" x1="24.691" x2="21.76" y1="91.34" y2="90.713"/>
<line fill="none" x1="24.691" x2="21.76" y1="91.34" y2="90.713"/>
<path d="M24.691,91.511c-0.01,0-0.023-0.002-0.035-0.003l-2.934-0.627c-0.092-0.021-0.15-0.111-0.131-0.204  c0.018-0.091,0.104-0.15,0.201-0.132l2.938,0.627c0.092,0.02,0.148,0.109,0.129,0.2C24.844,91.456,24.77,91.511,24.691,91.511  L24.691,91.511z" fill="#989898"/>
<line fill="none" x1="27.016" x2="24.164" y1="82.661" y2="81.729"/>
<line fill="none" x1="27.016" x2="24.164" y1="82.661" y2="81.729"/>
<path d="M27.016,82.831c-0.014,0-0.033-0.002-0.051-0.009l-2.852-0.931c-0.09-0.028-0.141-0.125-0.111-0.215  c0.031-0.091,0.127-0.139,0.217-0.111l2.854,0.931c0.09,0.028,0.137,0.126,0.109,0.218C27.158,82.787,27.092,82.831,27.016,82.831  L27.016,82.831z" fill="#989898"/>
<line fill="none" x1="30.24" x2="27.496" y1="74.271" y2="73.048"/>
<line fill="none" x1="30.24" x2="27.496" y1="74.271" y2="73.048"/>
<path d="M30.24,74.442c-0.027,0-0.051-0.004-0.07-0.015l-2.742-1.224c-0.084-0.04-0.127-0.141-0.088-0.227  c0.041-0.087,0.141-0.125,0.229-0.088l2.738,1.223c0.088,0.039,0.125,0.143,0.088,0.228C30.367,74.404,30.303,74.442,30.24,74.442  L30.24,74.442z" fill="#989898"/>
<line fill="none" x1="180.535" x2="178.105" y1="161.402" y2="159.641"/>
<line fill="none" x1="180.535" x2="178.105" y1="161.402" y2="159.641"/>
<path d="M180.535,161.575c-0.035,0-0.07-0.011-0.102-0.03l-2.433-1.766c-0.076-0.059-0.092-0.164-0.035-0.239  c0.056-0.076,0.16-0.097,0.236-0.04l2.43,1.768c0.08,0.058,0.099,0.162,0.039,0.238  C180.641,161.555,180.588,161.575,180.535,161.575L180.535,161.575z" fill="#989898"/>
<line fill="none" x1="39.209" x2="36.785" y1="58.729" y2="56.963"/>
<line fill="none" x1="39.209" x2="36.785" y1="58.729" y2="56.963"/>
<path d="M39.209,58.901c-0.033,0-0.07-0.013-0.1-0.033l-2.426-1.767c-0.074-0.056-0.094-0.164-0.039-0.24  c0.057-0.074,0.164-0.093,0.24-0.035l2.428,1.766c0.076,0.056,0.094,0.163,0.037,0.239C39.316,58.878,39.264,58.901,39.209,58.901  L39.209,58.901z" fill="#989898"/>
<line fill="none" x1="174.684" x2="172.451" y1="168.632" y2="166.622"/>
<line fill="none" x1="174.684" x2="172.451" y1="168.632" y2="166.622"/>
<path d="M174.684,168.803c-0.041,0-0.084-0.014-0.113-0.043l-2.229-2.01c-0.067-0.063-0.075-0.17-0.014-0.24  c0.063-0.07,0.172-0.076,0.239-0.014l2.23,2.008c0.072,0.063,0.078,0.172,0.014,0.242  C174.777,168.784,174.73,168.803,174.684,168.803L174.684,168.803z" fill="#989898"/>
<line fill="none" x1="44.865" x2="42.637" y1="51.747" y2="49.735"/>
<line fill="none" x1="44.865" x2="42.637" y1="51.747" y2="49.735"/>
<path d="M44.865,51.915c-0.041,0-0.082-0.013-0.115-0.043l-2.229-2.009c-0.07-0.063-0.078-0.173-0.012-0.241  c0.061-0.07,0.172-0.076,0.24-0.013l2.23,2.009c0.068,0.065,0.074,0.172,0.014,0.243C44.957,51.897,44.91,51.915,44.865,51.915  L44.865,51.915z" fill="#989898"/>
<line fill="none" x1="168.105" x2="166.098" y1="175.206" y2="172.977"/>
<line fill="none" x1="168.105" x2="166.098" y1="175.206" y2="172.977"/>
<path d="M168.105,175.38c-0.045,0-0.092-0.021-0.125-0.058l-2.01-2.231c-0.063-0.069-0.06-0.179,0.014-0.239  c0.065-0.064,0.178-0.062,0.24,0.012l2.01,2.23c0.063,0.069,0.057,0.18-0.012,0.237C168.189,175.363,168.146,175.38,168.105,175.38  L168.105,175.38z" fill="#989898"/>
<line fill="none" x1="51.217" x2="49.213" y1="45.394" y2="43.16"/>
<line fill="none" x1="51.217" x2="49.213" y1="45.394" y2="43.16"/>
<path d="M51.217,45.563c-0.045,0-0.094-0.018-0.125-0.057l-2.008-2.232c-0.063-0.07-0.057-0.18,0.012-0.241  c0.072-0.064,0.18-0.061,0.244,0.014l2.008,2.231c0.061,0.07,0.055,0.178-0.016,0.241C51.299,45.552,51.26,45.563,51.217,45.563  L51.217,45.563z" fill="#989898"/>
<line fill="none" x1="58.201" x2="56.438" y1="39.737" y2="37.309"/>
<line fill="none" x1="58.201" x2="56.438" y1="39.737" y2="37.309"/>
<path d="M58.201,39.91c-0.053,0-0.104-0.024-0.137-0.069l-1.766-2.431c-0.053-0.079-0.039-0.185,0.039-0.24  c0.076-0.056,0.184-0.039,0.242,0.036l1.758,2.435c0.057,0.073,0.041,0.182-0.035,0.237C58.27,39.899,58.234,39.91,58.201,39.91  L58.201,39.91z" fill="#989898"/>
<line fill="none" x1="73.742" x2="72.525" y1="30.767" y2="28.022"/>
<line fill="none" x1="73.742" x2="72.525" y1="30.767" y2="28.022"/>
<path d="M73.742,30.938c-0.066,0-0.129-0.038-0.156-0.107l-1.217-2.739c-0.039-0.087,0-0.188,0.086-0.225  c0.084-0.041,0.188,0,0.227,0.086l1.219,2.744c0.037,0.085-0.002,0.187-0.09,0.226C73.789,30.934,73.766,30.938,73.742,30.938  L73.742,30.938z" fill="#989898"/>
<line fill="none" x1="82.131" x2="81.205" y1="27.546" y2="24.689"/>
<line fill="none" x1="82.131" x2="81.205" y1="27.546" y2="24.689"/>
<path d="M82.131,27.718c-0.072,0-0.139-0.048-0.164-0.119l-0.926-2.854c-0.027-0.092,0.021-0.188,0.113-0.218  c0.088-0.029,0.186,0.021,0.217,0.111l0.926,2.855c0.025,0.088-0.023,0.187-0.113,0.213C82.166,27.716,82.146,27.718,82.131,27.718  L82.131,27.718z" fill="#989898"/>
<line fill="none" x1="90.811" x2="90.188" y1="25.221" y2="22.285"/>
<line fill="none" x1="90.811" x2="90.188" y1="25.221" y2="22.285"/>
<path d="M90.811,25.393c-0.08,0-0.152-0.057-0.166-0.137l-0.621-2.938c-0.021-0.09,0.037-0.183,0.127-0.2  c0.1-0.021,0.186,0.038,0.205,0.13l0.621,2.937c0.02,0.093-0.039,0.186-0.131,0.205C90.834,25.391,90.822,25.393,90.811,25.393  L90.811,25.393z" fill="#989898"/>
<line fill="none" x1="99.684" x2="99.373" y1="23.814" y2="20.829"/>
<line fill="none" x1="99.684" x2="99.373" y1="23.814" y2="20.829"/>
<path d="M99.684,23.985c-0.088,0-0.162-0.064-0.17-0.154l-0.313-2.983c-0.008-0.094,0.059-0.183,0.154-0.188  c0.096-0.008,0.178,0.059,0.188,0.151l0.311,2.985c0.01,0.094-0.057,0.178-0.15,0.188c-0.008,0-0.014,0.002-0.014,0.002  L99.684,23.985L99.684,23.985z" fill="#989898"/>
<line fill="none" x1="117.631" x2="117.945" y1="23.814" y2="20.829"/>
<line fill="none" x1="117.631" x2="117.945" y1="23.814" y2="20.829"/>
<path d="M117.631,23.985c-0.008,0-0.012-0.002-0.02-0.002c-0.094-0.01-0.16-0.094-0.152-0.188l0.316-2.985  c0.008-0.093,0.096-0.158,0.188-0.15c0.094,0.005,0.162,0.095,0.154,0.188l-0.316,2.982  C117.791,23.921,117.717,23.985,117.631,23.985L117.631,23.985z" fill="#989898"/>
<line fill="none" x1="126.506" x2="127.131" y1="25.22" y2="22.285"/>
<line fill="none" x1="126.506" x2="127.131" y1="25.22" y2="22.285"/>
<path d="M126.506,25.392c-0.012,0-0.025-0.001-0.037-0.003c-0.092-0.021-0.15-0.112-0.131-0.205l0.625-2.937  c0.02-0.092,0.105-0.15,0.201-0.13c0.096,0.019,0.154,0.11,0.133,0.2l-0.623,2.938C126.656,25.331,126.584,25.392,126.506,25.392  L126.506,25.392z" fill="#989898"/>
<line fill="none" x1="135.182" x2="136.113" y1="27.544" y2="24.689"/>
<line fill="none" x1="135.182" x2="136.113" y1="27.544" y2="24.689"/>
<path d="M135.182,27.717c-0.016,0-0.033-0.002-0.053-0.011c-0.088-0.027-0.137-0.125-0.107-0.213l0.931-2.854  c0.026-0.091,0.127-0.142,0.217-0.111c0.09,0.031,0.142,0.128,0.106,0.217l-0.93,2.854C135.322,27.67,135.256,27.717,135.182,27.717  L135.182,27.717z" fill="#989898"/>
<line fill="none" x1="143.572" x2="144.793" y1="30.764" y2="28.022"/>
<line fill="none" x1="143.572" x2="144.793" y1="30.764" y2="28.022"/>
<path d="M143.572,30.938c-0.023,0-0.047-0.005-0.068-0.016c-0.088-0.04-0.127-0.141-0.088-0.229l1.223-2.74  c0.037-0.086,0.139-0.124,0.228-0.086c0.088,0.038,0.125,0.141,0.088,0.228l-1.226,2.736  C143.699,30.896,143.639,30.938,143.572,30.938L143.572,30.938z" fill="#989898"/>
<line fill="none" x1="159.113" x2="160.879" y1="39.737" y2="37.312"/>
<line fill="none" x1="159.113" x2="160.879" y1="39.737" y2="37.312"/>
<path d="M159.113,39.908c-0.035,0-0.07-0.011-0.102-0.036c-0.076-0.052-0.097-0.159-0.037-0.234l1.766-2.432  c0.055-0.074,0.162-0.091,0.24-0.035c0.076,0.056,0.094,0.16,0.035,0.24l-1.767,2.428C159.219,39.885,159.166,39.908,159.113,39.908  L159.113,39.908z" fill="#989898"/>
<line fill="none" x1="49.213" x2="51.221" y1="175.206" y2="172.979"/>
<line fill="none" x1="49.213" x2="51.221" y1="175.206" y2="172.979"/>
<path d="M49.213,175.38c-0.043,0-0.084-0.017-0.117-0.049c-0.07-0.06-0.076-0.168-0.012-0.237l2.008-2.23  c0.064-0.068,0.174-0.075,0.242-0.012c0.07,0.063,0.076,0.172,0.016,0.24l-2.014,2.23C49.305,175.357,49.258,175.38,49.213,175.38  L49.213,175.38z" fill="#989898"/>
<line fill="none" x1="166.096" x2="168.105" y1="45.392" y2="43.163"/>
<line fill="none" x1="166.096" x2="168.105" y1="45.392" y2="43.163"/>
<path d="M166.096,45.563c-0.041,0-0.082-0.013-0.113-0.045c-0.067-0.063-0.073-0.171-0.014-0.241l2.01-2.229  c0.064-0.071,0.17-0.078,0.242-0.012c0.068,0.062,0.076,0.169,0.014,0.24l-2.012,2.229  C166.189,45.545,166.143,45.563,166.096,45.563L166.096,45.563z" fill="#989898"/>
<line fill="none" x1="42.637" x2="44.867" y1="168.633" y2="166.622"/>
<line fill="none" x1="42.637" x2="44.867" y1="168.633" y2="166.622"/>
<path d="M42.637,168.805c-0.049,0-0.096-0.021-0.129-0.059c-0.064-0.066-0.059-0.18,0.014-0.241l2.23-2.008  c0.07-0.063,0.18-0.06,0.242,0.013c0.063,0.07,0.057,0.18-0.014,0.24l-2.232,2.012C42.717,168.79,42.676,168.805,42.637,168.805  L42.637,168.805z" fill="#989898"/>
<line fill="none" x1="172.451" x2="174.68" y1="51.746" y2="49.737"/>
<line fill="none" x1="172.451" x2="174.68" y1="51.746" y2="49.737"/>
<path d="M172.451,51.914c-0.047,0-0.096-0.018-0.129-0.055c-0.064-0.069-0.057-0.18,0.012-0.242l2.232-2.007  c0.07-0.063,0.18-0.06,0.242,0.012c0.063,0.07,0.059,0.18-0.017,0.243l-2.229,2.007C172.531,51.9,172.49,51.914,172.451,51.914  L172.451,51.914z" fill="#989898"/>
<line fill="none" x1="36.783" x2="39.213" y1="161.404" y2="159.643"/>
<line fill="none" x1="36.783" x2="39.213" y1="161.404" y2="159.643"/>
<path d="M36.783,161.576c-0.053,0-0.105-0.021-0.139-0.069c-0.057-0.075-0.037-0.187,0.039-0.239l2.43-1.765  c0.076-0.058,0.182-0.038,0.236,0.037c0.057,0.075,0.041,0.185-0.037,0.239l-2.428,1.766  C36.854,161.566,36.818,161.576,36.783,161.576L36.783,161.576z" fill="#989898"/>
<line fill="none" x1="178.104" x2="180.533" y1="58.729" y2="56.964"/>
<line fill="none" x1="178.104" x2="180.533" y1="58.729" y2="56.964"/>
<path d="M178.104,58.899c-0.053,0-0.104-0.027-0.139-0.07c-0.055-0.076-0.041-0.185,0.039-0.238l2.43-1.765  c0.074-0.058,0.187-0.039,0.238,0.036c0.055,0.077,0.039,0.187-0.037,0.24l-2.432,1.765  C178.176,58.89,178.139,58.899,178.104,58.899L178.104,58.899z" fill="#989898"/>
<line fill="none" x1="27.496" x2="30.24" y1="145.32" y2="144.102"/>
<line fill="none" x1="27.496" x2="30.24" y1="145.32" y2="144.102"/>
<path d="M27.496,145.493c-0.066,0-0.127-0.039-0.158-0.104c-0.037-0.086,0.002-0.188,0.088-0.229l2.744-1.221  c0.088-0.039,0.188,0,0.225,0.086c0.039,0.088,0,0.188-0.086,0.229l-2.742,1.223C27.543,145.486,27.52,145.493,27.496,145.493  L27.496,145.493z" fill="#989898"/>
<line fill="none" x1="24.162" x2="27.02" y1="136.641" y2="135.712"/>
<line fill="none" x1="24.162" x2="27.02" y1="136.641" y2="135.712"/>
<path d="M24.162,136.813c-0.072,0-0.137-0.045-0.162-0.121c-0.029-0.088,0.021-0.187,0.111-0.213l2.855-0.93  c0.088-0.027,0.188,0.021,0.215,0.111c0.029,0.087-0.018,0.186-0.109,0.212l-2.857,0.929  C24.199,136.809,24.182,136.813,24.162,136.813L24.162,136.813z" fill="#989898"/>
<line fill="none" x1="21.756" x2="24.691" y1="127.656" y2="127.033"/>
<line fill="none" x1="21.756" x2="24.691" y1="127.656" y2="127.033"/>
<path d="M21.756,127.827c-0.078,0-0.15-0.056-0.166-0.136c-0.02-0.092,0.039-0.186,0.133-0.203l2.934-0.625  c0.098-0.02,0.186,0.041,0.203,0.134c0.021,0.092-0.037,0.185-0.129,0.203l-2.938,0.622  C21.781,127.826,21.768,127.827,21.756,127.827L21.756,127.827z" fill="#989898"/>
<line fill="none" x1="20.305" x2="23.287" y1="118.475" y2="118.158"/>
<line fill="none" x1="20.305" x2="23.287" y1="118.475" y2="118.158"/>
<path d="M20.305,118.645c-0.088,0-0.166-0.063-0.172-0.152c-0.01-0.096,0.059-0.178,0.152-0.188l2.984-0.314  c0.094-0.006,0.182,0.059,0.189,0.152c0.008,0.096-0.061,0.18-0.154,0.188l-2.984,0.313  C20.316,118.645,20.311,118.645,20.305,118.645L20.305,118.645z" fill="#989898"/>
<line fill="none" x1="20.305" x2="23.287" y1="99.897" y2="100.212"/>
<line fill="none" x1="20.305" x2="23.287" y1="99.897" y2="100.212"/>
<path d="M23.287,100.384c-0.008,0-0.012,0-0.018,0l-2.984-0.314c-0.094-0.011-0.162-0.096-0.152-0.188  c0.008-0.095,0.098-0.161,0.188-0.153l2.984,0.312c0.094,0.013,0.162,0.098,0.154,0.189  C23.451,100.316,23.373,100.384,23.287,100.384L23.287,100.384z" fill="#989898"/>
<line fill="none" x1="21.756" x2="24.691" y1="90.714" y2="91.338"/>
<line fill="none" x1="21.756" x2="24.691" y1="90.714" y2="91.338"/>
<path d="M24.691,91.509c-0.01,0-0.021-0.001-0.035-0.004l-2.934-0.624c-0.094-0.02-0.152-0.109-0.133-0.202  c0.02-0.092,0.105-0.151,0.203-0.132l2.938,0.624c0.092,0.019,0.15,0.108,0.129,0.201C24.846,91.456,24.773,91.509,24.691,91.509  L24.691,91.509z" fill="#989898"/>
<line fill="none" x1="24.162" x2="27.02" y1="81.729" y2="82.658"/>
<line fill="none" x1="24.162" x2="27.02" y1="81.729" y2="82.658"/>
<path d="M27.02,82.829c-0.018,0-0.035-0.002-0.053-0.009l-2.855-0.929c-0.09-0.026-0.141-0.124-0.111-0.214  c0.031-0.091,0.127-0.14,0.215-0.111l2.857,0.93c0.092,0.027,0.139,0.126,0.109,0.216C27.158,82.785,27.094,82.829,27.02,82.829  L27.02,82.829z" fill="#989898"/>
<line fill="none" x1="27.496" x2="30.24" y1="73.05" y2="74.27"/>
<line fill="none" x1="27.496" x2="30.24" y1="73.05" y2="74.27"/>
<path d="M30.24,74.44c-0.025,0-0.049-0.004-0.07-0.014l-2.744-1.223c-0.086-0.04-0.125-0.14-0.088-0.226  c0.041-0.088,0.143-0.124,0.229-0.088l2.742,1.221c0.086,0.039,0.125,0.142,0.086,0.228C30.367,74.403,30.305,74.44,30.24,74.44  L30.24,74.44z" fill="#989898"/>
<line fill="none" x1="36.783" x2="39.211" y1="56.964" y2="58.729"/>
<line fill="none" x1="36.783" x2="39.211" y1="56.964" y2="58.729"/>
<path d="M39.211,58.899c-0.035,0-0.07-0.011-0.1-0.032l-2.428-1.765c-0.076-0.056-0.096-0.163-0.039-0.24  c0.057-0.075,0.164-0.094,0.24-0.036l2.428,1.765c0.078,0.056,0.094,0.162,0.037,0.238C39.316,58.878,39.264,58.899,39.211,58.899  L39.211,58.899z" fill="#989898"/>
<line fill="none" x1="178.105" x2="180.531" y1="159.641" y2="161.402"/>
<line fill="none" x1="178.105" x2="180.531" y1="159.641" y2="161.402"/>
<path d="M180.531,161.576c-0.033,0-0.068-0.012-0.1-0.031l-2.431-1.768c-0.078-0.057-0.094-0.162-0.037-0.237  c0.058-0.077,0.158-0.097,0.238-0.04l2.43,1.768c0.076,0.057,0.095,0.162,0.037,0.239  C180.639,161.555,180.584,161.576,180.531,161.576L180.531,161.576z" fill="#989898"/>
<line fill="none" x1="42.637" x2="44.865" y1="49.736" y2="51.747"/>
<line fill="none" x1="42.637" x2="44.865" y1="49.736" y2="51.747"/>
<path d="M44.865,51.914c-0.039,0-0.08-0.012-0.113-0.042l-2.23-2.008c-0.072-0.063-0.078-0.173-0.014-0.242  c0.061-0.07,0.172-0.076,0.24-0.012l2.232,2.007c0.068,0.065,0.076,0.173,0.014,0.242C44.959,51.896,44.912,51.914,44.865,51.914  L44.865,51.914z" fill="#989898"/>
<line fill="none" x1="172.451" x2="174.68" y1="166.622" y2="168.633"/>
<line fill="none" x1="172.451" x2="174.68" y1="166.622" y2="168.633"/>
<path d="M174.68,168.805c-0.039,0-0.082-0.015-0.113-0.045l-2.229-2.01c-0.07-0.063-0.078-0.171-0.014-0.24  c0.063-0.072,0.172-0.078,0.242-0.014l2.227,2.009c0.074,0.063,0.078,0.175,0.016,0.241  C174.773,168.784,174.729,168.805,174.68,168.805L174.68,168.805z" fill="#989898"/>
<line fill="none" x1="49.213" x2="51.219" y1="43.163" y2="45.392"/>
<line fill="none" x1="49.213" x2="51.219" y1="43.163" y2="45.392"/>
<path d="M51.219,45.563c-0.045,0-0.094-0.017-0.127-0.056l-2.008-2.23c-0.064-0.071-0.059-0.18,0.012-0.24  c0.07-0.067,0.178-0.061,0.24,0.012l2.012,2.229c0.061,0.071,0.057,0.179-0.016,0.241C51.301,45.551,51.26,45.563,51.219,45.563  L51.219,45.563z" fill="#989898"/>
<line fill="none" x1="166.098" x2="168.104" y1="172.977" y2="175.206"/>
<line fill="none" x1="166.098" x2="168.104" y1="172.977" y2="175.206"/>
<path d="M168.104,175.38c-0.045,0-0.094-0.021-0.125-0.06l-2.008-2.23c-0.063-0.068-0.059-0.179,0.012-0.238  c0.07-0.064,0.183-0.062,0.242,0.012l2.008,2.23c0.063,0.069,0.058,0.18-0.012,0.237C168.184,175.363,168.146,175.38,168.104,175.38  L168.104,175.38z" fill="#989898"/>
<line fill="none" x1="56.438" x2="58.201" y1="37.311" y2="39.737"/>
<line fill="none" x1="56.438" x2="58.201" y1="37.311" y2="39.737"/>
<path d="M58.201,39.909c-0.053,0-0.104-0.024-0.137-0.07l-1.766-2.428c-0.055-0.08-0.039-0.186,0.039-0.24  c0.074-0.057,0.182-0.039,0.24,0.035l1.764,2.432c0.055,0.075,0.039,0.185-0.039,0.234C58.271,39.897,58.236,39.909,58.201,39.909  L58.201,39.909z" fill="#989898"/>
<line fill="none" x1="72.523" x2="73.744" y1="28.022" y2="30.766"/>
<line fill="none" x1="72.523" x2="73.744" y1="28.022" y2="30.766"/>
<path d="M73.744,30.938c-0.066,0-0.129-0.04-0.158-0.106l-1.221-2.739c-0.037-0.084,0-0.188,0.088-0.225  c0.086-0.041,0.186,0,0.225,0.086l1.223,2.742c0.037,0.086,0,0.188-0.088,0.227C73.791,30.933,73.768,30.938,73.744,30.938  L73.744,30.938z" fill="#989898"/>
<line fill="none" x1="81.205" x2="82.131" y1="24.689" y2="27.545"/>
<line fill="none" x1="81.205" x2="82.131" y1="24.689" y2="27.545"/>
<path d="M82.131,27.718c-0.072,0-0.137-0.048-0.162-0.119l-0.928-2.854c-0.029-0.092,0.02-0.188,0.109-0.218  c0.09-0.029,0.188,0.021,0.217,0.111l0.93,2.855c0.027,0.088-0.021,0.187-0.113,0.213C82.166,27.715,82.15,27.718,82.131,27.718  L82.131,27.718z" fill="#989898"/>
<line fill="none" x1="90.186" x2="90.813" y1="22.284" y2="25.22"/>
<line fill="none" x1="90.186" x2="90.813" y1="22.284" y2="25.22"/>
<path d="M90.813,25.392c-0.08,0-0.152-0.061-0.168-0.136l-0.625-2.938c-0.02-0.09,0.039-0.183,0.131-0.2  c0.098-0.021,0.186,0.038,0.203,0.13l0.625,2.937c0.02,0.093-0.039,0.186-0.131,0.205C90.834,25.391,90.822,25.392,90.813,25.392  L90.813,25.392z" fill="#989898"/>
<line fill="none" x1="99.369" x2="99.686" y1="20.829" y2="23.813"/>
<line fill="none" x1="99.369" x2="99.686" y1="20.829" y2="23.813"/>
<path d="M99.686,23.983c-0.088,0-0.162-0.063-0.17-0.152L99.2,20.848c-0.006-0.094,0.061-0.183,0.154-0.188  c0.094-0.007,0.18,0.06,0.188,0.151l0.314,2.985c0.01,0.095-0.059,0.179-0.15,0.188C99.705,23.983,99.691,23.983,99.686,23.983  L99.686,23.983z" fill="#989898"/>
<path d="M152.297,32.438L151.384,34c0.079,0.04,0.218,0.117,0.414,0.231c0.627,0.366,1.013,0.813,1.153,1.34  c0.143,0.528,0.029,1.108-0.34,1.741c-0.42,0.719-0.916,1.144-1.486,1.283c-0.57,0.136-1.234-0.017-1.99-0.458  c-0.431-0.251-0.855-0.583-1.273-0.997l0.436-0.742l0.01,0.005c0.438,0.44,0.799,0.744,1.08,0.908  c0.422,0.246,0.797,0.319,1.127,0.218c0.326-0.1,0.629-0.387,0.902-0.858c0.243-0.416,0.313-0.793,0.215-1.133  c-0.102-0.34-0.372-0.639-0.814-0.896c-0.309-0.18-0.623-0.345-0.947-0.497l1.783-3.058l3.248,1.895l-0.424,0.725L152.297,32.438z" fill="#B2B2B2"/>
<path d="M180.662,67.354l-0.68,0.387l-2.133-3.746l0.68-0.387l0.759,1.332l4.735-2.694l-1.063-1.158l0.679-0.387  l1.655,1.534l0.351,0.615l-5.699,3.244L180.662,67.354z" fill="#B2B2B2"/>
<path d="M188.047,67.033c0.372,0.652,0.422,1.278,0.146,1.877c-0.273,0.598-0.998,1.229-2.172,1.897  c-1.287,0.732-2.258,1.063-2.91,0.982c-0.65-0.074-1.164-0.441-1.539-1.103c-0.329-0.576-0.424-1.1-0.285-1.566  c0.137-0.469,0.414-0.88,0.83-1.234c0.416-0.354,0.955-0.723,1.617-1.097c1.152-0.656,2.063-0.947,2.73-0.876  C187.139,65.986,187.664,66.358,188.047,67.033z M182.271,70.279c0.164,0.288,0.445,0.407,0.847,0.358  c0.399-0.051,1.146-0.385,2.235-1.005c1.045-0.595,1.676-1.046,1.891-1.353c0.213-0.305,0.24-0.599,0.082-0.878  c-0.146-0.255-0.354-0.385-0.626-0.389c-0.272-0.004-0.58,0.072-0.927,0.229c-0.346,0.157-0.801,0.397-1.369,0.722  c-1.121,0.638-1.799,1.111-2.03,1.419C182.143,69.692,182.107,69.992,182.271,70.279z" fill="#B2B2B2"/>
<path d="M180.184,150.643l-0.732-0.431l2.193-3.762l0.461,0.271c0.438,0.256,0.783,0.559,1.035,0.907  c0.25,0.353,0.435,0.703,0.543,1.067c0.111,0.363,0.211,0.8,0.299,1.305c0.105,0.609,0.223,1.021,0.348,1.238  c0.126,0.218,0.281,0.38,0.468,0.486c0.326,0.188,0.622,0.248,0.888,0.17c0.268-0.076,0.5-0.287,0.701-0.633  c0.215-0.365,0.379-0.863,0.492-1.494l0.005-0.008l0.753,0.438c-0.148,0.646-0.371,1.227-0.676,1.744  c-0.372,0.639-0.795,1.041-1.27,1.211c-0.473,0.168-0.981,0.094-1.527-0.225c-0.307-0.183-0.563-0.433-0.771-0.754  c-0.211-0.32-0.387-0.896-0.525-1.72c-0.082-0.462-0.158-0.834-0.23-1.104c-0.072-0.277-0.179-0.535-0.318-0.777  c-0.141-0.242-0.332-0.44-0.573-0.598L180.184,150.643z" fill="#B2B2B2"/>
<path d="M184.033,156.956c-0.379,0.649-0.896,1.007-1.551,1.069c-0.654,0.063-1.565-0.248-2.731-0.928  c-1.28-0.746-2.05-1.423-2.312-2.022c-0.26-0.604-0.199-1.231,0.184-1.888c0.334-0.574,0.738-0.918,1.213-1.033  c0.475-0.114,0.969-0.082,1.484,0.102c0.517,0.184,1.103,0.467,1.761,0.85c1.146,0.668,1.854,1.31,2.127,1.926  C184.482,155.646,184.424,156.288,184.033,156.956z M178.328,153.589c-0.168,0.283-0.129,0.591,0.113,0.911  c0.244,0.32,0.908,0.798,1.99,1.432c1.041,0.605,1.746,0.926,2.116,0.959c0.371,0.03,0.64-0.093,0.802-0.369  c0.146-0.254,0.154-0.5,0.021-0.735c-0.135-0.238-0.354-0.468-0.662-0.688c-0.311-0.223-0.746-0.494-1.313-0.824  c-1.112-0.649-1.861-0.998-2.246-1.043C178.771,153.184,178.495,153.303,178.328,153.589z" fill="#B2B2B2"/>
<path d="M35.021,150.686l0.73-0.414l0.372,0.651l1.392-0.792l0.652,1.146l-1.393,0.793l1.449,2.547l-0.696,0.396  l-4.387-0.142l-1.374-0.042l-0.613-1.08l4.239-2.41L35.021,150.686z M36.99,154.145l-0.944-1.658l-2.788,1.586L36.99,154.145z" fill="#B2B2B2"/>
<path d="M29.165,150.331c-0.372-0.649-0.421-1.276-0.147-1.875s0.998-1.229,2.172-1.897  c1.288-0.732,2.257-1.063,2.91-0.983c0.652,0.075,1.166,0.442,1.541,1.104c0.328,0.574,0.424,1.1,0.285,1.565  c-0.138,0.468-0.415,0.877-0.831,1.233c-0.416,0.353-0.955,0.721-1.617,1.098c-1.152,0.654-2.063,0.945-2.732,0.876  C30.074,151.379,29.548,151.007,29.165,150.331z M34.939,147.086c-0.164-0.288-0.446-0.406-0.846-0.357  c-0.401,0.051-1.146,0.385-2.235,1.006c-1.046,0.595-1.677,1.045-1.892,1.348c-0.213,0.309-0.241,0.604-0.081,0.882  c0.145,0.255,0.354,0.386,0.625,0.39s0.581-0.072,0.926-0.229c0.345-0.157,0.802-0.396,1.371-0.722  c1.12-0.639,1.797-1.11,2.029-1.42C35.069,147.673,35.104,147.372,34.939,147.086z" fill="#B2B2B2"/>
<path d="M23.939,107.464l0.84,0.002l-0.002,0.752l1.602,0.004l-0.003,1.318l-1.602-0.004l-0.007,2.93l-0.801-0.002  l-3.739-2.3l-1.171-0.72l0.003-1.239l4.878,0.012L23.939,107.464z M23.931,111.443l0.004-1.909l-3.208-0.009L23.931,111.443z" fill="#B2B2B2"/>
<path d="M19.947,104.935l1.812,0.004c-0.007-0.088-0.01-0.246-0.009-0.474c0.001-0.727,0.195-1.283,0.58-1.671  c0.385-0.389,0.943-0.582,1.676-0.58c0.833,0.002,1.452,0.216,1.857,0.642c0.403,0.426,0.604,1.077,0.603,1.952  c-0.001,0.498-0.076,1.032-0.224,1.602l-0.859-0.003v-0.01c0.16-0.602,0.242-1.065,0.242-1.391c0.002-0.488-0.124-0.85-0.376-1.083  c-0.251-0.233-0.65-0.352-1.197-0.353c-0.481-0.001-0.844,0.126-1.088,0.384c-0.243,0.257-0.365,0.642-0.366,1.155  c-0.001,0.355,0.015,0.711,0.046,1.069l-3.54-0.008l0.01-3.76l0.84,0.002L19.947,104.935z" fill="#B2B2B2"/>
<path d="M30.184,66.438l1.564,0.913c0.038-0.08,0.115-0.217,0.23-0.414c0.366-0.627,0.813-1.012,1.34-1.153  c0.528-0.144,1.108-0.029,1.741,0.338c0.719,0.422,1.146,0.918,1.283,1.488c0.136,0.571-0.017,1.235-0.458,1.991  c-0.251,0.43-0.583,0.854-0.997,1.271l-0.742-0.431l0.005-0.008c0.44-0.439,0.744-0.8,0.908-1.081  c0.246-0.422,0.319-0.797,0.218-1.126c-0.1-0.328-0.387-0.629-0.859-0.905c-0.416-0.242-0.793-0.313-1.133-0.215  c-0.339,0.1-0.638,0.373-0.896,0.816c-0.18,0.307-0.345,0.623-0.497,0.948l-3.058-1.784l1.895-3.248l0.726,0.423L30.184,66.438z" fill="#B2B2B2"/>
<path d="M32.548,60.564c0.379-0.65,0.896-1.006,1.551-1.068c0.654-0.063,1.565,0.247,2.731,0.927  c1.28,0.747,2.05,1.421,2.312,2.023c0.26,0.604,0.199,1.231-0.184,1.885c-0.334,0.574-0.739,0.919-1.213,1.034  c-0.475,0.115-0.969,0.082-1.484-0.101c-0.517-0.184-1.103-0.465-1.761-0.851c-1.145-0.667-1.854-1.308-2.127-1.924  C32.099,61.872,32.157,61.233,32.548,60.564z M38.253,63.934c0.168-0.287,0.129-0.591-0.114-0.912  c-0.243-0.321-0.907-0.798-1.99-1.43c-1.04-0.607-1.745-0.928-2.117-0.959c-0.371-0.031-0.638,0.091-0.801,0.37  c-0.147,0.253-0.155,0.497-0.022,0.735c0.133,0.238,0.354,0.467,0.662,0.688c0.31,0.22,0.746,0.495,1.312,0.824  c1.113,0.649,1.862,0.997,2.245,1.044C37.811,64.341,38.086,64.221,38.253,63.934z" fill="#B2B2B2"/>
<path d="M62.019,33.285l0.896,1.573c0.073-0.049,0.208-0.129,0.407-0.241c0.631-0.359,1.21-0.469,1.738-0.327  c0.527,0.141,0.973,0.529,1.335,1.166c0.412,0.725,0.534,1.367,0.366,1.931c-0.17,0.562-0.635,1.06-1.396,1.493  c-0.433,0.244-0.933,0.447-1.501,0.601l-0.425-0.747l0.009-0.005c0.602-0.159,1.045-0.318,1.328-0.481  c0.424-0.24,0.675-0.527,0.752-0.862c0.078-0.335-0.019-0.739-0.289-1.214c-0.238-0.418-0.529-0.671-0.873-0.757  c-0.344-0.083-0.738,0.006-1.186,0.26c-0.309,0.175-0.609,0.366-0.905,0.571l-1.751-3.08l3.268-1.856l0.416,0.729L62.019,33.285z" fill="#B2B2B2"/>
<path d="M66.868,30.524l0.896,1.574c0.072-0.05,0.209-0.13,0.406-0.243c0.631-0.358,1.211-0.467,1.738-0.326  c0.529,0.142,0.975,0.53,1.336,1.167c0.412,0.725,0.533,1.367,0.365,1.928c-0.169,0.563-0.634,1.063-1.395,1.496  c-0.434,0.245-0.934,0.446-1.5,0.601l-0.426-0.747l0.008-0.004c0.603-0.159,1.046-0.319,1.328-0.48  c0.425-0.242,0.676-0.528,0.753-0.867c0.077-0.332-0.019-0.735-0.289-1.21c-0.238-0.419-0.529-0.67-0.873-0.755  c-0.343-0.082-0.738,0.003-1.186,0.257c-0.308,0.176-0.61,0.366-0.905,0.571l-1.75-3.076l3.268-1.859l0.414,0.729L66.868,30.524z" fill="#B2B2B2"/>
<path d="M106.757,18.646c0.752,0.002,1.319,0.269,1.702,0.807c0.383,0.534,0.572,1.478,0.569,2.827  c-0.004,1.481-0.201,2.486-0.591,3.016c-0.391,0.526-0.965,0.786-1.723,0.786c-0.664,0-1.165-0.177-1.502-0.528  c-0.338-0.353-0.558-0.798-0.659-1.335c-0.101-0.537-0.151-1.188-0.149-1.948c0.003-1.325,0.202-2.261,0.598-2.807  C105.397,18.914,105.982,18.645,106.757,18.646z M106.707,25.271c0.332,0.001,0.576-0.185,0.731-0.557s0.235-1.187,0.238-2.438  c0.003-1.204-0.075-1.975-0.234-2.313c-0.159-0.336-0.399-0.508-0.721-0.508c-0.293,0-0.509,0.116-0.648,0.352  c-0.139,0.232-0.226,0.539-0.261,0.917s-0.053,0.895-0.055,1.548c-0.003,1.289,0.071,2.111,0.224,2.467  C106.133,25.093,106.375,25.271,106.707,25.271z" fill="#B2B2B2"/>
<path d="M112.338,18.659c0.752,0.002,1.319,0.27,1.703,0.805c0.383,0.533,0.572,1.479,0.568,2.826  c-0.004,1.483-0.2,2.487-0.59,3.017c-0.393,0.524-0.965,0.791-1.726,0.789c-0.664-0.001-1.165-0.182-1.503-0.531  c-0.338-0.352-0.559-0.797-0.658-1.334s-0.148-1.19-0.146-1.949c0.002-1.325,0.201-2.26,0.598-2.806  C110.979,18.93,111.563,18.656,112.338,18.659z M112.288,25.285c0.332,0.001,0.575-0.186,0.731-0.558  c0.154-0.373,0.232-1.188,0.236-2.438c0.002-1.208-0.074-1.976-0.232-2.313c-0.158-0.336-0.398-0.506-0.721-0.507  c-0.295-0.001-0.512,0.112-0.648,0.351c-0.139,0.233-0.227,0.539-0.262,0.917s-0.055,0.895-0.057,1.549  c-0.003,1.288,0.072,2.11,0.227,2.465C111.714,25.105,111.956,25.284,112.288,25.285z" fill="#B2B2B2"/>
<path d="M168.133,115.24c0.813,0.486,2.664,1.3,4.68,1.3c3.644,0,4.813-2.308,4.777-4.097  c-0.033-2.958-2.697-4.225-5.461-4.225h-1.592v-2.146h1.592c2.08,0,4.713-1.073,4.713-3.576c0-1.688-1.072-3.184-3.705-3.184  c-1.689,0-3.314,0.748-4.225,1.397l-0.779-2.08c1.137-0.813,3.281-1.625,5.557-1.625c4.16,0,6.045,2.47,6.045,5.038  c0,2.21-1.332,4.063-3.897,5.005v0.064c2.604,0.488,4.685,2.438,4.713,5.396c0,3.382-2.664,6.339-7.702,6.339  c-2.369,0-4.449-0.748-5.49-1.435L168.133,115.24z" fill="#E5E5E5"/>
<polygon fill="#CBCBCB" points="69.436,42.469 68.24,40.409 69.971,39.405 71.166,41.466 "/>
<polygon fill="#CBCBCB" points="108.003,31.601 107.996,29.219 109.996,29.214 110.003,31.596 "/>
<polygon fill="#CBCBCB" points="148.568,42.468 146.836,41.469 148.023,39.405 149.757,40.403 "/>
<polygon fill="#CBCBCB" points="176.533,71.164 175.532,69.435 177.594,68.242 178.596,69.973 "/>
<polygon fill="#CBCBCB" points="40.405,149.76 39.405,148.025 41.469,146.837 42.469,148.568 "/>
<polygon fill="#CBCBCB" points="31.598,110 29.216,110 29.216,108 31.598,108 "/>
<polygon fill="#CBCBCB" points="177.596,149.76 175.532,148.566 176.532,146.836 178.596,148.025 "/>
<polygon fill="#CBCBCB" points="41.467,71.164 39.404,69.975 40.405,68.243 42.468,69.436 "/>
<polygon fill="#CBCBCB" points="108.003,31.601 107.996,29.219 109.996,29.214 110.003,31.596 "/>
<polygon fill="#CBCBCB" points="148.568,42.468 146.836,41.469 148.023,39.405 149.757,40.403 "/>
<polygon fill="#CBCBCB" points="176.533,71.164 175.532,69.435 177.594,68.242 178.596,69.973 "/>
<polygon fill="#CBCBCB" points="40.405,149.76 39.405,148.025 41.469,146.837 42.469,148.568 "/>
<polygon fill="#CBCBCB" points="31.598,110 29.216,110 29.216,108 31.598,108 "/>
<polygon fill="#CBCBCB" points="177.596,149.76 175.532,148.566 176.532,146.836 178.596,148.025 "/>
<polygon fill="#CBCBCB" points="41.467,71.164 39.404,69.975 40.405,68.243 42.468,69.436 "/>
<polygon fill="#CBCBCB" points="69.433,42.47 68.241,40.405 69.974,39.405 71.165,41.47 "/>
<polygon fill="#CBCBCB" points="148.568,42.468 146.836,41.469 148.023,39.405 149.757,40.403 "/>
<polygon fill="#CBCBCB" points="176.533,71.164 175.532,69.435 177.594,68.242 178.596,69.973 "/>
<polygon fill="#CBCBCB" points="40.405,149.76 39.405,148.025 41.469,146.837 42.469,148.568 "/>
<polygon fill="#CBCBCB" points="31.598,110 29.216,110 29.216,108 31.598,108 "/>
<polygon fill="#CBCBCB" points="177.596,149.76 175.532,148.566 176.532,146.836 178.596,148.025 "/>
<polygon fill="#CBCBCB" points="41.467,71.164 39.404,69.975 40.405,68.243 42.468,69.436 "/>
<polygon fill="#CBCBCB" points="69.433,42.47 68.241,40.405 69.974,39.405 71.165,41.47 "/>
<polygon fill="#CBCBCB" points="110,31.6 108,31.6 108,29.217 110,29.217 "/>
<linearGradient gradientTransform="matrix(1 0 0 -1 -575.5 -274.5)" gradientUnits="userSpaceOnUse" id="SVGID_6_" x1="722.9785" x2="722.9785" y1="-320.5073" y2="-376.0446">
<stop offset="0" style="stop-color:#4D4D4D"/>
<stop offset="1" style="stop-color:#000000"/>
</linearGradient>
<path d="M125.486,102.715c-6.047,0-9.375-3.503-9.375-9.863  v-21.79c0-6.605,5.479-8.944,10.174-8.944h0.443c0.39,0,0.424-0.002,0.737-0.014l0.259-0.009c2.533-0.088,5.241-1.922,5.237-6.805  c-0.003-4.131,1.12-7.162,3.338-9.005c1.896-1.579,4.155-1.906,5.722-1.906c1.106,0,1.886,0.168,1.918,0.176  c21.873,3.771,33.553,22.157,34.844,34.006c0.367,3.37-0.855,7.082-3.192,9.687c-1.563,1.746-4.358,3.824-8.794,3.824  c-6.643,0-9.273,2.29-10.676,4.01l-0.396,0.498c-1.824,2.293-4.877,6.136-11.425,6.136L125.486,102.715L125.486,102.715z" fill="url(#SVGID_6_)" fill-opacity="0.5" stroke-opacity="0.5"/>
<linearGradient gradientTransform="matrix(1 0 0 -1 -575.5 -274.5)" gradientUnits="userSpaceOnUse" id="SVGID_7_" x1="722.9795" x2="722.9795" y1="-376.5864" y2="-319.3733">
<stop offset="0" style="stop-color:#4D4D4D"/>
<stop offset="1" style="stop-color:#000000"/>
</linearGradient>
<path d="M178.783,78.561  c-1.291-11.849-12.971-30.234-34.844-34.006c-0.032-0.007-0.812-0.176-1.918-0.176c-1.563,0-3.824,0.327-5.722,1.906  c-2.218,1.843-3.341,4.874-3.338,9.005c0.004,4.883-2.704,6.716-5.237,6.805l-0.259,0.009c-0.313,0.012-0.351,0.014-0.737,0.014  h-0.443c-4.693,0-10.174,2.339-10.174,8.944v21.79c0,6.36,3.328,9.863,9.375,9.863H144.3c6.548,0,9.601-3.843,11.425-6.136  l0.396-0.498c1.4-1.721,4.033-4.01,10.676-4.01c4.436,0,7.23-2.078,8.794-3.824C177.928,85.643,179.15,81.93,178.783,78.561z   M166.797,91.071c-7.016,0-9.889,2.46-11.451,4.382c-1.82,2.241-4.516,6.262-11.045,6.262c-6.527,0-11.668,0-18.814,0  c-7.146,0-8.375-5.071-8.375-8.863c0-3.793,0-21.79,0-21.79c0-5.885,4.765-7.944,9.177-7.944c0.996,0,0.752,0.003,1.478-0.022  c3.309-0.115,6.209-2.57,6.202-7.805c-0.008-11.918,9.763-9.758,9.763-9.758c21.521,3.712,32.832,21.829,34.063,33.139  C178.365,83.943,174.637,91.071,166.797,91.071z" fill="url(#SVGID_7_)" fill-opacity="0.4" stroke-opacity="0.4"/>
<line fill="none" x1="99.688" x2="99.369" y1="194.561" y2="197.539"/>
<line fill="none" x1="99.688" x2="99.369" y1="194.561" y2="197.539"/>
<path d="M99.369,197.711c0,0-0.012,0-0.016-0.005c-0.096-0.009-0.162-0.093-0.154-0.185l0.318-2.982  c0.008-0.096,0.096-0.16,0.188-0.15c0.096,0.01,0.162,0.094,0.154,0.188l-0.318,2.982C99.531,197.646,99.457,197.711,99.369,197.711  L99.369,197.711z" fill="#989898"/>
<line fill="none" x1="90.813" x2="90.186" y1="193.148" y2="196.081"/>
<line fill="none" x1="90.813" x2="90.186" y1="193.148" y2="196.081"/>
<path d="M90.186,196.255c-0.01,0-0.021,0-0.035-0.002c-0.092-0.021-0.15-0.11-0.131-0.203l0.627-2.937  c0.018-0.09,0.105-0.147,0.201-0.131c0.092,0.021,0.152,0.108,0.133,0.203l-0.627,2.935  C90.336,196.201,90.266,196.255,90.186,196.255L90.186,196.255z" fill="#989898"/>
<line fill="none" x1="82.133" x2="81.205" y1="190.825" y2="193.68"/>
<line fill="none" x1="82.133" x2="81.205" y1="190.825" y2="193.68"/>
<path d="M81.205,193.852c-0.018,0-0.035-0.002-0.055-0.012c-0.09-0.027-0.139-0.125-0.109-0.218l0.93-2.853  c0.031-0.09,0.127-0.14,0.215-0.108c0.092,0.028,0.141,0.127,0.111,0.218l-0.93,2.854C81.342,193.805,81.275,193.852,81.205,193.852  L81.205,193.852z" fill="#989898"/>
<line fill="none" x1="73.744" x2="72.523" y1="187.604" y2="190.348"/>
<line fill="none" x1="73.744" x2="72.523" y1="187.604" y2="190.348"/>
<path d="M72.523,190.518c-0.025,0-0.049-0.004-0.07-0.018c-0.088-0.038-0.125-0.141-0.088-0.227l1.223-2.738  c0.039-0.086,0.141-0.124,0.227-0.086c0.088,0.037,0.125,0.139,0.088,0.227l-1.225,2.738  C72.65,190.479,72.59,190.518,72.523,190.518L72.523,190.518z" fill="#989898"/>
<line fill="none" x1="58.203" x2="56.438" y1="178.633" y2="181.061"/>
<line fill="none" x1="58.203" x2="56.438" y1="178.633" y2="181.061"/>
<path d="M56.438,181.229c-0.033,0-0.07-0.008-0.1-0.031c-0.078-0.057-0.094-0.162-0.039-0.236l1.768-2.426  c0.053-0.079,0.16-0.098,0.238-0.038c0.078,0.054,0.092,0.161,0.037,0.237l-1.764,2.427  C56.543,181.206,56.492,181.229,56.438,181.229L56.438,181.229z" fill="#989898"/>
<line fill="none" x1="189.82" x2="187.076" y1="73.047" y2="74.269"/>
<line fill="none" x1="189.82" x2="187.076" y1="73.047" y2="74.269"/>
<path d="M187.076,74.439c-0.064,0-0.127-0.036-0.152-0.102c-0.041-0.088,0-0.188,0.086-0.228l2.74-1.223  c0.088-0.039,0.188,0,0.227,0.088c0.039,0.086,0,0.188-0.086,0.226l-2.742,1.225C187.125,74.436,187.104,74.439,187.076,74.439  L187.076,74.439z" fill="#989898"/>
<line fill="none" x1="193.154" x2="190.299" y1="81.729" y2="82.655"/>
<line fill="none" x1="193.154" x2="190.299" y1="81.729" y2="82.655"/>
<path d="M190.299,82.829c-0.074,0-0.141-0.046-0.164-0.118c-0.027-0.09,0.021-0.188,0.111-0.217l2.855-0.929  c0.086-0.029,0.184,0.021,0.213,0.109c0.031,0.09-0.021,0.187-0.107,0.215l-2.854,0.929  C190.334,82.826,190.314,82.829,190.299,82.829L190.299,82.829z" fill="#989898"/>
<line fill="none" x1="195.561" x2="192.625" y1="90.706" y2="91.337"/>
<line fill="none" x1="195.561" x2="192.625" y1="90.706" y2="91.337"/>
<path d="M192.625,91.508c-0.08,0-0.152-0.054-0.168-0.136c-0.02-0.094,0.037-0.185,0.129-0.207l2.941-0.621  c0.096-0.02,0.182,0.037,0.199,0.132c0.021,0.092-0.037,0.183-0.131,0.203l-2.938,0.624  C192.648,91.507,192.637,91.508,192.625,91.508L192.625,91.508z" fill="#989898"/>
<line fill="none" x1="197.016" x2="194.029" y1="99.895" y2="100.212"/>
<line fill="none" x1="197.016" x2="194.029" y1="99.895" y2="100.212"/>
<path d="M194.029,100.382c-0.086,0-0.162-0.065-0.17-0.153c-0.01-0.093,0.059-0.178,0.152-0.188l2.981-0.314  c0.094-0.009,0.182,0.06,0.188,0.152c0.006,0.094-0.059,0.179-0.149,0.188l-2.986,0.315  C194.041,100.382,194.035,100.382,194.029,100.382L194.029,100.382z" fill="#989898"/>
<line fill="none" x1="197.016" x2="194.031" y1="118.469" y2="118.156"/>
<line fill="none" x1="197.016" x2="194.031" y1="118.469" y2="118.156"/>
<path d="M197.016,118.643c-0.008,0-0.012,0-0.02-0.002l-2.982-0.313c-0.096-0.011-0.162-0.097-0.154-0.188  c0.011-0.095,0.103-0.158,0.189-0.154l2.986,0.313c0.094,0.013,0.158,0.097,0.152,0.188  C197.178,118.576,197.102,118.643,197.016,118.643L197.016,118.643z" fill="#989898"/>
<line fill="none" x1="195.563" x2="192.625" y1="127.652" y2="127.029"/>
<line fill="none" x1="195.563" x2="192.625" y1="127.652" y2="127.029"/>
<path d="M195.563,127.826c-0.014,0-0.022-0.001-0.035-0.004l-2.938-0.622c-0.09-0.021-0.146-0.112-0.129-0.204  c0.021-0.094,0.106-0.15,0.203-0.135l2.938,0.625c0.094,0.018,0.149,0.109,0.131,0.203  C195.711,127.771,195.641,127.826,195.563,127.826L195.563,127.826z" fill="#989898"/>
<line fill="none" x1="193.154" x2="190.299" y1="136.639" y2="135.706"/>
<line fill="none" x1="193.154" x2="190.299" y1="136.639" y2="135.706"/>
<path d="M193.154,136.811c-0.016,0-0.033-0.002-0.053-0.011l-2.855-0.928c-0.09-0.028-0.137-0.126-0.109-0.214  c0.029-0.092,0.125-0.139,0.217-0.111l2.855,0.928c0.09,0.028,0.139,0.127,0.109,0.217  C193.295,136.766,193.227,136.811,193.154,136.811L193.154,136.811z" fill="#989898"/>
<line fill="none" x1="189.82" x2="187.078" y1="145.318" y2="144.102"/>
<line fill="none" x1="189.82" x2="187.078" y1="145.318" y2="144.102"/>
<path d="M189.82,145.49c-0.021,0-0.045-0.006-0.068-0.016l-2.742-1.222c-0.086-0.038-0.125-0.14-0.086-0.228  c0.037-0.088,0.137-0.125,0.225-0.088l2.742,1.223c0.088,0.037,0.127,0.14,0.088,0.229  C189.949,145.453,189.887,145.49,189.82,145.49L189.82,145.49z" fill="#989898"/>
<line fill="none" x1="160.881" x2="159.115" y1="181.063" y2="178.632"/>
<line fill="none" x1="160.881" x2="159.115" y1="181.063" y2="178.632"/>
<path d="M160.881,181.23c-0.055,0-0.105-0.024-0.139-0.07l-1.766-2.43c-0.06-0.078-0.039-0.187,0.039-0.237  c0.073-0.06,0.184-0.04,0.235,0.036l1.769,2.427c0.055,0.078,0.039,0.188-0.037,0.241  C160.951,181.223,160.914,181.23,160.881,181.23L160.881,181.23z" fill="#989898"/>
<line fill="none" x1="144.793" x2="143.574" y1="190.348" y2="187.604"/>
<line fill="none" x1="144.793" x2="143.574" y1="190.348" y2="187.604"/>
<path d="M144.793,190.52c-0.063,0-0.125-0.039-0.154-0.104l-1.221-2.74c-0.037-0.086,0-0.188,0.086-0.226  c0.088-0.038,0.189,0,0.227,0.086l1.226,2.742c0.037,0.086-0.002,0.188-0.09,0.228C144.842,190.514,144.818,190.52,144.793,190.52  L144.793,190.52z" fill="#989898"/>
<line fill="none" x1="136.113" x2="135.186" y1="193.682" y2="190.822"/>
<line fill="none" x1="136.113" x2="135.186" y1="193.682" y2="190.822"/>
<path d="M136.113,193.854c-0.072,0-0.139-0.047-0.164-0.119l-0.928-2.855c-0.027-0.09,0.021-0.188,0.108-0.216  c0.093-0.028,0.188,0.021,0.22,0.108l0.928,2.852c0.027,0.096-0.021,0.191-0.111,0.221  C136.148,193.85,136.129,193.854,136.113,193.854L136.113,193.854z" fill="#989898"/>
<line fill="none" x1="127.131" x2="126.506" y1="196.087" y2="193.148"/>
<line fill="none" x1="127.131" x2="126.506" y1="196.087" y2="193.148"/>
<path d="M127.131,196.258c-0.078,0-0.15-0.056-0.166-0.137l-0.625-2.936c-0.021-0.096,0.039-0.188,0.131-0.203  c0.098-0.021,0.188,0.039,0.203,0.129l0.625,2.938c0.02,0.095-0.039,0.187-0.133,0.204  C127.156,196.256,127.143,196.258,127.131,196.258L127.131,196.258z" fill="#989898"/>
<line fill="none" x1="117.945" x2="117.633" y1="197.54" y2="194.557"/>
<line fill="none" x1="117.945" x2="117.633" y1="197.54" y2="194.557"/>
<path d="M117.945,197.713c-0.086,0-0.162-0.064-0.17-0.15l-0.314-2.986c-0.01-0.096,0.059-0.18,0.154-0.188  c0.094-0.009,0.176,0.059,0.189,0.149l0.313,2.985c0.008,0.097-0.059,0.181-0.154,0.188c-0.004,0.001-0.012,0.001-0.012,0.001  H117.945L117.945,197.713z" fill="#989898"/>
<line fill="none" x1="99.371" x2="99.686" y1="197.54" y2="194.557"/>
<line fill="none" x1="99.371" x2="99.686" y1="197.54" y2="194.557"/>
<path d="M99.371,197.713c0,0-0.012,0-0.016-0.001c-0.096-0.01-0.162-0.094-0.154-0.188l0.314-2.987  c0.01-0.095,0.098-0.158,0.189-0.151c0.094,0.012,0.16,0.096,0.154,0.188l-0.316,2.986  C99.533,197.646,99.459,197.713,99.371,197.713L99.371,197.713z" fill="#989898"/>
<line fill="none" x1="90.188" x2="90.813" y1="196.088" y2="193.148"/>
<line fill="none" x1="90.188" x2="90.813" y1="196.088" y2="193.148"/>
<path d="M90.188,196.26c-0.012,0-0.023-0.003-0.037-0.005c-0.092-0.021-0.15-0.11-0.129-0.204l0.623-2.938  c0.02-0.092,0.107-0.149,0.203-0.131c0.092,0.021,0.152,0.107,0.131,0.203l-0.623,2.937C90.338,196.202,90.266,196.26,90.188,196.26  L90.188,196.26z" fill="#989898"/>
<line fill="none" x1="81.205" x2="82.131" y1="193.682" y2="190.822"/>
<line fill="none" x1="81.205" x2="82.131" y1="193.682" y2="190.822"/>
<path d="M81.205,193.854c-0.018,0-0.035-0.004-0.053-0.012c-0.09-0.025-0.141-0.123-0.111-0.214l0.93-2.854  c0.029-0.092,0.127-0.142,0.215-0.109c0.092,0.027,0.139,0.125,0.111,0.216l-0.928,2.854  C81.344,193.807,81.277,193.854,81.205,193.854L81.205,193.854z" fill="#989898"/>
<line fill="none" x1="72.523" x2="73.744" y1="190.35" y2="187.604"/>
<line fill="none" x1="72.523" x2="73.744" y1="190.35" y2="187.604"/>
<path d="M72.523,190.52c-0.025,0-0.047-0.006-0.068-0.015c-0.088-0.04-0.127-0.144-0.09-0.229l1.221-2.741  c0.041-0.087,0.143-0.124,0.229-0.087s0.125,0.141,0.088,0.227l-1.223,2.74C72.65,190.479,72.59,190.52,72.523,190.52L72.523,190.52  z" fill="#989898"/>
<line fill="none" x1="56.438" x2="58.203" y1="181.063" y2="178.632"/>
<line fill="none" x1="56.438" x2="58.203" y1="181.063" y2="178.632"/>
<path d="M56.438,181.23c-0.033,0-0.07-0.01-0.102-0.033c-0.076-0.057-0.092-0.161-0.037-0.241l1.766-2.425  c0.055-0.077,0.162-0.096,0.24-0.037c0.078,0.055,0.092,0.158,0.037,0.238l-1.764,2.431C56.543,181.206,56.492,181.23,56.438,181.23  L56.438,181.23z" fill="#989898"/>
<line fill="none" x1="187.076" x2="189.82" y1="74.269" y2="73.05"/>
<line fill="none" x1="187.076" x2="189.82" y1="74.269" y2="73.05"/>
<path d="M187.076,74.439c-0.064,0-0.129-0.036-0.156-0.102c-0.037-0.088,0.004-0.188,0.088-0.228l2.742-1.22  c0.088-0.036,0.189,0,0.227,0.088c0.039,0.086,0,0.186-0.086,0.226l-2.744,1.222C187.123,74.438,187.1,74.439,187.076,74.439  L187.076,74.439z" fill="#989898"/>
<line fill="none" x1="190.297" x2="193.152" y1="82.655" y2="81.729"/>
<line fill="none" x1="190.297" x2="193.152" y1="82.655" y2="81.729"/>
<path d="M190.297,82.829c-0.072,0-0.139-0.046-0.164-0.118c-0.029-0.09,0.021-0.188,0.111-0.217l2.855-0.928  c0.088-0.027,0.186,0.021,0.215,0.111c0.031,0.091-0.021,0.188-0.107,0.216l-2.855,0.925  C190.332,82.826,190.314,82.829,190.297,82.829L190.297,82.829z" fill="#989898"/>
<line fill="none" x1="192.623" x2="195.559" y1="91.337" y2="90.714"/>
<line fill="none" x1="192.623" x2="195.559" y1="91.337" y2="90.714"/>
<path d="M192.623,91.508c-0.08,0-0.152-0.054-0.168-0.136c-0.02-0.094,0.039-0.185,0.129-0.207l2.939-0.618  c0.096-0.021,0.184,0.04,0.203,0.132c0.021,0.093-0.039,0.184-0.131,0.202l-2.938,0.622  C192.646,91.507,192.637,91.508,192.623,91.508L192.623,91.508z" fill="#989898"/>
<line fill="none" x1="194.027" x2="197.012" y1="100.212" y2="99.897"/>
<line fill="none" x1="194.027" x2="197.012" y1="100.212" y2="99.897"/>
<path d="M194.027,100.382c-0.086,0-0.16-0.065-0.17-0.153c-0.01-0.093,0.059-0.178,0.154-0.188l2.981-0.313  c0.094-0.008,0.18,0.061,0.188,0.153c0.008,0.092-0.062,0.178-0.154,0.188l-2.982,0.313  C194.047,100.382,194.035,100.382,194.027,100.382L194.027,100.382z" fill="#989898"/>
<line fill="none" x1="194.029" x2="197.012" y1="118.156" y2="118.475"/>
<line fill="none" x1="194.029" x2="197.012" y1="118.156" y2="118.475"/>
<path d="M197.012,118.645c0,0-0.01,0-0.016,0l-2.984-0.314c-0.096-0.012-0.162-0.096-0.154-0.188  c0.013-0.096,0.099-0.156,0.189-0.152l2.984,0.314c0.094,0.012,0.162,0.094,0.154,0.188  C197.176,118.578,197.1,118.645,197.012,118.645L197.012,118.645z" fill="#989898"/>
<line fill="none" x1="192.623" x2="195.559" y1="127.029" y2="127.656"/>
<line fill="none" x1="192.623" x2="195.559" y1="127.029" y2="127.656"/>
<path d="M195.559,127.827c-0.01,0-0.021-0.001-0.035-0.005l-2.938-0.622c-0.092-0.021-0.148-0.112-0.131-0.204  c0.02-0.094,0.107-0.15,0.203-0.135l2.938,0.627c0.092,0.021,0.152,0.111,0.131,0.205  C195.711,127.771,195.639,127.827,195.559,127.827L195.559,127.827z" fill="#989898"/>
<line fill="none" x1="190.299" x2="193.152" y1="135.706" y2="136.641"/>
<line fill="none" x1="190.299" x2="193.152" y1="135.706" y2="136.641"/>
<path d="M193.152,136.813c-0.021,0-0.037-0.004-0.053-0.012l-2.855-0.929c-0.09-0.03-0.139-0.126-0.109-0.214  c0.029-0.092,0.127-0.139,0.217-0.111l2.854,0.93c0.09,0.028,0.142,0.125,0.108,0.215  C193.289,136.768,193.225,136.813,193.152,136.813L193.152,136.813z" fill="#989898"/>
<line fill="none" x1="187.076" x2="189.82" y1="144.102" y2="145.32"/>
<line fill="none" x1="187.076" x2="189.82" y1="144.102" y2="145.32"/>
<path d="M189.82,145.492c-0.023,0-0.049-0.006-0.072-0.016l-2.738-1.224c-0.086-0.038-0.127-0.142-0.086-0.228  c0.037-0.088,0.137-0.125,0.223-0.088l2.744,1.223c0.086,0.039,0.123,0.143,0.086,0.229  C189.947,145.454,189.885,145.492,189.82,145.492L189.82,145.492z" fill="#989898"/>
<line fill="none" x1="159.115" x2="160.879" y1="178.631" y2="181.063"/>
<line fill="none" x1="159.115" x2="160.879" y1="178.631" y2="181.063"/>
<path d="M160.879,181.23c-0.053,0-0.105-0.024-0.139-0.07l-1.764-2.43c-0.06-0.078-0.041-0.187,0.039-0.237  c0.073-0.06,0.184-0.04,0.235,0.034l1.765,2.429c0.057,0.078,0.041,0.188-0.035,0.239  C160.949,181.223,160.914,181.23,160.879,181.23L160.879,181.23z" fill="#989898"/>
<line fill="none" x1="143.572" x2="144.793" y1="187.604" y2="190.348"/>
<line fill="none" x1="143.572" x2="144.793" y1="187.604" y2="190.348"/>
<path d="M144.793,190.52c-0.064,0-0.127-0.039-0.156-0.104l-1.221-2.74c-0.039-0.087,0.002-0.188,0.088-0.228  c0.088-0.037,0.188,0,0.227,0.088l1.224,2.742c0.034,0.086,0,0.187-0.091,0.228C144.84,190.514,144.816,190.52,144.793,190.52  L144.793,190.52z" fill="#989898"/>
<line fill="none" x1="135.186" x2="136.113" y1="190.82" y2="193.68"/>
<line fill="none" x1="135.186" x2="136.113" y1="190.82" y2="193.68"/>
<path d="M136.113,193.852c-0.074,0-0.141-0.045-0.164-0.119l-0.928-2.854c-0.029-0.09,0.021-0.188,0.108-0.216  c0.091-0.028,0.188,0.021,0.218,0.107l0.928,2.853c0.029,0.095-0.021,0.19-0.109,0.219  C136.146,193.85,136.129,193.852,136.113,193.852L136.113,193.852z" fill="#989898"/>
<line fill="none" x1="126.506" x2="127.131" y1="193.146" y2="196.087"/>
<line fill="none" x1="126.506" x2="127.131" y1="193.146" y2="196.087"/>
<path d="M127.131,196.257c-0.08,0-0.152-0.056-0.168-0.137l-0.623-2.937c-0.021-0.095,0.037-0.188,0.131-0.203  c0.096-0.02,0.184,0.039,0.203,0.131l0.623,2.938c0.021,0.093-0.039,0.185-0.133,0.203  C127.154,196.255,127.141,196.257,127.131,196.257L127.131,196.257z" fill="#989898"/>
<line fill="none" x1="117.631" x2="117.945" y1="194.557" y2="197.539"/>
<line fill="none" x1="117.631" x2="117.945" y1="194.557" y2="197.539"/>
<path d="M117.945,197.711c-0.088,0-0.162-0.063-0.17-0.15l-0.314-2.984c-0.01-0.096,0.059-0.18,0.152-0.188  c0.096-0.017,0.178,0.059,0.188,0.149l0.314,2.985c0.008,0.095-0.063,0.179-0.154,0.188c-0.004,0-0.014,0-0.014,0L117.945,197.711  L117.945,197.711z" fill="#989898"/>
<path d="M150.271,181.025l-0.42-0.736l3.785-2.154l0.264,0.463c0.25,0.44,0.396,0.877,0.438,1.307  c0.042,0.428,0.021,0.83-0.064,1.197c-0.086,0.371-0.217,0.795-0.396,1.278c-0.215,0.576-0.318,0.992-0.318,1.242  s0.053,0.472,0.157,0.657c0.188,0.328,0.415,0.525,0.685,0.592c0.269,0.066,0.576,0.001,0.924-0.195  c0.369-0.211,0.76-0.56,1.176-1.047l0.008-0.007l0.43,0.758c-0.449,0.483-0.936,0.875-1.455,1.173  c-0.643,0.361-1.211,0.502-1.705,0.41c-0.492-0.092-0.896-0.412-1.209-0.963c-0.176-0.307-0.271-0.65-0.293-1.036  c-0.021-0.384,0.115-0.968,0.406-1.752c0.162-0.438,0.281-0.798,0.355-1.071c0.076-0.275,0.113-0.554,0.115-0.832  c-0.002-0.279-0.066-0.549-0.198-0.809L150.271,181.025z" fill="#B2B2B2"/>
<path d="M150.576,187.287l-0.896-1.574c-0.072,0.051-0.209,0.131-0.406,0.242c-0.631,0.357-1.211,0.468-1.736,0.326  c-0.529-0.143-0.977-0.531-1.336-1.168c-0.412-0.725-0.533-1.366-0.365-1.93c0.169-0.563,0.635-1.063,1.396-1.492  c0.434-0.248,0.934-0.446,1.5-0.603l0.426,0.747l-0.008,0.005c-0.604,0.158-1.047,0.319-1.328,0.479  c-0.426,0.242-0.676,0.529-0.754,0.863c-0.076,0.336,0.02,0.738,0.289,1.215c0.238,0.418,0.529,0.67,0.873,0.754  s0.737-0.002,1.187-0.256c0.308-0.176,0.61-0.367,0.905-0.571l1.75,3.075l-3.27,1.859l-0.412-0.73L150.576,187.287z" fill="#B2B2B2"/>
<path d="M68.851,185.212c-0.826-0.481-1.392-0.698-1.695-0.649c-0.304,0.049-0.558,0.248-0.761,0.598  c-0.179,0.306-0.231,0.585-0.157,0.835c0.074,0.25,0.274,0.472,0.601,0.661c0.287,0.168,0.732,0.332,1.335,0.492l0.009,0.004  l-0.433,0.742c-0.606-0.176-1.122-0.391-1.549-0.64c-0.644-0.376-1.052-0.786-1.225-1.233c-0.172-0.447-0.107-0.932,0.194-1.446  c0.208-0.356,0.484-0.606,0.829-0.753c0.343-0.143,0.728-0.162,1.153-0.059c-0.353-0.301-0.558-0.642-0.616-1.023  c-0.058-0.381,0.028-0.77,0.256-1.158c0.375-0.645,0.845-1.018,1.409-1.125c0.563-0.1,1.22,0.068,1.97,0.507  c0.45,0.265,0.873,0.599,1.268,1.007l-0.428,0.733l-0.008-0.007c-0.471-0.459-0.865-0.782-1.183-0.967  c-0.383-0.225-0.726-0.295-1.031-0.215c-0.305,0.082-0.57,0.313-0.794,0.698c-0.241,0.408-0.299,0.776-0.174,1.093  c0.125,0.313,0.606,0.715,1.441,1.201L68.851,185.212z" fill="#B2B2B2"/>
<path d="M62.112,183.809l0.913-1.564c-0.08-0.038-0.217-0.115-0.414-0.23c-0.627-0.365-1.012-0.813-1.154-1.341  c-0.143-0.526-0.029-1.106,0.34-1.739c0.42-0.721,0.915-1.146,1.487-1.285c0.571-0.135,1.235,0.018,1.991,0.459  c0.43,0.252,0.854,0.584,1.273,0.996l-0.433,0.744l-0.008-0.006c-0.44-0.441-0.8-0.744-1.082-0.908  c-0.421-0.246-0.796-0.317-1.125-0.218c-0.328,0.101-0.629,0.388-0.905,0.858c-0.243,0.416-0.314,0.794-0.215,1.133  c0.1,0.34,0.373,0.639,0.816,0.896c0.307,0.18,0.623,0.346,0.948,0.498l-1.784,3.057l-3.248-1.895l0.423-0.728L62.112,183.809z" fill="#B2B2B2"/>
<path d="M192.402,108.759l-0.781-0.002l0.011-4.313l0.781,0.002l-0.004,1.533l5.448,0.014l-0.349-1.537l0.781,0.005  l0.673,2.155l-0.001,0.707l-6.56-0.016V108.759z" fill="#B2B2B2"/>
<path d="M198.055,111.464l-1.812-0.008c0.007,0.091,0.01,0.248,0.009,0.478c-0.001,0.728-0.195,1.282-0.58,1.672  c-0.385,0.388-0.943,0.58-1.676,0.578c-0.833-0.002-1.452-0.215-1.857-0.644c-0.402-0.425-0.604-1.075-0.603-1.951  c0.001-0.498,0.075-1.03,0.224-1.603l0.859,0.002V110c-0.16,0.604-0.242,1.064-0.242,1.393c-0.002,0.487,0.124,0.85,0.376,1.082  c0.251,0.231,0.649,0.352,1.197,0.353c0.481,0.002,0.844-0.126,1.088-0.384c0.243-0.256,0.364-0.644,0.366-1.155  c0-0.354-0.016-0.711-0.047-1.069l3.541,0.01l-0.01,3.76l-0.842-0.002L198.055,111.464z" fill="#B2B2B2"/>
<path d="M112.979,196.26c-0.957-0.004-1.555,0.094-1.793,0.287c-0.238,0.195-0.355,0.493-0.356,0.896  c-0.001,0.354,0.094,0.621,0.282,0.803c0.189,0.179,0.476,0.271,0.853,0.271c0.332,0.002,0.802-0.08,1.402-0.246l0.01,0.002  l-0.002,0.857c-0.61,0.15-1.166,0.229-1.661,0.227c-0.745-0.002-1.306-0.152-1.679-0.453s-0.56-0.75-0.558-1.35  c0.001-0.412,0.115-0.77,0.338-1.066c0.227-0.297,0.549-0.506,0.97-0.629c-0.455-0.082-0.806-0.277-1.048-0.575  c-0.24-0.304-0.36-0.681-0.359-1.132c0.002-0.746,0.221-1.305,0.655-1.678c0.436-0.371,1.088-0.56,1.956-0.555  c0.521,0.001,1.056,0.077,1.603,0.232l-0.002,0.851h-0.01c-0.64-0.161-1.142-0.241-1.509-0.243c-0.442,0-0.775,0.109-1,0.332  c-0.225,0.225-0.336,0.559-0.338,1.004c0,0.479,0.134,0.818,0.397,1.026c0.269,0.209,0.884,0.317,1.851,0.319L112.979,196.26z" fill="#B2B2B2"/>
<path d="M105.76,199.342c-0.752-0.002-1.319-0.271-1.702-0.805c-0.383-0.537-0.572-1.479-0.569-2.831  c0.004-1.479,0.201-2.481,0.591-3.013c0.391-0.529,0.965-0.791,1.723-0.789c0.664,0,1.165,0.177,1.502,0.531  c0.338,0.353,0.558,0.797,0.659,1.334s0.151,1.187,0.149,1.949c-0.003,1.324-0.202,2.26-0.598,2.805  C107.12,199.07,106.535,199.344,105.76,199.342z M105.81,192.716c-0.332-0.001-0.576,0.187-0.731,0.558  c-0.156,0.373-0.235,1.184-0.238,2.438c-0.003,1.202,0.075,1.976,0.234,2.313c0.159,0.336,0.399,0.506,0.721,0.508  c0.293,0.001,0.509-0.118,0.648-0.352c0.139-0.232,0.226-0.539,0.261-0.916c0.035-0.379,0.053-0.896,0.055-1.55  c0.003-1.288-0.071-2.11-0.224-2.466C106.384,192.896,106.142,192.717,105.81,192.716z" fill="#B2B2B2"/>
<polygon fill="#CBCBCB" points="148.031,178.598 146.835,176.536 148.564,175.531 149.762,177.591 "/>
<polygon fill="#CBCBCB" points="108.005,188.787 107.998,186.404 109.998,186.4 110.005,188.781 "/>
<polygon fill="#CBCBCB" points="69.977,178.598 68.244,177.6 69.433,175.534 71.165,176.531 "/>
<polygon fill="#CBCBCB" points="188.784,110 186.402,110 186.402,108 188.784,108 "/>
<polygon fill="#CBCBCB" points="108.005,188.787 107.998,186.404 109.998,186.4 110.005,188.781 "/>
<polygon fill="#CBCBCB" points="69.977,178.598 68.244,177.6 69.433,175.534 71.165,176.531 "/>
<polygon fill="#CBCBCB" points="188.784,110 186.402,110 186.402,108 188.784,108 "/>
<polygon fill="#CBCBCB" points="148.027,178.598 146.835,176.534 148.566,175.531 149.759,177.596 "/>
<polygon fill="#CBCBCB" points="69.977,178.598 68.244,177.6 69.433,175.534 71.165,176.531 "/>
<polygon fill="#CBCBCB" points="188.784,110 186.402,110 186.402,108 188.784,108 "/>
<polygon fill="#CBCBCB" points="148.027,178.598 146.835,176.534 148.566,175.531 149.759,177.596 "/>
<polygon fill="#CBCBCB" points="110,188.785 108,188.785 108,186.402 110,186.402 "/>
</svg>
