<?xml version="1.0" encoding="UTF-8"?>
<!DOCTYPE svg PUBLIC "-//W3C//DTD SVG 1.1 Tiny//EN" "http://www.w3.org/Graphics/SVG/1.1/DTD/svg11-tiny.dtd">
<svg baseProfile="tiny" version="1.1" xmlns="http://www.w3.org/2000/svg" xmlns:xlink="http://www.w3.org/1999/xlink" x="0px" y="0px" width="98px" height="98px" viewBox="0 0 98 98">
<linearGradient id="SVGID_1_" gradientUnits="userSpaceOnUse" x1="48.9995" y1="11" x2="48.9995" y2="87.1677">
<stop offset="0" style="stop-color:#A6A8AB"/>
<stop offset="1" style="stop-color:#231F20"/>
</linearGradient>
<path fill-opacity="0.2" stroke-opacity="0.2" fill="url(#SVGID_1_)" d="M10.5,87v-1.949c0-7.928,3.57-14.014,10.324-17.6  c1.77-0.939,6.408-2.703,10.498-4.26c1.463-0.559,2.809-1.068,3.891-1.49l1.854-0.813c0.68-1.561,0.375-4.135,0.012-4.703  c-0.094-0.143-1.463-2.387-1.463-2.387l-0.904-1.482h0.125c-0.404-0.758-0.799-1.533-1.17-2.32c-0.018,0-0.027,0-0.041,0  c-2.383,0-4.756-2.02-5.906-5.027c-1.229-3.209-0.715-6.434,1.189-8.025c-1.721-6.977-1.436-12.307,0.85-15.846  c1.693-2.625,4.082-3.686,5.904-4.105C38.129,13.984,41.596,11,48.33,11c7.727,0.254,13.732,2.893,17.398,7.627  c3.629,4.682,4.742,11.238,3.135,18.467c1.777,1.664,2.188,4.885,0.926,7.988c-1.104,2.727-3.24,4.617-5.422,4.863  c-0.877,1.838-1.848,3.629-2.893,5.338l-0.141,0.227c-0.141,0.238-0.273,0.457-0.412,0.68L60,55.861l0.852,0.479  c-0.477,1.115-0.438,3.623,0.209,4.807l1.398,0.563l0.525,0.199l0.438,0.178l2.471,0.916c4.264,1.586,9.564,3.555,11.27,4.441  c1.725,0.9,10.338,5.973,10.338,17.607V87H10.5z"/>
<linearGradient id="SVGID_2_" gradientUnits="userSpaceOnUse" x1="48.9995" y1="11.9746" x2="48.9995" y2="86.1888">
<stop offset="0" style="stop-color:#A9AAAD"/>
<stop offset="1" style="stop-color:#000000"/>
</linearGradient>
<path fill-opacity="0.4" stroke-opacity="0.4" fill="url(#SVGID_2_)" d="M11.473,86.025v-0.975c0-7.545,3.391-13.334,9.809-16.74  c1.721-0.914,6.338-2.67,10.41-4.219c1.441-0.547,2.789-1.063,3.877-1.486l2.213-0.965c1.004-1.787,0.719-5.037,0.117-5.98  c-0.088-0.137-0.268-0.438-0.268-0.438l-1.182-1.932h0.035c-0.795-1.393-1.539-2.844-2.234-4.332  c-0.201,0.043-0.414,0.063-0.625,0.063c-1.98,0-3.99-1.77-4.996-4.398c-1.176-3.072-0.559-6.164,1.389-7.266  c-1.832-7.027-1.643-12.316,0.559-15.729c1.596-2.473,3.871-3.416,5.627-3.758c2.482-3.1,5.723-5.896,12.127-5.896  c7.404,0.246,13.145,2.752,16.631,7.248c3.447,4.449,4.494,10.727,2.947,17.676c0,0-0.043,0.207-0.129,0.578  c1.816,1.203,2.318,4.252,1.107,7.238c-1.039,2.563-3.049,4.285-5,4.285c-0.051,0-0.1,0-0.148-0.002  c-0.93,1.998-1.971,3.938-3.096,5.777L60.5,55.004c-0.127,0.219-0.264,0.438-0.398,0.656c-0.039,0.061-0.07,0.127-0.102,0.201  l-0.037,0.072c-0.594,1.406-0.611,4.551,0.445,6.002l1.688,0.68l0.541,0.205l0.418,0.168l2.5,0.93  c4.232,1.572,9.506,3.531,11.156,4.389c1.641,0.854,9.816,5.672,9.816,16.744v0.975H11.473z"/>
<radialGradient id="SVGID_3_" cx="-71.7129" cy="-127.9443" r="81.158" gradientTransform="matrix(0.3386 0 0 0.3374 73.7966 117.8436)" gradientUnits="userSpaceOnUse">
<stop offset="0" style="stop-color:#FFA98E"/>
<stop offset="0.2" style="stop-color:#FFA98E"/>
<stop offset="0.9628" style="stop-color:#D45D36"/>
<stop offset="1" style="stop-color:#D45D36"/>
</radialGradient>
<path fill="url(#SVGID_3_)" d="M60.715,62.455c-2.584-1.121-2.5-6.627-1.436-8.293c0.186-0.289,0.355-0.58,0.533-0.871H38.188  c0.176,0.291,0.346,0.582,0.531,0.871c1.066,1.666,1.148,7.172-1.436,8.293c-2.584,1.125,12.02,10.906,12.02,10.906  S63.303,63.58,60.715,62.455z"/>
<linearGradient id="SVGID_4_" gradientUnits="userSpaceOnUse" x1="48.9995" y1="61.4395" x2="48.9995" y2="84.0762">
<stop offset="0" style="stop-color:#FF7236"/>
<stop offset="1" style="stop-color:#BA1212"/>
</linearGradient>
<path fill="url(#SVGID_4_)" d="M76.262,68.197c-2.721-1.416-16.199-6.135-16.453-6.428l-10.295,8.557l-11.063-8.887  c-0.307,0.451-13.629,5.121-16.713,6.758c-3.527,1.873-9.289,6.178-9.289,15.879h73.102C85.551,74.375,78.977,69.611,76.262,68.197z  "/>
<linearGradient id="SVGID_5_" gradientUnits="userSpaceOnUse" x1="49.0981" y1="59.9551" x2="49.0981" y2="73.1974">
<stop offset="0" style="stop-color:#BC1C24"/>
<stop offset="1" style="stop-color:#6B1C24"/>
</linearGradient>
<polygon fill="url(#SVGID_5_)" points="35.93,62.537 49.514,73.361 62.268,62.76 59.809,61.77 49.514,70.326 38.451,61.439 "/>
<path fill="#FF7B56" d="M36.57,64.252c0,0-19.377,5.059-19.377,18.633c0,0-2.77,0.002-2.791,0  C14.402,74.537,20.918,68.045,36.57,64.252z"/>
<path fill="#FF7B56" d="M61.176,63.936c0,0,19.377,5.061,19.377,18.637c0,0,2.77,0,2.791,0  C83.344,74.223,76.828,67.73,61.176,63.936z"/>
<linearGradient id="SVGID_6_" gradientUnits="userSpaceOnUse" x1="49.1011" y1="74.334" x2="49.1011" y2="61.8274">
<stop offset="0" style="stop-color:#FFA98E"/>
<stop offset="0.9628" style="stop-color:#D45D36"/>
<stop offset="1" style="stop-color:#D45D36"/>
</linearGradient>
<polygon fill="url(#SVGID_6_)" points="49.514,73.361 35.93,62.537 35.139,62.883 49.514,74.334 63.063,63.068 62.273,62.752 "/>
<radialGradient id="SVGID_7_" cx="-98.501" cy="-259.397" r="108.9636" gradientTransform="matrix(0.3386 0 0 0.3374 73.7966 117.8436)" gradientUnits="userSpaceOnUse">
<stop offset="0" style="stop-color:#FFE2D9"/>
<stop offset="0.5091" style="stop-color:#FFC6B3"/>
<stop offset="0.7636" style="stop-color:#FFA98E"/>
<stop offset="1" style="stop-color:#E88160"/>
</radialGradient>
<path fill="url(#SVGID_7_)" d="M66.932,37.145c-0.092-0.045-0.197-0.053-0.289-0.08c0-0.002,0-0.002,0-0.002  c-0.02-0.006-0.035-0.01-0.055-0.012c-0.143-0.039-0.285-0.07-0.432-0.08C48.1,33.83,39.818,23.83,39.195,26.48  c-0.498,2.105-5.561,6.662-8.209,8.936c0.021,0.102,0.033,0.191,0.057,0.295c0,0,0.096,0.467,0.293,1.26  c-0.207,0.023-0.416,0.066-0.615,0.15c-1.688,0.711-2.217,3.477-1.182,6.178c1.031,2.701,3.238,4.318,4.926,3.607  c0.104-0.045,0.191-0.119,0.287-0.182c0.98,2.205,2.184,4.566,3.658,6.936c2.469,2.934,6.254,6.375,10.428,6.375  c5.055,0,8.145-2.764,10.271-5.551c0.051-0.117,0.105-0.227,0.17-0.322c1.574-2.461,2.852-4.93,3.885-7.229  c1.652,0.57,3.768-0.963,4.818-3.559C69.072,40.688,68.604,37.896,66.932,37.145z"/>
<linearGradient id="SVGID_8_" gradientUnits="userSpaceOnUse" x1="42.4819" y1="61.7285" x2="58.0754" y2="46.2569">
<stop offset="0" style="stop-color:#FFDED3"/>
<stop offset="0.2121" style="stop-color:#FFC6B3"/>
<stop offset="1" style="stop-color:#FFA98E"/>
</linearGradient>
<path fill="url(#SVGID_8_)" d="M48.096,58.623c-3.076,0-6.178-1.434-8.459-3.594c2.416,2.537,5.664,5.006,9.201,5.006  c5.055,0,8.145-2.764,10.271-5.551c0.051-0.117,0.105-0.227,0.17-0.322c1.574-2.461,2.852-4.93,3.885-7.229  C57.416,56.979,53.148,58.623,48.096,58.623z"/>
<linearGradient id="SVGID_9_" gradientUnits="userSpaceOnUse" x1="48.6909" y1="12.3115" x2="48.6909" y2="35.2794">
<stop offset="0" style="stop-color:#8A5D3B"/>
<stop offset="0.3758" style="stop-color:#632F00"/>
<stop offset="1" style="stop-color:#361700"/>
</linearGradient>
<path fill="url(#SVGID_9_)" d="M48.33,11.975c-6.26,0-9.27,2.846-11.594,5.82c-3.779,0.582-9.77,4.047-5.537,19.223  c2.65-2.271,7.498-8.432,7.996-10.537c0.629-2.676,9.051,7.537,27.447,10.582c0.213-0.852,0.311-1.352,0.311-1.352  C69.844,22.752,63.561,12.482,48.33,11.975z"/>
<linearGradient id="SVGID_10_" gradientUnits="userSpaceOnUse" x1="56.5469" y1="34.2852" x2="35.739" y2="21.9324">
<stop offset="0" style="stop-color:#8A5D3B"/>
<stop offset="0.3636" style="stop-color:#632F00"/>
<stop offset="1" style="stop-color:#361700"/>
</linearGradient>
<path fill="url(#SVGID_10_)" d="M39.217,25.238c0,0,9.004,11.826,27.297,11.807C66.514,37.045,57.898,35.691,39.217,25.238z"/>
<linearGradient id="SVGID_11_" gradientUnits="userSpaceOnUse" x1="33.8599" y1="19.5259" x2="34.0425" y2="32.7395">
<stop offset="0" style="stop-color:#8A5D3B"/>
<stop offset="0.3758" style="stop-color:#632F00"/>
<stop offset="1" style="stop-color:#361700"/>
</linearGradient>
<path fill="url(#SVGID_11_)" d="M37.051,18.674c0,0-8.816,0.527-5.545,15.467C31.506,34.141,30.428,23.91,37.051,18.674z"/>
<linearGradient id="SVGID_12_" gradientUnits="userSpaceOnUse" x1="51.6084" y1="14.2803" x2="50.9608" y2="20.2678">
<stop offset="0" style="stop-color:#A87C4F"/>
<stop offset="1" style="stop-color:#632F00"/>
</linearGradient>
<path fill="url(#SVGID_12_)" d="M52.604,20.742c-4.104-0.584-11.047-4.221-13.768-2.922c0,0,8.906-10.162,24.627,1.408  C63.463,19.229,59.715,21.758,52.604,20.742z"/>
<rect fill="none" width="98" height="98"/>
<linearGradient id="SVGID_13_" gradientUnits="userSpaceOnUse" x1="65.5" y1="56.4053" x2="65.5" y2="92.0204">
<stop offset="0" style="stop-color:#A6A8AB"/>
<stop offset="1" style="stop-color:#231F20"/>
</linearGradient>
<path fill-opacity="0.2" stroke-opacity="0.2" fill="url(#SVGID_13_)" d="M59,91.5c-1.103,0-2-0.897-2-2v-13c0-1.103,0.897-2,2-2h13c1.103,0,2,0.897,2,2v13  c0,1.103-0.897,2-2,2H59z"/>
<linearGradient id="SVGID_14_" gradientUnits="userSpaceOnUse" x1="65.5" y1="56.584" x2="65.5" y2="91.4017">
<stop offset="0" style="stop-color:#A9AAAD"/>
<stop offset="1" style="stop-color:#000000"/>
</linearGradient>
<path fill-opacity="0.4" stroke-opacity="0.4" fill="url(#SVGID_14_)" d="M59,91c-0.827,0-1.5-0.673-1.5-1.5v-13c0-0.827,0.673-1.5,1.5-1.5h13  c0.827,0,1.5,0.673,1.5,1.5v13c0,0.827-0.673,1.5-1.5,1.5H59z"/>
<linearGradient id="SVGID_15_" gradientUnits="userSpaceOnUse" x1="65.5" y1="75" x2="65.5" y2="90.3335">
<stop offset="0" style="stop-color:#E9F0F2"/>
<stop offset="0.0424" style="stop-color:#E9F0F2"/>
<stop offset="0.3152" style="stop-color:#BDC2C4"/>
<stop offset="0.6727" style="stop-color:#949DA1"/>
<stop offset="1" style="stop-color:#98A1A4"/>
</linearGradient>
<path fill="url(#SVGID_15_)" d="M72,75H59c-0.553,0-1,0.447-1,1v13c0,0.553,0.447,1,1,1h13c0.553,0,1-0.447,1-1V76  C73,75.447,72.553,75,72,75z"/>
<path fill-opacity="0.2" stroke-opacity="0.2" fill="url(#SVGID_16_)" d="M76,91.5c-1.103,0-2-0.897-2-2v-13c0-1.103,0.897-2,2-2h13c1.103,0,2,0.897,2,2v13  c0,1.103-0.897,2-2,2H76z"/>
<path fill-opacity="0.4" stroke-opacity="0.4" fill="url(#SVGID_17_)" d="M76,91c-0.827,0-1.5-0.673-1.5-1.5v-13c0-0.827,0.673-1.5,1.5-1.5h13  c0.827,0,1.5,0.673,1.5,1.5v13c0,0.827-0.673,1.5-1.5,1.5H76z"/>
<linearGradient id="SVGID_18_" gradientUnits="userSpaceOnUse" x1="82.5" y1="75" x2="82.5" y2="90.3335">
<stop offset="0" style="stop-color:#E9F0F2"/>
<stop offset="0.0424" style="stop-color:#E9F0F2"/>
<stop offset="0.3152" style="stop-color:#BDC2C4"/>
<stop offset="0.6727" style="stop-color:#949DA1"/>
<stop offset="1" style="stop-color:#98A1A4"/>
</linearGradient>
<path fill="url(#SVGID_18_)" d="M89,75H76c-0.553,0-1,0.447-1,1v13c0,0.553,0.447,1,1,1h13c0.553,0,1-0.447,1-1V76  C90,75.447,89.553,75,89,75z"/>
<linearGradient id="SVGID_19_" gradientUnits="userSpaceOnUse" x1="64.5" y1="56.4053" x2="64.5" y2="92.0204">
<stop offset="0" style="stop-color:#A6A8AB"/>
<stop offset="1" style="stop-color:#231F20"/>
</linearGradient>
<path fill-opacity="0.2" stroke-opacity="0.2" fill="url(#SVGID_19_)" d="M58,73.5c-1.103,0-2-0.897-2-2v-13c0-1.103,0.897-2,2-2h13c1.103,0,2,0.897,2,2v13  c0,1.103-0.897,2-2,2H58z"/>
<linearGradient id="SVGID_20_" gradientUnits="userSpaceOnUse" x1="64.5" y1="56.584" x2="64.5" y2="91.4017">
<stop offset="0" style="stop-color:#A9AAAD"/>
<stop offset="1" style="stop-color:#000000"/>
</linearGradient>
<path fill-opacity="0.4" stroke-opacity="0.4" fill="url(#SVGID_20_)" d="M58,73c-0.827,0-1.5-0.673-1.5-1.5v-13c0-0.827,0.673-1.5,1.5-1.5h13  c0.827,0,1.5,0.673,1.5,1.5v13c0,0.827-0.673,1.5-1.5,1.5H58z"/>
<linearGradient id="SVGID_21_" gradientUnits="userSpaceOnUse" x1="64.5" y1="57" x2="64.5" y2="72.3335">
<stop offset="0" style="stop-color:#E9F0F2"/>
<stop offset="0.0424" style="stop-color:#E9F0F2"/>
<stop offset="0.3152" style="stop-color:#BDC2C4"/>
<stop offset="0.6727" style="stop-color:#949DA1"/>
<stop offset="1" style="stop-color:#98A1A4"/>
</linearGradient>
<path fill="url(#SVGID_21_)" d="M71,72c0.553,0,1-0.447,1-1V58c0-0.553-0.447-1-1-1H58c-0.553,0-1,0.447-1,1v13c0,0.553,0.447,1,1,1  H71z"/>
<path fill-opacity="0.2" stroke-opacity="0.2" fill="url(#SVGID_16_)" d="M76,74.5c-1.103,0-2-0.897-2-2v-13c0-1.103,0.897-2,2-2h13c1.103,0,2,0.897,2,2v13  c0,1.103-0.897,2-2,2H76z"/>
<path fill-opacity="0.4" stroke-opacity="0.4" fill="url(#SVGID_17_)" d="M76,74c-0.827,0-1.5-0.673-1.5-1.5v-13c0-0.827,0.673-1.5,1.5-1.5h13  c0.827,0,1.5,0.673,1.5,1.5v13c0,0.827-0.673,1.5-1.5,1.5H76z"/>
<path fill="url(#SVGID_24_)" d="M89,58H76c-0.553,0-1,0.447-1,1v13c0,0.553,0.447,1,1,1h13c0.553,0,1-0.447,1-1V59  C90,58.447,89.553,58,89,58z"/>
<linearGradient id="SVGID_25_" gradientUnits="userSpaceOnUse" x1="65.5" y1="75" x2="65.5" y2="90">
<stop offset="0" style="stop-color:#E9F0F2"/>
<stop offset="0.0424" style="stop-color:#E9F0F2"/>
<stop offset="0.2606" style="stop-color:#BDC2C4"/>
<stop offset="0.5394" style="stop-color:#949DA1"/>
<stop offset="1" style="stop-color:#98A1A4"/>
</linearGradient>
<path fill="url(#SVGID_25_)" d="M73,89c0,0.553-0.447,1-1,1H59c-0.553,0-1-0.447-1-1V76c0-0.553,0.447-1,1-1h13c0.553,0,1,0.447,1,1  V89z"/>
<linearGradient id="SVGID_26_" gradientUnits="userSpaceOnUse" x1="65.5" y1="75" x2="65.5" y2="90">
<stop offset="0" style="stop-color:#F6FDFF"/>
<stop offset="0.3152" style="stop-color:#D1D7D9"/>
<stop offset="0.6727" style="stop-color:#949DA1"/>
<stop offset="1" style="stop-color:#B7C3C7"/>
</linearGradient>
<path fill="url(#SVGID_26_)" d="M72,75H59c-0.553,0-1,0.447-1,1v13c0,0.553,0.447,1,1,1h13c0.553,0,1-0.447,1-1V76  C73,75.447,72.553,75,72,75z M72.5,89c0,0.275-0.225,0.5-0.5,0.5H59c-0.275,0-0.5-0.225-0.5-0.5V76c0-0.275,0.225-0.5,0.5-0.5h13  c0.275,0,0.5,0.225,0.5,0.5V89z"/>
<linearGradient id="SVGID_27_" gradientUnits="userSpaceOnUse" x1="82.5" y1="75" x2="82.5" y2="90.6667">
<stop offset="0" style="stop-color:#E9F0F2"/>
<stop offset="0.0424" style="stop-color:#E9F0F2"/>
<stop offset="0.2606" style="stop-color:#BDC2C4"/>
<stop offset="0.5394" style="stop-color:#949DA1"/>
<stop offset="1" style="stop-color:#98A1A4"/>
</linearGradient>
<path fill="url(#SVGID_27_)" d="M90,89c0,0.553-0.447,1-1,1H76c-0.553,0-1-0.447-1-1V76c0-0.553,0.447-1,1-1h13c0.553,0,1,0.447,1,1  V89z"/>
<linearGradient id="SVGID_28_" gradientUnits="userSpaceOnUse" x1="82.5" y1="75" x2="82.5" y2="90.6667">
<stop offset="0" style="stop-color:#F6FDFF"/>
<stop offset="0.3152" style="stop-color:#D1D7D9"/>
<stop offset="0.6727" style="stop-color:#949DA1"/>
<stop offset="1" style="stop-color:#B7C3C7"/>
</linearGradient>
<path fill="url(#SVGID_28_)" d="M89,75H76c-0.553,0-1,0.447-1,1v13c0,0.553,0.447,1,1,1h13c0.553,0,1-0.447,1-1V76  C90,75.447,89.553,75,89,75z M89.5,89c0,0.275-0.225,0.5-0.5,0.5H76c-0.275,0-0.5-0.225-0.5-0.5V76c0-0.275,0.225-0.5,0.5-0.5h13  c0.275,0,0.5,0.225,0.5,0.5V89z"/>
<linearGradient id="SVGID_29_" gradientUnits="userSpaceOnUse" x1="64.5" y1="56.333" x2="64.5" y2="72.3331">
<stop offset="0" style="stop-color:#AFED23"/>
<stop offset="0.7394" style="stop-color:#358C0C"/>
<stop offset="1" style="stop-color:#67AD1A"/>
</linearGradient>
<path fill="url(#SVGID_29_)" d="M72,71c0,0.553-0.447,1-1,1H58c-0.553,0-1-0.447-1-1V58c0-0.553,0.447-1,1-1h13c0.553,0,1,0.447,1,1  V71z"/>
<linearGradient id="SVGID_30_" gradientUnits="userSpaceOnUse" x1="64.5" y1="56.333" x2="64.5" y2="72.3331">
<stop offset="0" style="stop-color:#E5FFB2"/>
<stop offset="0.3879" style="stop-color:#6AAB18"/>
<stop offset="0.7879" style="stop-color:#247307"/>
<stop offset="1" style="stop-color:#7ABF2B"/>
</linearGradient>
<path fill="url(#SVGID_30_)" d="M71,57H58c-0.553,0-1,0.447-1,1v13c0,0.553,0.447,1,1,1h13c0.553,0,1-0.447,1-1V58  C72,57.447,71.553,57,71,57z M71.5,71c0,0.275-0.225,0.5-0.5,0.5H58c-0.275,0-0.5-0.225-0.5-0.5V58c0-0.275,0.225-0.5,0.5-0.5h13  c0.275,0,0.5,0.225,0.5,0.5V71z"/>
<path fill="url(#SVGID_24_)" d="M90,72c0,0.553-0.447,1-1,1H76c-0.553,0-1-0.447-1-1V59c0-0.553,0.447-1,1-1h13c0.553,0,1,0.447,1,1  V72z"/>
<linearGradient id="SVGID_32_" gradientUnits="userSpaceOnUse" x1="82.5" y1="58" x2="82.5" y2="73.3335">
<stop offset="0" style="stop-color:#F6FDFF"/>
<stop offset="0.3152" style="stop-color:#D1D7D9"/>
<stop offset="0.6727" style="stop-color:#949DA1"/>
<stop offset="1" style="stop-color:#B7C3C7"/>
</linearGradient>
<path fill="url(#SVGID_32_)" d="M89,58H76c-0.553,0-1,0.447-1,1v13c0,0.553,0.447,1,1,1h13c0.553,0,1-0.447,1-1V59  C90,58.447,89.553,58,89,58z M89.5,72c0,0.275-0.225,0.5-0.5,0.5H76c-0.275,0-0.5-0.225-0.5-0.5V59c0-0.275,0.225-0.5,0.5-0.5h13  c0.275,0,0.5,0.225,0.5,0.5V72z"/>
<rect x="49" y="49" fill="none" width="49" height="49"/>
<rect fill="none" width="98" height="98"/>
<defs>
<linearGradient id="SVGID_16_" gradientUnits="userSpaceOnUse" x1="82.5" y1="56.4053" x2="82.5" y2="92.0204">
<stop offset="0" style="stop-color:#A6A8AB"/>
<stop offset="1" style="stop-color:#231F20"/>
</linearGradient>
</defs>
<defs>
<linearGradient id="SVGID_17_" gradientUnits="userSpaceOnUse" x1="82.5" y1="56.584" x2="82.5" y2="91.4017">
<stop offset="0" style="stop-color:#A9AAAD"/>
<stop offset="1" style="stop-color:#000000"/>
</linearGradient>
</defs>
<defs>
<linearGradient id="SVGID_24_" gradientUnits="userSpaceOnUse" x1="82.5" y1="58" x2="82.5" y2="73.3335">
<stop offset="0" style="stop-color:#E9F0F2"/>
<stop offset="0.0424" style="stop-color:#E9F0F2"/>
<stop offset="0.3152" style="stop-color:#BDC2C4"/>
<stop offset="0.6727" style="stop-color:#949DA1"/>
<stop offset="1" style="stop-color:#98A1A4"/>
</linearGradient>
</defs>
</svg>
