<?xml version="1.0" encoding="utf-8"?>
<!-- Generator: Adobe Illustrator 14.0.0, SVG Export Plug-In  -->
<!DOCTYPE svg PUBLIC "-//W3C//DTD SVG 1.1//EN" "http://www.w3.org/Graphics/SVG/1.1/DTD/svg11.dtd" [
	<!ENTITY ns_flows "http://ns.adobe.com/Flows/1.0/">
]>
<svg version="1.1"
	 xmlns="http://www.w3.org/2000/svg" xmlns:xlink="http://www.w3.org/1999/xlink" xmlns:a="http://ns.adobe.com/AdobeSVGViewerExtensions/3.0/"
	 x="0px" y="0px" width="10px" height="10px" viewBox="0 0 10 10" enable-background="new 0 0 10 10" xml:space="preserve">
<defs>
</defs>
<rect fill="none" width="10" height="10"/>
<path opacity="0.1" fill="#14141E" d="M0,3c0,3.859,3.14,7,7,7h3V0H0V3z"/>
<path opacity="0.2" fill="#14141E" d="M1,3c0,3.3,2.7,6,6,6h3V0H1V3z"/>
<linearGradient id="SVGID_1_" gradientUnits="userSpaceOnUse" x1="5.5" y1="-70.8745" x2="5.5" y2="7.9514">
	<stop  offset="0" style="stop-color:#FFFFFF"/>
	<stop  offset="0" style="stop-color:#FDFDFE"/>
	<stop  offset="0.9" style="stop-color:#E6E6F0"/>
	<stop  offset="1" style="stop-color:#DCDCE6"/>
</linearGradient>
<path opacity="0.9" fill="url(#SVGID_1_)" d="M1,2c0,3.3,2.7,6,6,6h3V0H1V2z"/>
<path opacity="0.4" fill="#FFFFFF" d="M1,0v2c0,3.3,2.7,6,6,6h3V7H7C4.243,7,2,4.757,2,2V0H1z"/>
</svg>
