<?xml version="1.0" encoding="UTF-8"?>
<!DOCTYPE svg PUBLIC "-//W3C//DTD SVG 1.1 Tiny//EN" "http://www.w3.org/Graphics/SVG/1.1/DTD/svg11-tiny.dtd">
<svg baseProfile="tiny" version="1.1" xmlns="http://www.w3.org/2000/svg" xmlns:xlink="http://www.w3.org/1999/xlink" x="0px" y="0px" width="30px" height="30px" viewBox="0 0 30 30">
<rect fill="none" width="30" height="30"/>
<path d="M25.121,4.314c0.725,0,1.313,0.588,1.313,1.313v7.624c0,0.724-0.588,1.311-1.313,1.311h-7.623  c-0.725,0-1.313-0.587-1.313-1.311V5.627c0-0.725,0.588-1.313,1.313-1.313H25.121 M24.875,5.872h-7.131v7.132h7.131V5.872  L24.875,5.872z"/>
<path d="M25.121,16.753c0.725,0,1.313,0.587,1.313,1.311v7.625c0,0.724-0.588,1.312-1.313,1.312h-7.623  c-0.725,0-1.313-0.588-1.313-1.312v-7.625c0-0.724,0.588-1.311,1.313-1.311H25.121 M24.875,18.311h-7.131v7.132h7.131V18.311  L24.875,18.311z"/>
<path d="M12.503,16.753c0.724,0,1.311,0.587,1.311,1.311v7.625c0,0.724-0.587,1.312-1.311,1.312H4.878  c-0.723,0-1.312-0.588-1.312-1.312v-7.625c0-0.724,0.589-1.311,1.312-1.311H12.503 M12.256,18.311H5.125v7.132h7.132V18.311  L12.256,18.311z"/>
<path d="M13.814,13.251c0,0.724-0.587,1.311-1.311,1.311H4.878c-0.723,0-1.312-0.587-1.312-1.311V5.626  c0-0.724,0.589-1.312,1.312-1.312h7.625c0.724,0,1.311,0.587,1.311,1.312V13.251z"/>
</svg>
