<?xml version="1.0" encoding="UTF-8"?>
<!DOCTYPE svg PUBLIC "-//W3C//DTD SVG 1.1 Tiny//EN" "http://www.w3.org/Graphics/SVG/1.1/DTD/svg11-tiny.dtd">
<svg baseProfile="tiny" height="10px" version="1.1" viewBox="0 0 10 10" width="10px" x="0px" xmlns="http://www.w3.org/2000/svg" xmlns:xlink="http://www.w3.org/1999/xlink" y="0px">
<path d="M1,2c0,3.859,3.14,7,7,7h2V0H1V2z" fill="url(#SVGID_1_)"/>
<path d="M1,0v2c0,3.859,3.14,7,7,7h2V8H8C4.691,8,2,5.309,2,2V0H1z" fill="#FFFFFF" fill-opacity="0.2" stroke-opacity="0.2"/>
<path d="M0,0v2c0,4.411,3.589,8,8,8h2V9H8C4.14,9,1,5.859,1,2V0H0z" fill-opacity="0.4" stroke-opacity="0.4"/>
<rect fill="none" height="10" width="10"/>
<defs>
<linearGradient gradientUnits="userSpaceOnUse" id="SVGID_1_" x1="5.5" x2="5.5" y1="8.9072" y2="-70.8759">
<stop offset="0" style="stop-color:#009DD9"/>
<stop offset="1" style="stop-color:#004F80"/>
</linearGradient>
</defs>
</svg>
