<?xml version="1.0" encoding="utf-8"?>
<!-- Generator: Adobe Illustrator 14.0.0, SVG Export Plug-In . SVG Version: 6.00 Build 43363)  -->
<!DOCTYPE svg PUBLIC "-//W3C//DTD SVG 1.1//EN" "http://www.w3.org/Graphics/SVG/1.1/DTD/svg11.dtd">
<svg version="1.1" id="Layer_1" xmlns="http://www.w3.org/2000/svg" xmlns:xlink="http://www.w3.org/1999/xlink" x="0px" y="0px"
	 width="218px" height="218px" viewBox="0 0 218 218" enable-background="new 0 0 218 218" xml:space="preserve">
<rect fill="none" width="218" height="218"/>
<linearGradient id="SVGID_1_" gradientUnits="userSpaceOnUse" x1="-1509.5" y1="-6440.5" x2="-1509.5" y2="-6222.5" gradientTransform="matrix(1 0 0 1 1618.5 6440.5)">
	<stop  offset="0" style="stop-color:#818181"/>
	<stop  offset="1" style="stop-color:#010101"/>
</linearGradient>
<path fill="url(#SVGID_1_)" fill-opacity="0.4" d="M109,218C48.897,218,0,169.104,0,109C0,48.896,48.897,0,109,0
	c60.104,0,109,48.896,109,109C218,169.104,169.104,218,109,218L109,218z"/>
<linearGradient id="SVGID_2_" gradientUnits="userSpaceOnUse" x1="-1509.5" y1="-6430.6284" x2="-1509.5" y2="-6223.4028" gradientTransform="matrix(1 0 0 1 1618.5 6440.5)">
	<stop  offset="0" style="stop-color:#676767"/>
	<stop  offset="1" style="stop-color:#010101"/>
</linearGradient>
<path fill="url(#SVGID_2_)" fill-opacity="0.4" d="M109,217C49.448,217,1,168.551,1,109C1,49.449,49.448,1,109,1
	c59.553,0,108,48.449,108,108C217,168.551,168.553,217,109,217L109,217z"/>
<linearGradient id="SVGID_3_" gradientUnits="userSpaceOnUse" x1="-1509.5" y1="-6439.7319" x2="-1509.5" y2="-6223.9771" gradientTransform="matrix(1 0 0 1 1618.5 6440.5)">
	<stop  offset="0" style="stop-color:#DADADA"/>
	<stop  offset="0.5333" style="stop-color:#DADADA"/>
	<stop  offset="0.5333" style="stop-color:#C0C0C0"/>
	<stop  offset="1" style="stop-color:#A7A7A7"/>
</linearGradient>
<circle fill="url(#SVGID_3_)" cx="109" cy="109" r="107"/>
<path opacity="0.4" fill="#FFFFFF" enable-background="new    " d="M109,2C49.905,2,2,49.904,2,109c0,59.096,47.905,107,107,107
	c59.096,0,107-47.904,107-107C216,49.904,168.096,2,109,2z M109,215C50.553,215,3,167.449,3,109C3,50.551,50.553,3,109,3
	c58.447,0,106,47.551,106,106C215,167.449,167.447,215,109,215z"/>
<path fill="#E5E5E5" d="M109,207c-54.037,0-98-43.963-98-98s43.963-98,98-98s98,43.963,98,98S163.037,207,109,207L109,207z"/>
<linearGradient id="SVGID_4_" gradientUnits="userSpaceOnUse" x1="226.4795" y1="103.9805" x2="226.4795" y2="-88.0195" gradientTransform="matrix(1 0 0 -1 -117.48 116.9805)">
	<stop  offset="0" style="stop-color:#FFFFFF"/>
	<stop  offset="0.5636" style="stop-color:#CBCBCB"/>
	<stop  offset="1" style="stop-color:#E5E5E5"/>
</linearGradient>
<circle fill="url(#SVGID_4_)" cx="109" cy="109" r="96"/>
<path opacity="0.5" enable-background="new    " d="M109,13c-53.02,0-96,42.98-96,96c0,53.02,42.98,96,96,96c53.02,0,96-42.98,96-96
	C205,55.98,162.02,13,109,13z M109,204.01c-52.389,0-95.011-42.621-95.011-95.01c0-52.389,42.622-95.01,95.011-95.01
	c52.389,0,95.012,42.621,95.012,95.01C204.012,161.389,161.389,204.01,109,204.01z"/>
<linearGradient id="SVGID_5_" gradientUnits="userSpaceOnUse" x1="-1471.0205" y1="-6394.4937" x2="-1471.0205" y2="-6338.9575" gradientTransform="matrix(1 0 0 1 1618.5 6440.5)">
	<stop  offset="0" style="stop-color:#FFFFFF"/>
	<stop  offset="1" style="stop-color:#B4B4B4"/>
</linearGradient>
<path fill="url(#SVGID_5_)" fill-opacity="0.5" d="M125.486,102.714c-6.047,0-9.375-3.503-9.375-9.862V71.061
	c0-6.604,5.479-8.943,10.174-8.943h0.443c0.391,0,0.424-0.001,0.736-0.014l0.26-0.008c2.533-0.09,5.24-1.923,5.236-6.806
	c-0.002-4.133,1.121-7.166,3.338-9.006c1.896-1.578,4.156-1.905,5.723-1.905c1.105,0,1.887,0.169,1.918,0.176
	c21.873,3.771,33.553,22.157,34.844,34.006c0.367,3.371-0.855,7.082-3.191,9.687c-1.563,1.747-4.359,3.823-8.795,3.823
	c-6.643,0-9.273,2.291-10.676,4.011l-0.396,0.499c-1.824,2.292-4.877,6.136-11.424,6.136h-18.814V102.714L125.486,102.714z"/>
<path fill="#B4B4B4" fill-opacity="0.4" d="M178.783,78.561c-1.291-11.85-12.971-30.235-34.844-34.006
	c-0.031-0.008-0.813-0.177-1.918-0.177c-1.563,0-3.824,0.328-5.723,1.905c-2.217,1.84-3.34,4.874-3.338,9.007
	c0.004,4.881-2.703,6.714-5.236,6.804l-0.26,0.008c-0.313,0.012-0.35,0.015-0.736,0.015h-0.443c-4.693,0-10.174,2.34-10.174,8.944
	v21.791c0,6.359,3.328,9.862,9.375,9.862H144.3c6.548,0,9.601-3.842,11.425-6.136l0.396-0.497c1.398-1.722,4.033-4.013,10.676-4.013
	c4.438,0,7.229-2.077,8.795-3.821C177.928,85.643,179.15,81.93,178.783,78.561z M166.797,91.07c-7.016,0-9.889,2.461-11.451,4.381
	c-1.82,2.242-4.516,6.263-11.045,6.263c-6.527,0-11.668,0-18.813,0c-7.146,0-8.375-5.071-8.375-8.862c0-3.793,0-21.791,0-21.791
	c0-5.886,4.764-7.944,9.176-7.944c0.996,0,0.752,0.003,1.477-0.022c3.311-0.115,6.211-2.57,6.203-7.804
	c-0.008-11.918,9.764-9.759,9.764-9.759c21.521,3.711,32.832,21.828,34.063,33.138C178.365,83.943,174.637,91.07,166.797,91.07z"/>
<ellipse opacity="0.25" fill="#FFFFFF" enable-background="new    " cx="109" cy="59.999" rx="65" ry="44.001"/>
<path fill="#808080" d="M99.961,36.396h-0.064l-3.673,1.982L95.671,36.2l4.615-2.471h2.438v21.125h-2.763V36.396z"/>
<path fill="#808080" d="M107.987,54.857v-1.756l2.242-2.178c5.396-5.135,7.863-7.865,7.863-11.052c0-2.144-1.008-4.125-4.158-4.125
	c-1.916,0-3.512,0.976-4.482,1.788l-0.911-2.016c1.433-1.203,3.543-2.147,5.946-2.147c4.553,0,6.471,3.123,6.471,6.146
	c0,3.896-2.828,7.053-7.281,11.344l-1.654,1.56v0.065h9.457v2.373L107.987,54.857L107.987,54.857z"/>
<path fill="#808080" d="M112.551,163.688c-0.584-0.033-1.332,0.031-2.145,0.162c-4.519,0.715-6.858,3.965-7.345,7.479h0.064
	c1.008-1.365,2.796-2.473,5.136-2.473c3.736,0,6.369,2.728,6.369,6.824c0,3.9-2.633,7.477-7.051,7.477
	c-4.485,0-7.442-3.512-7.442-9.004c0-4.156,1.462-7.439,3.574-9.521c1.756-1.723,4.096-2.795,6.76-3.118
	c0.846-0.132,1.563-0.162,2.079-0.162L112.551,163.688L112.551,163.688z M111.738,175.872c0-3.021-1.725-4.841-4.355-4.841
	c-1.723,0-3.348,1.041-4.127,2.601c-0.163,0.324-0.293,0.716-0.293,1.235c0.032,3.479,1.657,6.078,4.681,6.078
	C110.082,180.945,111.738,178.896,111.738,175.872z"/>
<path fill="#808080" d="M35.731,116.213c0.617,0.064,1.333,0,2.308-0.098c1.657-0.227,3.218-0.877,4.42-2.047
	c1.397-1.271,2.405-3.121,2.795-5.592h-0.097c-1.171,1.432-2.86,2.245-5.006,2.245c-3.77,0-6.207-2.862-6.207-6.472
	c0-3.996,2.893-7.506,7.215-7.506c4.322,0,6.987,3.479,6.987,8.938c0,4.616-1.56,7.866-3.64,9.879
	c-1.625,1.594-3.868,2.563-6.143,2.828c-1.04,0.16-1.95,0.191-2.633,0.16L35.731,116.213L35.731,116.213z M36.771,104.09
	c0,2.633,1.593,4.485,4.063,4.485c1.918,0,3.413-0.942,4.16-2.21c0.163-0.292,0.26-0.586,0.26-1.075
	c0-3.604-1.332-6.368-4.354-6.368C38.495,98.923,36.771,101.068,36.771,104.09z"/>
<line fill="none" x1="117.941" y1="20.827" x2="117.631" y2="23.813"/>
<line fill="none" x1="117.941" y1="20.827" x2="117.631" y2="23.813"/>
<path fill="#818181" d="M117.631,23.982c-0.008,0-0.012,0-0.02-0.002c-0.094-0.008-0.16-0.092-0.152-0.19l0.313-2.981
	c0.014-0.095,0.104-0.156,0.191-0.151c0.09,0.007,0.16,0.093,0.15,0.188L117.8,23.83C117.791,23.914,117.717,23.982,117.631,23.982
	L117.631,23.982z"/>
<line fill="none" x1="99.688" y1="194.559" x2="99.37" y2="197.538"/>
<line fill="none" x1="99.688" y1="194.559" x2="99.37" y2="197.538"/>
<path fill="#818181" d="M99.37,197.71c0,0-0.012,0-0.016-0.004c-0.096-0.009-0.162-0.093-0.154-0.185l0.318-2.983
	c0.008-0.095,0.096-0.16,0.188-0.151c0.096,0.01,0.162,0.094,0.154,0.188l-0.318,2.981C99.531,197.645,99.458,197.71,99.37,197.71
	L99.37,197.71z"/>
<line fill="none" x1="127.129" y1="22.281" x2="126.506" y2="25.219"/>
<line fill="none" x1="127.129" y1="22.281" x2="126.506" y2="25.219"/>
<path fill="#818181" d="M126.506,25.391c-0.012,0-0.025-0.002-0.037-0.006c-0.092-0.021-0.148-0.111-0.131-0.203l0.623-2.937
	c0.018-0.095,0.104-0.151,0.201-0.134c0.094,0.021,0.154,0.113,0.133,0.205l-0.621,2.937
	C126.656,25.331,126.584,25.391,126.506,25.391L126.506,25.391z"/>
<line fill="none" x1="90.813" y1="193.148" x2="90.187" y2="196.081"/>
<line fill="none" x1="90.813" y1="193.148" x2="90.187" y2="196.081"/>
<path fill="#818181" d="M90.187,196.254c-0.01,0-0.021,0-0.035-0.004c-0.092-0.02-0.15-0.109-0.131-0.201l0.627-2.936
	c0.018-0.09,0.105-0.148,0.201-0.131c0.092,0.021,0.152,0.106,0.133,0.203l-0.627,2.934C90.336,196.2,90.267,196.254,90.187,196.254
	L90.187,196.254z"/>
<line fill="none" x1="136.109" y1="24.688" x2="135.182" y2="27.54"/>
<line fill="none" x1="136.109" y1="24.688" x2="135.182" y2="27.54"/>
<path fill="#818181" d="M135.182,27.715c-0.016,0-0.033-0.003-0.053-0.009c-0.088-0.029-0.137-0.126-0.107-0.215l0.93-2.856
	c0.027-0.091,0.125-0.14,0.217-0.109c0.09,0.029,0.143,0.125,0.105,0.217l-0.928,2.855
	C135.322,27.669,135.256,27.715,135.182,27.715L135.182,27.715z"/>
<line fill="none" x1="82.133" y1="190.824" x2="81.206" y2="193.678"/>
<line fill="none" x1="82.133" y1="190.824" x2="81.206" y2="193.678"/>
<path fill="#818181" d="M81.206,193.85c-0.018,0-0.035-0.002-0.055-0.011c-0.09-0.028-0.139-0.125-0.109-0.217l0.93-2.853
	c0.031-0.09,0.127-0.142,0.215-0.109c0.092,0.029,0.141,0.127,0.111,0.218l-0.93,2.853C81.342,193.803,81.275,193.85,81.206,193.85
	L81.206,193.85z"/>
<line fill="none" x1="144.793" y1="28.02" x2="143.572" y2="30.764"/>
<line fill="none" x1="144.793" y1="28.02" x2="143.572" y2="30.764"/>
<path fill="#818181" d="M143.572,30.936c-0.023,0-0.047-0.004-0.068-0.016c-0.088-0.039-0.127-0.141-0.088-0.227l1.221-2.744
	c0.039-0.086,0.141-0.125,0.227-0.086c0.09,0.037,0.125,0.14,0.092,0.226l-1.227,2.742
	C143.699,30.896,143.639,30.936,143.572,30.936L143.572,30.936z"/>
<line fill="none" x1="73.745" y1="187.604" x2="72.523" y2="190.346"/>
<line fill="none" x1="73.745" y1="187.604" x2="72.523" y2="190.346"/>
<path fill="#818181" d="M72.523,190.516c-0.025,0-0.049-0.004-0.07-0.016c-0.088-0.039-0.125-0.141-0.088-0.227l1.223-2.739
	c0.039-0.087,0.141-0.124,0.227-0.087c0.088,0.039,0.125,0.14,0.088,0.228l-1.226,2.739C72.65,190.479,72.59,190.516,72.523,190.516
	L72.523,190.516z"/>
<line fill="none" x1="160.879" y1="37.307" x2="159.113" y2="39.734"/>
<line fill="none" x1="160.879" y1="37.307" x2="159.113" y2="39.734"/>
<path fill="#818181" d="M159.113,39.907c-0.033,0-0.07-0.013-0.102-0.035c-0.076-0.056-0.096-0.166-0.035-0.237l1.764-2.43
	c0.055-0.077,0.164-0.094,0.24-0.041c0.074,0.059,0.092,0.165,0.035,0.244l-1.766,2.428
	C159.219,39.883,159.166,39.907,159.113,39.907L159.113,39.907z"/>
<line fill="none" x1="58.204" y1="178.632" x2="56.438" y2="181.059"/>
<line fill="none" x1="58.204" y1="178.632" x2="56.438" y2="181.059"/>
<path fill="#818181" d="M56.438,181.229c-0.033,0-0.07-0.008-0.1-0.029c-0.078-0.059-0.094-0.163-0.039-0.237l1.768-2.426
	c0.053-0.079,0.16-0.099,0.238-0.038c0.078,0.055,0.092,0.161,0.037,0.236l-1.764,2.428
	C56.543,181.205,56.493,181.229,56.438,181.229L56.438,181.229z"/>
<line fill="none" x1="168.104" y1="43.157" x2="166.096" y2="45.391"/>
<line fill="none" x1="168.104" y1="43.157" x2="166.096" y2="45.391"/>
<path fill="#818181" d="M166.096,45.563c-0.041,0-0.08-0.016-0.113-0.045c-0.066-0.063-0.072-0.17-0.014-0.24l2.01-2.231
	c0.064-0.073,0.17-0.077,0.242-0.014c0.066,0.063,0.074,0.173,0.012,0.243l-2.008,2.23C166.191,45.54,166.143,45.563,166.096,45.563
	L166.096,45.563z"/>
<line fill="none" x1="51.222" y1="172.979" x2="49.213" y2="175.205"/>
<line fill="none" x1="51.222" y1="172.979" x2="49.213" y2="175.205"/>
<path fill="#818181" d="M49.213,175.374c-0.043,0-0.084-0.013-0.117-0.043c-0.07-0.062-0.076-0.169-0.012-0.241l2.01-2.227
	c0.064-0.073,0.174-0.077,0.24-0.012c0.072,0.062,0.078,0.168,0.016,0.237l-2.01,2.229
	C49.306,175.357,49.258,175.374,49.213,175.374L49.213,175.374z"/>
<line fill="none" x1="174.68" y1="49.734" x2="172.451" y2="51.743"/>
<line fill="none" x1="174.68" y1="49.734" x2="172.451" y2="51.743"/>
<path fill="#818181" d="M172.451,51.914c-0.047,0-0.094-0.02-0.129-0.057c-0.064-0.069-0.059-0.178,0.012-0.242l2.232-2.01
	c0.068-0.065,0.178-0.059,0.242,0.014c0.063,0.07,0.059,0.18-0.02,0.242l-2.229,2.01C172.531,51.9,172.49,51.914,172.451,51.914
	L172.451,51.914z"/>
<line fill="none" x1="44.868" y1="166.622" x2="42.638" y2="168.629"/>
<line fill="none" x1="44.868" y1="166.622" x2="42.638" y2="168.629"/>
<path fill="#818181" d="M42.638,168.801c-0.047,0-0.096-0.02-0.127-0.058c-0.065-0.068-0.059-0.177,0.012-0.24l2.23-2.007
	c0.072-0.063,0.18-0.057,0.244,0.014c0.063,0.07,0.055,0.18-0.014,0.24l-2.234,2.008C42.72,168.787,42.676,168.801,42.638,168.801
	L42.638,168.801z"/>
<line fill="none" x1="180.533" y1="56.961" x2="178.104" y2="58.727"/>
<line fill="none" x1="180.533" y1="56.961" x2="178.104" y2="58.727"/>
<path fill="#818181" d="M178.104,58.898c-0.053,0-0.104-0.026-0.139-0.072c-0.055-0.076-0.039-0.184,0.039-0.24l2.428-1.764
	c0.078-0.057,0.188-0.037,0.24,0.037c0.055,0.076,0.039,0.186-0.037,0.238l-2.43,1.768
	C178.176,58.889,178.139,58.898,178.104,58.898L178.104,58.898z"/>
<line fill="none" x1="39.213" y1="159.643" x2="36.784" y2="161.402"/>
<line fill="none" x1="39.213" y1="159.643" x2="36.784" y2="161.402"/>
<path fill="#818181" d="M36.784,161.574c-0.053,0-0.105-0.023-0.139-0.07c-0.055-0.078-0.035-0.186,0.039-0.238l2.43-1.763
	c0.076-0.056,0.184-0.038,0.236,0.037c0.059,0.075,0.041,0.185-0.037,0.241l-2.428,1.759
	C36.854,161.563,36.818,161.574,36.784,161.574L36.784,161.574z"/>
<line fill="none" x1="189.82" y1="73.046" x2="187.076" y2="74.268"/>
<line fill="none" x1="189.82" y1="73.046" x2="187.076" y2="74.268"/>
<path fill="#818181" d="M187.076,74.438c-0.064,0-0.127-0.035-0.152-0.102c-0.041-0.086,0-0.188,0.086-0.227l2.74-1.223
	c0.088-0.039,0.188,0,0.227,0.088c0.039,0.084,0,0.187-0.086,0.225l-2.742,1.225C187.125,74.436,187.104,74.438,187.076,74.438
	L187.076,74.438z"/>
<line fill="none" x1="30.241" y1="144.102" x2="27.497" y2="145.318"/>
<line fill="none" x1="30.241" y1="144.102" x2="27.497" y2="145.318"/>
<path fill="#818181" d="M27.497,145.49c-0.066,0-0.127-0.038-0.156-0.104c-0.039-0.089,0-0.189,0.086-0.23l2.744-1.219
	c0.088-0.039,0.188,0,0.225,0.088c0.039,0.088,0,0.188-0.086,0.228l-2.74,1.222C27.545,145.484,27.521,145.49,27.497,145.49
	L27.497,145.49z"/>
<line fill="none" x1="193.154" y1="81.729" x2="190.299" y2="82.654"/>
<line fill="none" x1="193.154" y1="81.729" x2="190.299" y2="82.654"/>
<path fill="#818181" d="M190.299,82.828c-0.074,0-0.141-0.046-0.164-0.118c-0.027-0.09,0.021-0.188,0.111-0.217l2.855-0.929
	c0.086-0.029,0.184,0.018,0.213,0.109c0.029,0.09-0.021,0.188-0.107,0.215l-2.854,0.93
	C190.334,82.825,190.314,82.828,190.299,82.828L190.299,82.828z"/>
<line fill="none" x1="27.021" y1="135.713" x2="24.165" y2="136.637"/>
<line fill="none" x1="27.021" y1="135.713" x2="24.165" y2="136.637"/>
<path fill="#818181" d="M24.165,136.809c-0.072,0-0.139-0.045-0.164-0.119c-0.027-0.09,0.023-0.188,0.111-0.217l2.854-0.924
	c0.088-0.027,0.188,0.021,0.215,0.111c0.029,0.087-0.02,0.186-0.108,0.212l-2.854,0.927C24.2,136.807,24.183,136.809,24.165,136.809
	L24.165,136.809z"/>
<line fill="none" x1="195.561" y1="90.706" x2="192.625" y2="91.336"/>
<line fill="none" x1="195.561" y1="90.706" x2="192.625" y2="91.336"/>
<path fill="#818181" d="M192.625,91.507c-0.08,0-0.152-0.054-0.168-0.135c-0.02-0.095,0.037-0.187,0.129-0.208l2.941-0.624
	c0.096-0.017,0.182,0.041,0.199,0.134c0.021,0.092-0.037,0.184-0.133,0.2l-2.938,0.626
	C192.648,91.506,192.637,91.507,192.625,91.507L192.625,91.507z"/>
<line fill="none" x1="24.691" y1="127.031" x2="21.76" y2="127.652"/>
<line fill="none" x1="24.691" y1="127.031" x2="21.76" y2="127.652"/>
<path fill="#818181" d="M21.76,127.825c-0.082,0-0.149-0.056-0.168-0.136c-0.02-0.094,0.039-0.188,0.131-0.203l2.935-0.621
	c0.098-0.018,0.186,0.039,0.203,0.132c0.021,0.093-0.037,0.185-0.129,0.203l-2.938,0.622
	C21.781,127.824,21.771,127.825,21.76,127.825L21.76,127.825z"/>
<line fill="none" x1="197.016" y1="99.895" x2="194.029" y2="100.211"/>
<line fill="none" x1="197.016" y1="99.895" x2="194.029" y2="100.211"/>
<path fill="#818181" d="M194.029,100.381c-0.086,0-0.162-0.064-0.17-0.152c-0.01-0.094,0.059-0.179,0.15-0.188l2.982-0.315
	c0.094-0.009,0.182,0.06,0.188,0.148c0.006,0.098-0.059,0.184-0.148,0.191l-2.986,0.314
	C194.041,100.381,194.035,100.381,194.029,100.381L194.029,100.381z"/>
<line fill="none" x1="23.288" y1="118.159" x2="20.306" y2="118.469"/>
<line fill="none" x1="23.288" y1="118.159" x2="20.306" y2="118.469"/>
<path fill="#818181" d="M20.306,118.643c-0.086,0-0.164-0.063-0.172-0.154c-0.008-0.094,0.06-0.178,0.154-0.188l2.982-0.311
	c0.1-0.01,0.182,0.059,0.189,0.152c0.008,0.094-0.061,0.18-0.154,0.188l-2.983,0.313C20.316,118.641,20.312,118.643,20.306,118.643
	L20.306,118.643z"/>
<line fill="none" x1="197.016" y1="118.469" x2="194.031" y2="118.156"/>
<line fill="none" x1="197.016" y1="118.469" x2="194.031" y2="118.156"/>
<path fill="#818181" d="M197.016,118.641c-0.008,0-0.012,0-0.02-0.002l-2.982-0.313c-0.096-0.01-0.162-0.096-0.152-0.188
	c0.01-0.1,0.102-0.158,0.188-0.154l2.986,0.313c0.094,0.012,0.158,0.096,0.152,0.188
	C197.178,118.575,197.102,118.641,197.016,118.641L197.016,118.641z"/>
<line fill="none" x1="23.286" y1="100.214" x2="20.306" y2="99.896"/>
<line fill="none" x1="23.286" y1="100.214" x2="20.306" y2="99.896"/>
<path fill="#818181" d="M23.286,100.385c-0.006,0-0.012-0.001-0.016-0.001l-2.984-0.315c-0.094-0.01-0.16-0.096-0.152-0.188
	c0.008-0.094,0.098-0.163,0.189-0.153l2.981,0.317c0.094,0.011,0.162,0.095,0.154,0.188
	C23.452,100.318,23.374,100.385,23.286,100.385L23.286,100.385z"/>
<line fill="none" x1="195.563" y1="127.652" x2="192.625" y2="127.029"/>
<line fill="none" x1="195.563" y1="127.652" x2="192.625" y2="127.029"/>
<path fill="#818181" d="M195.563,127.825c-0.014,0-0.021-0.001-0.033-0.003l-2.939-0.623c-0.09-0.02-0.146-0.112-0.129-0.204
	c0.021-0.093,0.105-0.151,0.203-0.134l2.938,0.625c0.094,0.017,0.149,0.109,0.131,0.203
	C195.711,127.77,195.641,127.825,195.563,127.825L195.563,127.825z"/>
<line fill="none" x1="24.691" y1="91.339" x2="21.76" y2="90.712"/>
<line fill="none" x1="24.691" y1="91.339" x2="21.76" y2="90.712"/>
<path fill="#818181" d="M24.691,91.51c-0.01,0-0.023-0.002-0.035-0.003l-2.935-0.627c-0.092-0.021-0.149-0.11-0.131-0.204
	c0.018-0.094,0.104-0.15,0.201-0.132l2.938,0.627c0.092,0.021,0.148,0.11,0.129,0.201C24.845,91.455,24.771,91.51,24.691,91.51
	L24.691,91.51z"/>
<line fill="none" x1="193.154" y1="136.637" x2="190.299" y2="135.706"/>
<line fill="none" x1="193.154" y1="136.637" x2="190.299" y2="135.706"/>
<path fill="#818181" d="M193.154,136.809c-0.018,0-0.033-0.002-0.053-0.01l-2.855-0.927c-0.09-0.028-0.137-0.127-0.109-0.216
	c0.029-0.09,0.125-0.137,0.217-0.11l2.855,0.927c0.09,0.027,0.139,0.127,0.109,0.217
	C193.295,136.764,193.227,136.809,193.154,136.809L193.154,136.809z"/>
<line fill="none" x1="27.017" y1="82.66" x2="24.165" y2="81.729"/>
<line fill="none" x1="27.017" y1="82.66" x2="24.165" y2="81.729"/>
<path fill="#818181" d="M27.017,82.831c-0.014,0-0.033-0.003-0.051-0.009l-2.852-0.932c-0.09-0.027-0.142-0.125-0.111-0.215
	c0.031-0.094,0.127-0.139,0.217-0.111l2.854,0.931c0.09,0.028,0.137,0.127,0.109,0.218C27.159,82.786,27.092,82.831,27.017,82.831
	L27.017,82.831z"/>
<line fill="none" x1="189.82" y1="145.318" x2="187.078" y2="144.1"/>
<line fill="none" x1="189.82" y1="145.318" x2="187.078" y2="144.1"/>
<path fill="#818181" d="M189.82,145.49c-0.021,0-0.045-0.006-0.068-0.016l-2.742-1.226c-0.086-0.036-0.125-0.14-0.086-0.228
	c0.037-0.088,0.137-0.125,0.225-0.088l2.742,1.225c0.088,0.035,0.127,0.14,0.088,0.229
	C189.949,145.452,189.887,145.49,189.82,145.49L189.82,145.49z"/>
<line fill="none" x1="30.241" y1="74.27" x2="27.497" y2="73.047"/>
<line fill="none" x1="30.241" y1="74.27" x2="27.497" y2="73.047"/>
<path fill="#818181" d="M30.241,74.441c-0.027,0-0.051-0.004-0.07-0.015l-2.742-1.224c-0.084-0.039-0.127-0.141-0.088-0.227
	c0.041-0.086,0.141-0.125,0.229-0.088l2.738,1.223c0.088,0.039,0.125,0.143,0.088,0.228C30.368,74.404,30.304,74.441,30.241,74.441
	L30.241,74.441z"/>
<line fill="none" x1="180.535" y1="161.402" x2="178.105" y2="159.639"/>
<line fill="none" x1="180.535" y1="161.402" x2="178.105" y2="159.639"/>
<path fill="#818181" d="M180.535,161.574c-0.035,0-0.07-0.01-0.102-0.03L178,159.779c-0.076-0.059-0.092-0.164-0.035-0.24
	s0.16-0.096,0.236-0.039l2.43,1.766c0.08,0.06,0.1,0.162,0.039,0.239C180.641,161.553,180.588,161.574,180.535,161.574
	L180.535,161.574z"/>
<line fill="none" x1="39.209" y1="58.729" x2="36.786" y2="56.962"/>
<line fill="none" x1="39.209" y1="58.729" x2="36.786" y2="56.962"/>
<path fill="#818181" d="M39.209,58.9c-0.033,0-0.07-0.012-0.1-0.033l-2.426-1.766c-0.074-0.057-0.094-0.166-0.039-0.24
	c0.057-0.075,0.164-0.094,0.24-0.036l2.428,1.766c0.076,0.056,0.094,0.163,0.037,0.239C39.316,58.873,39.265,58.9,39.209,58.9
	L39.209,58.9z"/>
<line fill="none" x1="174.684" y1="168.631" x2="172.451" y2="166.622"/>
<line fill="none" x1="174.684" y1="168.631" x2="172.451" y2="166.622"/>
<path fill="#818181" d="M174.684,168.801c-0.041,0-0.084-0.013-0.111-0.042l-2.23-2.012c-0.066-0.062-0.076-0.168-0.014-0.239
	c0.063-0.07,0.172-0.076,0.238-0.013l2.23,2.008c0.072,0.063,0.078,0.172,0.014,0.242
	C174.777,168.783,174.73,168.801,174.684,168.801L174.684,168.801z"/>
<line fill="none" x1="44.866" y1="51.747" x2="42.638" y2="49.734"/>
<line fill="none" x1="44.866" y1="51.747" x2="42.638" y2="49.734"/>
<path fill="#818181" d="M44.866,51.914c-0.041,0-0.082-0.014-0.115-0.042l-2.229-2.011c-0.07-0.063-0.078-0.172-0.012-0.241
	c0.062-0.07,0.172-0.076,0.24-0.013l2.23,2.009c0.068,0.065,0.074,0.173,0.014,0.243C44.958,51.896,44.911,51.914,44.866,51.914
	L44.866,51.914z"/>
<line fill="none" x1="168.105" y1="175.206" x2="166.098" y2="172.975"/>
<line fill="none" x1="168.105" y1="175.206" x2="166.098" y2="172.975"/>
<path fill="#818181" d="M168.105,175.379c-0.045,0-0.094-0.021-0.125-0.057l-2.012-2.232c-0.063-0.07-0.059-0.179,0.016-0.24
	c0.064-0.063,0.178-0.06,0.24,0.012l2.01,2.23c0.063,0.07,0.057,0.18-0.014,0.239C168.189,175.363,168.146,175.379,168.105,175.379
	L168.105,175.379z"/>
<line fill="none" x1="51.217" y1="45.393" x2="49.213" y2="43.159"/>
<line fill="none" x1="51.217" y1="45.393" x2="49.213" y2="43.159"/>
<path fill="#818181" d="M51.217,45.563c-0.045,0-0.094-0.018-0.125-0.057l-2.008-2.232c-0.063-0.07-0.057-0.18,0.012-0.241
	c0.072-0.064,0.18-0.06,0.244,0.014l2.008,2.231c0.062,0.07,0.056,0.179-0.016,0.242C51.299,45.551,51.26,45.563,51.217,45.563
	L51.217,45.563z"/>
<line fill="none" x1="160.881" y1="181.061" x2="159.115" y2="178.631"/>
<line fill="none" x1="160.881" y1="181.061" x2="159.115" y2="178.631"/>
<path fill="#818181" d="M160.881,181.23c-0.055,0-0.105-0.024-0.139-0.071l-1.766-2.429c-0.061-0.078-0.039-0.19,0.037-0.238
	c0.074-0.059,0.186-0.04,0.236,0.037l1.77,2.427c0.055,0.077,0.039,0.187-0.037,0.241
	C160.951,181.221,160.914,181.23,160.881,181.23L160.881,181.23z"/>
<line fill="none" x1="58.202" y1="39.736" x2="56.438" y2="37.309"/>
<line fill="none" x1="58.202" y1="39.736" x2="56.438" y2="37.309"/>
<path fill="#818181" d="M58.202,39.909c-0.053,0-0.104-0.024-0.137-0.069l-1.766-2.431c-0.053-0.078-0.039-0.185,0.039-0.24
	c0.076-0.056,0.184-0.039,0.242,0.037l1.758,2.435c0.057,0.073,0.041,0.183-0.035,0.233C58.271,39.898,58.234,39.909,58.202,39.909
	L58.202,39.909z"/>
<line fill="none" x1="144.793" y1="190.346" x2="143.574" y2="187.604"/>
<line fill="none" x1="144.793" y1="190.346" x2="143.574" y2="187.604"/>
<path fill="#818181" d="M144.793,190.518c-0.063,0-0.125-0.039-0.154-0.104l-1.221-2.741c-0.037-0.086,0-0.188,0.086-0.226
	c0.088-0.038,0.189,0,0.227,0.086l1.227,2.742c0.037,0.086-0.002,0.188-0.09,0.228C144.842,190.512,144.818,190.518,144.793,190.518
	L144.793,190.518z"/>
<line fill="none" x1="73.743" y1="30.766" x2="72.525" y2="28.021"/>
<line fill="none" x1="73.743" y1="30.766" x2="72.525" y2="28.021"/>
<path fill="#818181" d="M73.743,30.938c-0.066,0-0.129-0.037-0.156-0.106l-1.217-2.74c-0.039-0.087,0-0.187,0.086-0.225
	c0.084-0.041,0.188,0,0.227,0.086l1.219,2.745c0.037,0.085-0.002,0.186-0.09,0.225C73.79,30.934,73.767,30.938,73.743,30.938
	L73.743,30.938z"/>
<line fill="none" x1="136.113" y1="193.68" x2="135.186" y2="190.822"/>
<line fill="none" x1="136.113" y1="193.68" x2="135.186" y2="190.822"/>
<path fill="#818181" d="M136.113,193.852c-0.072,0-0.139-0.047-0.164-0.119l-0.928-2.854c-0.027-0.09,0.021-0.188,0.107-0.216
	c0.092-0.028,0.188,0.021,0.221,0.106l0.928,2.854c0.025,0.094-0.021,0.189-0.111,0.219
	C136.148,193.848,136.129,193.852,136.113,193.852L136.113,193.852z"/>
<line fill="none" x1="82.131" y1="27.545" x2="81.206" y2="24.688"/>
<line fill="none" x1="82.131" y1="27.545" x2="81.206" y2="24.688"/>
<path fill="#818181" d="M82.131,27.717c-0.072,0-0.139-0.048-0.164-0.119l-0.926-2.854c-0.027-0.091,0.021-0.188,0.113-0.218
	c0.088-0.028,0.186,0.021,0.217,0.111l0.926,2.855c0.025,0.089-0.023,0.188-0.113,0.214C82.167,27.715,82.146,27.717,82.131,27.717
	L82.131,27.717z"/>
<line fill="none" x1="127.131" y1="196.086" x2="126.506" y2="193.148"/>
<line fill="none" x1="127.131" y1="196.086" x2="126.506" y2="193.148"/>
<path fill="#818181" d="M127.131,196.257c-0.078,0-0.15-0.056-0.166-0.137l-0.625-2.935c-0.021-0.098,0.039-0.188,0.131-0.203
	c0.1-0.021,0.188,0.039,0.203,0.129l0.625,2.938c0.021,0.094-0.039,0.186-0.133,0.204
	C127.156,196.255,127.143,196.257,127.131,196.257L127.131,196.257z"/>
<line fill="none" x1="90.812" y1="25.221" x2="90.188" y2="22.284"/>
<line fill="none" x1="90.812" y1="25.221" x2="90.188" y2="22.284"/>
<path fill="#818181" d="M90.812,25.393c-0.08,0-0.152-0.062-0.166-0.138l-0.621-2.938c-0.021-0.09,0.037-0.183,0.127-0.2
	c0.1-0.021,0.186,0.038,0.205,0.131l0.621,2.937c0.02,0.092-0.039,0.185-0.131,0.205C90.834,25.391,90.822,25.393,90.812,25.393
	L90.812,25.393z"/>
<line fill="none" x1="117.945" y1="197.539" x2="117.633" y2="194.555"/>
<line fill="none" x1="117.945" y1="197.539" x2="117.633" y2="194.555"/>
<path fill="#818181" d="M117.945,197.712c-0.086,0-0.162-0.065-0.17-0.151l-0.314-2.984c-0.01-0.098,0.059-0.182,0.154-0.188
	c0.094-0.009,0.176,0.059,0.188,0.149l0.313,2.985c0.008,0.097-0.06,0.181-0.154,0.188c-0.004,0.001-0.012,0.001-0.012,0.001
	L117.945,197.712L117.945,197.712z"/>
<line fill="none" x1="99.685" y1="23.813" x2="99.374" y2="20.828"/>
<line fill="none" x1="99.685" y1="23.813" x2="99.374" y2="20.828"/>
<path fill="#818181" d="M99.685,23.984c-0.088,0-0.162-0.064-0.17-0.153l-0.313-2.983c-0.008-0.095,0.059-0.184,0.154-0.188
	c0.096-0.007,0.178,0.059,0.188,0.151l0.311,2.984c0.01,0.094-0.057,0.178-0.15,0.188c-0.008,0-0.014,0.002-0.014,0.002
	L99.685,23.984L99.685,23.984z"/>
<line fill="none" x1="99.372" y1="197.539" x2="99.687" y2="194.555"/>
<line fill="none" x1="99.372" y1="197.539" x2="99.687" y2="194.555"/>
<path fill="#818181" d="M99.372,197.712c0,0-0.012,0-0.016-0.001c-0.096-0.01-0.162-0.094-0.154-0.188l0.314-2.988
	c0.01-0.094,0.098-0.161,0.189-0.151c0.094,0.011,0.16,0.095,0.154,0.188l-0.316,2.986
	C99.534,197.646,99.459,197.712,99.372,197.712L99.372,197.712z"/>
<line fill="none" x1="117.631" y1="23.813" x2="117.945" y2="20.828"/>
<line fill="none" x1="117.631" y1="23.813" x2="117.945" y2="20.828"/>
<path fill="#818181" d="M117.631,23.984c-0.008,0-0.012-0.002-0.02-0.002c-0.094-0.01-0.16-0.094-0.152-0.188l0.316-2.984
	c0.008-0.094,0.096-0.158,0.188-0.151c0.094,0.005,0.162,0.095,0.154,0.188l-0.316,2.983
	C117.791,23.92,117.717,23.984,117.631,23.984L117.631,23.984z"/>
<line fill="none" x1="90.188" y1="196.087" x2="90.813" y2="193.148"/>
<line fill="none" x1="90.188" y1="196.087" x2="90.813" y2="193.148"/>
<path fill="#818181" d="M90.188,196.258c-0.012,0-0.023-0.002-0.037-0.004c-0.092-0.021-0.15-0.111-0.129-0.204l0.623-2.937
	c0.02-0.092,0.107-0.15,0.203-0.131c0.092,0.018,0.152,0.105,0.131,0.203l-0.623,2.937
	C90.338,196.201,90.267,196.258,90.188,196.258L90.188,196.258z"/>
<line fill="none" x1="126.506" y1="25.219" x2="127.131" y2="22.284"/>
<line fill="none" x1="126.506" y1="25.219" x2="127.131" y2="22.284"/>
<path fill="#818181" d="M126.506,25.391c-0.012,0-0.025,0-0.037-0.002c-0.092-0.021-0.148-0.113-0.131-0.205l0.625-2.937
	c0.02-0.093,0.105-0.151,0.201-0.131c0.096,0.019,0.154,0.11,0.133,0.2l-0.623,2.938C126.656,25.331,126.584,25.391,126.506,25.391
	L126.506,25.391z"/>
<line fill="none" x1="81.206" y1="193.68" x2="82.131" y2="190.822"/>
<line fill="none" x1="81.206" y1="193.68" x2="82.131" y2="190.822"/>
<path fill="#818181" d="M81.206,193.852c-0.018,0-0.035-0.004-0.053-0.011c-0.09-0.026-0.142-0.124-0.111-0.217l0.93-2.853
	c0.029-0.092,0.127-0.142,0.215-0.108c0.092,0.026,0.139,0.125,0.111,0.216l-0.928,2.854
	C81.345,193.805,81.277,193.852,81.206,193.852L81.206,193.852z"/>
<line fill="none" x1="135.182" y1="27.54" x2="136.113" y2="24.688"/>
<line fill="none" x1="135.182" y1="27.54" x2="136.113" y2="24.688"/>
<path fill="#818181" d="M135.182,27.716c-0.016,0-0.033-0.002-0.053-0.01c-0.088-0.026-0.137-0.125-0.107-0.213l0.932-2.854
	c0.025-0.091,0.127-0.142,0.217-0.111c0.09,0.031,0.143,0.129,0.105,0.217l-0.93,2.855
	C135.322,27.669,135.256,27.716,135.182,27.716L135.182,27.716z"/>
<line fill="none" x1="72.523" y1="190.348" x2="73.745" y2="187.604"/>
<line fill="none" x1="72.523" y1="190.348" x2="73.745" y2="187.604"/>
<path fill="#818181" d="M72.523,190.518c-0.025,0-0.047-0.006-0.068-0.014c-0.088-0.04-0.127-0.143-0.09-0.229l1.221-2.742
	c0.041-0.086,0.143-0.124,0.229-0.086c0.086,0.037,0.125,0.14,0.088,0.226l-1.224,2.741C72.65,190.479,72.59,190.518,72.523,190.518
	L72.523,190.518z"/>
<line fill="none" x1="143.572" y1="30.764" x2="144.793" y2="28.021"/>
<line fill="none" x1="143.572" y1="30.764" x2="144.793" y2="28.021"/>
<path fill="#818181" d="M143.572,30.938c-0.023,0-0.047-0.004-0.068-0.017c-0.088-0.04-0.127-0.14-0.088-0.228l1.223-2.741
	c0.037-0.086,0.141-0.124,0.229-0.086c0.088,0.038,0.125,0.141,0.088,0.228l-1.227,2.737
	C143.699,30.896,143.639,30.938,143.572,30.938L143.572,30.938z"/>
<line fill="none" x1="56.438" y1="181.061" x2="58.204" y2="178.631"/>
<line fill="none" x1="56.438" y1="181.061" x2="58.204" y2="178.631"/>
<path fill="#818181" d="M56.438,181.23c-0.033,0-0.07-0.01-0.102-0.033c-0.076-0.057-0.092-0.162-0.037-0.241l1.766-2.425
	c0.055-0.078,0.162-0.096,0.24-0.038c0.078,0.055,0.092,0.159,0.037,0.239l-1.764,2.43C56.543,181.206,56.493,181.23,56.438,181.23
	L56.438,181.23z"/>
<line fill="none" x1="159.113" y1="39.736" x2="160.879" y2="37.311"/>
<line fill="none" x1="159.113" y1="39.736" x2="160.879" y2="37.311"/>
<path fill="#818181" d="M159.113,39.907c-0.035,0-0.07-0.011-0.104-0.035c-0.074-0.054-0.096-0.161-0.035-0.235l1.766-2.431
	c0.055-0.076,0.162-0.093,0.24-0.037c0.074,0.056,0.094,0.162,0.035,0.24l-1.768,2.428
	C159.219,39.884,159.166,39.907,159.113,39.907L159.113,39.907z"/>
<line fill="none" x1="49.213" y1="175.206" x2="51.222" y2="172.977"/>
<line fill="none" x1="49.213" y1="175.206" x2="51.222" y2="172.977"/>
<path fill="#818181" d="M49.213,175.379c-0.043,0-0.084-0.016-0.117-0.048c-0.07-0.06-0.076-0.169-0.012-0.237l2.008-2.232
	c0.064-0.066,0.174-0.073,0.242-0.012c0.07,0.063,0.076,0.172,0.016,0.241l-2.014,2.231
	C49.306,175.357,49.258,175.379,49.213,175.379L49.213,175.379z"/>
<line fill="none" x1="166.096" y1="45.391" x2="168.105" y2="43.162"/>
<line fill="none" x1="166.096" y1="45.391" x2="168.105" y2="43.162"/>
<path fill="#818181" d="M166.096,45.563c-0.041,0-0.082-0.013-0.113-0.043c-0.066-0.063-0.072-0.172-0.014-0.242l2.01-2.229
	c0.064-0.07,0.17-0.078,0.242-0.012c0.068,0.063,0.076,0.169,0.014,0.24l-2.012,2.229C166.189,45.544,166.143,45.563,166.096,45.563
	L166.096,45.563z"/>
<line fill="none" x1="42.638" y1="168.632" x2="44.868" y2="166.622"/>
<line fill="none" x1="42.638" y1="168.632" x2="44.868" y2="166.622"/>
<path fill="#818181" d="M42.638,168.803c-0.049,0-0.096-0.02-0.129-0.058c-0.063-0.067-0.059-0.179,0.014-0.241l2.23-2.008
	c0.07-0.063,0.18-0.059,0.242,0.014c0.063,0.069,0.057,0.178-0.014,0.24l-2.232,2.01C42.717,168.789,42.676,168.803,42.638,168.803
	L42.638,168.803z"/>
<line fill="none" x1="172.451" y1="51.745" x2="174.68" y2="49.736"/>
<line fill="none" x1="172.451" y1="51.745" x2="174.68" y2="49.736"/>
<path fill="#818181" d="M172.451,51.914c-0.047,0-0.096-0.018-0.129-0.055c-0.064-0.07-0.059-0.18,0.012-0.243l2.232-2.007
	c0.068-0.063,0.18-0.06,0.242,0.013c0.063,0.069,0.059,0.179-0.018,0.243l-2.229,2.007C172.531,51.9,172.49,51.914,172.451,51.914
	L172.451,51.914z"/>
<line fill="none" x1="36.784" y1="161.404" x2="39.213" y2="159.641"/>
<line fill="none" x1="36.784" y1="161.404" x2="39.213" y2="159.641"/>
<path fill="#818181" d="M36.784,161.575c-0.053,0-0.105-0.022-0.139-0.069c-0.057-0.076-0.037-0.186,0.039-0.24l2.43-1.766
	c0.076-0.055,0.182-0.036,0.236,0.039c0.057,0.076,0.041,0.184-0.037,0.24l-2.428,1.765
	C36.854,161.566,36.818,161.575,36.784,161.575L36.784,161.575z"/>
<line fill="none" x1="178.104" y1="58.729" x2="180.533" y2="56.963"/>
<line fill="none" x1="178.104" y1="58.729" x2="180.533" y2="56.963"/>
<path fill="#818181" d="M178.104,58.898c-0.053,0-0.104-0.026-0.139-0.07c-0.055-0.078-0.041-0.186,0.039-0.238l2.43-1.765
	c0.074-0.058,0.188-0.039,0.238,0.036c0.055,0.078,0.039,0.187-0.037,0.24l-2.432,1.765
	C178.176,58.889,178.139,58.898,178.104,58.898L178.104,58.898z"/>
<line fill="none" x1="27.497" y1="145.32" x2="30.241" y2="144.1"/>
<line fill="none" x1="27.497" y1="145.32" x2="30.241" y2="144.1"/>
<path fill="#818181" d="M27.497,145.492c-0.066,0-0.127-0.039-0.158-0.104c-0.037-0.088,0.002-0.188,0.088-0.229l2.744-1.222
	c0.088-0.039,0.188,0,0.225,0.086c0.039,0.088,0,0.188-0.086,0.229l-2.742,1.225C27.543,145.486,27.521,145.492,27.497,145.492
	L27.497,145.492z"/>
<line fill="none" x1="187.076" y1="74.268" x2="189.82" y2="73.049"/>
<line fill="none" x1="187.076" y1="74.268" x2="189.82" y2="73.049"/>
<path fill="#818181" d="M187.076,74.438c-0.064,0-0.129-0.035-0.156-0.102c-0.037-0.086,0.004-0.188,0.088-0.227l2.742-1.221
	c0.088-0.037,0.189,0,0.227,0.088c0.039,0.086,0,0.188-0.086,0.226l-2.744,1.222C187.123,74.438,187.1,74.438,187.076,74.438
	L187.076,74.438z"/>
<line fill="none" x1="24.163" y1="136.639" x2="27.021" y2="135.711"/>
<line fill="none" x1="24.163" y1="136.639" x2="27.021" y2="135.711"/>
<path fill="#818181" d="M24.163,136.811c-0.072,0-0.137-0.045-0.162-0.121c-0.029-0.088,0.021-0.186,0.111-0.213l2.854-0.929
	c0.088-0.028,0.188,0.021,0.215,0.111c0.029,0.088-0.018,0.185-0.108,0.213l-2.857,0.928
	C24.2,136.807,24.183,136.811,24.163,136.811L24.163,136.811z"/>
<line fill="none" x1="190.297" y1="82.654" x2="193.152" y2="81.729"/>
<line fill="none" x1="190.297" y1="82.654" x2="193.152" y2="81.729"/>
<path fill="#818181" d="M190.297,82.828c-0.072,0-0.139-0.046-0.164-0.118c-0.029-0.09,0.021-0.188,0.111-0.217l2.854-0.927
	c0.09-0.028,0.188,0.021,0.217,0.11c0.029,0.091-0.021,0.188-0.107,0.216l-2.855,0.926
	C190.332,82.825,190.314,82.828,190.297,82.828L190.297,82.828z"/>
<line fill="none" x1="21.756" y1="127.656" x2="24.691" y2="127.031"/>
<line fill="none" x1="21.756" y1="127.656" x2="24.691" y2="127.031"/>
<path fill="#818181" d="M21.756,127.826c-0.078,0-0.15-0.055-0.166-0.135c-0.02-0.092,0.039-0.188,0.133-0.203l2.935-0.625
	c0.098-0.021,0.186,0.041,0.203,0.134c0.021,0.091-0.037,0.183-0.129,0.202l-2.938,0.623
	C21.781,127.825,21.769,127.826,21.756,127.826L21.756,127.826z"/>
<line fill="none" x1="192.623" y1="91.336" x2="195.559" y2="90.713"/>
<line fill="none" x1="192.623" y1="91.336" x2="195.559" y2="90.713"/>
<path fill="#818181" d="M192.623,91.507c-0.08,0-0.152-0.054-0.168-0.136c-0.02-0.094,0.039-0.186,0.129-0.207l2.939-0.619
	c0.096-0.02,0.184,0.037,0.203,0.132c0.021,0.093-0.039,0.185-0.133,0.202l-2.938,0.621
	C192.646,91.506,192.637,91.507,192.623,91.507L192.623,91.507z"/>
<line fill="none" x1="20.306" y1="118.473" x2="23.288" y2="118.156"/>
<line fill="none" x1="20.306" y1="118.473" x2="23.288" y2="118.156"/>
<path fill="#818181" d="M20.306,118.643c-0.088,0-0.166-0.063-0.172-0.15c-0.01-0.098,0.06-0.18,0.152-0.188l2.984-0.314
	c0.094-0.006,0.182,0.06,0.189,0.152c0.008,0.096-0.061,0.18-0.154,0.188l-2.983,0.313
	C20.316,118.643,20.312,118.643,20.306,118.643L20.306,118.643z"/>
<line fill="none" x1="194.027" y1="100.211" x2="197.012" y2="99.896"/>
<line fill="none" x1="194.027" y1="100.211" x2="197.012" y2="99.896"/>
<path fill="#818181" d="M194.027,100.381c-0.086,0-0.16-0.064-0.17-0.152c-0.012-0.094,0.059-0.179,0.152-0.188l2.982-0.313
	c0.094-0.008,0.18,0.061,0.188,0.153c0.01,0.093-0.061,0.179-0.152,0.188l-2.982,0.313
	C194.047,100.381,194.035,100.381,194.027,100.381L194.027,100.381z"/>
<line fill="none" x1="20.306" y1="99.896" x2="23.288" y2="100.211"/>
<line fill="none" x1="20.306" y1="99.896" x2="23.288" y2="100.211"/>
<path fill="#818181" d="M23.288,100.383c-0.008,0-0.012,0-0.018,0l-2.984-0.314c-0.094-0.01-0.162-0.096-0.152-0.188
	c0.008-0.095,0.098-0.16,0.188-0.152l2.983,0.312c0.094,0.013,0.162,0.099,0.154,0.188
	C23.452,100.316,23.374,100.383,23.288,100.383L23.288,100.383z"/>
<line fill="none" x1="194.029" y1="118.156" x2="197.012" y2="118.473"/>
<line fill="none" x1="194.029" y1="118.156" x2="197.012" y2="118.473"/>
<path fill="#818181" d="M197.012,118.643c0,0-0.01,0-0.016,0l-2.984-0.313c-0.096-0.014-0.162-0.098-0.154-0.188
	c0.014-0.096,0.1-0.156,0.189-0.152l2.984,0.314c0.094,0.012,0.162,0.094,0.154,0.188
	C197.176,118.577,197.1,118.643,197.012,118.643L197.012,118.643z"/>
<line fill="none" x1="21.756" y1="90.713" x2="24.691" y2="91.337"/>
<line fill="none" x1="21.756" y1="90.713" x2="24.691" y2="91.337"/>
<path fill="#818181" d="M24.691,91.508c-0.01,0-0.021-0.001-0.035-0.004l-2.935-0.624c-0.094-0.019-0.151-0.108-0.133-0.202
	c0.02-0.092,0.105-0.15,0.203-0.132l2.938,0.624c0.092,0.02,0.15,0.109,0.129,0.202C24.847,91.455,24.773,91.508,24.691,91.508
	L24.691,91.508z"/>
<line fill="none" x1="192.623" y1="127.029" x2="195.559" y2="127.656"/>
<line fill="none" x1="192.623" y1="127.029" x2="195.559" y2="127.656"/>
<path fill="#818181" d="M195.559,127.826c-0.01,0-0.021-0.001-0.035-0.004l-2.938-0.623c-0.092-0.02-0.148-0.112-0.131-0.204
	c0.02-0.093,0.107-0.151,0.203-0.134l2.938,0.627c0.092,0.02,0.152,0.111,0.131,0.205
	C195.711,127.771,195.639,127.826,195.559,127.826L195.559,127.826z"/>
<line fill="none" x1="24.163" y1="81.729" x2="27.021" y2="82.657"/>
<line fill="none" x1="24.163" y1="81.729" x2="27.021" y2="82.657"/>
<path fill="#818181" d="M27.021,82.828c-0.018,0-0.035-0.002-0.053-0.008l-2.854-0.93c-0.09-0.025-0.142-0.123-0.111-0.214
	c0.031-0.091,0.127-0.14,0.215-0.11l2.857,0.929c0.092,0.028,0.139,0.126,0.109,0.216C27.159,82.784,27.095,82.828,27.021,82.828
	L27.021,82.828z"/>
<line fill="none" x1="190.299" y1="135.706" x2="193.152" y2="136.639"/>
<line fill="none" x1="190.299" y1="135.706" x2="193.152" y2="136.639"/>
<path fill="#818181" d="M193.152,136.811c-0.021,0-0.037-0.004-0.053-0.011l-2.855-0.928c-0.09-0.031-0.139-0.127-0.109-0.216
	c0.029-0.09,0.127-0.137,0.217-0.11l2.855,0.929c0.09,0.029,0.141,0.125,0.107,0.215
	C193.289,136.766,193.225,136.811,193.152,136.811L193.152,136.811z"/>
<line fill="none" x1="27.497" y1="73.049" x2="30.241" y2="74.27"/>
<line fill="none" x1="27.497" y1="73.049" x2="30.241" y2="74.27"/>
<path fill="#818181" d="M30.241,74.439c-0.025,0-0.049-0.004-0.07-0.014l-2.744-1.223c-0.086-0.039-0.125-0.141-0.088-0.227
	c0.041-0.086,0.143-0.123,0.229-0.086l2.742,1.221c0.086,0.039,0.125,0.139,0.086,0.227C30.368,74.402,30.306,74.439,30.241,74.439
	L30.241,74.439z"/>
<line fill="none" x1="187.076" y1="144.1" x2="189.82" y2="145.32"/>
<line fill="none" x1="187.076" y1="144.1" x2="189.82" y2="145.32"/>
<path fill="#818181" d="M189.82,145.49c-0.023,0-0.049-0.004-0.072-0.014l-2.738-1.228c-0.086-0.036-0.127-0.142-0.086-0.228
	c0.037-0.088,0.137-0.125,0.223-0.088l2.744,1.225c0.086,0.039,0.123,0.142,0.086,0.229
	C189.947,145.453,189.885,145.49,189.82,145.49L189.82,145.49z"/>
<line fill="none" x1="36.784" y1="56.963" x2="39.211" y2="58.729"/>
<line fill="none" x1="36.784" y1="56.963" x2="39.211" y2="58.729"/>
<path fill="#818181" d="M39.211,58.898c-0.035,0-0.07-0.01-0.1-0.032l-2.428-1.765c-0.076-0.056-0.096-0.164-0.039-0.24
	c0.057-0.075,0.164-0.094,0.24-0.036l2.428,1.765c0.078,0.057,0.094,0.16,0.037,0.238C39.316,58.873,39.265,58.898,39.211,58.898
	L39.211,58.898z"/>
<line fill="none" x1="178.105" y1="159.639" x2="180.531" y2="161.402"/>
<line fill="none" x1="178.105" y1="159.639" x2="180.531" y2="161.402"/>
<path fill="#818181" d="M180.531,161.575c-0.033,0-0.068-0.011-0.102-0.031l-2.43-1.767c-0.078-0.057-0.094-0.162-0.037-0.238
	c0.059-0.077,0.158-0.096,0.238-0.042l2.43,1.769c0.076,0.059,0.096,0.162,0.037,0.24
	C180.639,161.553,180.584,161.575,180.531,161.575L180.531,161.575z"/>
<line fill="none" x1="42.638" y1="49.736" x2="44.866" y2="51.747"/>
<line fill="none" x1="42.638" y1="49.736" x2="44.866" y2="51.747"/>
<path fill="#818181" d="M44.866,51.914c-0.039,0-0.08-0.012-0.113-0.042l-2.23-2.009c-0.072-0.063-0.078-0.172-0.014-0.242
	c0.062-0.07,0.172-0.076,0.24-0.012l2.232,2.007c0.068,0.065,0.076,0.173,0.014,0.243C44.959,51.896,44.913,51.914,44.866,51.914
	L44.866,51.914z"/>
<line fill="none" x1="172.451" y1="166.622" x2="174.68" y2="168.632"/>
<line fill="none" x1="172.451" y1="166.622" x2="174.68" y2="168.632"/>
<path fill="#818181" d="M174.68,168.803c-0.039,0-0.082-0.014-0.113-0.044l-2.229-2.012c-0.07-0.062-0.078-0.169-0.014-0.239
	c0.063-0.072,0.172-0.078,0.242-0.013l2.227,2.009c0.074,0.063,0.078,0.174,0.016,0.241
	C174.773,168.783,174.729,168.803,174.68,168.803L174.68,168.803z"/>
<line fill="none" x1="49.213" y1="43.162" x2="51.22" y2="45.391"/>
<line fill="none" x1="49.213" y1="43.162" x2="51.22" y2="45.391"/>
<path fill="#818181" d="M51.22,45.563c-0.045,0-0.094-0.017-0.127-0.056l-2.008-2.229c-0.064-0.071-0.059-0.18,0.012-0.241
	c0.07-0.067,0.178-0.06,0.24,0.012l2.012,2.229c0.061,0.07,0.057,0.179-0.016,0.24C51.301,45.55,51.26,45.563,51.22,45.563
	L51.22,45.563z"/>
<line fill="none" x1="166.098" y1="172.975" x2="168.104" y2="175.206"/>
<line fill="none" x1="166.098" y1="172.975" x2="168.104" y2="175.206"/>
<path fill="#818181" d="M168.104,175.379c-0.045,0-0.094-0.021-0.125-0.059l-2.008-2.231c-0.063-0.069-0.059-0.179,0.012-0.239
	c0.07-0.063,0.184-0.06,0.242,0.012l2.008,2.23c0.064,0.07,0.059,0.18-0.012,0.239C168.184,175.363,168.146,175.379,168.104,175.379
	L168.104,175.379z"/>
<line fill="none" x1="56.438" y1="37.311" x2="58.202" y2="39.736"/>
<line fill="none" x1="56.438" y1="37.311" x2="58.202" y2="39.736"/>
<path fill="#818181" d="M58.202,39.908c-0.053,0-0.104-0.024-0.137-0.07l-1.766-2.428c-0.055-0.079-0.039-0.186,0.039-0.24
	c0.074-0.057,0.182-0.039,0.24,0.036l1.764,2.433c0.055,0.074,0.039,0.185-0.039,0.233C58.271,39.896,58.236,39.908,58.202,39.908
	L58.202,39.908z"/>
<line fill="none" x1="159.115" y1="178.63" x2="160.879" y2="181.061"/>
<line fill="none" x1="159.115" y1="178.63" x2="160.879" y2="181.061"/>
<path fill="#818181" d="M160.879,181.23c-0.053,0-0.105-0.025-0.139-0.071l-1.764-2.429c-0.061-0.078-0.041-0.19,0.037-0.238
	c0.074-0.059,0.186-0.04,0.236,0.035l1.764,2.429c0.059,0.077,0.041,0.187-0.033,0.239
	C160.949,181.221,160.914,181.23,160.879,181.23L160.879,181.23z"/>
<line fill="none" x1="72.523" y1="28.021" x2="73.745" y2="30.766"/>
<line fill="none" x1="72.523" y1="28.021" x2="73.745" y2="30.766"/>
<path fill="#818181" d="M73.745,30.938c-0.066,0-0.129-0.041-0.158-0.106l-1.221-2.74c-0.037-0.084,0-0.187,0.088-0.225
	c0.086-0.041,0.186,0,0.225,0.086l1.224,2.743c0.037,0.086,0,0.188-0.088,0.226C73.792,30.932,73.769,30.938,73.745,30.938
	L73.745,30.938z"/>
<line fill="none" x1="143.572" y1="187.604" x2="144.793" y2="190.346"/>
<line fill="none" x1="143.572" y1="187.604" x2="144.793" y2="190.346"/>
<path fill="#818181" d="M144.793,190.518c-0.064,0-0.127-0.039-0.156-0.104l-1.221-2.741c-0.039-0.087,0.002-0.188,0.088-0.228
	c0.088-0.037,0.188,0,0.227,0.088l1.225,2.742c0.035,0.086,0,0.187-0.09,0.228C144.84,190.512,144.816,190.518,144.793,190.518
	L144.793,190.518z"/>
<line fill="none" x1="81.206" y1="24.688" x2="82.131" y2="27.544"/>
<line fill="none" x1="81.206" y1="24.688" x2="82.131" y2="27.544"/>
<path fill="#818181" d="M82.131,27.717c-0.072,0-0.137-0.048-0.162-0.119l-0.928-2.854c-0.029-0.091,0.02-0.188,0.109-0.218
	c0.09-0.028,0.188,0.021,0.217,0.111l0.93,2.855c0.027,0.089-0.021,0.188-0.113,0.214C82.167,27.714,82.15,27.717,82.131,27.717
	L82.131,27.717z"/>
<line fill="none" x1="135.186" y1="190.82" x2="136.113" y2="193.678"/>
<line fill="none" x1="135.186" y1="190.82" x2="136.113" y2="193.678"/>
<path fill="#818181" d="M136.113,193.85c-0.074,0-0.143-0.045-0.164-0.119l-0.928-2.855c-0.029-0.087,0.021-0.186,0.107-0.213
	c0.09-0.027,0.188,0.021,0.217,0.107l0.93,2.854c0.027,0.093-0.021,0.189-0.109,0.217
	C136.146,193.848,136.129,193.85,136.113,193.85L136.113,193.85z"/>
<line fill="none" x1="90.187" y1="22.283" x2="90.813" y2="25.219"/>
<line fill="none" x1="90.187" y1="22.283" x2="90.813" y2="25.219"/>
<path fill="#818181" d="M90.813,25.391c-0.08,0-0.152-0.06-0.168-0.136l-0.625-2.938c-0.02-0.09,0.039-0.183,0.131-0.2
	c0.098-0.021,0.186,0.038,0.203,0.131l0.625,2.937c0.02,0.092-0.039,0.185-0.131,0.205C90.834,25.391,90.822,25.391,90.813,25.391
	L90.813,25.391z"/>
<line fill="none" x1="126.506" y1="193.146" x2="127.131" y2="196.086"/>
<line fill="none" x1="126.506" y1="193.146" x2="127.131" y2="196.086"/>
<path fill="#818181" d="M127.131,196.256c-0.08,0-0.152-0.056-0.168-0.137l-0.623-2.936c-0.021-0.097,0.037-0.188,0.131-0.203
	c0.096-0.021,0.186,0.039,0.203,0.131l0.623,2.938c0.021,0.092-0.039,0.184-0.133,0.201
	C127.154,196.254,127.141,196.256,127.131,196.256L127.131,196.256z"/>
<line fill="none" x1="99.37" y1="20.828" x2="99.687" y2="23.813"/>
<line fill="none" x1="99.37" y1="20.828" x2="99.687" y2="23.813"/>
<path fill="#818181" d="M99.687,23.982c-0.088,0-0.162-0.063-0.17-0.151l-0.316-2.983c-0.006-0.095,0.061-0.184,0.154-0.189
	c0.094-0.006,0.18,0.06,0.188,0.152l0.314,2.984c0.01,0.096-0.059,0.18-0.15,0.188C99.706,23.982,99.691,23.982,99.687,23.982
	L99.687,23.982z"/>
<line fill="none" x1="117.631" y1="194.555" x2="117.945" y2="197.538"/>
<line fill="none" x1="117.631" y1="194.555" x2="117.945" y2="197.538"/>
<path fill="#818181" d="M117.945,197.71c-0.088,0-0.162-0.063-0.17-0.151l-0.314-2.982c-0.01-0.098,0.059-0.182,0.152-0.188
	c0.096-0.016,0.178,0.059,0.188,0.149l0.314,2.985c0.008,0.095-0.063,0.179-0.154,0.188c-0.004,0-0.014,0-0.014,0L117.945,197.71
	L117.945,197.71z"/>
<path fill="#818181" d="M152.297,32.438L151.385,34c0.078,0.039,0.217,0.116,0.414,0.23c0.627,0.367,1.012,0.81,1.152,1.34
	c0.143,0.527,0.029,1.107-0.34,1.74c-0.42,0.719-0.916,1.146-1.486,1.285c-0.57,0.135-1.234-0.018-1.99-0.459
	c-0.43-0.25-0.854-0.582-1.271-0.996l0.436-0.742l0.008,0.004c0.439,0.44,0.801,0.744,1.08,0.908
	c0.424,0.248,0.799,0.319,1.127,0.219c0.328-0.1,0.631-0.387,0.904-0.859c0.242-0.416,0.313-0.796,0.215-1.133
	c-0.102-0.339-0.373-0.639-0.814-0.896c-0.309-0.18-0.623-0.345-0.947-0.498l1.783-3.061l3.248,1.898l-0.424,0.726L152.297,32.438z"
	/>
<path fill="#818181" d="M180.662,67.354l-0.68,0.387l-2.133-3.747l0.68-0.386l0.76,1.332l4.734-2.694l-1.063-1.158l0.679-0.387
	l1.655,1.534l0.351,0.615l-5.699,3.244L180.662,67.354z"/>
<path fill="#818181" d="M188.047,67.032c0.373,0.653,0.422,1.278,0.146,1.877c-0.273,0.598-0.998,1.229-2.172,1.897
	c-1.287,0.733-2.26,1.063-2.91,0.983c-0.65-0.076-1.164-0.442-1.539-1.104c-0.328-0.576-0.424-1.1-0.285-1.565
	c0.137-0.468,0.414-0.88,0.83-1.233c0.416-0.354,0.955-0.723,1.617-1.098c1.15-0.656,2.063-0.947,2.73-0.876
	C187.139,65.986,187.664,66.357,188.047,67.032z M182.271,70.279c0.164,0.287,0.445,0.406,0.848,0.357
	c0.398-0.051,1.145-0.387,2.234-1.005c1.045-0.595,1.676-1.046,1.891-1.353c0.213-0.305,0.24-0.598,0.082-0.877
	c-0.146-0.256-0.354-0.385-0.625-0.389c-0.273-0.005-0.58,0.067-0.928,0.229c-0.348,0.158-0.803,0.398-1.369,0.722
	c-1.121,0.638-1.799,1.111-2.029,1.419C182.143,69.691,182.107,69.991,182.271,70.279z"/>
<path fill="#818181" d="M180.184,150.641l-0.73-0.43l2.191-3.762l0.461,0.27c0.438,0.256,0.783,0.559,1.035,0.905
	c0.25,0.354,0.436,0.707,0.543,1.071c0.111,0.363,0.211,0.799,0.299,1.305c0.105,0.609,0.225,1.021,0.35,1.238
	s0.281,0.379,0.467,0.486c0.326,0.188,0.623,0.248,0.889,0.17c0.268-0.076,0.5-0.287,0.699-0.633
	c0.217-0.365,0.379-0.863,0.494-1.494l0.004-0.011l0.752,0.438c-0.146,0.646-0.371,1.228-0.674,1.744
	c-0.373,0.64-0.795,1.041-1.271,1.211c-0.473,0.168-0.98,0.095-1.525-0.225c-0.309-0.181-0.563-0.432-0.771-0.754
	c-0.213-0.32-0.387-0.896-0.525-1.72c-0.082-0.462-0.158-0.832-0.23-1.104c-0.072-0.277-0.178-0.535-0.316-0.777
	c-0.143-0.24-0.332-0.439-0.574-0.598L180.184,150.641z"/>
<path fill="#818181" d="M184.033,156.956c-0.379,0.649-0.896,1.006-1.551,1.069c-0.654,0.063-1.564-0.248-2.73-0.928
	c-1.281-0.746-2.051-1.425-2.313-2.023c-0.262-0.604-0.199-1.23,0.184-1.887c0.334-0.574,0.738-0.918,1.213-1.033
	s0.969-0.082,1.484,0.101c0.518,0.183,1.104,0.466,1.762,0.849c1.145,0.668,1.854,1.312,2.127,1.926
	C184.482,155.645,184.424,156.287,184.033,156.956z M178.328,153.588c-0.168,0.284-0.129,0.59,0.113,0.912
	c0.244,0.32,0.908,0.797,1.988,1.43c1.041,0.606,1.746,0.926,2.117,0.959c0.371,0.031,0.641-0.092,0.803-0.369
	c0.146-0.254,0.154-0.5,0.021-0.733c-0.135-0.238-0.354-0.47-0.662-0.688c-0.313-0.225-0.746-0.494-1.313-0.824
	c-1.112-0.65-1.86-0.998-2.246-1.043C178.771,153.182,178.496,153.301,178.328,153.588z"/>
<path fill="#818181" d="M150.271,181.025l-0.42-0.737l3.783-2.154l0.266,0.462c0.25,0.441,0.396,0.877,0.438,1.307
	c0.041,0.43,0.021,0.83-0.064,1.197c-0.086,0.371-0.219,0.795-0.396,1.279c-0.215,0.577-0.318,0.993-0.318,1.243
	s0.053,0.47,0.156,0.657c0.188,0.328,0.416,0.525,0.686,0.591c0.27,0.067,0.576,0.001,0.924-0.196
	c0.369-0.21,0.76-0.559,1.176-1.046l0.008-0.006l0.43,0.757c-0.447,0.484-0.936,0.875-1.455,1.172
	c-0.643,0.363-1.211,0.502-1.703,0.411c-0.492-0.092-0.896-0.412-1.209-0.962c-0.178-0.307-0.271-0.652-0.295-1.037
	c-0.021-0.384,0.115-0.968,0.406-1.752c0.162-0.439,0.281-0.798,0.355-1.072c0.076-0.275,0.113-0.553,0.115-0.832
	c-0.002-0.279-0.066-0.548-0.197-0.807L150.271,181.025z"/>
<path fill="#818181" d="M150.576,187.286l-0.896-1.574c-0.072,0.05-0.209,0.13-0.406,0.242c-0.631,0.358-1.211,0.468-1.734,0.327
	c-0.529-0.143-0.979-0.531-1.336-1.168c-0.412-0.725-0.533-1.366-0.365-1.93c0.168-0.564,0.633-1.063,1.396-1.492
	c0.434-0.248,0.934-0.447,1.5-0.604l0.426,0.744l-0.008,0.008c-0.604,0.157-1.047,0.319-1.328,0.479
	c-0.426,0.242-0.676,0.529-0.754,0.863c-0.076,0.336,0.02,0.738,0.289,1.215c0.236,0.418,0.527,0.67,0.873,0.754
	c0.344,0.084,0.736-0.002,1.188-0.256c0.307-0.176,0.609-0.367,0.904-0.57l1.75,3.074l-3.27,1.858l-0.412-0.729L150.576,187.286z"/>
<path fill="#818181" d="M68.852,185.211c-0.826-0.482-1.392-0.699-1.695-0.65c-0.304,0.049-0.558,0.248-0.761,0.6
	c-0.179,0.306-0.231,0.585-0.157,0.835c0.074,0.25,0.273,0.472,0.601,0.659c0.287,0.17,0.732,0.332,1.335,0.492l0.009,0.004
	l-0.433,0.742c-0.606-0.176-1.122-0.39-1.549-0.639c-0.644-0.376-1.052-0.787-1.225-1.234c-0.172-0.445-0.107-0.931,0.194-1.444
	c0.208-0.356,0.484-0.606,0.829-0.755c0.343-0.143,0.728-0.16,1.153-0.059c-0.354-0.3-0.559-0.641-0.616-1.021
	c-0.058-0.383,0.028-0.771,0.256-1.158c0.375-0.646,0.845-1.02,1.409-1.121c0.563-0.104,1.22,0.063,1.97,0.503
	c0.45,0.267,0.873,0.601,1.268,1.009l-0.428,0.731l-0.008-0.009c-0.471-0.459-0.865-0.78-1.183-0.967
	c-0.383-0.224-0.727-0.295-1.031-0.215c-0.305,0.082-0.57,0.313-0.794,0.699c-0.241,0.409-0.299,0.775-0.174,1.092
	c0.125,0.314,0.605,0.715,1.44,1.202L68.852,185.211z"/>
<path fill="#818181" d="M62.112,183.807l0.913-1.563c-0.08-0.038-0.217-0.115-0.414-0.229c-0.627-0.365-1.013-0.813-1.154-1.343
	c-0.143-0.524-0.029-1.104,0.34-1.737c0.42-0.723,0.915-1.147,1.487-1.285c0.571-0.135,1.235,0.016,1.991,0.459
	c0.43,0.252,0.854,0.584,1.273,0.996l-0.433,0.744l-0.008-0.008c-0.44-0.439-0.8-0.742-1.082-0.906
	c-0.421-0.246-0.796-0.318-1.125-0.22c-0.328,0.103-0.629,0.39-0.905,0.858c-0.243,0.416-0.314,0.794-0.215,1.133
	c0.1,0.34,0.373,0.641,0.815,0.896c0.308,0.181,0.623,0.347,0.948,0.498l-1.784,3.058l-3.248-1.896l0.423-0.728L62.112,183.807z"/>
<path fill="#818181" d="M35.021,150.684l0.73-0.414l0.372,0.652l1.392-0.792l0.652,1.146l-1.393,0.793l1.449,2.549l-0.695,0.396
	l-4.388-0.141l-1.374-0.043l-0.613-1.079l4.239-2.411L35.021,150.684z M36.991,154.143l-0.944-1.658l-2.788,1.586L36.991,154.143z"
	/>
<path fill="#818181" d="M29.166,150.331c-0.372-0.651-0.421-1.278-0.147-1.876s0.998-1.23,2.172-1.898
	c1.288-0.73,2.257-1.062,2.91-0.981c0.652,0.073,1.166,0.44,1.541,1.104c0.328,0.574,0.424,1.1,0.285,1.565
	c-0.138,0.468-0.415,0.878-0.831,1.233c-0.416,0.354-0.955,0.721-1.617,1.098c-1.152,0.654-2.063,0.945-2.732,0.876
	C30.075,151.378,29.548,151.006,29.166,150.331z M34.939,147.081c-0.164-0.284-0.446-0.403-0.846-0.354
	c-0.401,0.051-1.146,0.385-2.235,1.006c-1.046,0.597-1.677,1.045-1.892,1.351c-0.213,0.31-0.241,0.604-0.081,0.881
	c0.146,0.255,0.354,0.388,0.625,0.392s0.581-0.072,0.926-0.231c0.345-0.155,0.802-0.396,1.371-0.72
	c1.12-0.639,1.797-1.112,2.029-1.42C35.069,147.672,35.104,147.372,34.939,147.081z"/>
<path fill="#818181" d="M23.939,107.463l0.84,0.002l-0.002,0.752l1.602,0.004l-0.003,1.318l-1.602-0.004l-0.007,2.93l-0.801-0.002
	l-3.739-2.299l-1.171-0.721l0.003-1.239l4.878,0.012L23.939,107.463z M23.932,111.443l0.004-1.91l-3.208-0.008L23.932,111.443z"/>
<path fill="#818181" d="M19.947,104.934l1.812,0.004c-0.007-0.088-0.01-0.246-0.009-0.475c0.001-0.727,0.195-1.283,0.58-1.673
	c0.385-0.386,0.943-0.58,1.676-0.578c0.833,0.002,1.452,0.216,1.857,0.642c0.403,0.426,0.604,1.078,0.603,1.953
	c-0.001,0.498-0.076,1.032-0.224,1.602l-0.859-0.002v-0.01c0.16-0.603,0.242-1.065,0.242-1.392c0.002-0.487-0.124-0.849-0.376-1.083
	c-0.251-0.232-0.65-0.352-1.197-0.352c-0.48-0.002-0.844,0.125-1.088,0.383c-0.243,0.257-0.365,0.643-0.366,1.156
	c-0.001,0.354,0.016,0.711,0.046,1.068l-3.54-0.008l0.01-3.76l0.84,0.002L19.947,104.934z"/>
<path fill="#818181" d="M192.402,108.758l-0.781-0.002l0.012-4.313l0.781,0.002l-0.004,1.533l5.447,0.015l-0.35-1.537l0.781,0.004
	l0.674,2.155l-0.002,0.708l-6.559-0.017V108.758z"/>
<path fill="#818181" d="M198.055,111.463l-1.811-0.007c0.006,0.09,0.01,0.247,0.008,0.476c0,0.729-0.195,1.283-0.58,1.672
	c-0.385,0.39-0.943,0.58-1.676,0.578c-0.832-0.002-1.451-0.215-1.857-0.642c-0.4-0.425-0.604-1.076-0.602-1.952
	c0-0.498,0.074-1.031,0.223-1.602l0.859,0.002v0.009c-0.16,0.604-0.242,1.067-0.242,1.394c-0.002,0.488,0.125,0.852,0.377,1.082
	c0.25,0.233,0.648,0.354,1.197,0.354c0.479,0.002,0.844-0.126,1.088-0.386c0.242-0.256,0.363-0.643,0.365-1.153
	c0-0.354-0.018-0.711-0.047-1.069l3.541,0.012l-0.012,3.76l-0.84-0.002L198.055,111.463z"/>
<path fill="#818181" d="M30.185,66.438l1.564,0.914c0.038-0.08,0.115-0.217,0.23-0.414c0.366-0.627,0.813-1.013,1.34-1.153
	c0.527-0.144,1.107-0.029,1.741,0.338c0.719,0.418,1.146,0.918,1.283,1.487c0.136,0.572-0.017,1.236-0.458,1.992
	c-0.251,0.43-0.583,0.854-0.997,1.271l-0.742-0.433l0.005-0.008c0.44-0.439,0.744-0.8,0.908-1.08
	c0.246-0.422,0.319-0.797,0.218-1.127c-0.101-0.328-0.388-0.629-0.859-0.904c-0.416-0.243-0.793-0.314-1.133-0.215
	c-0.339,0.101-0.638,0.373-0.896,0.815c-0.18,0.308-0.345,0.623-0.497,0.948l-3.058-1.787l1.895-3.245l0.726,0.423L30.185,66.438z"
	/>
<path fill="#818181" d="M32.548,60.563c0.379-0.648,0.896-1.004,1.551-1.067c0.654-0.063,1.565,0.247,2.731,0.927
	c1.28,0.747,2.05,1.421,2.312,2.023c0.26,0.604,0.199,1.231-0.184,1.886c-0.334,0.573-0.739,0.919-1.213,1.034
	c-0.475,0.115-0.969,0.082-1.484-0.102c-0.517-0.183-1.103-0.465-1.761-0.85c-1.145-0.667-1.854-1.309-2.127-1.926
	C32.1,61.872,32.158,61.232,32.548,60.563z M38.253,63.934c0.168-0.289,0.129-0.592-0.114-0.914c-0.243-0.32-0.907-0.797-1.99-1.43
	c-1.04-0.607-1.745-0.927-2.117-0.959C33.661,60.6,33.394,60.723,33.231,61c-0.147,0.254-0.155,0.5-0.022,0.736
	c0.133,0.238,0.354,0.467,0.662,0.688c0.31,0.221,0.746,0.495,1.312,0.823c1.113,0.651,1.862,1,2.245,1.043
	C37.812,64.34,38.086,64.221,38.253,63.934z"/>
<path fill="#818181" d="M62.02,33.284l0.896,1.573c0.073-0.049,0.208-0.129,0.407-0.241c0.631-0.359,1.21-0.468,1.738-0.327
	c0.527,0.141,0.973,0.529,1.335,1.167c0.412,0.724,0.534,1.367,0.366,1.931c-0.17,0.562-0.635,1.059-1.396,1.492
	c-0.433,0.244-0.933,0.447-1.501,0.602l-0.425-0.748l0.009-0.004c0.602-0.16,1.045-0.318,1.328-0.481
	c0.424-0.241,0.675-0.526,0.752-0.863c0.078-0.335-0.02-0.739-0.289-1.214c-0.238-0.42-0.529-0.67-0.873-0.756
	c-0.344-0.083-0.738,0.005-1.187,0.259c-0.309,0.175-0.608,0.366-0.905,0.571l-1.751-3.08l3.268-1.855l0.416,0.729L62.02,33.284z"/>
<path fill="#818181" d="M66.869,30.523l0.896,1.574c0.072-0.05,0.209-0.13,0.406-0.244c0.631-0.357,1.211-0.465,1.738-0.326
	c0.529,0.142,0.975,0.531,1.336,1.168c0.412,0.724,0.533,1.367,0.365,1.927c-0.169,0.563-0.634,1.063-1.396,1.497
	c-0.434,0.246-0.934,0.447-1.5,0.602l-0.426-0.748l0.008-0.004c0.603-0.158,1.046-0.318,1.328-0.48
	c0.425-0.241,0.676-0.528,0.753-0.866c0.077-0.332-0.019-0.735-0.289-1.21c-0.238-0.419-0.529-0.67-0.873-0.754
	c-0.343-0.083-0.738,0.002-1.186,0.256c-0.309,0.176-0.61,0.367-0.905,0.572l-1.75-3.077l3.268-1.859l0.414,0.729L66.869,30.523z"/>
<path fill="#818181" d="M112.979,196.258c-0.957-0.003-1.555,0.094-1.793,0.288c-0.236,0.194-0.354,0.494-0.355,0.897
	c0,0.354,0.094,0.621,0.283,0.802c0.188,0.179,0.475,0.271,0.852,0.271c0.332,0.002,0.801-0.08,1.402-0.246l0.01,0.002l-0.002,0.858
	c-0.611,0.151-1.166,0.228-1.66,0.226c-0.746-0.002-1.307-0.15-1.68-0.453c-0.373-0.301-0.561-0.75-0.558-1.35
	c0-0.412,0.113-0.769,0.337-1.066c0.229-0.297,0.551-0.506,0.971-0.629c-0.455-0.082-0.807-0.275-1.047-0.573
	c-0.24-0.306-0.361-0.683-0.359-1.134c0.002-0.746,0.219-1.305,0.654-1.678c0.436-0.371,1.088-0.559,1.957-0.554
	c0.521,0.001,1.055,0.078,1.602,0.233L113.589,193h-0.01c-0.64-0.159-1.142-0.24-1.509-0.24c-0.442-0.002-0.774,0.108-1,0.331
	c-0.225,0.224-0.336,0.558-0.338,1.003c0,0.479,0.134,0.82,0.397,1.028c0.269,0.209,0.884,0.317,1.851,0.319L112.979,196.258z"/>
<path fill="#818181" d="M105.761,199.341c-0.752-0.002-1.319-0.271-1.702-0.805c-0.383-0.536-0.572-1.479-0.569-2.83
	c0.004-1.479,0.201-2.483,0.591-3.013c0.391-0.529,0.965-0.791,1.723-0.789c0.664,0,1.165,0.177,1.502,0.531
	c0.338,0.352,0.559,0.797,0.659,1.334c0.101,0.537,0.151,1.187,0.149,1.949c-0.003,1.32-0.202,2.26-0.598,2.805
	C107.121,199.07,106.536,199.344,105.761,199.341z M105.811,192.715c-0.332-0.001-0.576,0.186-0.731,0.557
	c-0.156,0.373-0.235,1.188-0.238,2.439c-0.003,1.203,0.075,1.975,0.234,2.313c0.159,0.336,0.399,0.506,0.721,0.51
	c0.293,0.001,0.509-0.118,0.648-0.354c0.139-0.23,0.226-0.539,0.261-0.916c0.035-0.379,0.053-0.895,0.055-1.549
	c0.003-1.289-0.071-2.111-0.224-2.468C106.384,192.895,106.143,192.716,105.811,192.715z"/>
<path fill="#818181" d="M106.757,18.645c0.752,0.002,1.319,0.27,1.702,0.808c0.382,0.534,0.572,1.478,0.569,2.827
	c-0.005,1.482-0.2,2.486-0.591,3.016c-0.391,0.527-0.965,0.787-1.723,0.786c-0.664,0-1.165-0.177-1.502-0.526
	c-0.338-0.354-0.558-0.799-0.659-1.336c-0.101-0.537-0.15-1.187-0.148-1.947c0.003-1.326,0.202-2.262,0.598-2.808
	C105.397,18.914,105.982,18.645,106.757,18.645z M106.708,25.271c0.332,0,0.576-0.186,0.731-0.558
	c0.155-0.372,0.235-1.187,0.238-2.438c0.003-1.203-0.075-1.975-0.233-2.313c-0.159-0.339-0.399-0.507-0.722-0.507
	c-0.293,0-0.509,0.116-0.647,0.351c-0.139,0.233-0.227,0.539-0.261,0.918c-0.035,0.377-0.053,0.894-0.055,1.547
	c-0.003,1.289,0.071,2.11,0.224,2.467C106.133,25.092,106.375,25.271,106.708,25.271z"/>
<path fill="#818181" d="M112.338,18.658c0.752,0.002,1.32,0.27,1.703,0.805c0.383,0.534,0.572,1.479,0.568,2.827
	c-0.004,1.483-0.199,2.487-0.59,3.017c-0.393,0.524-0.967,0.791-1.727,0.789c-0.664,0-1.164-0.182-1.502-0.531
	c-0.338-0.353-0.561-0.797-0.658-1.334c-0.102-0.537-0.148-1.19-0.146-1.948c0.002-1.326,0.201-2.261,0.598-2.806
	C110.979,18.93,111.563,18.656,112.338,18.658z M112.289,25.284c0.332,0.001,0.574-0.185,0.73-0.558
	c0.154-0.373,0.232-1.187,0.236-2.438c0.002-1.207-0.076-1.976-0.232-2.313c-0.158-0.336-0.398-0.506-0.723-0.507
	c-0.293-0.001-0.51,0.113-0.646,0.351c-0.141,0.233-0.229,0.539-0.262,0.918c-0.035,0.377-0.055,0.894-0.057,1.548
	c-0.004,1.289,0.072,2.11,0.227,2.466C111.715,25.104,111.957,25.283,112.289,25.284z"/>
<path fill="#808080" d="M168.133,115.24c0.813,0.486,2.664,1.299,4.68,1.299c3.645,0,4.813-2.307,4.777-4.096
	c-0.033-2.959-2.697-4.228-5.461-4.228h-1.592v-2.145h1.592c2.08,0,4.713-1.072,4.713-3.575c0-1.688-1.072-3.185-3.705-3.185
	c-1.688,0-3.313,0.748-4.225,1.394l-0.779-2.077c1.137-0.813,3.281-1.625,5.557-1.625c4.16,0,6.045,2.471,6.045,5.036
	c0,2.21-1.33,4.065-3.896,5.007v0.064c2.604,0.488,4.686,2.438,4.713,5.396c0,3.383-2.664,6.34-7.703,6.34
	c-2.367,0-4.447-0.748-5.488-1.434L168.133,115.24z"/>
<polygon fill="#676767" points="69.437,42.469 68.24,40.408 69.972,39.404 71.167,41.465 "/>
<polygon fill="#676767" points="148.031,178.596 146.836,176.535 148.564,175.531 149.762,177.59 "/>
<polygon fill="#676767" points="108.002,31.6 107.997,29.219 109.996,29.213 110.002,31.596 "/>
<polygon fill="#676767" points="108.004,188.786 107.999,186.404 109.998,186.4 110.004,188.781 "/>
<polygon fill="#676767" points="148.568,42.467 146.836,41.469 148.023,39.404 149.758,40.402 "/>
<polygon fill="#676767" points="69.978,178.596 68.245,177.598 69.434,175.533 71.167,176.531 "/>
<polygon fill="#676767" points="176.533,71.164 175.533,69.434 177.594,68.241 178.596,69.973 "/>
<polygon fill="#676767" points="40.404,149.76 39.406,148.025 41.47,146.836 42.47,148.568 "/>
<polygon fill="#676767" points="188.785,110 186.402,110 186.402,108 188.785,108 "/>
<polygon fill="#676767" points="31.599,110 29.216,110 29.216,108 31.599,108 "/>
<polygon fill="#676767" points="177.596,149.758 175.533,148.566 176.531,146.831 178.596,148.025 "/>
<polygon fill="#676767" points="41.467,71.164 39.404,69.975 40.405,68.242 42.468,69.436 "/>
<polygon fill="#676767" points="108.002,31.6 107.997,29.219 109.996,29.213 110.002,31.596 "/>
<polygon fill="#676767" points="108.004,188.786 107.999,186.404 109.998,186.4 110.004,188.781 "/>
<polygon fill="#676767" points="148.568,42.467 146.836,41.469 148.023,39.404 149.758,40.402 "/>
<polygon fill="#676767" points="69.978,178.596 68.245,177.598 69.434,175.533 71.167,176.531 "/>
<polygon fill="#676767" points="176.533,71.164 175.533,69.434 177.594,68.241 178.596,69.973 "/>
<polygon fill="#676767" points="40.404,149.76 39.406,148.025 41.47,146.836 42.47,148.568 "/>
<polygon fill="#676767" points="188.785,110 186.402,110 186.402,108 188.785,108 "/>
<polygon fill="#676767" points="31.599,110 29.216,110 29.216,108 31.599,108 "/>
<polygon fill="#676767" points="177.596,149.758 175.533,148.566 176.531,146.831 178.596,148.025 "/>
<polygon fill="#676767" points="41.467,71.164 39.404,69.975 40.405,68.242 42.468,69.436 "/>
<polygon fill="#676767" points="148.027,178.596 146.836,176.533 148.566,175.531 149.76,177.594 "/>
<polygon fill="#676767" points="69.434,42.469 68.242,40.404 69.975,39.404 71.166,41.469 "/>
<polygon fill="#676767" points="148.568,42.467 146.836,41.469 148.023,39.404 149.758,40.402 "/>
<polygon fill="#676767" points="69.978,178.596 68.245,177.598 69.434,175.533 71.167,176.531 "/>
<polygon fill="#676767" points="176.533,71.164 175.533,69.434 177.594,68.241 178.596,69.973 "/>
<polygon fill="#676767" points="40.404,149.76 39.406,148.025 41.47,146.836 42.47,148.568 "/>
<polygon fill="#676767" points="188.785,110 186.402,110 186.402,108 188.785,108 "/>
<polygon fill="#676767" points="31.599,110 29.216,110 29.216,108 31.599,108 "/>
<polygon fill="#676767" points="177.596,149.758 175.533,148.566 176.531,146.831 178.596,148.025 "/>
<polygon fill="#676767" points="41.467,71.164 39.404,69.975 40.405,68.242 42.468,69.436 "/>
<polygon fill="#676767" points="148.027,178.596 146.836,176.533 148.566,175.531 149.76,177.594 "/>
<polygon fill="#676767" points="69.434,42.469 68.242,40.404 69.975,39.404 71.166,41.469 "/>
<polygon fill="#676767" points="110,188.784 108,188.784 108,186.402 110,186.402 "/>
<polygon fill="#676767" points="110,31.6 108,31.6 108,29.216 110,29.216 "/>
</svg>
