<?xml version="1.0" encoding="UTF-8"?>
<!DOCTYPE svg PUBLIC "-//W3C//DTD SVG 1.1 Tiny//EN" "http://www.w3.org/Graphics/SVG/1.1/DTD/svg11-tiny.dtd">
<svg baseProfile="tiny" height="218px" version="1.1" viewBox="0 0 218 218" width="218px" x="0px" xmlns="http://www.w3.org/2000/svg" xmlns:xlink="http://www.w3.org/1999/xlink" y="0px">
<polygon fill-opacity="0.4" points="104,124 104,61.5 109,57.75 114,61.5 114,124 "/>
<linearGradient gradientUnits="userSpaceOnUse" id="SVGID_1_" x1="105" x2="113" y1="91" y2="91">
<stop offset="0" style="stop-color:#4D4D4D"/>
<stop offset="0.5212" style="stop-color:#333333"/>
<stop offset="1" style="stop-color:#4D4D4D"/>
</linearGradient>
<polygon fill="url(#SVGID_1_)" points="113,123 105,123 105,62 109,59 113,62 "/>
<path d="M108.997,118c-4.961,0-8.997-4.035-8.997-9.003c0-4.957,4.036-8.997,8.997-8.997  c4.962,0,9.003,4.04,9.003,8.997C118,113.965,113.959,118,108.997,118L108.997,118z" fill-opacity="0.4" stroke-opacity="0.4"/>
<linearGradient gradientTransform="matrix(1 0 0 -1 -117.48 116.9805)" gradientUnits="userSpaceOnUse" id="SVGID_2_" x1="226.4805" x2="226.4805" y1="15.9805" y2="-0.0195">
<stop offset="0" style="stop-color:#9E9FA2"/>
<stop offset="1" style="stop-color:#000000"/>
</linearGradient>
<path d="M117.001,108.997c0,4.417-3.581,8.003-8.004,8.003c-4.415,0-7.996-3.586-7.996-8.003  c0-4.416,3.581-7.997,7.996-7.997C113.42,101,117.001,104.581,117.001,108.997z" fill="url(#SVGID_2_)"/>
<path d="M108.997,116c-3.858,0-6.998-3.141-6.998-7.003c0-3.857,3.14-6.997,6.998-6.997  c3.864,0,7.002,3.14,7.002,6.997C115.999,112.859,112.861,116,108.997,116L108.997,116z" fill="#E6E6E6"/>
<rect fill="none" height="218" width="218"/>
</svg>
