<?xml version="1.0" encoding="UTF-8"?>
<!DOCTYPE svg PUBLIC "-//W3C//DTD SVG 1.1 Tiny//EN" "http://www.w3.org/Graphics/SVG/1.1/DTD/svg11-tiny.dtd">
<svg baseProfile="tiny" version="1.1" xmlns="http://www.w3.org/2000/svg" xmlns:xlink="http://www.w3.org/1999/xlink" x="0px" y="0px" width="98px" height="98px" viewBox="0 0 98 98">
<linearGradient id="SVGID_1_" gradientUnits="userSpaceOnUse" x1="50.9189" y1="46.7383" x2="50.9189" y2="77.3273" gradientTransform="matrix(1 1.000000e-004 -1.000000e-004 1 -2.362 -29.0813)">
<stop offset="0" style="stop-color:#A6A8AB"/>
<stop offset="1" style="stop-color:#231F20"/>
</linearGradient>
<polygon fill-opacity="0.2" stroke-opacity="0.2" fill="url(#SVGID_1_)" points="8.539,45.168 30.738,45.176 30.758,17.66 66.072,17.664 66.082,45.203   88.559,45.207 48.346,86.49 "/>
<linearGradient id="SVGID_2_" gradientUnits="userSpaceOnUse" x1="50.9102" y1="48.5117" x2="50.9102" y2="76.6895" gradientTransform="matrix(1 1.000000e-004 -1.000000e-004 1 -2.362 -29.0813)">
<stop offset="0" style="stop-color:#7F8082"/>
<stop offset="1" style="stop-color:#000000"/>
</linearGradient>
<polygon fill-opacity="0.4" stroke-opacity="0.4" fill="url(#SVGID_2_)" points="12.131,46.691 32.27,46.697 32.283,19.184 64.553,19.188 64.563,46.727   84.949,46.73 48.352,84.305 "/>
<linearGradient id="SVGID_3_" gradientUnits="userSpaceOnUse" x1="50.9697" y1="48.3413" x2="50.9697" y2="107.9882" gradientTransform="matrix(1 1.000000e-004 -1.000000e-004 1 -2.362 -29.0813)">
<stop offset="0" style="stop-color:#45E8FF"/>
<stop offset="0.1455" style="stop-color:#45E8FF"/>
<stop offset="0.5576" style="stop-color:#30A4D5"/>
<stop offset="1" style="stop-color:#1347BA"/>
</linearGradient>
<polygon fill="url(#SVGID_3_)" points="16.996,46.771 48.355,79.5 80.203,46.732 63.039,46.727 63.027,19.936 33.807,19.934   33.807,46.77 "/>
<linearGradient id="SVGID_4_" gradientUnits="userSpaceOnUse" x1="48.4165" y1="19.9453" x2="48.4165" y2="19.9492">
<stop offset="0" style="stop-color:#B3FCFF"/>
<stop offset="0.4182" style="stop-color:#B3FCFF"/>
<stop offset="1" style="stop-color:#5FBAD8"/>
</linearGradient>
<line fill="url(#SVGID_4_)" x1="63.027" y1="19.949" x2="33.807" y2="19.945"/>
<linearGradient id="SVGID_5_" gradientUnits="userSpaceOnUse" x1="48.4165" y1="8.1895" x2="48.4165" y2="81.0683">
<stop offset="0" style="stop-color:#B3FCFF"/>
<stop offset="0.4182" style="stop-color:#B3FCFF"/>
<stop offset="1" style="stop-color:#5FBAD8"/>
</linearGradient>
<polygon fill="url(#SVGID_5_)" points="33.807,19.184 63.029,19.188 63.027,20.709 33.805,20.707 33.807,19.184 "/>
<linearGradient id="SVGID_6_" gradientUnits="userSpaceOnUse" x1="71.5557" y1="8.1895" x2="71.5557" y2="81.0683">
<stop offset="0" style="stop-color:#B3FCFF"/>
<stop offset="0.4182" style="stop-color:#B3FCFF"/>
<stop offset="1" style="stop-color:#5FBAD8"/>
</linearGradient>
<polygon fill="url(#SVGID_6_)" points="62.58,46.789 80.531,46.793 79.17,48.316 62.58,48.316 62.58,46.789 "/>
<linearGradient id="SVGID_7_" gradientUnits="userSpaceOnUse" x1="24.8906" y1="8.1895" x2="24.8906" y2="81.0684">
<stop offset="0" style="stop-color:#B3FCFF"/>
<stop offset="0.4182" style="stop-color:#B3FCFF"/>
<stop offset="1" style="stop-color:#5FBAD8"/>
</linearGradient>
<polygon fill="url(#SVGID_7_)" points="16,46.77 33.781,46.77 33.777,48.291 17.605,48.291 16,46.77 "/>
<polygon fill="#33AEDB" points="79.213,46.73 48.355,78.408 17.84,46.691 15.723,46.695 48.354,80.594 81.342,46.73 "/>
<rect fill="none" width="98" height="98"/>
<linearGradient id="SVGID_8_" gradientUnits="userSpaceOnUse" x1="65.5" y1="56.4053" x2="65.5" y2="92.0204">
<stop offset="0" style="stop-color:#A6A8AB"/>
<stop offset="1" style="stop-color:#231F20"/>
</linearGradient>
<path fill-opacity="0.2" stroke-opacity="0.2" fill="url(#SVGID_8_)" d="M59,91.5c-1.103,0-2-0.897-2-2v-13c0-1.103,0.897-2,2-2h13c1.103,0,2,0.897,2,2v13  c0,1.103-0.897,2-2,2H59z"/>
<linearGradient id="SVGID_9_" gradientUnits="userSpaceOnUse" x1="65.5" y1="56.584" x2="65.5" y2="91.4017">
<stop offset="0" style="stop-color:#A9AAAD"/>
<stop offset="1" style="stop-color:#000000"/>
</linearGradient>
<path fill-opacity="0.4" stroke-opacity="0.4" fill="url(#SVGID_9_)" d="M59,91c-0.827,0-1.5-0.673-1.5-1.5v-13c0-0.827,0.673-1.5,1.5-1.5h13  c0.827,0,1.5,0.673,1.5,1.5v13c0,0.827-0.673,1.5-1.5,1.5H59z"/>
<linearGradient id="SVGID_10_" gradientUnits="userSpaceOnUse" x1="65.5" y1="75" x2="65.5" y2="90.3335">
<stop offset="0" style="stop-color:#E9F0F2"/>
<stop offset="0.0424" style="stop-color:#E9F0F2"/>
<stop offset="0.3152" style="stop-color:#BDC2C4"/>
<stop offset="0.6727" style="stop-color:#949DA1"/>
<stop offset="1" style="stop-color:#98A1A4"/>
</linearGradient>
<path fill="url(#SVGID_10_)" d="M72,75H59c-0.553,0-1,0.447-1,1v13c0,0.553,0.447,1,1,1h13c0.553,0,1-0.447,1-1V76  C73,75.447,72.553,75,72,75z"/>
<path fill-opacity="0.2" stroke-opacity="0.2" fill="url(#SVGID_11_)" d="M76,91.5c-1.103,0-2-0.897-2-2v-13c0-1.103,0.897-2,2-2h13c1.103,0,2,0.897,2,2v13  c0,1.103-0.897,2-2,2H76z"/>
<path fill-opacity="0.4" stroke-opacity="0.4" fill="url(#SVGID_12_)" d="M76,91c-0.827,0-1.5-0.673-1.5-1.5v-13c0-0.827,0.673-1.5,1.5-1.5h13  c0.827,0,1.5,0.673,1.5,1.5v13c0,0.827-0.673,1.5-1.5,1.5H76z"/>
<linearGradient id="SVGID_13_" gradientUnits="userSpaceOnUse" x1="82.5" y1="75" x2="82.5" y2="90.3335">
<stop offset="0" style="stop-color:#E9F0F2"/>
<stop offset="0.0424" style="stop-color:#E9F0F2"/>
<stop offset="0.3152" style="stop-color:#BDC2C4"/>
<stop offset="0.6727" style="stop-color:#949DA1"/>
<stop offset="1" style="stop-color:#98A1A4"/>
</linearGradient>
<path fill="url(#SVGID_13_)" d="M89,75H76c-0.553,0-1,0.447-1,1v13c0,0.553,0.447,1,1,1h13c0.553,0,1-0.447,1-1V76  C90,75.447,89.553,75,89,75z"/>
<linearGradient id="SVGID_14_" gradientUnits="userSpaceOnUse" x1="64.5" y1="56.4053" x2="64.5" y2="92.0204">
<stop offset="0" style="stop-color:#A6A8AB"/>
<stop offset="1" style="stop-color:#231F20"/>
</linearGradient>
<path fill-opacity="0.2" stroke-opacity="0.2" fill="url(#SVGID_14_)" d="M58,73.5c-1.103,0-2-0.898-2-2v-13c0-1.103,0.897-2,2-2h13.001  c1.102,0,1.999,0.897,1.999,2v13c0,1.102-0.897,2-1.999,2H58z"/>
<linearGradient id="SVGID_15_" gradientUnits="userSpaceOnUse" x1="64.5" y1="56.584" x2="64.5" y2="91.4017">
<stop offset="0" style="stop-color:#A9AAAD"/>
<stop offset="1" style="stop-color:#000000"/>
</linearGradient>
<path fill-opacity="0.4" stroke-opacity="0.4" fill="url(#SVGID_15_)" d="M58,73c-0.827,0-1.5-0.672-1.5-1.5v-13c0-0.827,0.673-1.5,1.5-1.5h13.001  c0.826,0,1.499,0.673,1.499,1.5v13c0,0.828-0.673,1.5-1.499,1.5H58z"/>
<linearGradient id="SVGID_16_" gradientUnits="userSpaceOnUse" x1="64.5" y1="57" x2="64.5" y2="72.3335">
<stop offset="0" style="stop-color:#E9F0F2"/>
<stop offset="0.0424" style="stop-color:#E9F0F2"/>
<stop offset="0.3152" style="stop-color:#BDC2C4"/>
<stop offset="0.6727" style="stop-color:#949DA1"/>
<stop offset="1" style="stop-color:#98A1A4"/>
</linearGradient>
<path fill="url(#SVGID_16_)" d="M71.001,72C71.553,72,72,71.553,72,71.001V58c0-0.552-0.447-1-0.999-1H58c-0.553,0-1,0.448-1,1  v13.001C57,71.553,57.447,72,58,72H71.001z"/>
<path fill-opacity="0.2" stroke-opacity="0.2" fill="url(#SVGID_11_)" d="M76,74.5c-1.103,0-2-0.897-2-2v-13c0-1.103,0.897-2,2-2h13c1.103,0,2,0.897,2,2v13  c0,1.103-0.897,2-2,2H76z"/>
<path fill-opacity="0.4" stroke-opacity="0.4" fill="url(#SVGID_12_)" d="M76,74c-0.827,0-1.5-0.672-1.5-1.5v-13c0-0.827,0.673-1.5,1.5-1.5h13  c0.827,0,1.5,0.673,1.5,1.5v13c0,0.828-0.673,1.5-1.5,1.5H76z"/>
<path fill="url(#SVGID_19_)" d="M89,58H76c-0.553,0-1,0.448-1,1v13c0,0.553,0.447,1,1,1h13c0.553,0,1-0.447,1-1V59  C90,58.448,89.553,58,89,58z"/>
<linearGradient id="SVGID_20_" gradientUnits="userSpaceOnUse" x1="65.5" y1="75" x2="65.5" y2="90">
<stop offset="0" style="stop-color:#E9F0F2"/>
<stop offset="0.0424" style="stop-color:#E9F0F2"/>
<stop offset="0.2606" style="stop-color:#BDC2C4"/>
<stop offset="0.5394" style="stop-color:#949DA1"/>
<stop offset="1" style="stop-color:#98A1A4"/>
</linearGradient>
<path fill="url(#SVGID_20_)" d="M73,89c0,0.553-0.447,1-1,1H59c-0.553,0-1-0.447-1-1V76c0-0.553,0.447-1,1-1h13c0.553,0,1,0.447,1,1  V89z"/>
<linearGradient id="SVGID_21_" gradientUnits="userSpaceOnUse" x1="65.5" y1="75" x2="65.5" y2="90">
<stop offset="0" style="stop-color:#F6FDFF"/>
<stop offset="0.3152" style="stop-color:#D1D7D9"/>
<stop offset="0.6727" style="stop-color:#949DA1"/>
<stop offset="1" style="stop-color:#B7C3C7"/>
</linearGradient>
<path fill="url(#SVGID_21_)" d="M72,75H59c-0.553,0-1,0.447-1,1v13c0,0.553,0.447,1,1,1h13c0.553,0,1-0.447,1-1V76  C73,75.447,72.553,75,72,75z M72.5,89c0,0.275-0.225,0.5-0.5,0.5H59c-0.275,0-0.5-0.225-0.5-0.5V76c0-0.275,0.225-0.5,0.5-0.5h13  c0.275,0,0.5,0.225,0.5,0.5V89z"/>
<linearGradient id="SVGID_22_" gradientUnits="userSpaceOnUse" x1="82.5" y1="75" x2="82.5" y2="90.6667">
<stop offset="0" style="stop-color:#E9F0F2"/>
<stop offset="0.0424" style="stop-color:#E9F0F2"/>
<stop offset="0.2606" style="stop-color:#BDC2C4"/>
<stop offset="0.5394" style="stop-color:#949DA1"/>
<stop offset="1" style="stop-color:#98A1A4"/>
</linearGradient>
<path fill="url(#SVGID_22_)" d="M90,89c0,0.553-0.447,1-1,1H76c-0.553,0-1-0.447-1-1V76c0-0.553,0.447-1,1-1h13c0.553,0,1,0.447,1,1  V89z"/>
<linearGradient id="SVGID_23_" gradientUnits="userSpaceOnUse" x1="82.5" y1="75" x2="82.5" y2="90.6667">
<stop offset="0" style="stop-color:#F6FDFF"/>
<stop offset="0.3152" style="stop-color:#D1D7D9"/>
<stop offset="0.6727" style="stop-color:#949DA1"/>
<stop offset="1" style="stop-color:#B7C3C7"/>
</linearGradient>
<path fill="url(#SVGID_23_)" d="M89,75H76c-0.553,0-1,0.447-1,1v13c0,0.553,0.447,1,1,1h13c0.553,0,1-0.447,1-1V76  C90,75.447,89.553,75,89,75z M89.5,89c0,0.275-0.225,0.5-0.5,0.5H76c-0.275,0-0.5-0.225-0.5-0.5V76c0-0.275,0.225-0.5,0.5-0.5h13  c0.275,0,0.5,0.225,0.5,0.5V89z"/>
<linearGradient id="SVGID_24_" gradientUnits="userSpaceOnUse" x1="64.5" y1="56.333" x2="64.5" y2="72.3331">
<stop offset="0" style="stop-color:#AFED23"/>
<stop offset="0.7394" style="stop-color:#358C0C"/>
<stop offset="1" style="stop-color:#67AD1A"/>
</linearGradient>
<path fill="url(#SVGID_24_)" d="M72,71.001C72,71.553,71.553,72,71.001,72H58c-0.553,0-1-0.447-1-0.999V58c0-0.552,0.447-1,1-1  h13.001C71.553,57,72,57.448,72,58V71.001z"/>
<linearGradient id="SVGID_25_" gradientUnits="userSpaceOnUse" x1="64.5" y1="56.333" x2="64.5" y2="72.3331">
<stop offset="0" style="stop-color:#E5FFB2"/>
<stop offset="0.3879" style="stop-color:#6AAB18"/>
<stop offset="0.7879" style="stop-color:#247307"/>
<stop offset="1" style="stop-color:#7ABF2B"/>
</linearGradient>
<path fill="url(#SVGID_25_)" d="M71.001,57H58c-0.553,0-1,0.448-1,1v13.001C57,71.553,57.447,72,58,72h13.001  C71.553,72,72,71.553,72,71.001V58C72,57.448,71.553,57,71.001,57z M71.5,71.001c0,0.274-0.225,0.499-0.499,0.499H58  c-0.275,0-0.5-0.225-0.5-0.499V58c0-0.275,0.225-0.5,0.5-0.5h13.001c0.274,0,0.499,0.225,0.499,0.5V71.001z"/>
<path fill="url(#SVGID_19_)" d="M90,72c0,0.553-0.447,1-1,1H76c-0.553,0-1-0.447-1-1V59c0-0.552,0.447-1,1-1h13c0.553,0,1,0.448,1,1  V72z"/>
<linearGradient id="SVGID_27_" gradientUnits="userSpaceOnUse" x1="82.5" y1="58" x2="82.5" y2="73.3335">
<stop offset="0" style="stop-color:#F6FDFF"/>
<stop offset="0.3152" style="stop-color:#D1D7D9"/>
<stop offset="0.6727" style="stop-color:#949DA1"/>
<stop offset="1" style="stop-color:#B7C3C7"/>
</linearGradient>
<path fill="url(#SVGID_27_)" d="M89,58H76c-0.553,0-1,0.448-1,1v13c0,0.553,0.447,1,1,1h13c0.553,0,1-0.447,1-1V59  C90,58.448,89.553,58,89,58z M89.5,72c0,0.275-0.225,0.5-0.5,0.5H76c-0.275,0-0.5-0.225-0.5-0.5V59c0-0.275,0.225-0.5,0.5-0.5h13  c0.275,0,0.5,0.225,0.5,0.5V72z"/>
<rect x="49" y="49" fill="none" width="49" height="49"/>
<defs>
<linearGradient id="SVGID_11_" gradientUnits="userSpaceOnUse" x1="82.5" y1="56.4053" x2="82.5" y2="92.0204">
<stop offset="0" style="stop-color:#A6A8AB"/>
<stop offset="1" style="stop-color:#231F20"/>
</linearGradient>
</defs>
<defs>
<linearGradient id="SVGID_12_" gradientUnits="userSpaceOnUse" x1="82.5" y1="56.584" x2="82.5" y2="91.4017">
<stop offset="0" style="stop-color:#A9AAAD"/>
<stop offset="1" style="stop-color:#000000"/>
</linearGradient>
</defs>
<defs>
<linearGradient id="SVGID_19_" gradientUnits="userSpaceOnUse" x1="82.5" y1="58" x2="82.5" y2="73.3335">
<stop offset="0" style="stop-color:#E9F0F2"/>
<stop offset="0.0424" style="stop-color:#E9F0F2"/>
<stop offset="0.3152" style="stop-color:#BDC2C4"/>
<stop offset="0.6727" style="stop-color:#949DA1"/>
<stop offset="1" style="stop-color:#98A1A4"/>
</linearGradient>
</defs>
</svg>
