<?xml version="1.0" encoding="UTF-8"?>
<!DOCTYPE svg PUBLIC "-//W3C//DTD SVG 1.1 Tiny//EN" "http://www.w3.org/Graphics/SVG/1.1/DTD/svg11-tiny.dtd">
<svg baseProfile="tiny" height="10px" version="1.1" viewBox="0 0 10 10" width="10px" x="0px" xmlns="http://www.w3.org/2000/svg" xmlns:xlink="http://www.w3.org/1999/xlink" y="0px">
<path d="M0,9h2c3.859,0,7-3.141,7-7V0H0V9z" fill="url(#SVGID_1_)"/>
<path d="M8,2c0,3.309-2.691,6-6,6H0v1h2c3.859,0,7-3.141,7-7V0H8V2z" fill="#FFFFFF" fill-opacity="0.2" stroke-opacity="0.2"/>
<path d="M9,2c0,3.859-3.141,7-7,7H0v1h2c4.411,0,8-3.589,8-8V0H9V2z" fill-opacity="0.4" stroke-opacity="0.4"/>
<rect fill="none" height="10" width="10"/>
<defs>
<linearGradient gradientUnits="userSpaceOnUse" id="SVGID_1_" x1="4.5" x2="4.5" y1="8.9072" y2="-70.8759">
<stop offset="0" style="stop-color:#009DD9"/>
<stop offset="1" style="stop-color:#004F80"/>
</linearGradient>
</defs>
</svg>
