<?xml version="1.0" encoding="UTF-8"?>
<!DOCTYPE svg PUBLIC "-//W3C//DTD SVG 1.1 Tiny//EN" "http://www.w3.org/Graphics/SVG/1.1/DTD/svg11-tiny.dtd">
<svg baseProfile="tiny" height="218px" version="1.1" viewBox="0 0 218 218" width="218px" x="0px" xmlns="http://www.w3.org/2000/svg" xmlns:xlink="http://www.w3.org/1999/xlink" y="0px">
<rect fill="none" height="218" width="218"/>
<linearGradient gradientTransform="matrix(1 0 0 -1 -197 -69)" gradientUnits="userSpaceOnUse" id="SVGID_1_" x1="306" x2="306" y1="-69" y2="-287">
<stop offset="0" style="stop-color:#808080"/>
<stop offset="1" style="stop-color:#000000"/>
</linearGradient>
<path d="M109,218C48.897,218,0,169.104,0,109  C0,48.896,48.897,0,109,0c60.104,0,109,48.896,109,109C218,169.104,169.104,218,109,218L109,218z" fill="url(#SVGID_1_)" fill-opacity="0.4" stroke-opacity="0.4"/>
<linearGradient gradientTransform="matrix(1 0 0 -1 -197 -69)" gradientUnits="userSpaceOnUse" id="SVGID_2_" x1="306" x2="306" y1="-78.873" y2="-286.0985">
<stop offset="0" style="stop-color:#666666"/>
<stop offset="1" style="stop-color:#000000"/>
</linearGradient>
<path d="M109,217C49.448,217,1,168.551,1,109S49.448,1,109,1  s108,48.449,108,108S168.552,217,109,217L109,217z" fill="url(#SVGID_2_)" fill-opacity="0.4" stroke-opacity="0.4"/>
<linearGradient gradientTransform="matrix(1 0 0 -1 -197 -69)" gradientUnits="userSpaceOnUse" id="SVGID_3_" x1="306" x2="306" y1="-69.7686" y2="-285.5244">
<stop offset="0" style="stop-color:#DBDBDB"/>
<stop offset="0.5333" style="stop-color:#DBDBDB"/>
<stop offset="0.5333" style="stop-color:#C1C1C1"/>
<stop offset="1" style="stop-color:#A8A8A8"/>
</linearGradient>
<circle cx="109" cy="109" fill="url(#SVGID_3_)" r="107"/>
<path d="M109,2C49.905,2,2,49.905,2,109c0,59.096,47.905,107,107,107  c59.096,0,107-47.904,107-107C216,49.905,168.096,2,109,2z M109,215C50.552,215,3,167.449,3,109S50.552,3,109,3s106,47.551,106,106  S167.448,215,109,215z" fill="#FFFFFF" fill-opacity="0.4" stroke-opacity="0.4"/>
<path d="M109,207c-54.037,0-98-43.963-98-98s43.963-98,98-98s98,43.963,98,98S163.037,207,109,207L109,207z" fill="#E6E6E6"/>
<linearGradient gradientTransform="matrix(1 0 0 -1 -197 -69)" gradientUnits="userSpaceOnUse" id="SVGID_4_" x1="306" x2="306" y1="-81.4502" y2="-272.0043">
<stop offset="0" style="stop-color:#FFFFFF"/>
<stop offset="0.5636" style="stop-color:#CCCCCC"/>
<stop offset="1" style="stop-color:#E6E6E6"/>
</linearGradient>
<circle cx="109" cy="109" fill="url(#SVGID_4_)" r="96"/>
<path d="M109,13c-53.02,0-96,42.98-96,96c0,53.02,42.98,96,96,96c53.02,0,96-42.98,96-96  C205,55.98,162.02,13,109,13z M109,204.01c-52.389,0-95.011-42.621-95.011-95.01c0-52.389,42.622-95.01,95.011-95.01  c52.389,0,95.012,42.621,95.012,95.01C204.012,161.389,161.389,204.01,109,204.01z" fill-opacity="0.5" stroke-opacity="0.5"/>
<linearGradient gradientTransform="matrix(1 0 0 -1 -197 -69)" gradientUnits="userSpaceOnUse" id="SVGID_5_" x1="344.4795" x2="344.4795" y1="-115.0068" y2="-170.5441">
<stop offset="0" style="stop-color:#FFFFFF"/>
<stop offset="1" style="stop-color:#B3B3B3"/>
</linearGradient>
<path d="M125.486,102.714c-6.047,0-9.375-3.503-9.375-9.863  v-21.79c0-6.603,5.479-8.945,10.174-8.945h0.443c0.39,0,0.424-0.001,0.739-0.013l0.257-0.009c2.535-0.089,5.243-1.922,5.239-6.803  c-0.003-4.134,1.12-7.164,3.338-9.008c1.896-1.574,4.155-1.905,5.72-1.905c1.108,0,1.886,0.169,1.918,0.176  c21.873,3.771,33.553,22.157,34.844,34.006c0.367,3.37-0.855,7.082-3.192,9.688c-1.563,1.744-4.358,3.822-8.794,3.822  c-6.643,0-9.273,2.29-10.676,4.013l-0.396,0.495c-1.824,2.295-4.877,6.136-11.425,6.136H125.486z" fill="url(#SVGID_5_)" fill-opacity="0.5" stroke-opacity="0.5"/>
<path d="M178.783,78.56c-1.291-11.849-12.971-30.235-34.844-34.006  c-0.032-0.007-0.81-0.176-1.918-0.176c-1.563,0-3.824,0.331-5.72,1.905c-2.218,1.844-3.341,4.874-3.338,9.008  c0.004,4.881-2.704,6.714-5.239,6.803l-0.257,0.009c-0.315,0.012-0.351,0.013-0.739,0.013h-0.443  c-4.693,0-10.174,2.343-10.174,8.945v21.79c0,6.36,3.328,9.863,9.375,9.863H144.3c6.548,0,9.601-3.841,11.425-6.136l0.396-0.495  c1.4-1.723,4.033-4.013,10.676-4.013c4.436,0,7.23-2.078,8.794-3.822C177.928,85.642,179.15,81.93,178.783,78.56z M166.797,91.07  c-7.016,0-9.889,2.461-11.451,4.381c-1.82,2.242-4.516,6.263-11.045,6.263c-6.527,0-11.668,0-18.814,0  c-7.147,0-8.375-5.071-8.375-8.863c0-3.793,0-21.79,0-21.79c0-5.885,4.763-7.945,9.175-7.945c0.996,0,0.752,0.003,1.476-0.022  c3.309-0.115,6.209-2.57,6.204-7.804c-0.008-11.916,9.761-9.759,9.761-9.759c21.521,3.711,32.832,21.829,34.063,33.138  C178.365,83.943,174.637,91.07,166.797,91.07z" fill="#B3B3B3" fill-opacity="0.4" stroke-opacity="0.4"/>
<g>
<g>
<rect fill="#1B75BB" height="0.426" width="2.779" x="163.654" y="72.951"/>
<rect fill="#1B75BB" height="0.426" width="4.707" x="161.725" y="75.387"/>
<rect fill="#1B75BB" height="0.426" width="2.723" x="163.711" y="77.445"/>
<rect fill="#1B75BB" height="0.428" width="2.723" x="163.711" y="79.5"/>
<rect fill="#1B75BB" height="0.426" width="2.723" x="163.711" y="81.557"/>
<rect fill="#1B75BB" height="0.427" width="2.723" x="163.711" y="83.611"/>
<rect fill="#1B75BB" height="0.426" width="5" x="161.434" y="64.729"/>
<rect fill="#1B75BB" height="0.426" width="2.723" x="163.711" y="62.521"/>
<rect fill="#1B75BB" height="0.425" width="2.723" x="163.711" y="66.787"/>
<rect fill="#1B75BB" height="0.427" width="2.723" x="163.711" y="68.842"/>
<rect fill="#1B75BB" height="0.426" width="2.723" x="163.711" y="70.898"/>
</g>
</g>
<ellipse cx="109" cy="59.999" fill="#FFFFFF" fill-opacity="0.25" rx="65" ry="44.001" stroke-opacity="0.25"/>
<g>
<g>
<g>
<g>
<g>
<path d="M131.604,121.963c-0.129,0-0.256-0.066-0.326-0.188l-1.416-2.453c-0.104-0.18-0.043-0.408,0.138-0.512       c0.175-0.104,0.405-0.043,0.513,0.137l1.418,2.453c0.104,0.18,0.041,0.408-0.139,0.513       C131.73,121.947,131.667,121.963,131.604,121.963L131.604,121.963z" fill="#808080"/>
</g>
<g>
<path d="M151.748,156.855c-0.129,0-0.255-0.066-0.325-0.188l-1.417-2.454c-0.104-0.179-0.042-0.407,0.139-0.512       c0.174-0.104,0.405-0.043,0.513,0.137l1.417,2.454c0.104,0.18,0.042,0.409-0.139,0.514       C151.877,156.84,151.813,156.855,151.748,156.855L151.748,156.855z" fill="#808080"/>
</g>
</g>
<g>
<g>
<path d="M140.967,119.454c-0.207,0-0.375-0.168-0.375-0.375v-2.833c0-0.207,0.168-0.375,0.375-0.375       s0.375,0.168,0.375,0.375v2.833C141.342,119.286,141.174,119.454,140.967,119.454L140.967,119.454z" fill="#808080"/>
</g>
<g>
<path d="M140.967,159.745c-0.207,0-0.375-0.168-0.375-0.375v-2.833c0-0.207,0.168-0.375,0.375-0.375       s0.375,0.168,0.375,0.375v2.833C141.342,159.577,141.174,159.745,140.967,159.745L140.967,159.745z" fill="#808080"/>
</g>
</g>
<g>
<g>
<path d="M150.331,121.963c-0.063,0-0.129-0.016-0.188-0.051c-0.18-0.104-0.24-0.332-0.138-0.512l1.417-2.453       c0.104-0.18,0.336-0.24,0.514-0.137c0.18,0.104,0.24,0.332,0.138,0.512l-1.417,2.453       C150.586,121.896,150.46,121.963,150.331,121.963L150.331,121.963z" fill="#808080"/>
</g>
<g>
<path d="M130.186,156.855c-0.063,0-0.129-0.017-0.188-0.049c-0.18-0.104-0.241-0.334-0.139-0.514l1.418-2.453       c0.104-0.181,0.337-0.238,0.513-0.138c0.181,0.104,0.241,0.334,0.138,0.513l-1.416,2.453       C130.439,156.789,130.314,156.855,130.186,156.855L130.186,156.855z" fill="#808080"/>
</g>
</g>
<g>
<g>
<path d="M157.188,128.818c-0.129,0-0.256-0.068-0.326-0.188c-0.104-0.18-0.041-0.409,0.139-0.513l2.454-1.415       c0.183-0.104,0.409-0.043,0.513,0.137c0.104,0.181,0.042,0.408-0.138,0.513l-2.454,1.416       C157.314,128.802,157.25,128.818,157.188,128.818L157.188,128.818z" fill="#808080"/>
</g>
<g>
<path d="M122.293,148.964c-0.129,0-0.256-0.067-0.325-0.188c-0.104-0.18-0.042-0.408,0.138-0.512l2.455-1.416       c0.182-0.104,0.408-0.041,0.513,0.139s0.042,0.408-0.138,0.512l-2.455,1.416C122.421,148.947,122.355,148.964,122.293,148.964       L122.293,148.964z" fill="#808080"/>
</g>
</g>
<g>
<g>
<path d="M162.529,138.184L162.529,138.184h-2.834c-0.206,0-0.375-0.168-0.375-0.375s0.169-0.375,0.375-0.375       l0,0h2.834c0.207,0,0.375,0.168,0.375,0.375S162.736,138.184,162.529,138.184L162.529,138.184z" fill="#808080"/>
</g>
<g>
<path d="M122.236,138.184L122.236,138.184h-2.832c-0.207,0-0.375-0.168-0.375-0.375s0.168-0.375,0.375-0.375       l0,0h2.832c0.207,0,0.375,0.168,0.375,0.375S122.443,138.184,122.236,138.184L122.236,138.184z" fill="#808080"/>
</g>
</g>
<g>
<g>
<path d="M159.641,148.965c-0.063,0-0.129-0.016-0.188-0.051L157,147.498c-0.18-0.104-0.241-0.334-0.139-0.514       c0.105-0.18,0.338-0.238,0.514-0.137l2.453,1.418c0.18,0.104,0.24,0.332,0.138,0.512       C159.896,148.896,159.77,148.965,159.641,148.965L159.641,148.965z" fill="#808080"/>
</g>
<g>
<path d="M124.746,128.818c-0.064,0-0.129-0.017-0.188-0.051l-2.453-1.416c-0.181-0.104-0.242-0.334-0.139-0.514       c0.104-0.181,0.336-0.24,0.514-0.138l2.453,1.418c0.18,0.104,0.24,0.332,0.137,0.512       C125.001,128.751,124.875,128.818,124.746,128.818L124.746,128.818z" fill="#808080"/>
</g>
</g>
</g>
<g>
<g>
<g>
<path d="M140.967,119.454c-0.207,0-0.375-0.168-0.375-0.375v-2.833c0-0.207,0.168-0.375,0.375-0.375       s0.375,0.168,0.375,0.375v2.833C141.342,119.286,141.174,119.454,140.967,119.454L140.967,119.454z" fill="#808080"/>
</g>
<g>
<path d="M140.967,159.745c-0.207,0-0.375-0.168-0.375-0.375v-2.833c0-0.207,0.168-0.375,0.375-0.375       s0.375,0.168,0.375,0.375v2.833C141.342,159.577,141.174,159.745,140.967,159.745L140.967,159.745z" fill="#808080"/>
</g>
</g>
<g>
<g>
<path d="M150.331,121.963c-0.063,0-0.129-0.016-0.188-0.051c-0.18-0.104-0.24-0.332-0.138-0.512l1.417-2.453       c0.104-0.18,0.336-0.24,0.514-0.137c0.18,0.104,0.24,0.332,0.138,0.512l-1.417,2.453       C150.586,121.896,150.46,121.963,150.331,121.963L150.331,121.963z" fill="#808080"/>
</g>
<g>
<path d="M130.186,156.855c-0.063,0-0.129-0.017-0.188-0.049c-0.18-0.104-0.241-0.334-0.139-0.514l1.418-2.453       c0.104-0.181,0.337-0.238,0.513-0.138c0.181,0.104,0.241,0.334,0.138,0.513l-1.416,2.453       C130.439,156.789,130.314,156.855,130.186,156.855L130.186,156.855z" fill="#808080"/>
</g>
</g>
<g>
<g>
<path d="M157.188,128.818c-0.129,0-0.256-0.068-0.326-0.188c-0.104-0.18-0.041-0.409,0.139-0.513l2.454-1.415       c0.183-0.104,0.409-0.043,0.513,0.137c0.104,0.181,0.042,0.408-0.138,0.513l-2.454,1.416       C157.314,128.802,157.25,128.818,157.188,128.818L157.188,128.818z" fill="#808080"/>
</g>
<g>
<path d="M122.293,148.964c-0.129,0-0.256-0.067-0.325-0.188c-0.104-0.18-0.042-0.408,0.138-0.512l2.455-1.416       c0.182-0.104,0.408-0.041,0.513,0.139s0.042,0.408-0.138,0.512l-2.455,1.416C122.421,148.947,122.355,148.964,122.293,148.964       L122.293,148.964z" fill="#808080"/>
</g>
</g>
<g>
<g>
<path d="M162.529,138.184L162.529,138.184h-2.834c-0.206,0-0.375-0.168-0.375-0.375s0.169-0.375,0.375-0.375       l0,0h2.834c0.207,0,0.375,0.168,0.375,0.375S162.736,138.184,162.529,138.184L162.529,138.184z" fill="#808080"/>
</g>
<g>
<path d="M122.236,138.184L122.236,138.184h-2.832c-0.207,0-0.375-0.168-0.375-0.375s0.168-0.375,0.375-0.375       l0,0h2.832c0.207,0,0.375,0.168,0.375,0.375S122.443,138.184,122.236,138.184L122.236,138.184z" fill="#808080"/>
</g>
</g>
<g>
<g>
<path d="M159.641,148.965c-0.063,0-0.129-0.016-0.188-0.051L157,147.498c-0.18-0.104-0.241-0.334-0.139-0.514       c0.105-0.18,0.338-0.238,0.514-0.137l2.453,1.418c0.18,0.104,0.24,0.332,0.138,0.512       C159.896,148.896,159.77,148.965,159.641,148.965L159.641,148.965z" fill="#808080"/>
</g>
<g>
<path d="M124.746,128.818c-0.064,0-0.129-0.017-0.188-0.051l-2.453-1.416c-0.181-0.104-0.242-0.334-0.139-0.514       c0.104-0.181,0.336-0.24,0.514-0.138l2.453,1.418c0.18,0.104,0.24,0.332,0.137,0.512       C125.001,128.751,124.875,128.818,124.746,128.818L124.746,128.818z" fill="#808080"/>
</g>
</g>
<g>
<g>
<path d="M151.748,156.857c-0.129,0-0.255-0.067-0.325-0.188l-1.416-2.453c-0.104-0.18-0.042-0.409,0.138-0.513       c0.183-0.104,0.408-0.042,0.514,0.138l1.416,2.453c0.104,0.181,0.042,0.408-0.139,0.513       C151.876,156.842,151.813,156.857,151.748,156.857L151.748,156.857z" fill="#808080"/>
</g>
<g>
<path d="M131.602,121.963c-0.129,0-0.254-0.068-0.324-0.188l-1.416-2.455c-0.104-0.178-0.043-0.408,0.138-0.512       c0.183-0.104,0.408-0.041,0.513,0.137l1.416,2.455c0.104,0.179,0.043,0.408-0.138,0.512       C131.729,121.945,131.665,121.963,131.602,121.963L131.602,121.963z" fill="#808080"/>
</g>
</g>
</g>
<g>
<g>
<g>
<path d="M150.331,121.963c-0.063,0-0.129-0.016-0.188-0.051c-0.18-0.104-0.24-0.332-0.138-0.512l1.417-2.453       c0.104-0.18,0.336-0.24,0.514-0.137c0.18,0.104,0.24,0.332,0.138,0.512l-1.417,2.453       C150.586,121.896,150.46,121.963,150.331,121.963L150.331,121.963z" fill="#808080"/>
</g>
<g>
<path d="M130.186,156.855c-0.063,0-0.129-0.017-0.188-0.049c-0.18-0.104-0.241-0.334-0.139-0.514l1.418-2.453       c0.104-0.181,0.337-0.238,0.513-0.138c0.181,0.104,0.241,0.334,0.138,0.513l-1.416,2.453       C130.439,156.789,130.314,156.855,130.186,156.855L130.186,156.855z" fill="#808080"/>
</g>
</g>
<g>
<g>
<path d="M157.188,128.818c-0.129,0-0.256-0.068-0.326-0.188c-0.104-0.18-0.041-0.409,0.139-0.513l2.454-1.415       c0.183-0.104,0.409-0.043,0.513,0.137c0.104,0.181,0.042,0.408-0.138,0.513l-2.454,1.416       C157.314,128.802,157.25,128.818,157.188,128.818L157.188,128.818z" fill="#808080"/>
</g>
<g>
<path d="M122.293,148.964c-0.129,0-0.256-0.067-0.325-0.188c-0.104-0.18-0.042-0.408,0.138-0.512l2.455-1.416       c0.182-0.104,0.408-0.041,0.513,0.139s0.042,0.408-0.138,0.512l-2.455,1.416C122.421,148.947,122.355,148.964,122.293,148.964       L122.293,148.964z" fill="#808080"/>
</g>
</g>
<g>
<g>
<path d="M162.529,138.184L162.529,138.184h-2.834c-0.206,0-0.375-0.168-0.375-0.375s0.169-0.375,0.375-0.375       l0,0h2.834c0.207,0,0.375,0.168,0.375,0.375S162.736,138.184,162.529,138.184L162.529,138.184z" fill="#808080"/>
</g>
<g>
<path d="M122.236,138.184L122.236,138.184h-2.832c-0.207,0-0.375-0.168-0.375-0.375s0.168-0.375,0.375-0.375       l0,0h2.832c0.207,0,0.375,0.168,0.375,0.375S122.443,138.184,122.236,138.184L122.236,138.184z" fill="#808080"/>
</g>
</g>
<g>
<g>
<path d="M159.641,148.965c-0.063,0-0.129-0.016-0.188-0.051L157,147.498c-0.18-0.104-0.241-0.334-0.139-0.514       c0.105-0.18,0.338-0.238,0.514-0.137l2.453,1.418c0.18,0.104,0.24,0.332,0.138,0.512       C159.896,148.896,159.77,148.965,159.641,148.965L159.641,148.965z" fill="#808080"/>
</g>
<g>
<path d="M124.746,128.818c-0.064,0-0.129-0.017-0.188-0.051l-2.453-1.416c-0.181-0.104-0.242-0.334-0.139-0.514       c0.104-0.181,0.336-0.24,0.514-0.138l2.453,1.418c0.18,0.104,0.24,0.332,0.137,0.512       C125.001,128.751,124.875,128.818,124.746,128.818L124.746,128.818z" fill="#808080"/>
</g>
</g>
<g>
<g>
<path d="M151.748,156.857c-0.129,0-0.255-0.067-0.325-0.188l-1.416-2.453c-0.104-0.18-0.042-0.409,0.138-0.513       c0.183-0.104,0.408-0.042,0.514,0.138l1.416,2.453c0.104,0.181,0.042,0.408-0.139,0.513       C151.876,156.842,151.813,156.857,151.748,156.857L151.748,156.857z" fill="#808080"/>
</g>
<g>
<path d="M131.602,121.963c-0.129,0-0.254-0.068-0.324-0.188l-1.416-2.455c-0.104-0.178-0.043-0.408,0.138-0.512       c0.183-0.104,0.408-0.041,0.513,0.137l1.416,2.455c0.104,0.179,0.043,0.408-0.138,0.512       C131.729,121.945,131.665,121.963,131.602,121.963L131.602,121.963z" fill="#808080"/>
</g>
</g>
<g>
<g>
<path d="M140.967,159.746c-0.207,0-0.375-0.168-0.375-0.375v-2.833c0-0.207,0.168-0.375,0.375-0.375       s0.375,0.168,0.375,0.375v2.833C141.342,159.578,141.174,159.746,140.967,159.746L140.967,159.746z" fill="#808080"/>
</g>
<g>
<path d="M140.967,119.453c-0.207,0-0.375-0.168-0.375-0.375v-2.833c0-0.207,0.168-0.375,0.375-0.375       s0.375,0.168,0.375,0.375v2.833C141.342,119.285,141.174,119.453,140.967,119.453L140.967,119.453z" fill="#808080"/>
</g>
</g>
</g>
</g>
</g>
<g>
<g>
<path d="M99.961,36.396h-0.064l-3.673,1.983l-0.553-2.178l4.615-2.47h2.438v21.126h-2.763V36.396z" fill="#808080"/>
<path d="M107.987,54.857v-1.755l2.242-2.178c5.396-5.135,7.865-7.865,7.865-11.05c0-2.145-1.008-4.128-4.16-4.128    c-1.916,0-3.51,0.975-4.484,1.788l-0.91-2.015c1.432-1.203,3.543-2.145,5.947-2.145c4.552,0,6.47,3.12,6.47,6.143    c0,3.9-2.828,7.053-7.281,11.343l-1.655,1.56v0.065h9.457v2.373L107.987,54.857L107.987,54.857z" fill="#808080"/>
</g>
</g>
<g>
<g>
<path d="M112.551,163.688c-0.584-0.033-1.332,0.031-2.145,0.162c-4.518,0.715-6.858,3.965-7.345,7.476h0.064    c1.008-1.365,2.796-2.47,5.136-2.47c3.737,0,6.37,2.729,6.37,6.824c0,3.9-2.633,7.475-7.052,7.475    c-4.485,0-7.442-3.51-7.442-9.002c0-4.159,1.462-7.442,3.574-9.522c1.756-1.723,4.096-2.795,6.76-3.119    c0.846-0.131,1.562-0.163,2.08-0.163V163.688z M111.738,175.875c0-3.023-1.723-4.844-4.355-4.844    c-1.723,0-3.348,1.041-4.127,2.601c-0.163,0.325-0.293,0.716-0.293,1.235c0.032,3.479,1.657,6.078,4.681,6.078    C110.082,180.945,111.738,178.896,111.738,175.875z" fill="#808080"/>
</g>
</g>
<g>
<g>
<path d="M35.731,116.213c0.617,0.064,1.333,0,2.308-0.098c1.657-0.227,3.218-0.877,4.42-2.047    c1.397-1.269,2.405-3.12,2.795-5.59h-0.097c-1.171,1.43-2.86,2.243-5.006,2.243c-3.77,0-6.207-2.86-6.207-6.468    c0-3.998,2.893-7.508,7.215-7.508c4.322,0,6.987,3.478,6.987,8.938c0,4.616-1.56,7.866-3.64,9.879    c-1.625,1.594-3.868,2.567-6.143,2.828c-1.04,0.162-1.95,0.194-2.633,0.162L35.731,116.213L35.731,116.213z M36.771,104.09    c0,2.633,1.593,4.485,4.063,4.485c1.918,0,3.413-0.942,4.16-2.21c0.163-0.292,0.26-0.585,0.26-1.073    c0-3.607-1.332-6.37-4.354-6.37C38.494,98.923,36.771,101.068,36.771,104.09z" fill="#808080"/>
</g>
</g>
<line fill="none" x1="117.941" x2="117.631" y1="20.827" y2="23.813"/>
<line fill="none" x1="117.941" x2="117.631" y1="20.827" y2="23.813"/>
<path d="M117.631,23.983c-0.008,0-0.012,0-0.02-0.002c-0.094-0.009-0.16-0.093-0.152-0.188l0.313-2.985  c0.011-0.095,0.101-0.157,0.191-0.152c0.09,0.01,0.16,0.094,0.15,0.188l-0.313,2.985C117.791,23.918,117.717,23.983,117.631,23.983  L117.631,23.983z" fill="#808080"/>
<line fill="none" x1="99.688" x2="99.369" y1="194.559" y2="197.538"/>
<line fill="none" x1="99.688" x2="99.369" y1="194.559" y2="197.538"/>
<path d="M99.369,197.71c0,0-0.012,0-0.016-0.001c-0.096-0.011-0.162-0.095-0.154-0.188l0.318-2.983  c0.008-0.095,0.096-0.16,0.188-0.152c0.096,0.011,0.162,0.095,0.154,0.188l-0.318,2.982C99.531,197.645,99.457,197.71,99.369,197.71  L99.369,197.71z" fill="#808080"/>
<line fill="none" x1="127.129" x2="126.506" y1="22.281" y2="25.219"/>
<line fill="none" x1="127.129" x2="126.506" y1="22.281" y2="25.219"/>
<path d="M126.506,25.39c-0.012,0-0.025-0.001-0.037-0.005c-0.092-0.02-0.15-0.111-0.131-0.203l0.623-2.937  c0.018-0.094,0.104-0.151,0.201-0.133c0.094,0.021,0.154,0.112,0.133,0.204l-0.621,2.937  C126.656,25.333,126.584,25.39,126.506,25.39L126.506,25.39z" fill="#808080"/>
<line fill="none" x1="90.813" x2="90.186" y1="193.148" y2="196.084"/>
<line fill="none" x1="90.813" x2="90.186" y1="193.148" y2="196.084"/>
<path d="M90.186,196.254c-0.01,0-0.021,0-0.035-0.002c-0.092-0.021-0.15-0.111-0.131-0.203l0.627-2.936  c0.018-0.09,0.105-0.148,0.201-0.131c0.092,0.021,0.152,0.109,0.133,0.203l-0.627,2.934C90.336,196.2,90.266,196.254,90.186,196.254  L90.186,196.254z" fill="#808080"/>
<line fill="none" x1="136.109" x2="135.182" y1="24.687" y2="27.541"/>
<line fill="none" x1="136.109" x2="135.182" y1="24.687" y2="27.541"/>
<path d="M135.182,27.715c-0.016,0-0.033-0.003-0.053-0.009c-0.088-0.029-0.137-0.126-0.107-0.215l0.927-2.856  c0.03-0.091,0.125-0.14,0.217-0.11c0.09,0.029,0.14,0.126,0.108,0.217l-0.928,2.855C135.322,27.669,135.256,27.715,135.182,27.715  L135.182,27.715z" fill="#808080"/>
<line fill="none" x1="82.133" x2="81.205" y1="190.824" y2="193.677"/>
<line fill="none" x1="82.133" x2="81.205" y1="190.824" y2="193.677"/>
<path d="M81.205,193.85c-0.018,0-0.035-0.002-0.055-0.011c-0.09-0.028-0.139-0.125-0.109-0.216l0.93-2.854  c0.031-0.09,0.127-0.139,0.215-0.109c0.092,0.029,0.141,0.127,0.111,0.218l-0.93,2.853C81.342,193.802,81.275,193.85,81.205,193.85  L81.205,193.85z" fill="#808080"/>
<line fill="none" x1="144.793" x2="143.572" y1="28.02" y2="30.763"/>
<line fill="none" x1="144.793" x2="143.572" y1="28.02" y2="30.763"/>
<path d="M143.572,30.935c-0.023,0-0.047-0.004-0.068-0.015c-0.088-0.039-0.127-0.14-0.088-0.227l1.221-2.744  c0.039-0.086,0.139-0.125,0.225-0.086c0.089,0.038,0.125,0.14,0.091,0.226l-1.224,2.743  C143.699,30.896,143.639,30.935,143.572,30.935L143.572,30.935z" fill="#808080"/>
<line fill="none" x1="73.744" x2="72.523" y1="187.604" y2="190.346"/>
<line fill="none" x1="73.744" x2="72.523" y1="187.604" y2="190.346"/>
<path d="M72.523,190.516c-0.025,0-0.049-0.004-0.07-0.015c-0.088-0.04-0.125-0.142-0.088-0.228l1.223-2.739  c0.039-0.086,0.141-0.124,0.227-0.086c0.088,0.038,0.125,0.139,0.088,0.227l-1.225,2.739  C72.65,190.479,72.59,190.516,72.523,190.516L72.523,190.516z" fill="#808080"/>
<line fill="none" x1="160.879" x2="159.113" y1="37.307" y2="39.735"/>
<line fill="none" x1="160.879" x2="159.113" y1="37.307" y2="39.735"/>
<path d="M159.113,39.907c-0.033,0-0.07-0.011-0.1-0.033c-0.078-0.056-0.095-0.164-0.037-0.239l1.764-2.43  c0.055-0.077,0.164-0.094,0.24-0.037c0.076,0.056,0.092,0.161,0.035,0.24l-1.763,2.428  C159.219,39.883,159.166,39.907,159.113,39.907L159.113,39.907z" fill="#808080"/>
<line fill="none" x1="58.203" x2="56.438" y1="178.632" y2="181.059"/>
<line fill="none" x1="58.203" x2="56.438" y1="178.632" y2="181.059"/>
<path d="M56.438,181.229c-0.033,0-0.07-0.008-0.1-0.031c-0.078-0.057-0.094-0.164-0.039-0.238l1.768-2.426  c0.053-0.079,0.16-0.096,0.238-0.038c0.078,0.054,0.092,0.161,0.037,0.239l-1.764,2.425  C56.543,181.205,56.492,181.229,56.438,181.229L56.438,181.229z" fill="#808080"/>
<line fill="none" x1="168.104" x2="166.096" y1="43.157" y2="45.39"/>
<line fill="none" x1="168.104" x2="166.096" y1="43.157" y2="45.39"/>
<path d="M166.096,45.563c-0.041,0-0.08-0.016-0.113-0.046c-0.069-0.063-0.075-0.17-0.014-0.24l2.01-2.232  c0.063-0.073,0.17-0.077,0.242-0.014c0.066,0.063,0.074,0.173,0.012,0.243l-2.008,2.231  C166.191,45.543,166.143,45.563,166.096,45.563L166.096,45.563z" fill="#808080"/>
<line fill="none" x1="51.221" x2="49.213" y1="172.979" y2="175.205"/>
<line fill="none" x1="51.221" x2="49.213" y1="172.979" y2="175.205"/>
<path d="M49.213,175.377c-0.043,0-0.084-0.016-0.117-0.045c-0.07-0.063-0.076-0.17-0.012-0.242l2.01-2.227  c0.064-0.071,0.174-0.077,0.24-0.012c0.072,0.062,0.078,0.168,0.016,0.24l-2.01,2.229C49.305,175.357,49.258,175.377,49.213,175.377  L49.213,175.377z" fill="#808080"/>
<line fill="none" x1="174.68" x2="172.451" y1="49.734" y2="51.743"/>
<line fill="none" x1="174.68" x2="172.451" y1="49.734" y2="51.743"/>
<path d="M172.451,51.915c-0.047,0-0.094-0.02-0.129-0.058c-0.064-0.069-0.057-0.178,0.012-0.242l2.232-2.01  c0.07-0.063,0.178-0.058,0.242,0.013c0.063,0.071,0.059,0.18-0.017,0.243l-2.228,2.009C172.531,51.9,172.49,51.915,172.451,51.915  L172.451,51.915z" fill="#808080"/>
<line fill="none" x1="44.867" x2="42.637" y1="166.625" y2="168.629"/>
<line fill="none" x1="44.867" x2="42.637" y1="166.625" y2="168.629"/>
<path d="M42.637,168.801c-0.047,0-0.096-0.019-0.127-0.058c-0.066-0.068-0.059-0.177,0.012-0.24l2.23-2.007  c0.072-0.063,0.18-0.057,0.244,0.014c0.063,0.07,0.055,0.18-0.014,0.242l-2.234,2.006C42.719,168.787,42.676,168.801,42.637,168.801  L42.637,168.801z" fill="#808080"/>
<line fill="none" x1="180.533" x2="178.104" y1="56.961" y2="58.727"/>
<line fill="none" x1="180.533" x2="178.104" y1="56.961" y2="58.727"/>
<path d="M178.104,58.899c-0.053,0-0.104-0.026-0.139-0.073c-0.055-0.075-0.039-0.183,0.039-0.24l2.428-1.764  c0.078-0.056,0.187-0.037,0.24,0.038c0.055,0.076,0.039,0.185-0.037,0.238l-2.43,1.767  C178.176,58.888,178.139,58.899,178.104,58.899L178.104,58.899z" fill="#808080"/>
<line fill="none" x1="39.213" x2="36.783" y1="159.643" y2="161.402"/>
<line fill="none" x1="39.213" x2="36.783" y1="159.643" y2="161.402"/>
<path d="M36.783,161.574c-0.053,0-0.105-0.023-0.139-0.07c-0.055-0.078-0.035-0.186,0.039-0.238l2.43-1.763  c0.076-0.056,0.184-0.038,0.236,0.038c0.059,0.075,0.041,0.184-0.037,0.24l-2.428,1.76  C36.854,161.563,36.818,161.574,36.783,161.574L36.783,161.574z" fill="#808080"/>
<line fill="none" x1="189.82" x2="187.076" y1="73.046" y2="74.268"/>
<line fill="none" x1="189.82" x2="187.076" y1="73.046" y2="74.268"/>
<path d="M187.076,74.439c-0.064,0-0.127-0.036-0.152-0.102c-0.041-0.086,0-0.188,0.086-0.227l2.74-1.223  c0.088-0.039,0.188,0,0.227,0.088c0.039,0.086,0,0.187-0.086,0.225l-2.742,1.225C187.125,74.435,187.104,74.439,187.076,74.439  L187.076,74.439z" fill="#808080"/>
<line fill="none" x1="30.24" x2="27.496" y1="144.102" y2="145.318"/>
<line fill="none" x1="30.24" x2="27.496" y1="144.102" y2="145.318"/>
<path d="M27.496,145.49c-0.066,0-0.127-0.038-0.156-0.104c-0.039-0.086,0-0.188,0.086-0.227l2.744-1.217  c0.088-0.039,0.188,0,0.225,0.087c0.039,0.087,0,0.188-0.086,0.226l-2.74,1.219C27.545,145.484,27.52,145.49,27.496,145.49  L27.496,145.49z" fill="#808080"/>
<line fill="none" x1="193.154" x2="190.299" y1="81.728" y2="82.655"/>
<line fill="none" x1="193.154" x2="190.299" y1="81.728" y2="82.655"/>
<path d="M190.299,82.828c-0.074,0-0.141-0.046-0.164-0.118c-0.027-0.09,0.021-0.188,0.111-0.217l2.855-0.928  c0.086-0.03,0.184,0.02,0.213,0.109c0.031,0.09-0.019,0.187-0.107,0.215l-2.854,0.929C190.334,82.825,190.314,82.828,190.299,82.828  L190.299,82.828z" fill="#808080"/>
<line fill="none" x1="27.02" x2="24.164" y1="135.713" y2="136.636"/>
<line fill="none" x1="27.02" x2="24.164" y1="135.713" y2="136.636"/>
<path d="M24.164,136.809c-0.072,0-0.139-0.045-0.164-0.119c-0.027-0.09,0.023-0.188,0.111-0.217l2.855-0.924  c0.088-0.027,0.188,0.021,0.215,0.111c0.029,0.089-0.02,0.186-0.109,0.215l-2.854,0.924  C24.199,136.807,24.182,136.809,24.164,136.809L24.164,136.809z" fill="#808080"/>
<line fill="none" x1="195.561" x2="192.625" y1="90.709" y2="91.336"/>
<line fill="none" x1="195.561" x2="192.625" y1="90.709" y2="91.336"/>
<path d="M192.625,91.507c-0.08,0-0.152-0.054-0.168-0.135c-0.02-0.094,0.037-0.185,0.129-0.204l2.941-0.625  c0.096-0.019,0.182,0.041,0.199,0.132c0.021,0.092-0.037,0.183-0.131,0.203l-2.937,0.624  C192.648,91.506,192.637,91.507,192.625,91.507L192.625,91.507z" fill="#808080"/>
<line fill="none" x1="24.691" x2="21.76" y1="127.032" y2="127.652"/>
<line fill="none" x1="24.691" x2="21.76" y1="127.032" y2="127.652"/>
<path d="M21.76,127.825c-0.082,0-0.15-0.056-0.168-0.136c-0.02-0.094,0.039-0.185,0.131-0.203l2.934-0.621  c0.098-0.018,0.186,0.039,0.203,0.134c0.021,0.091-0.037,0.183-0.129,0.201l-2.938,0.623  C21.781,127.824,21.77,127.825,21.76,127.825L21.76,127.825z" fill="#808080"/>
<line fill="none" x1="197.016" x2="194.029" y1="99.894" y2="100.211"/>
<line fill="none" x1="197.016" x2="194.029" y1="99.894" y2="100.211"/>
<path d="M194.029,100.381c-0.086,0-0.162-0.065-0.17-0.153c-0.01-0.093,0.059-0.178,0.152-0.188l2.983-0.315  c0.094-0.009,0.182,0.059,0.19,0.152c0.006,0.094-0.059,0.179-0.151,0.188l-2.986,0.315  C194.041,100.381,194.035,100.381,194.029,100.381L194.029,100.381z" fill="#808080"/>
<line fill="none" x1="23.287" x2="20.305" y1="118.159" y2="118.469"/>
<line fill="none" x1="23.287" x2="20.305" y1="118.159" y2="118.469"/>
<path d="M20.305,118.643c-0.086,0-0.164-0.066-0.172-0.154c-0.008-0.094,0.059-0.178,0.154-0.188l2.982-0.311  c0.1-0.009,0.182,0.059,0.189,0.153c0.008,0.094-0.061,0.18-0.154,0.187l-2.984,0.313C20.316,118.641,20.311,118.643,20.305,118.643  L20.305,118.643z" fill="#808080"/>
<line fill="none" x1="197.016" x2="194.031" y1="118.468" y2="118.156"/>
<line fill="none" x1="197.016" x2="194.031" y1="118.468" y2="118.156"/>
<path d="M197.016,118.641c-0.008,0-0.012,0-0.02-0.002l-2.982-0.313c-0.096-0.01-0.162-0.096-0.154-0.188  c0.009-0.094,0.101-0.158,0.189-0.154l2.986,0.313c0.094,0.011,0.158,0.095,0.152,0.188  C197.178,118.575,197.102,118.641,197.016,118.641L197.016,118.641z" fill="#808080"/>
<line fill="none" x1="23.285" x2="20.305" y1="100.214" y2="99.897"/>
<line fill="none" x1="23.285" x2="20.305" y1="100.214" y2="99.897"/>
<path d="M23.285,100.385c-0.006,0-0.012-0.001-0.016-0.001l-2.984-0.315c-0.094-0.011-0.16-0.097-0.152-0.189  c0.008-0.094,0.098-0.163,0.189-0.153l2.982,0.317c0.094,0.011,0.162,0.095,0.154,0.188  C23.451,100.319,23.373,100.385,23.285,100.385L23.285,100.385z" fill="#808080"/>
<line fill="none" x1="195.563" x2="192.625" y1="127.652" y2="127.029"/>
<line fill="none" x1="195.563" x2="192.625" y1="127.652" y2="127.029"/>
<path d="M195.563,127.825c-0.014,0-0.024-0.001-0.035-0.002l-2.94-0.624c-0.09-0.02-0.147-0.112-0.129-0.204  c0.019-0.093,0.108-0.151,0.203-0.134l2.937,0.625c0.094,0.017,0.151,0.109,0.131,0.203  C195.711,127.77,195.641,127.825,195.563,127.825L195.563,127.825z" fill="#808080"/>
<line fill="none" x1="24.691" x2="21.76" y1="91.339" y2="90.712"/>
<line fill="none" x1="24.691" x2="21.76" y1="91.339" y2="90.712"/>
<path d="M24.691,91.51c-0.01,0-0.023-0.002-0.035-0.003l-2.934-0.627c-0.092-0.021-0.15-0.111-0.131-0.204  c0.018-0.091,0.104-0.15,0.201-0.132l2.938,0.627c0.092,0.02,0.148,0.11,0.129,0.203C24.844,91.455,24.77,91.51,24.691,91.51  L24.691,91.51z" fill="#808080"/>
<line fill="none" x1="193.154" x2="190.299" y1="136.636" y2="135.709"/>
<line fill="none" x1="193.154" x2="190.299" y1="136.636" y2="135.709"/>
<path d="M193.154,136.809c-0.016,0-0.033-0.002-0.053-0.01l-2.855-0.927c-0.09-0.029-0.137-0.127-0.109-0.215  c0.029-0.091,0.125-0.138,0.217-0.111l2.855,0.927c0.09,0.029,0.139,0.127,0.109,0.217  C193.295,136.764,193.227,136.809,193.154,136.809L193.154,136.809z" fill="#808080"/>
<line fill="none" x1="27.016" x2="24.164" y1="82.66" y2="81.729"/>
<line fill="none" x1="27.016" x2="24.164" y1="82.66" y2="81.729"/>
<path d="M27.016,82.831c-0.014,0-0.033-0.003-0.051-0.009l-2.852-0.931c-0.09-0.028-0.141-0.125-0.111-0.215  c0.031-0.091,0.127-0.139,0.217-0.111l2.854,0.93c0.09,0.029,0.137,0.128,0.109,0.218C27.158,82.786,27.092,82.831,27.016,82.831  L27.016,82.831z" fill="#808080"/>
<line fill="none" x1="189.82" x2="187.078" y1="145.318" y2="144.1"/>
<line fill="none" x1="189.82" x2="187.078" y1="145.318" y2="144.1"/>
<path d="M189.82,145.49c-0.021,0-0.045-0.006-0.068-0.016l-2.742-1.221c-0.086-0.038-0.125-0.14-0.086-0.227  c0.037-0.088,0.137-0.125,0.225-0.088l2.742,1.222c0.088,0.038,0.127,0.14,0.088,0.228  C189.949,145.452,189.887,145.49,189.82,145.49L189.82,145.49z" fill="#808080"/>
<line fill="none" x1="30.24" x2="27.496" y1="74.27" y2="73.047"/>
<line fill="none" x1="30.24" x2="27.496" y1="74.27" y2="73.047"/>
<path d="M30.24,74.442c-0.027,0-0.051-0.004-0.07-0.015l-2.742-1.224c-0.084-0.038-0.127-0.14-0.088-0.226  c0.041-0.087,0.141-0.125,0.229-0.088l2.738,1.223c0.088,0.039,0.125,0.142,0.088,0.227C30.367,74.404,30.303,74.442,30.24,74.442  L30.24,74.442z" fill="#808080"/>
<line fill="none" x1="180.535" x2="178.105" y1="161.402" y2="159.639"/>
<line fill="none" x1="180.535" x2="178.105" y1="161.402" y2="159.639"/>
<path d="M180.535,161.574c-0.035,0-0.07-0.01-0.102-0.03l-2.431-1.765c-0.076-0.059-0.092-0.164-0.035-0.24  c0.054-0.076,0.16-0.096,0.236-0.038l2.43,1.765c0.08,0.057,0.097,0.161,0.039,0.239  C180.641,161.552,180.588,161.574,180.535,161.574L180.535,161.574z" fill="#808080"/>
<line fill="none" x1="39.209" x2="36.785" y1="58.729" y2="56.962"/>
<line fill="none" x1="39.209" x2="36.785" y1="58.729" y2="56.962"/>
<path d="M39.209,58.901c-0.033,0-0.07-0.013-0.1-0.034l-2.426-1.766c-0.074-0.056-0.094-0.164-0.039-0.24  c0.057-0.075,0.164-0.093,0.24-0.036l2.428,1.766c0.076,0.056,0.094,0.163,0.037,0.239C39.316,58.877,39.264,58.901,39.209,58.901  L39.209,58.901z" fill="#808080"/>
<line fill="none" x1="174.684" x2="172.451" y1="168.631" y2="166.623"/>
<line fill="none" x1="174.684" x2="172.451" y1="168.631" y2="166.623"/>
<path d="M174.684,168.801c-0.041,0-0.084-0.013-0.113-0.042l-2.231-2.01c-0.069-0.063-0.077-0.17-0.014-0.241  c0.063-0.07,0.172-0.076,0.241-0.013l2.23,2.008c0.072,0.063,0.078,0.172,0.014,0.242  C174.777,168.783,174.73,168.801,174.684,168.801L174.684,168.801z" fill="#808080"/>
<line fill="none" x1="44.865" x2="42.637" y1="51.747" y2="49.735"/>
<line fill="none" x1="44.865" x2="42.637" y1="51.747" y2="49.735"/>
<path d="M44.865,51.918c-0.041,0-0.082-0.016-0.115-0.045l-2.229-2.01c-0.07-0.064-0.078-0.173-0.012-0.242  c0.061-0.07,0.172-0.076,0.24-0.012l2.23,2.008c0.068,0.066,0.074,0.174,0.014,0.244C44.957,51.897,44.91,51.918,44.865,51.918  L44.865,51.918z" fill="#808080"/>
<line fill="none" x1="168.105" x2="166.098" y1="175.207" y2="172.975"/>
<line fill="none" x1="168.105" x2="166.098" y1="175.207" y2="172.975"/>
<path d="M168.105,175.379c-0.045,0-0.092-0.021-0.125-0.057l-2.01-2.232c-0.063-0.07-0.058-0.179,0.014-0.24  c0.067-0.065,0.178-0.06,0.24,0.012l2.01,2.23c0.063,0.07,0.057,0.18-0.012,0.242C168.189,175.363,168.146,175.379,168.105,175.379  L168.105,175.379z" fill="#808080"/>
<line fill="none" x1="51.217" x2="49.213" y1="45.393" y2="43.159"/>
<line fill="none" x1="51.217" x2="49.213" y1="45.393" y2="43.159"/>
<path d="M51.217,45.563c-0.045,0-0.094-0.018-0.125-0.057l-2.008-2.232c-0.063-0.071-0.057-0.18,0.012-0.242  c0.072-0.064,0.18-0.06,0.244,0.014l2.008,2.232c0.061,0.07,0.055,0.179-0.016,0.241C51.299,45.551,51.26,45.563,51.217,45.563  L51.217,45.563z" fill="#808080"/>
<line fill="none" x1="160.881" x2="159.115" y1="181.061" y2="178.631"/>
<line fill="none" x1="160.881" x2="159.115" y1="181.061" y2="178.631"/>
<path d="M160.881,181.23c-0.055,0-0.105-0.024-0.139-0.071l-1.766-2.429c-0.058-0.078-0.039-0.186,0.039-0.238  c0.075-0.059,0.184-0.04,0.237,0.037l1.767,2.429c0.055,0.075,0.039,0.185-0.037,0.239  C160.951,181.221,160.914,181.23,160.881,181.23L160.881,181.23z" fill="#808080"/>
<line fill="none" x1="58.201" x2="56.438" y1="39.737" y2="37.308"/>
<line fill="none" x1="58.201" x2="56.438" y1="39.737" y2="37.308"/>
<path d="M58.201,39.909c-0.053,0-0.104-0.024-0.137-0.069l-1.766-2.431c-0.053-0.078-0.039-0.184,0.039-0.24  c0.076-0.055,0.184-0.039,0.242,0.039l1.758,2.432c0.057,0.073,0.041,0.182-0.035,0.237C58.27,39.899,58.234,39.909,58.201,39.909  L58.201,39.909z" fill="#808080"/>
<line fill="none" x1="144.793" x2="143.574" y1="190.346" y2="187.604"/>
<line fill="none" x1="144.793" x2="143.574" y1="190.346" y2="187.604"/>
<path d="M144.793,190.518c-0.063,0-0.125-0.039-0.154-0.103l-1.221-2.742c-0.037-0.086,0-0.188,0.086-0.226  c0.088-0.038,0.189,0,0.227,0.086l1.224,2.742c0.037,0.086-0.002,0.188-0.09,0.228C144.842,190.512,144.818,190.518,144.793,190.518  L144.793,190.518z" fill="#808080"/>
<line fill="none" x1="73.742" x2="72.525" y1="30.766" y2="28.022"/>
<line fill="none" x1="73.742" x2="72.525" y1="30.766" y2="28.022"/>
<path d="M73.742,30.938c-0.066,0-0.129-0.038-0.156-0.104l-1.217-2.743c-0.039-0.087,0-0.187,0.086-0.225  c0.084-0.041,0.188,0,0.227,0.086l1.219,2.745c0.037,0.085-0.002,0.186-0.09,0.225C73.789,30.933,73.766,30.938,73.742,30.938  L73.742,30.938z" fill="#808080"/>
<line fill="none" x1="136.113" x2="135.186" y1="193.68" y2="190.822"/>
<line fill="none" x1="136.113" x2="135.186" y1="193.68" y2="190.822"/>
<path d="M136.113,193.852c-0.072,0-0.139-0.047-0.164-0.119l-0.928-2.856c-0.027-0.09,0.021-0.187,0.11-0.216  c0.091-0.028,0.188,0.02,0.218,0.109l0.928,2.855c0.027,0.091-0.021,0.188-0.111,0.216  C136.148,193.848,136.129,193.852,136.113,193.852L136.113,193.852z" fill="#808080"/>
<line fill="none" x1="82.131" x2="81.205" y1="27.545" y2="24.689"/>
<line fill="none" x1="82.131" x2="81.205" y1="27.545" y2="24.689"/>
<path d="M82.131,27.717c-0.072,0-0.139-0.048-0.164-0.119l-0.926-2.855c-0.027-0.091,0.021-0.188,0.113-0.217  c0.088-0.028,0.186,0.021,0.217,0.111l0.926,2.855c0.025,0.089-0.023,0.187-0.113,0.216C82.166,27.715,82.146,27.717,82.131,27.717  L82.131,27.717z" fill="#808080"/>
<line fill="none" x1="127.131" x2="126.506" y1="196.086" y2="193.148"/>
<line fill="none" x1="127.131" x2="126.506" y1="196.086" y2="193.148"/>
<path d="M127.131,196.257c-0.078,0-0.15-0.056-0.166-0.137l-0.625-2.935c-0.021-0.095,0.039-0.187,0.131-0.203  c0.098-0.021,0.187,0.039,0.203,0.129l0.625,2.938c0.02,0.093-0.039,0.185-0.133,0.204  C127.156,196.255,127.143,196.257,127.131,196.257L127.131,196.257z" fill="#808080"/>
<line fill="none" x1="90.811" x2="90.188" y1="25.22" y2="22.284"/>
<line fill="none" x1="90.811" x2="90.188" y1="25.22" y2="22.284"/>
<path d="M90.811,25.392c-0.08,0-0.152-0.057-0.166-0.137l-0.621-2.938c-0.021-0.09,0.037-0.183,0.127-0.201  c0.1-0.02,0.186,0.039,0.205,0.131l0.621,2.936c0.02,0.093-0.039,0.185-0.131,0.205C90.834,25.39,90.822,25.392,90.811,25.392  L90.811,25.392z" fill="#808080"/>
<line fill="none" x1="117.945" x2="117.633" y1="197.539" y2="194.555"/>
<line fill="none" x1="117.945" x2="117.633" y1="197.539" y2="194.555"/>
<path d="M117.945,197.712c-0.086,0-0.162-0.065-0.17-0.151l-0.314-2.987c-0.01-0.095,0.059-0.179,0.154-0.188  c0.094-0.007,0.176,0.059,0.189,0.151l0.313,2.987c0.008,0.095-0.059,0.179-0.154,0.188c-0.004,0.001-0.012,0.001-0.012,0.001  L117.945,197.712L117.945,197.712z" fill="#808080"/>
<line fill="none" x1="99.684" x2="99.373" y1="23.814" y2="20.828"/>
<line fill="none" x1="99.684" x2="99.373" y1="23.814" y2="20.828"/>
<path d="M99.684,23.985c-0.088,0-0.162-0.065-0.17-0.154l-0.313-2.984c-0.008-0.094,0.059-0.18,0.154-0.188  c0.096-0.007,0.178,0.059,0.188,0.152l0.311,2.985c0.01,0.094-0.057,0.178-0.15,0.188c-0.008,0-0.014,0.002-0.014,0.002  L99.684,23.985L99.684,23.985z" fill="#808080"/>
<line fill="none" x1="99.371" x2="99.686" y1="197.539" y2="194.555"/>
<line fill="none" x1="99.371" x2="99.686" y1="197.539" y2="194.555"/>
<path d="M99.371,197.712c0,0-0.012,0-0.016-0.001c-0.096-0.01-0.162-0.094-0.154-0.188l0.314-2.988  c0.01-0.094,0.098-0.158,0.189-0.151c0.094,0.011,0.16,0.095,0.154,0.188l-0.316,2.986  C99.533,197.646,99.459,197.712,99.371,197.712L99.371,197.712z" fill="#808080"/>
<line fill="none" x1="117.631" x2="117.945" y1="23.814" y2="20.828"/>
<line fill="none" x1="117.631" x2="117.945" y1="23.814" y2="20.828"/>
<path d="M117.631,23.985c-0.008,0-0.012-0.002-0.02-0.002c-0.094-0.01-0.16-0.094-0.152-0.188l0.316-2.985  c0.008-0.093,0.096-0.158,0.188-0.151c0.094,0.009,0.162,0.095,0.154,0.189l-0.316,2.983  C117.791,23.92,117.717,23.985,117.631,23.985L117.631,23.985z" fill="#808080"/>
<line fill="none" x1="90.188" x2="90.813" y1="196.087" y2="193.148"/>
<line fill="none" x1="90.188" x2="90.813" y1="196.087" y2="193.148"/>
<path d="M90.188,196.258c-0.012,0-0.023-0.002-0.037-0.004c-0.092-0.021-0.15-0.111-0.129-0.204l0.623-2.937  c0.02-0.092,0.107-0.15,0.203-0.131c0.092,0.02,0.152,0.108,0.131,0.203l-0.623,2.938C90.338,196.201,90.266,196.258,90.188,196.258  L90.188,196.258z" fill="#808080"/>
<line fill="none" x1="126.506" x2="127.131" y1="25.219" y2="22.284"/>
<line fill="none" x1="126.506" x2="127.131" y1="25.219" y2="22.284"/>
<path d="M126.506,25.391c-0.012,0-0.025-0.001-0.037-0.003c-0.092-0.021-0.15-0.112-0.131-0.205l0.625-2.936  c0.02-0.092,0.105-0.151,0.201-0.131c0.096,0.019,0.154,0.111,0.133,0.201l-0.623,2.938  C126.656,25.333,126.584,25.391,126.506,25.391L126.506,25.391z" fill="#808080"/>
<line fill="none" x1="81.205" x2="82.131" y1="193.68" y2="190.822"/>
<line fill="none" x1="81.205" x2="82.131" y1="193.68" y2="190.822"/>
<path d="M81.205,193.852c-0.018,0-0.035-0.004-0.053-0.011c-0.09-0.026-0.141-0.124-0.111-0.214l0.93-2.855  c0.029-0.092,0.127-0.141,0.215-0.11c0.092,0.028,0.139,0.125,0.111,0.216l-0.928,2.855  C81.344,193.805,81.277,193.852,81.205,193.852L81.205,193.852z" fill="#808080"/>
<line fill="none" x1="135.182" x2="136.113" y1="27.543" y2="24.689"/>
<line fill="none" x1="135.182" x2="136.113" y1="27.543" y2="24.689"/>
<path d="M135.182,27.716c-0.016,0-0.033-0.002-0.053-0.009c-0.088-0.029-0.137-0.126-0.107-0.215l0.929-2.854  c0.028-0.091,0.127-0.141,0.217-0.111c0.09,0.03,0.14,0.128,0.108,0.216l-0.93,2.855C135.322,27.669,135.256,27.716,135.182,27.716  L135.182,27.716z" fill="#808080"/>
<line fill="none" x1="72.523" x2="73.744" y1="190.348" y2="187.604"/>
<line fill="none" x1="72.523" x2="73.744" y1="190.348" y2="187.604"/>
<path d="M72.523,190.518c-0.025,0-0.047-0.006-0.068-0.014c-0.088-0.04-0.127-0.143-0.09-0.229l1.221-2.742  c0.041-0.085,0.143-0.124,0.229-0.086c0.086,0.037,0.125,0.14,0.088,0.226l-1.223,2.742C72.65,190.479,72.59,190.518,72.523,190.518  L72.523,190.518z" fill="#808080"/>
<line fill="none" x1="143.572" x2="144.793" y1="30.763" y2="28.022"/>
<line fill="none" x1="143.572" x2="144.793" y1="30.763" y2="28.022"/>
<path d="M143.572,30.937c-0.023,0-0.047-0.005-0.068-0.016c-0.088-0.04-0.127-0.14-0.088-0.228l1.223-2.741  c0.037-0.086,0.139-0.124,0.226-0.086c0.088,0.039,0.125,0.141,0.088,0.228l-1.224,2.74  C143.699,30.896,143.639,30.937,143.572,30.937L143.572,30.937z" fill="#808080"/>
<line fill="none" x1="56.438" x2="58.203" y1="181.061" y2="178.631"/>
<line fill="none" x1="56.438" x2="58.203" y1="181.061" y2="178.631"/>
<path d="M56.438,181.23c-0.033,0-0.07-0.01-0.102-0.032c-0.076-0.058-0.092-0.163-0.037-0.24l1.766-2.427  c0.055-0.078,0.162-0.096,0.24-0.038c0.078,0.055,0.092,0.159,0.037,0.239l-1.764,2.43C56.543,181.206,56.492,181.23,56.438,181.23  L56.438,181.23z" fill="#808080"/>
<line fill="none" x1="159.113" x2="160.879" y1="39.737" y2="37.311"/>
<line fill="none" x1="159.113" x2="160.879" y1="39.737" y2="37.311"/>
<path d="M159.113,39.907c-0.035,0-0.07-0.01-0.102-0.033c-0.076-0.054-0.095-0.162-0.037-0.237l1.766-2.428  c0.055-0.078,0.162-0.094,0.24-0.039c0.076,0.056,0.094,0.162,0.035,0.24l-1.765,2.428  C159.219,39.884,159.166,39.907,159.113,39.907L159.113,39.907z" fill="#808080"/>
<line fill="none" x1="49.213" x2="51.221" y1="175.207" y2="172.977"/>
<line fill="none" x1="49.213" x2="51.221" y1="175.207" y2="172.977"/>
<path d="M49.213,175.379c-0.043,0-0.084-0.015-0.117-0.045c-0.07-0.063-0.076-0.172-0.012-0.241l2.008-2.231  c0.064-0.069,0.174-0.076,0.242-0.012c0.07,0.063,0.076,0.172,0.016,0.241l-2.014,2.232  C49.305,175.357,49.258,175.379,49.213,175.379L49.213,175.379z" fill="#808080"/>
<line fill="none" x1="166.096" x2="168.105" y1="45.391" y2="43.162"/>
<line fill="none" x1="166.096" x2="168.105" y1="45.391" y2="43.162"/>
<path d="M166.096,45.563c-0.041,0-0.082-0.013-0.113-0.045c-0.069-0.063-0.075-0.171-0.014-0.241l2.01-2.229  c0.064-0.071,0.17-0.078,0.242-0.012c0.068,0.062,0.076,0.17,0.014,0.241l-2.012,2.229  C166.189,45.544,166.143,45.563,166.096,45.563L166.096,45.563z" fill="#808080"/>
<line fill="none" x1="42.637" x2="44.867" y1="168.632" y2="166.623"/>
<line fill="none" x1="42.637" x2="44.867" y1="168.632" y2="166.623"/>
<path d="M42.637,168.803c-0.049,0-0.096-0.02-0.129-0.058c-0.064-0.068-0.059-0.179,0.014-0.241l2.23-2.008  c0.07-0.063,0.18-0.059,0.242,0.013c0.063,0.07,0.057,0.179-0.014,0.242l-2.232,2.009C42.717,168.789,42.676,168.803,42.637,168.803  L42.637,168.803z" fill="#808080"/>
<line fill="none" x1="172.451" x2="174.68" y1="51.745" y2="49.737"/>
<line fill="none" x1="172.451" x2="174.68" y1="51.745" y2="49.737"/>
<path d="M172.451,51.916c-0.047,0-0.096-0.02-0.129-0.057c-0.064-0.07-0.057-0.18,0.012-0.243l2.232-2.006  c0.07-0.063,0.18-0.06,0.242,0.012c0.063,0.07,0.059,0.179-0.015,0.243l-2.229,2.007C172.531,51.9,172.49,51.916,172.451,51.916  L172.451,51.916z" fill="#808080"/>
<line fill="none" x1="36.783" x2="39.213" y1="161.404" y2="159.641"/>
<line fill="none" x1="36.783" x2="39.213" y1="161.404" y2="159.641"/>
<path d="M36.783,161.575c-0.053,0-0.105-0.023-0.139-0.069c-0.057-0.076-0.037-0.186,0.039-0.24l2.43-1.764  c0.076-0.057,0.182-0.038,0.236,0.037c0.057,0.076,0.041,0.184-0.037,0.24l-2.428,1.765  C36.854,161.566,36.818,161.575,36.783,161.575L36.783,161.575z" fill="#808080"/>
<line fill="none" x1="178.104" x2="180.533" y1="58.728" y2="56.963"/>
<line fill="none" x1="178.104" x2="180.533" y1="58.728" y2="56.963"/>
<path d="M178.104,58.899c-0.053,0-0.104-0.026-0.139-0.071c-0.055-0.076-0.041-0.184,0.039-0.238l2.43-1.765  c0.074-0.057,0.185-0.039,0.238,0.037c0.055,0.077,0.039,0.186-0.037,0.24l-2.432,1.764  C178.176,58.889,178.139,58.899,178.104,58.899L178.104,58.899z" fill="#808080"/>
<line fill="none" x1="27.496" x2="30.24" y1="145.32" y2="144.1"/>
<line fill="none" x1="27.496" x2="30.24" y1="145.32" y2="144.1"/>
<path d="M27.496,145.492c-0.066,0-0.127-0.039-0.158-0.104c-0.037-0.086,0.002-0.188,0.088-0.228l2.744-1.22  c0.088-0.039,0.188,0,0.225,0.086c0.039,0.088,0,0.188-0.086,0.228l-2.742,1.222C27.543,145.486,27.52,145.492,27.496,145.492  L27.496,145.492z" fill="#808080"/>
<line fill="none" x1="187.076" x2="189.82" y1="74.268" y2="73.049"/>
<line fill="none" x1="187.076" x2="189.82" y1="74.268" y2="73.049"/>
<path d="M187.076,74.439c-0.064,0-0.129-0.036-0.156-0.102c-0.037-0.086,0.004-0.188,0.088-0.227l2.742-1.22  c0.088-0.036,0.189,0,0.227,0.088c0.039,0.086,0,0.188-0.086,0.225l-2.744,1.222C187.123,74.437,187.1,74.439,187.076,74.439  L187.076,74.439z" fill="#808080"/>
<line fill="none" x1="24.162" x2="27.02" y1="136.639" y2="135.711"/>
<line fill="none" x1="24.162" x2="27.02" y1="136.639" y2="135.711"/>
<path d="M24.162,136.811c-0.072,0-0.137-0.045-0.162-0.121c-0.029-0.088,0.021-0.186,0.111-0.213l2.855-0.929  c0.088-0.028,0.188,0.021,0.215,0.111c0.029,0.089-0.018,0.185-0.109,0.214l-2.857,0.927  C24.199,136.807,24.182,136.811,24.162,136.811L24.162,136.811z" fill="#808080"/>
<line fill="none" x1="190.297" x2="193.152" y1="82.655" y2="81.729"/>
<line fill="none" x1="190.297" x2="193.152" y1="82.655" y2="81.729"/>
<path d="M190.297,82.828c-0.072,0-0.139-0.046-0.164-0.118c-0.029-0.09,0.021-0.188,0.111-0.217l2.855-0.927  c0.088-0.028,0.186,0.021,0.215,0.111c0.031,0.091-0.021,0.188-0.107,0.216l-2.855,0.925  C190.332,82.825,190.314,82.828,190.297,82.828L190.297,82.828z" fill="#808080"/>
<line fill="none" x1="21.756" x2="24.691" y1="127.656" y2="127.032"/>
<line fill="none" x1="21.756" x2="24.691" y1="127.656" y2="127.032"/>
<path d="M21.756,127.826c-0.078,0-0.15-0.055-0.166-0.135c-0.02-0.092,0.039-0.185,0.133-0.203l2.934-0.625  c0.098-0.021,0.186,0.041,0.203,0.134c0.021,0.091-0.037,0.183-0.129,0.202l-2.938,0.624  C21.781,127.825,21.768,127.826,21.756,127.826L21.756,127.826z" fill="#808080"/>
<line fill="none" x1="192.623" x2="195.559" y1="91.336" y2="90.713"/>
<line fill="none" x1="192.623" x2="195.559" y1="91.336" y2="90.713"/>
<path d="M192.623,91.507c-0.08,0-0.152-0.054-0.168-0.136c-0.02-0.093,0.039-0.184,0.129-0.203l2.939-0.622  c0.096-0.02,0.184,0.04,0.203,0.132c0.021,0.093-0.039,0.184-0.131,0.202l-2.938,0.622  C192.646,91.506,192.637,91.507,192.623,91.507L192.623,91.507z" fill="#808080"/>
<line fill="none" x1="20.305" x2="23.287" y1="118.473" y2="118.157"/>
<line fill="none" x1="20.305" x2="23.287" y1="118.473" y2="118.157"/>
<path d="M20.305,118.643c-0.088,0-0.166-0.064-0.172-0.153c-0.01-0.095,0.059-0.177,0.152-0.188l2.984-0.314  c0.094-0.006,0.182,0.059,0.189,0.152c0.008,0.096-0.061,0.18-0.154,0.188l-2.984,0.313  C20.316,118.643,20.311,118.643,20.305,118.643L20.305,118.643z" fill="#808080"/>
<line fill="none" x1="194.027" x2="197.012" y1="100.211" y2="99.897"/>
<line fill="none" x1="194.027" x2="197.012" y1="100.211" y2="99.897"/>
<path d="M194.027,100.381c-0.086,0-0.16-0.065-0.17-0.153c-0.01-0.093,0.059-0.178,0.154-0.188l2.983-0.313  c0.094-0.008,0.18,0.06,0.188,0.153c0.008,0.093-0.061,0.178-0.154,0.188l-2.983,0.313  C194.047,100.381,194.035,100.381,194.027,100.381L194.027,100.381z" fill="#808080"/>
<line fill="none" x1="20.305" x2="23.287" y1="99.897" y2="100.211"/>
<line fill="none" x1="20.305" x2="23.287" y1="99.897" y2="100.211"/>
<path d="M23.287,100.383c-0.008,0-0.012,0-0.018,0l-2.984-0.314c-0.094-0.011-0.162-0.096-0.152-0.188  c0.008-0.095,0.098-0.161,0.188-0.153l2.984,0.313c0.094,0.011,0.162,0.096,0.154,0.188  C23.451,100.316,23.373,100.383,23.287,100.383L23.287,100.383z" fill="#808080"/>
<line fill="none" x1="194.029" x2="197.012" y1="118.156" y2="118.473"/>
<line fill="none" x1="194.029" x2="197.012" y1="118.156" y2="118.473"/>
<path d="M197.012,118.643c0,0-0.01,0-0.016,0l-2.984-0.315c-0.096-0.011-0.162-0.095-0.154-0.188  c0.011-0.094,0.097-0.156,0.189-0.152l2.984,0.315c0.094,0.011,0.162,0.093,0.154,0.188  C197.176,118.577,197.1,118.643,197.012,118.643L197.012,118.643z" fill="#808080"/>
<line fill="none" x1="21.756" x2="24.691" y1="90.713" y2="91.337"/>
<line fill="none" x1="21.756" x2="24.691" y1="90.713" y2="91.337"/>
<path d="M24.691,91.508c-0.01,0-0.021-0.001-0.035-0.004l-2.934-0.624c-0.094-0.019-0.152-0.109-0.133-0.202  c0.02-0.092,0.105-0.151,0.203-0.132l2.938,0.624c0.092,0.019,0.15,0.109,0.129,0.203C24.846,91.455,24.773,91.508,24.691,91.508  L24.691,91.508z" fill="#808080"/>
<line fill="none" x1="192.623" x2="195.559" y1="127.029" y2="127.656"/>
<line fill="none" x1="192.623" x2="195.559" y1="127.029" y2="127.656"/>
<path d="M195.559,127.826c-0.01,0-0.022-0.001-0.035-0.003l-2.938-0.624c-0.092-0.02-0.148-0.112-0.131-0.204  c0.02-0.093,0.107-0.151,0.203-0.134l2.938,0.627c0.092,0.02,0.152,0.111,0.131,0.205  C195.711,127.771,195.639,127.826,195.559,127.826L195.559,127.826z" fill="#808080"/>
<line fill="none" x1="24.162" x2="27.02" y1="81.729" y2="82.657"/>
<line fill="none" x1="24.162" x2="27.02" y1="81.729" y2="82.657"/>
<path d="M27.02,82.828c-0.018,0-0.035-0.002-0.053-0.008l-2.855-0.929c-0.09-0.026-0.141-0.124-0.111-0.214  c0.031-0.091,0.127-0.14,0.215-0.111l2.857,0.929c0.092,0.028,0.139,0.126,0.109,0.216C27.158,82.784,27.094,82.828,27.02,82.828  L27.02,82.828z" fill="#808080"/>
<line fill="none" x1="190.299" x2="193.152" y1="135.709" y2="136.639"/>
<line fill="none" x1="190.299" x2="193.152" y1="135.709" y2="136.639"/>
<path d="M193.152,136.811c-0.019,0-0.037-0.004-0.053-0.011l-2.855-0.928c-0.09-0.031-0.139-0.127-0.109-0.215  c0.029-0.091,0.127-0.138,0.217-0.111l2.854,0.929c0.09,0.029,0.142,0.125,0.108,0.215  C193.289,136.766,193.225,136.811,193.152,136.811L193.152,136.811z" fill="#808080"/>
<line fill="none" x1="27.496" x2="30.24" y1="73.049" y2="74.269"/>
<line fill="none" x1="27.496" x2="30.24" y1="73.049" y2="74.269"/>
<path d="M30.24,74.44c-0.025,0-0.049-0.004-0.07-0.014l-2.744-1.223c-0.086-0.038-0.125-0.139-0.088-0.225  c0.041-0.088,0.143-0.124,0.229-0.088l2.742,1.221c0.086,0.039,0.125,0.141,0.086,0.227C30.367,74.403,30.305,74.44,30.24,74.44  L30.24,74.44z" fill="#808080"/>
<line fill="none" x1="187.076" x2="189.82" y1="144.1" y2="145.32"/>
<line fill="none" x1="187.076" x2="189.82" y1="144.1" y2="145.32"/>
<path d="M189.82,145.491c-0.023,0-0.049-0.005-0.072-0.015l-2.738-1.223c-0.086-0.038-0.127-0.141-0.086-0.227  c0.037-0.088,0.137-0.125,0.223-0.088l2.744,1.222c0.086,0.039,0.123,0.142,0.086,0.228  C189.947,145.453,189.885,145.491,189.82,145.491L189.82,145.491z" fill="#808080"/>
<line fill="none" x1="36.783" x2="39.211" y1="56.963" y2="58.728"/>
<line fill="none" x1="36.783" x2="39.211" y1="56.963" y2="58.728"/>
<path d="M39.211,58.899c-0.035,0-0.07-0.011-0.1-0.033l-2.428-1.764c-0.076-0.056-0.096-0.163-0.039-0.24  c0.057-0.076,0.164-0.094,0.24-0.037l2.428,1.765c0.078,0.056,0.094,0.162,0.037,0.238C39.316,58.877,39.264,58.899,39.211,58.899  L39.211,58.899z" fill="#808080"/>
<line fill="none" x1="178.105" x2="180.531" y1="159.639" y2="161.402"/>
<line fill="none" x1="178.105" x2="180.531" y1="159.639" y2="161.402"/>
<path d="M180.531,161.575c-0.033,0-0.068-0.011-0.1-0.031l-2.429-1.767c-0.078-0.057-0.094-0.162-0.037-0.238  c0.056-0.077,0.158-0.096,0.238-0.04l2.43,1.767c0.076,0.057,0.093,0.162,0.037,0.24  C180.639,161.552,180.584,161.575,180.531,161.575L180.531,161.575z" fill="#808080"/>
<line fill="none" x1="42.637" x2="44.865" y1="49.736" y2="51.747"/>
<line fill="none" x1="42.637" x2="44.865" y1="49.736" y2="51.747"/>
<path d="M44.865,51.916c-0.039,0-0.08-0.014-0.113-0.043l-2.23-2.009c-0.072-0.064-0.078-0.173-0.014-0.243  c0.061-0.07,0.172-0.076,0.24-0.011l2.232,2.006c0.068,0.066,0.076,0.173,0.014,0.243C44.959,51.896,44.912,51.916,44.865,51.916  L44.865,51.916z" fill="#808080"/>
<line fill="none" x1="172.451" x2="174.68" y1="166.623" y2="168.632"/>
<line fill="none" x1="172.451" x2="174.68" y1="166.623" y2="168.632"/>
<path d="M174.68,168.803c-0.039,0-0.082-0.014-0.113-0.044l-2.229-2.01c-0.07-0.063-0.078-0.171-0.014-0.241  c0.063-0.072,0.172-0.078,0.242-0.013l2.227,2.009c0.074,0.063,0.078,0.173,0.016,0.241  C174.773,168.783,174.729,168.803,174.68,168.803L174.68,168.803z" fill="#808080"/>
<line fill="none" x1="49.213" x2="51.219" y1="43.162" y2="45.391"/>
<line fill="none" x1="49.213" x2="51.219" y1="43.162" y2="45.391"/>
<path d="M51.219,45.563c-0.045,0-0.094-0.017-0.127-0.056l-2.008-2.23c-0.064-0.071-0.059-0.18,0.012-0.241  c0.07-0.067,0.178-0.06,0.24,0.012l2.012,2.229c0.061,0.071,0.057,0.18-0.016,0.241C51.301,45.55,51.26,45.563,51.219,45.563  L51.219,45.563z" fill="#808080"/>
<line fill="none" x1="166.098" x2="168.104" y1="172.975" y2="175.207"/>
<line fill="none" x1="166.098" x2="168.104" y1="172.975" y2="175.207"/>
<path d="M168.104,175.379c-0.045,0-0.094-0.021-0.125-0.059l-2.008-2.231c-0.063-0.069-0.059-0.179,0.012-0.239  c0.07-0.065,0.181-0.06,0.242,0.012l2.008,2.23c0.063,0.07,0.056,0.18-0.012,0.242C168.184,175.363,168.146,175.379,168.104,175.379  L168.104,175.379z" fill="#808080"/>
<line fill="none" x1="56.438" x2="58.201" y1="37.31" y2="39.737"/>
<line fill="none" x1="56.438" x2="58.201" y1="37.31" y2="39.737"/>
<path d="M58.201,39.908c-0.053,0-0.104-0.024-0.137-0.07l-1.766-2.428c-0.055-0.078-0.039-0.185,0.039-0.24  c0.074-0.056,0.182-0.039,0.24,0.038l1.764,2.429c0.055,0.075,0.039,0.185-0.039,0.238C58.271,39.897,58.236,39.908,58.201,39.908  L58.201,39.908z" fill="#808080"/>
<line fill="none" x1="159.115" x2="160.879" y1="178.63" y2="181.061"/>
<line fill="none" x1="159.115" x2="160.879" y1="178.63" y2="181.061"/>
<path d="M160.879,181.23c-0.053,0-0.105-0.025-0.139-0.071l-1.764-2.429c-0.058-0.078-0.041-0.186,0.039-0.238  c0.075-0.059,0.184-0.04,0.237,0.035l1.763,2.431c0.057,0.075,0.041,0.185-0.035,0.237  C160.949,181.221,160.914,181.23,160.879,181.23L160.879,181.23z" fill="#808080"/>
<line fill="none" x1="72.523" x2="73.744" y1="28.022" y2="30.765"/>
<line fill="none" x1="72.523" x2="73.744" y1="28.022" y2="30.765"/>
<path d="M73.744,30.937c-0.066,0-0.129-0.04-0.158-0.103l-1.221-2.743c-0.037-0.084,0-0.187,0.088-0.225  c0.086-0.041,0.186,0,0.225,0.086l1.223,2.743c0.037,0.086,0,0.188-0.088,0.226C73.791,30.932,73.768,30.937,73.744,30.937  L73.744,30.937z" fill="#808080"/>
<line fill="none" x1="143.572" x2="144.793" y1="187.604" y2="190.346"/>
<line fill="none" x1="143.572" x2="144.793" y1="187.604" y2="190.346"/>
<path d="M144.793,190.518c-0.064,0-0.127-0.039-0.156-0.103l-1.221-2.742c-0.039-0.087,0.002-0.188,0.088-0.228  c0.088-0.037,0.188,0,0.227,0.088l1.222,2.742c0.036,0.086,0,0.187-0.089,0.228C144.84,190.512,144.816,190.518,144.793,190.518  L144.793,190.518z" fill="#808080"/>
<line fill="none" x1="81.205" x2="82.131" y1="24.689" y2="27.544"/>
<line fill="none" x1="81.205" x2="82.131" y1="24.689" y2="27.544"/>
<path d="M82.131,27.717c-0.072,0-0.137-0.048-0.162-0.119l-0.928-2.855c-0.029-0.091,0.02-0.188,0.109-0.217  c0.09-0.028,0.188,0.021,0.217,0.111l0.93,2.855c0.027,0.089-0.021,0.187-0.113,0.215C82.166,27.714,82.15,27.717,82.131,27.717  L82.131,27.717z" fill="#808080"/>
<line fill="none" x1="135.186" x2="136.113" y1="190.82" y2="193.677"/>
<line fill="none" x1="135.186" x2="136.113" y1="190.82" y2="193.677"/>
<path d="M136.113,193.85c-0.074,0-0.141-0.045-0.164-0.119l-0.928-2.854c-0.029-0.09,0.021-0.187,0.11-0.216  c0.089-0.028,0.188,0.02,0.216,0.109l0.928,2.855c0.029,0.091-0.021,0.188-0.109,0.215  C136.146,193.848,136.129,193.85,136.113,193.85L136.113,193.85z" fill="#808080"/>
<line fill="none" x1="90.186" x2="90.813" y1="22.283" y2="25.219"/>
<line fill="none" x1="90.186" x2="90.813" y1="22.283" y2="25.219"/>
<path d="M90.813,25.391c-0.08,0-0.152-0.058-0.168-0.136l-0.625-2.938c-0.02-0.09,0.039-0.183,0.131-0.201  c0.098-0.02,0.186,0.039,0.203,0.131l0.625,2.936c0.02,0.093-0.039,0.185-0.131,0.205C90.834,25.39,90.822,25.391,90.813,25.391  L90.813,25.391z" fill="#808080"/>
<line fill="none" x1="126.506" x2="127.131" y1="193.146" y2="196.086"/>
<line fill="none" x1="126.506" x2="127.131" y1="193.146" y2="196.086"/>
<path d="M127.131,196.256c-0.08,0-0.152-0.056-0.168-0.137l-0.623-2.936c-0.021-0.094,0.037-0.185,0.131-0.203  c0.096-0.019,0.184,0.039,0.203,0.131l0.623,2.938c0.021,0.092-0.039,0.184-0.133,0.203  C127.154,196.254,127.141,196.256,127.131,196.256L127.131,196.256z" fill="#808080"/>
<line fill="none" x1="99.369" x2="99.686" y1="20.828" y2="23.813"/>
<line fill="none" x1="99.369" x2="99.686" y1="20.828" y2="23.813"/>
<path d="M99.686,23.983c-0.088,0-0.162-0.063-0.17-0.152L99.2,20.847c-0.006-0.094,0.061-0.18,0.154-0.189  c0.094-0.006,0.18,0.06,0.188,0.152l0.314,2.985c0.01,0.095-0.059,0.179-0.15,0.188C99.705,23.983,99.691,23.983,99.686,23.983  L99.686,23.983z" fill="#808080"/>
<line fill="none" x1="117.631" x2="117.945" y1="194.555" y2="197.538"/>
<line fill="none" x1="117.631" x2="117.945" y1="194.555" y2="197.538"/>
<path d="M117.945,197.71c-0.088,0-0.162-0.063-0.17-0.151l-0.314-2.985c-0.01-0.095,0.059-0.179,0.152-0.188  c0.096-0.011,0.178,0.059,0.188,0.151l0.314,2.987c0.008,0.093-0.062,0.177-0.154,0.188c-0.004,0-0.014,0-0.014,0L117.945,197.71  L117.945,197.71z" fill="#808080"/>
<g>
<g>
<path d="M152.297,32.437l-0.913,1.564c0.079,0.038,0.218,0.115,0.414,0.23c0.627,0.366,1.012,0.813,1.153,1.34    c0.143,0.528,0.029,1.108-0.34,1.741c-0.42,0.719-0.915,1.146-1.486,1.283c-0.57,0.136-1.234-0.017-1.99-0.458    c-0.431-0.251-0.855-0.583-1.273-0.997l0.434-0.742l0.008,0.005c0.439,0.44,0.8,0.744,1.081,0.908    c0.422,0.246,0.797,0.319,1.126,0.218c0.328-0.1,0.629-0.387,0.904-0.859c0.243-0.416,0.314-0.793,0.215-1.133    c-0.1-0.339-0.372-0.638-0.816-0.896c-0.307-0.18-0.623-0.345-0.947-0.497l1.783-3.058l3.248,1.895l-0.424,0.726L152.297,32.437z" fill="#808080"/>
</g>
</g>
<g>
<g>
<path d="M180.662,67.353l-0.679,0.387l-2.133-3.747l0.679-0.386l0.759,1.332l4.735-2.695l-1.063-1.158l0.679-0.387    l1.655,1.535l0.351,0.615l-5.699,3.244L180.662,67.353z" fill="#808080"/>
<path d="M188.047,67.032c0.372,0.653,0.422,1.279,0.146,1.877c-0.273,0.598-0.998,1.23-2.172,1.898    c-1.287,0.733-2.257,1.062-2.909,0.984c-0.651-0.076-1.165-0.443-1.54-1.104c-0.329-0.576-0.424-1.1-0.285-1.567    c0.137-0.468,0.414-0.88,0.83-1.234s0.955-0.72,1.617-1.097c1.152-0.656,2.063-0.947,2.732-0.876    C187.138,65.986,187.664,66.358,188.047,67.032z M182.271,70.279c0.164,0.288,0.447,0.407,0.847,0.358    c0.4-0.051,1.146-0.385,2.235-1.005c1.046-0.595,1.676-1.046,1.891-1.352c0.213-0.305,0.241-0.599,0.082-0.878    c-0.146-0.255-0.354-0.385-0.626-0.389s-0.58,0.072-0.926,0.229c-0.346,0.158-0.802,0.398-1.37,0.722    c-1.121,0.638-1.798,1.111-2.03,1.419C182.142,69.692,182.107,69.991,182.271,70.279z" fill="#808080"/>
</g>
</g>
<g>
<g>
<path d="M180.184,150.64l-0.734-0.429l2.195-3.762l0.46,0.27c0.438,0.256,0.784,0.559,1.035,0.908    c0.251,0.351,0.434,0.707,0.544,1.069c0.111,0.362,0.211,0.798,0.299,1.305c0.105,0.608,0.221,1.021,0.346,1.237    c0.126,0.217,0.282,0.379,0.468,0.487c0.326,0.19,0.622,0.247,0.887,0.17c0.267-0.076,0.499-0.288,0.701-0.634    c0.214-0.365,0.378-0.863,0.493-1.494l0.005-0.008l0.751,0.438c-0.147,0.646-0.371,1.227-0.674,1.744    c-0.372,0.639-0.795,1.042-1.268,1.211c-0.474,0.168-0.983,0.094-1.529-0.225c-0.306-0.179-0.564-0.43-0.773-0.752    c-0.21-0.322-0.385-0.895-0.525-1.72c-0.082-0.462-0.158-0.831-0.23-1.106c-0.073-0.276-0.179-0.535-0.318-0.776    c-0.141-0.242-0.332-0.441-0.575-0.599L180.184,150.64z" fill="#808080"/>
<path d="M184.033,156.956c-0.379,0.649-0.896,1.006-1.551,1.069c-0.654,0.063-1.565-0.247-2.731-0.928    c-1.28-0.746-2.05-1.422-2.312-2.023c-0.26-0.604-0.199-1.231,0.184-1.887c0.334-0.573,0.739-0.918,1.213-1.033    c0.475-0.115,0.969-0.082,1.484,0.101c0.517,0.182,1.103,0.465,1.761,0.849c1.145,0.668,1.854,1.31,2.127,1.926    C184.482,155.645,184.424,156.287,184.033,156.956z M178.328,153.588c-0.168,0.286-0.129,0.59,0.114,0.912    c0.243,0.321,0.907,0.797,1.99,1.43c1.04,0.606,1.745,0.926,2.117,0.959c0.371,0.031,0.638-0.092,0.801-0.37    c0.147-0.253,0.155-0.499,0.022-0.735c-0.133-0.238-0.354-0.467-0.662-0.688c-0.31-0.22-0.746-0.494-1.312-0.824    c-1.113-0.649-1.862-0.998-2.245-1.044C178.771,153.181,178.495,153.301,178.328,153.588z" fill="#808080"/>
</g>
</g>
<g>
<g>
<path d="M150.271,181.026l-0.42-0.738l3.785-2.154l0.264,0.462c0.251,0.441,0.397,0.877,0.439,1.307    c0.042,0.429,0.021,0.829-0.066,1.197c-0.085,0.37-0.217,0.795-0.395,1.279c-0.215,0.578-0.32,0.993-0.32,1.244    c0,0.25,0.053,0.469,0.159,0.656c0.187,0.328,0.415,0.525,0.683,0.591c0.269,0.067,0.576,0.001,0.924-0.196    c0.369-0.21,0.76-0.559,1.176-1.046l0.008-0.005l0.43,0.756c-0.449,0.484-0.936,0.875-1.456,1.172    c-0.642,0.365-1.21,0.502-1.704,0.411c-0.494-0.092-0.897-0.412-1.21-0.961c-0.175-0.308-0.272-0.654-0.293-1.038    s0.116-0.968,0.407-1.752c0.162-0.439,0.281-0.798,0.355-1.072c0.076-0.276,0.114-0.553,0.115-0.832    c-0.001-0.279-0.066-0.548-0.198-0.807L150.271,181.026z" fill="#808080"/>
<path d="M150.576,187.286l-0.896-1.574c-0.072,0.049-0.209,0.13-0.406,0.242c-0.631,0.359-1.211,0.468-1.738,0.327    c-0.529-0.142-0.975-0.53-1.336-1.167c-0.412-0.725-0.533-1.367-0.365-1.931c0.169-0.562,0.634-1.06,1.395-1.492    c0.434-0.247,0.934-0.447,1.5-0.602l0.426,0.747l-0.008,0.005c-0.603,0.159-1.046,0.319-1.328,0.48    c-0.425,0.241-0.676,0.529-0.753,0.863c-0.077,0.335,0.019,0.739,0.289,1.215c0.238,0.418,0.529,0.67,0.873,0.754    c0.343,0.083,0.738-0.003,1.186-0.257c0.308-0.176,0.61-0.366,0.905-0.571l1.75,3.076l-3.268,1.859l-0.414-0.729L150.576,187.286z    " fill="#808080"/>
</g>
</g>
<g>
<g>
<path d="M68.851,185.211c-0.826-0.482-1.392-0.699-1.695-0.65c-0.304,0.049-0.558,0.248-0.761,0.597    c-0.179,0.306-0.231,0.585-0.157,0.835s0.274,0.472,0.601,0.662c0.287,0.167,0.732,0.331,1.335,0.491l0.009,0.005l-0.433,0.742    c-0.606-0.176-1.122-0.39-1.549-0.639c-0.644-0.376-1.052-0.787-1.225-1.234c-0.172-0.448-0.107-0.931,0.194-1.447    c0.208-0.356,0.484-0.607,0.829-0.752c0.343-0.144,0.728-0.163,1.153-0.059c-0.353-0.3-0.558-0.641-0.616-1.023    s0.028-0.77,0.256-1.159c0.375-0.644,0.845-1.018,1.409-1.121c0.563-0.103,1.22,0.065,1.97,0.503    c0.45,0.264,0.873,0.598,1.268,1.006l-0.428,0.734l-0.008-0.006c-0.471-0.459-0.865-0.781-1.183-0.967    c-0.383-0.224-0.726-0.295-1.031-0.215c-0.305,0.081-0.57,0.313-0.794,0.699c-0.241,0.412-0.299,0.776-0.174,1.091    s0.606,0.716,1.441,1.203L68.851,185.211z" fill="#808080"/>
<path d="M62.112,183.806l0.913-1.564c-0.08-0.038-0.217-0.115-0.414-0.23c-0.627-0.366-1.012-0.813-1.154-1.341    c-0.143-0.527-0.029-1.107,0.34-1.74c0.42-0.72,0.915-1.147,1.487-1.284c0.571-0.135,1.235,0.018,1.991,0.459    c0.43,0.251,0.854,0.583,1.273,0.996l-0.433,0.743l-0.008-0.005c-0.44-0.441-0.8-0.744-1.082-0.908    c-0.421-0.246-0.796-0.319-1.125-0.218c-0.328,0.1-0.629,0.387-0.905,0.858c-0.243,0.416-0.314,0.794-0.215,1.134    c0.1,0.339,0.373,0.638,0.816,0.896c0.307,0.179,0.623,0.345,0.948,0.497l-1.784,3.058l-3.248-1.895l0.423-0.727L62.112,183.806z" fill="#808080"/>
</g>
</g>
<g>
<g>
<path d="M35.021,150.684l0.73-0.415l0.372,0.653l1.392-0.792l0.652,1.146l-1.393,0.793l1.449,2.546l-0.696,0.396    l-4.387-0.138l-1.374-0.044l-0.613-1.078l4.239-2.412L35.021,150.684z M36.99,154.143l-0.944-1.659l-2.788,1.587L36.99,154.143z" fill="#808080"/>
<path d="M29.165,150.332c-0.372-0.653-0.421-1.279-0.147-1.877s0.998-1.23,2.172-1.898    c1.288-0.733,2.257-1.062,2.91-0.984c0.652,0.076,1.166,0.443,1.541,1.104c0.328,0.576,0.424,1.1,0.285,1.567    c-0.138,0.468-0.415,0.88-0.831,1.234s-0.955,0.72-1.617,1.097c-1.152,0.656-2.063,0.947-2.732,0.876    C30.074,151.378,29.548,151.006,29.165,150.332z M34.939,147.085c-0.164-0.288-0.446-0.407-0.846-0.358    c-0.401,0.051-1.146,0.385-2.235,1.005c-1.046,0.595-1.677,1.046-1.892,1.352c-0.213,0.305-0.241,0.599-0.081,0.878    c0.145,0.255,0.354,0.385,0.625,0.389s0.581-0.072,0.926-0.229c0.345-0.158,0.802-0.398,1.371-0.722    c1.12-0.638,1.797-1.111,2.029-1.419C35.069,147.672,35.104,147.373,34.939,147.085z" fill="#808080"/>
</g>
</g>
<g>
<g>
<path d="M23.939,107.463l0.84,0.002l-0.002,0.752l1.602,0.004l-0.003,1.318l-1.602-0.004l-0.007,2.93l-0.801-0.002    l-3.739-2.299l-1.171-0.72l0.003-1.24l4.878,0.012L23.939,107.463z M23.931,111.443l0.004-1.91l-3.208-0.008L23.931,111.443z" fill="#808080"/>
<path d="M19.947,104.934l1.812,0.004c-0.007-0.088-0.01-0.246-0.009-0.474c0.001-0.726,0.195-1.283,0.58-1.671    s0.943-0.582,1.676-0.58c0.833,0.002,1.452,0.216,1.857,0.642c0.403,0.426,0.604,1.077,0.603,1.952    c-0.001,0.498-0.076,1.032-0.224,1.601l-0.859-0.002v-0.01c0.16-0.602,0.242-1.065,0.242-1.391    c0.002-0.488-0.124-0.849-0.376-1.083c-0.251-0.233-0.65-0.351-1.197-0.352c-0.481-0.001-0.844,0.126-1.088,0.383    c-0.243,0.257-0.365,0.642-0.366,1.156c-0.001,0.355,0.015,0.711,0.046,1.069l-3.54-0.008l0.01-3.76l0.84,0.002L19.947,104.934z" fill="#808080"/>
</g>
</g>
<g>
<g>
<path d="M192.402,108.758l-0.781-0.002l0.011-4.312l0.781,0.002l-0.004,1.533l5.449,0.013l-0.348-1.534    l0.781,0.002l0.673,2.155l-0.001,0.708l-6.558-0.016L192.402,108.758z" fill="#808080"/>
<path d="M198.055,111.463l-1.812-0.005c0.007,0.088,0.01,0.245,0.009,0.474c-0.001,0.727-0.195,1.283-0.58,1.671    s-0.943,0.581-1.676,0.579c-0.833-0.002-1.452-0.215-1.857-0.641c-0.403-0.426-0.604-1.077-0.603-1.953    c0.001-0.498,0.076-1.031,0.224-1.601l0.859,0.002v0.01c-0.16,0.603-0.242,1.065-0.242,1.392    c-0.002,0.488,0.124,0.849,0.376,1.082c0.251,0.233,0.65,0.351,1.197,0.352c0.481,0.002,0.844-0.126,1.088-0.383    c0.243-0.257,0.365-0.643,0.366-1.156c0.001-0.355-0.015-0.711-0.046-1.069l3.54,0.009l-0.01,3.76l-0.84-0.002L198.055,111.463z" fill="#808080"/>
</g>
</g>
<g>
<g>
<path d="M30.184,66.438l1.564,0.913c0.038-0.08,0.115-0.217,0.23-0.414c0.366-0.627,0.813-1.012,1.34-1.154    c0.528-0.143,1.108-0.029,1.741,0.34c0.719,0.42,1.146,0.916,1.283,1.487c0.136,0.571-0.017,1.235-0.458,1.991    c-0.251,0.43-0.583,0.854-0.997,1.273l-0.742-0.433l0.005-0.008c0.44-0.44,0.744-0.8,0.908-1.081    c0.246-0.422,0.319-0.797,0.218-1.126c-0.1-0.328-0.387-0.629-0.859-0.905c-0.416-0.243-0.793-0.314-1.133-0.215    c-0.339,0.1-0.638,0.373-0.896,0.816c-0.18,0.307-0.345,0.623-0.497,0.948l-3.058-1.784l1.895-3.248l0.726,0.423L30.184,66.438z" fill="#808080"/>
<path d="M32.548,60.564c0.379-0.649,0.896-1.006,1.551-1.069c0.654-0.063,1.565,0.247,2.731,0.927    c1.28,0.747,2.05,1.421,2.312,2.024c0.26,0.603,0.199,1.231-0.184,1.886c-0.334,0.573-0.739,0.918-1.213,1.033    c-0.475,0.115-0.969,0.082-1.484-0.101c-0.517-0.182-1.103-0.465-1.761-0.849c-1.145-0.668-1.854-1.309-2.127-1.925    C32.099,61.875,32.157,61.233,32.548,60.564z M38.253,63.933c0.168-0.287,0.129-0.591-0.114-0.912    c-0.243-0.322-0.907-0.798-1.99-1.43c-1.04-0.607-1.745-0.927-2.117-0.959c-0.371-0.031-0.638,0.091-0.801,0.37    c-0.147,0.253-0.155,0.499-0.022,0.736c0.133,0.238,0.354,0.466,0.662,0.687c0.31,0.22,0.746,0.495,1.312,0.824    c1.113,0.65,1.862,0.998,2.245,1.044C37.811,64.34,38.086,64.22,38.253,63.933z" fill="#808080"/>
</g>
</g>
<g>
<g>
<path d="M62.019,33.284l0.896,1.574c0.073-0.049,0.208-0.129,0.407-0.242c0.631-0.359,1.21-0.468,1.738-0.327    c0.527,0.141,0.973,0.53,1.335,1.167c0.412,0.724,0.534,1.367,0.366,1.93c-0.17,0.562-0.635,1.06-1.396,1.493    c-0.433,0.247-0.933,0.447-1.501,0.601l-0.425-0.747l0.009-0.005c0.602-0.159,1.045-0.319,1.328-0.48    c0.424-0.242,0.675-0.529,0.752-0.864c0.078-0.335-0.019-0.739-0.289-1.214c-0.238-0.418-0.529-0.67-0.873-0.754    c-0.344-0.083-0.738,0.003-1.186,0.257c-0.309,0.175-0.609,0.366-0.905,0.571l-1.751-3.077l3.268-1.859l0.416,0.729L62.019,33.284    z" fill="#808080"/>
<path d="M66.868,30.524l0.896,1.574c0.072-0.05,0.209-0.13,0.406-0.243c0.631-0.359,1.211-0.467,1.738-0.326    c0.529,0.141,0.975,0.53,1.336,1.167c0.412,0.724,0.533,1.367,0.365,1.93c-0.169,0.561-0.634,1.06-1.395,1.493    c-0.434,0.246-0.934,0.447-1.5,0.601l-0.426-0.747l0.008-0.004c0.603-0.159,1.046-0.319,1.328-0.48    c0.425-0.242,0.676-0.529,0.753-0.864c0.077-0.334-0.019-0.739-0.289-1.214c-0.238-0.419-0.529-0.67-0.873-0.754    c-0.343-0.083-0.738,0.002-1.186,0.257c-0.308,0.175-0.61,0.366-0.905,0.571l-1.75-3.077l3.268-1.859l0.414,0.73L66.868,30.524z" fill="#808080"/>
</g>
</g>
<g>
<g>
<path d="M112.979,196.258c-0.957-0.003-1.555,0.094-1.793,0.288c-0.238,0.195-0.357,0.494-0.358,0.897    c-0.001,0.354,0.094,0.622,0.283,0.802c0.19,0.179,0.475,0.27,0.852,0.271c0.332,0.001,0.8-0.081,1.402-0.246l0.01,0.001    l-0.002,0.859c-0.612,0.151-1.166,0.227-1.661,0.225c-0.745-0.001-1.305-0.152-1.679-0.453c-0.373-0.301-0.56-0.75-0.558-1.349    c0.001-0.413,0.115-0.769,0.339-1.066c0.226-0.297,0.549-0.507,0.969-0.63c-0.455-0.082-0.805-0.274-1.047-0.575    c-0.241-0.303-0.361-0.68-0.36-1.132c0.002-0.745,0.22-1.305,0.655-1.677c0.436-0.371,1.088-0.556,1.957-0.554    c0.521,0.001,1.055,0.079,1.602,0.233l-0.002,0.85h-0.01c-0.639-0.161-1.141-0.242-1.508-0.243c-0.443-0.001-0.776,0.109-1,0.332    s-0.336,0.557-0.337,1.003c-0.001,0.479,0.132,0.822,0.397,1.031c0.268,0.209,0.884,0.314,1.851,0.317L112.979,196.258z" fill="#808080"/>
<path d="M105.76,199.341c-0.752-0.002-1.319-0.27-1.702-0.805c-0.383-0.535-0.572-1.479-0.569-2.829    c0.004-1.481,0.201-2.485,0.591-3.014c0.391-0.527,0.965-0.791,1.723-0.789c0.664,0.001,1.165,0.179,1.502,0.531    c0.338,0.352,0.558,0.797,0.659,1.334s0.151,1.188,0.149,1.949c-0.003,1.325-0.202,2.26-0.598,2.806    C107.12,199.07,106.535,199.343,105.76,199.341z M105.81,192.715c-0.332-0.001-0.576,0.185-0.731,0.557    c-0.156,0.373-0.235,1.187-0.238,2.439c-0.003,1.204,0.075,1.975,0.234,2.313c0.159,0.336,0.399,0.506,0.721,0.507    c0.293,0.001,0.509-0.116,0.648-0.351c0.139-0.233,0.226-0.539,0.261-0.917s0.053-0.894,0.055-1.548    c0.003-1.289-0.071-2.111-0.224-2.466C106.384,192.894,106.142,192.716,105.81,192.715z" fill="#808080"/>
</g>
</g>
<g>
<g>
<path d="M106.757,18.645c0.752,0.002,1.319,0.271,1.702,0.806c0.383,0.535,0.572,1.478,0.569,2.828    c-0.004,1.481-0.201,2.486-0.591,3.015c-0.391,0.527-0.965,0.79-1.723,0.788c-0.664-0.001-1.165-0.178-1.502-0.53    c-0.338-0.353-0.558-0.798-0.659-1.335s-0.151-1.187-0.149-1.948c0.003-1.325,0.202-2.261,0.598-2.807    C105.397,18.915,105.982,18.644,106.757,18.645z M106.707,25.271c0.332,0.001,0.576-0.185,0.731-0.557s0.235-1.186,0.238-2.438    c0.003-1.204-0.075-1.975-0.234-2.313c-0.159-0.336-0.399-0.506-0.721-0.507c-0.293,0-0.509,0.116-0.648,0.351    c-0.139,0.233-0.226,0.539-0.261,0.917s-0.053,0.894-0.055,1.548c-0.003,1.289,0.071,2.111,0.224,2.467    C106.133,25.092,106.375,25.271,106.707,25.271z" fill="#808080"/>
<path d="M112.338,18.658c0.752,0.002,1.319,0.27,1.703,0.805c0.383,0.535,0.572,1.479,0.568,2.829    c-0.004,1.481-0.2,2.485-0.59,3.014c-0.391,0.527-0.965,0.791-1.724,0.789c-0.664-0.001-1.165-0.179-1.503-0.531    c-0.338-0.352-0.557-0.797-0.658-1.334s-0.15-1.188-0.148-1.949c0.002-1.325,0.201-2.26,0.598-2.806    C110.979,18.929,111.563,18.656,112.338,18.658z M112.288,25.284c0.332,0.001,0.575-0.185,0.731-0.557    c0.156-0.373,0.234-1.187,0.238-2.439c0.002-1.204-0.076-1.975-0.234-2.313c-0.158-0.336-0.398-0.506-0.721-0.507    c-0.293-0.001-0.51,0.116-0.648,0.351c-0.139,0.233-0.227,0.539-0.262,0.917s-0.053,0.894-0.055,1.548    c-0.003,1.289,0.072,2.111,0.225,2.466C111.714,25.105,111.956,25.283,112.288,25.284z" fill="#808080"/>
</g>
</g>
<g>
<g>
<path d="M168.133,115.24c0.813,0.486,2.664,1.299,4.68,1.299c3.642,0,4.812-2.307,4.777-4.096    c-0.033-2.958-2.697-4.225-5.461-4.225h-1.592v-2.145h1.592c2.08,0,4.713-1.072,4.713-3.575c0-1.69-1.072-3.185-3.705-3.185    c-1.689,0-3.314,0.748-4.225,1.397l-0.779-2.08c1.137-0.813,3.281-1.625,5.557-1.625c4.16,0,6.045,2.47,6.045,5.038    c0,2.21-1.332,4.063-3.899,5.005v0.065c2.603,0.488,4.683,2.438,4.713,5.396c0,3.381-2.664,6.338-7.703,6.338    c-2.37,0-4.45-0.748-5.491-1.431L168.133,115.24z" fill="#808080"/>
</g>
</g>
<polygon fill="#666666" points="69.436,42.469 68.24,40.408 69.971,39.404 71.166,41.465 "/>
<polygon fill="#666666" points="148.031,178.596 146.835,176.535 148.564,175.531 149.762,177.59 "/>
<polygon fill="#666666" points="108.002,31.6 107.996,29.219 109.996,29.213 110.002,31.595 "/>
<polygon fill="#666666" points="108.004,188.786 107.998,186.404 109.998,186.4 110.004,188.781 "/>
<polygon fill="#666666" points="148.568,42.467 146.836,41.469 148.023,39.404 149.758,40.403 "/>
<polygon fill="#666666" points="69.977,178.596 68.244,177.598 69.433,175.533 71.166,176.531 "/>
<polygon fill="#666666" points="176.533,71.164 175.532,69.434 177.594,68.241 178.596,69.973 "/>
<polygon fill="#666666" points="40.404,149.759 39.406,148.025 41.469,146.836 42.469,148.568 "/>
<polygon fill="#666666" points="188.784,110 186.402,110 186.402,108 188.784,108 "/>
<polygon fill="#666666" points="31.598,110.001 29.216,110.001 29.216,108.001 31.598,108.001 "/>
<polygon fill="#666666" points="177.596,149.758 175.533,148.566 176.531,146.835 178.596,148.025 "/>
<polygon fill="#666666" points="41.467,71.166 39.404,69.974 40.405,68.242 42.468,69.435 "/>
<polygon fill="#666666" points="108.002,31.6 107.996,29.219 109.996,29.213 110.002,31.595 "/>
<polygon fill="#666666" points="108.004,188.786 107.998,186.404 109.998,186.4 110.004,188.781 "/>
<polygon fill="#666666" points="148.568,42.467 146.836,41.469 148.023,39.404 149.758,40.403 "/>
<polygon fill="#666666" points="69.977,178.596 68.244,177.598 69.433,175.533 71.166,176.531 "/>
<polygon fill="#666666" points="176.533,71.164 175.532,69.434 177.594,68.241 178.596,69.973 "/>
<polygon fill="#666666" points="40.404,149.759 39.406,148.025 41.469,146.836 42.469,148.568 "/>
<polygon fill="#666666" points="188.784,110 186.402,110 186.402,108 188.784,108 "/>
<polygon fill="#666666" points="31.598,110.001 29.216,110.001 29.216,108.001 31.598,108.001 "/>
<polygon fill="#666666" points="177.596,149.758 175.533,148.566 176.531,146.835 178.596,148.025 "/>
<polygon fill="#666666" points="41.467,71.166 39.404,69.974 40.405,68.242 42.468,69.435 "/>
<polygon fill="#666666" points="148.027,178.596 146.835,176.533 148.566,175.531 149.759,177.594 "/>
<polygon fill="#666666" points="69.433,42.469 68.241,40.404 69.974,39.404 71.165,41.469 "/>
<polygon fill="#666666" points="148.568,42.467 146.836,41.469 148.023,39.404 149.758,40.403 "/>
<polygon fill="#666666" points="69.977,178.596 68.244,177.598 69.433,175.533 71.166,176.531 "/>
<polygon fill="#666666" points="176.533,71.164 175.532,69.434 177.594,68.241 178.596,69.973 "/>
<polygon fill="#666666" points="40.404,149.759 39.406,148.025 41.469,146.836 42.469,148.568 "/>
<polygon fill="#666666" points="188.784,110 186.402,110 186.402,108 188.784,108 "/>
<polygon fill="#666666" points="31.598,110.001 29.216,110.001 29.216,108.001 31.598,108.001 "/>
<polygon fill="#666666" points="177.596,149.758 175.533,148.566 176.531,146.835 178.596,148.025 "/>
<polygon fill="#666666" points="41.467,71.166 39.404,69.974 40.405,68.242 42.468,69.435 "/>
<polygon fill="#666666" points="148.027,178.596 146.835,176.533 148.566,175.531 149.759,177.594 "/>
<polygon fill="#666666" points="69.433,42.469 68.241,40.404 69.974,39.404 71.165,41.469 "/>
<polygon fill="#666666" points="110,188.784 108,188.784 108,186.402 110,186.402 "/>
<polygon fill="#666666" points="110,31.599 108,31.599 108,29.216 110,29.216 "/>
</svg>
